<svg width="161" height="160" viewBox="0 0 161 160" fill="none" xmlns="http://www.w3.org/2000/svg">
<path d="M152.832 115L119.499 150L96.1652 125.5L106.165 115L119.499 129L142.832 104.5L152.832 115ZM83.4985 135.3C80.8319 136 78.8319 136 76.1652 136C46.8319 136 22.8319 110.8 22.8319 80C22.8319 49.2 46.8319 24 76.1652 24C105.499 24 129.499 49.2 129.499 80C129.499 82.8 129.499 84.9 128.832 87.7C133.499 88.4 137.499 89.8 141.499 91.9C142.165 87.7 142.832 84.2 142.832 80C142.832 41.5 112.832 10 76.1652 10C39.4985 10 9.49854 41.5 9.49854 80C9.49854 118.5 39.4985 150 76.1652 150C80.1652 150 84.1652 149.3 87.4985 148.6C85.4985 145.1 84.1652 140.2 83.4985 135.3ZM100.165 94.7L79.4985 82.1V45H69.4985V87L92.8319 101.7C94.8319 98.9 97.4985 96.8 100.165 94.7Z" fill="#958060"/>
</svg>
