<svg width="24" height="24" viewBox="0 0 24 24" fill="#A2A2A2" xmlns="http://www.w3.org/2000/svg" class="my-icon">
<path d="M4.22222 22C3.61111 22 3.08778 21.7826 2.65222 21.3478C2.21741 20.9122 2 20.3889 2 19.7778V5.88889C2 5.61111 2.0463 5.36111 2.13889 5.13889C2.23148 4.91667 2.35185 4.7037 2.5 4.5L4.05556 2.61111C4.2037 2.40741 4.38889 2.25444 4.61111 2.15222C4.83333 2.05074 5.07407 2 5.33333 2H18.6667C18.9259 2 19.1667 2.05074 19.3889 2.15222C19.6111 2.25444 19.7963 2.40741 19.9444 2.61111L21.5 4.5C21.6481 4.7037 21.7685 4.91667 21.8611 5.13889C21.9537 5.36111 22 5.61111 22 5.88889V19.7778C22 20.3889 21.7826 20.9122 21.3478 21.3478C20.9122 21.7826 20.3889 22 19.7778 22H4.22222ZM4.94677 5.0038C4.83635 5.1337 4.92867 5.33333 5.09915 5.33333H18.9008C19.0713 5.33333 19.1636 5.1337 19.0532 5.0038L18.4488 4.29269C18.4108 4.24799 18.3551 4.22222 18.2964 4.22222H5.7036C5.64493 4.22222 5.58921 4.24799 5.55121 4.29269L4.94677 5.0038ZM4.42222 7.55556C4.31177 7.55556 4.22222 7.6451 4.22222 7.75556V19.5778C4.22222 19.6882 4.31177 19.7778 4.42222 19.7778H19.5778C19.6882 19.7778 19.7778 19.6882 19.7778 19.5778V7.75556C19.7778 7.6451 19.6882 7.55556 19.5778 7.55556H4.42222Z" />
<path d="M12 17V9" stroke="currentColor" stroke-width="2" stroke-linecap="round"/>
<path d="M12 17L8 11.9615" stroke="currentColor" stroke-width="2" stroke-linecap="round"/>
<path d="M16 11.9619L12 17.0004" stroke="currentColor" stroke-width="2" stroke-linecap="round"/>
</svg>
