<svg width="24" height="24" viewBox="0 0 24 24" fill="none" xmlns="http://www.w3.org/2000/svg" class="my-icon">  
    <rect x="2.25" y="2.25" width="18.5" height="18.5" rx="2.75" stroke="currentColor" stroke-width="2.5"/>  
    <path d="M14.745 9.71191C15.4276 9.71191 16.0356 9.84525 16.569 10.1119C17.113 10.3786 17.5396 10.7892 17.849 11.3439C18.1583 11.8879 18.313 12.5919 18.313 13.4559V18.3519H16.313V13.7119C16.313 12.9546 16.1316 12.3892 15.769 12.0159C15.417 11.6426 14.921 11.4559 14.281 11.4559C13.8116 11.4559 13.3956 11.5519 13.033 11.7439C12.6703 11.9359 12.3876 12.2239 12.185 12.6079C11.993 12.9812 11.897 13.4559 11.897 14.0319V18.3519H9.89697V9.80791H11.801V12.1119L11.465 11.4079C11.7636 10.8639 12.1956 10.4479 12.761 10.1599C13.337 9.86125 13.9983 9.71191 14.745 9.71191Z" fill="currentColor"/>  
    <path d="M5.272 18.352V9.808H7.272V18.352H5.272ZM6.28 8.4C5.90667 8.4 5.59733 8.28267 5.352 8.048C5.11733 7.81333 5 7.53067 5 7.2C5 6.85867 5.11733 6.576 5.352 6.352C5.59733 6.11733 5.90667 6 6.28 6C6.65333 6 6.95733 6.112 7.192 6.336C7.43733 6.54933 7.56 6.82133 7.56 7.152C7.56 7.504 7.44267 7.80267 7.208 8.048C6.97333 8.28267 6.664 8.4 6.28 8.4Z" fill="currentColor"/>  
</svg> 
