<svg width="608" height="570" viewBox="0 0 608 570" fill="none" xmlns="http://www.w3.org/2000/svg">
<path fill-rule="evenodd" clip-rule="evenodd" d="M242.338 21.5474C235.784 33.3981 230.139 43.5771 229.794 44.1674L229.165 45.2403H160.448H91.7302V176.299V307.357H96.7992H101.868L100.305 309.376C98.5207 311.681 97.9005 313.553 98.1226 315.968L98.2774 317.65L94.4383 322.49C83.7463 335.969 78.2416 343.5 71.3561 354.07C68.5296 358.409 67.252 360.018 64.1986 363.085C59.3577 367.947 58.275 369.672 56.6297 375.146C55.9116 377.535 54.7083 381.241 53.9551 383.382C53.2023 385.523 52.6655 387.491 52.7628 387.756C53.0134 388.439 54.1096 388.35 55.3992 387.542C57.2508 386.382 58.2526 385.205 59.3959 382.844L60.4893 380.587L63.3939 379.172C64.9915 378.394 66.3184 377.775 66.3424 377.798C66.3668 377.82 66.2407 378.667 66.0625 379.68C65.6755 381.881 66.126 383.197 67.5028 383.887C68.7769 384.525 69.628 383.821 71.0838 380.926C71.74 379.621 73.2561 377.278 74.4528 375.72C75.6498 374.162 77.0598 371.947 77.5861 370.798C78.4732 368.863 78.5579 368.357 78.7395 363.897L78.9354 359.085L96.9429 346.868L114.951 334.652L118.11 334.408C119.847 334.274 121.317 334.212 121.375 334.27C121.617 334.508 112.35 362.165 108.491 372.721C102.575 388.905 99.9306 396.781 97.5969 405.169C90.9831 428.941 88.5985 445.316 89.4594 461.052L89.83 467.828L89.0815 469.381C87.8125 472.012 84.7942 479.277 82.8816 484.303C80.6638 490.131 79.45 494.038 76.554 504.672C73.3515 516.431 66.9531 541.49 63.6325 555.279C62.7359 559.001 61.8563 562.529 61.6775 563.119L61.3528 564.192H47.6133C34.6801 564.192 33.883 564.158 34.028 563.615C34.615 561.416 34.4435 561.551 36.6388 561.551C38.7605 561.551 40.1061 561.06 41.4197 559.805C42.4442 558.826 42.4085 556.805 41.3536 556.083C40.1288 555.244 38.7887 555.757 36.8167 557.818C35.5113 559.182 35.1429 559.431 35.2936 558.851C35.4686 558.175 35.776 556.327 36.3175 552.696L36.4812 551.599L38.4759 551.823C40.6681 552.068 42.6789 551.41 43.8112 550.076C44.6538 549.084 44.4149 547.346 43.3509 546.725C42.0307 545.955 40.1838 546.706 38.1341 548.848L36.4439 550.614V546.183V541.753L38.7814 541.959C40.7828 542.135 41.3201 542.064 42.5206 541.456C43.2918 541.066 44.0996 540.401 44.316 539.978C44.9201 538.8 44.6304 537.384 43.6712 536.824C42.381 536.071 40.1939 537.067 38.0731 539.373L36.3851 541.209L36.5734 538.588C36.6767 537.146 36.8483 535.241 36.9541 534.354L37.1468 532.742L39.128 532.935C42.2186 533.237 44.6136 532.213 45.3134 530.29C45.6119 529.469 45.2445 528.299 44.5315 527.801C43.0814 526.79 40.0287 528.406 37.8403 531.345C37.3702 531.977 37.3575 531.962 37.5499 531.015C37.9717 528.941 39.816 524.742 40.2577 524.85C43.9268 525.753 45.9882 525.528 47.3795 524.075C48.254 523.161 48.3782 521.58 47.6367 520.805C46.6112 519.733 43.4836 520.537 41.5776 522.362C41.1865 522.736 40.8668 522.914 40.8668 522.756C40.8668 522.599 40.676 522.743 40.4425 523.077C40.0704 523.609 40.0208 523.444 40.0385 521.737C40.0735 518.381 38.3565 515.917 36.3488 516.444C35.8506 516.574 35.298 517.088 34.9935 517.703C34.0151 519.68 35.3009 521.997 38.2604 523.591C38.9991 523.989 39.6031 524.381 39.6031 524.462C39.6031 524.544 39.3674 525.086 39.079 525.667C38.7909 526.248 38.1581 527.838 37.6728 529.199C37.1607 530.637 36.7841 531.344 36.7753 530.886C36.7529 529.733 35.4895 527.271 34.4517 526.359C31.6466 523.893 28.8763 527.63 31.4871 530.358C32.4364 531.35 33.133 531.658 35.9242 532.317C36.6707 532.494 36.792 532.656 36.6284 533.258C36.5197 533.659 36.3415 535.212 36.2325 536.71C36.0348 539.423 35.7302 540.123 35.3808 538.667C35.2794 538.246 34.6886 537.355 34.0675 536.687C32.6336 535.144 31.1484 535.013 30.1485 536.342C29.1701 537.641 29.3192 538.668 30.6947 540.106C31.6504 541.104 32.2965 541.448 33.854 541.784L35.812 542.206V545.881C35.812 547.903 35.7252 549.648 35.6187 549.759C35.5122 549.87 35.1107 549.338 34.7262 548.576C33.9854 547.107 32.3255 545.705 31.3282 545.705C30.3734 545.705 29.1777 547.184 29.1777 548.365C29.1777 549.831 30.804 551.44 32.9637 552.111C33.8985 552.401 34.8469 552.638 35.0718 552.638C35.5208 552.638 35.4759 553.104 34.627 557.26C34.0546 560.064 33.6006 560.925 33.6006 559.206C33.6006 558.06 32.3606 554.988 31.4488 553.876C31.1778 553.546 30.5352 553.298 29.9466 553.298C28.2441 553.298 26.9166 555.453 26.5906 558.745C26.5015 559.642 26.4241 559.548 25.7708 557.755C25.374 556.666 24.6369 555.038 24.133 554.138L23.2165 552.502L25.3282 551.316C27.0171 550.367 27.5924 549.831 28.2005 548.642C29.1028 546.876 28.9486 545.666 27.7131 544.82C26.9315 544.285 26.8339 544.289 25.7585 544.899C24.4133 545.661 23.1745 547.963 22.9401 550.135L22.7806 551.614L20.4507 548.177C19.169 546.287 18.1204 544.662 18.1204 544.567C18.1204 544.472 18.9544 543.954 19.9739 543.417C23.1316 541.751 24.5121 539.261 23.2564 537.495C21.9516 535.66 19.8959 536.569 18.5577 539.572C18.147 540.494 17.8092 541.806 17.8077 542.487C17.8058 543.168 17.6936 543.725 17.5578 543.725C17.3142 543.725 14.2352 538.47 13.8457 537.389C13.6906 536.96 14.0321 536.629 15.3296 535.95C17.2835 534.928 18.3169 534.016 18.9402 532.765C19.5629 531.514 19.4925 530.303 18.7523 529.529C16.8931 527.587 14.0583 530.271 13.446 534.553L13.1968 536.297L12.5235 533.656C11.2627 528.707 11.2061 529.105 13.2754 528.37C16.054 527.383 17.8045 525.497 17.8045 523.49C17.8045 521.806 15.7488 521.052 14.1474 522.149C13.1908 522.804 11.802 525.187 11.802 526.175C11.802 526.567 11.6598 526.888 11.4861 526.888C11.3123 526.888 11.1619 527.148 11.1515 527.466C11.1344 527.994 11.1003 527.99 10.7566 527.422C9.34031 525.081 7.29977 523.587 5.51892 523.587C4.50765 523.587 3.27208 524.858 3.27208 525.898C3.27208 526.841 4.4391 528.097 5.87117 528.696C6.89223 529.122 7.68709 529.206 9.15455 529.042L11.0908 528.826L11.4927 531.076C11.7138 532.313 12.0873 533.902 12.3223 534.605C12.9014 536.339 12.8783 536.381 11.881 535.406C10.0609 533.627 7.64065 532.9 5.96816 533.63C4.72374 534.173 4.33453 535.158 4.85011 536.458C5.48448 538.059 7.74712 538.682 10.2224 537.939C13.2334 537.034 13.3813 537.013 13.3838 537.496C13.3854 537.745 14.0156 539.099 14.7849 540.506C15.5542 541.913 16.126 543.064 16.0559 543.064C15.9857 543.064 15.3662 542.758 14.6788 542.384C12.4149 541.151 9.79903 541.587 9.39623 543.264C9.10305 544.483 9.74848 545.67 11.0027 546.218C12.4793 546.863 13.5696 546.82 15.7611 546.032C16.7768 545.667 17.7037 545.481 17.8212 545.619C18.0433 545.881 20.9823 550.494 21.4164 551.262C21.6091 551.603 21.4616 551.593 20.7615 551.214C20.2646 550.946 19.2745 550.562 18.5618 550.362C15.5093 549.504 13.3737 552.098 15.4651 554.124C16.6845 555.305 18.5302 555.475 20.9337 554.629C22.0334 554.242 22.9695 553.97 23.014 554.024C23.5751 554.711 25.8239 560.561 25.5266 560.561C25.4331 560.561 25.0432 560.199 24.6606 559.758C23.7053 558.654 21.6474 557.59 20.4706 557.59C18.351 557.59 17.3862 560.211 18.9488 561.725C20.0447 562.786 21.6224 563.057 24.1131 562.611C25.2372 562.411 26.1853 562.276 26.22 562.312C26.2548 562.348 26.3811 562.786 26.5009 563.285L26.7189 564.192H13.4527C0.45216 564.192 0.183311 564.206 0.0212427 564.853C-0.159781 565.576 -0.230231 565.575 46.7903 565.513C58.959 565.497 61.0858 565.564 61.0858 565.964C61.0858 566.618 63.1639 568.459 64.7028 569.17C66.8703 570.171 68.8063 570.248 72.9679 569.501C75.0723 569.123 77.5602 568.809 78.4966 568.802C79.433 568.796 81.1232 568.578 82.2526 568.319C83.382 568.059 84.7424 567.841 85.2753 567.835C86.7412 567.818 89.4755 566.878 90.168 566.155C90.7711 565.525 91.6393 565.513 136.896 565.513H183.01L183.364 566.204C183.558 566.585 184.519 567.279 185.497 567.747C188.44 569.155 194.453 569.132 205.778 567.67C207.776 567.412 211.401 567.034 213.834 566.83C216.267 566.626 219.252 566.246 220.468 565.986C222.366 565.58 240.433 565.513 347.53 565.513C470.13 565.513 472.399 565.524 473.425 566.148C477.177 568.426 487.608 569.121 498.322 567.805C501.363 567.431 505.714 566.996 507.993 566.838C510.437 566.668 512.622 566.337 513.323 566.031C514.327 565.593 516.247 565.513 525.731 565.513H536.952L538.353 566.863C540.597 569.024 542.785 569.901 546.026 569.938C548.503 569.966 548.879 569.885 550.07 569.061C550.797 568.559 551.675 567.558 552.034 566.822L552.684 565.491L564.598 565.513C602.158 565.582 602.576 565.575 602.576 564.853C602.576 564.204 602.365 564.192 590.729 564.192C584.213 564.192 578.882 564.099 578.882 563.984C578.882 563.87 579.183 562.628 579.551 561.225L580.22 558.675L583.788 558.491C587.598 558.295 589.332 557.744 591.449 556.056C593.892 554.109 594.473 551.205 592.808 549.26C591.998 548.312 591.7 548.185 590.36 548.209C589.471 548.225 588.29 548.528 587.533 548.936C585.634 549.957 582.75 552.84 581.879 554.587C580.951 556.449 580.909 555.984 581.707 552.693C582.245 550.474 583.122 544.81 583.376 541.909C583.434 541.244 583.614 540.953 583.922 541.024C584.174 541.081 585.819 541.214 587.577 541.317C590.104 541.467 591.11 541.389 592.387 540.946C596.833 539.403 598.825 535.685 596.599 533.084C595.751 532.093 595.527 532.007 593.835 532.026C592.499 532.042 591.554 532.284 590.394 532.908C587.983 534.206 585.648 536.274 584.713 537.941C584.253 538.762 583.784 539.433 583.67 539.433C583.556 539.433 583.503 535.852 583.553 531.475L583.643 523.516L584.343 523.722C584.727 523.835 586.415 524.021 588.093 524.136C590.516 524.301 591.483 524.228 592.786 523.782C595.229 522.947 596.77 521.742 597.551 520.056C598.15 518.765 598.19 518.416 597.871 517.304C597.67 516.603 597.119 515.71 596.645 515.319C594.17 513.278 587.822 516.494 584.885 521.276C584.327 522.184 583.794 522.927 583.7 522.927C583.232 522.927 584.434 508.433 584.946 507.898C585.045 507.794 586.084 507.883 587.255 508.096C591.717 508.908 595.335 508.067 597.764 505.654C599.69 503.742 599.708 500.762 597.8 499.367C595.251 497.501 589.03 500.738 586.149 505.43C585.591 506.338 585.09 507.081 585.035 507.081C584.705 507.081 586.578 501.024 588.132 497.07C589.259 494.198 589.482 493.848 590.067 494.015C592.6 494.738 595.957 495.25 597.367 495.128C599.573 494.936 602.523 493.384 603.445 491.929C604.473 490.307 604.394 488.553 603.232 487.197C602.367 486.186 602.184 486.12 600.306 486.147C597.734 486.183 594.805 487.59 592.268 490.006L590.458 491.73L591.362 490.08C591.859 489.172 593.084 487.055 594.083 485.376C595.083 483.696 595.834 482.322 595.754 482.322C595.563 482.322 591.896 488.255 590.704 490.492C590.197 491.445 589.69 492.225 589.578 492.225C589.466 492.226 589.515 491.594 589.686 490.823C590.205 488.49 589.781 485.113 588.675 482.765C587.248 479.737 585.289 478.551 583.228 479.468C580.527 480.67 579.731 483.561 581.224 486.751C582.277 488.998 583.603 490.226 586.779 491.895L589.272 493.205L587.869 496.3C587.098 498.002 585.989 500.918 585.406 502.779C584.399 505.997 583.937 506.461 583.937 504.252C583.937 502.978 582.836 500.304 581.571 498.504C580.281 496.666 578.189 495.197 576.864 495.197C574.05 495.197 572.149 498.409 573.214 501.365C573.655 502.59 575.597 504.673 577.005 505.433C578.116 506.032 580.753 506.813 583.077 507.23C583.733 507.348 584.204 507.557 584.123 507.694C583.931 508.017 583.078 514.756 582.803 518.112L582.589 520.724L582.049 519.237C580.419 514.75 576.937 511.784 574.348 512.677C571.07 513.807 570.527 517.718 573.223 520.774C574.692 522.44 576.476 523.307 580.094 524.115L582.727 524.702L582.548 526.043C582.449 526.78 582.347 529.801 582.321 532.756C582.276 537.822 582.001 539.54 581.541 537.624C581.184 536.141 578.958 532.892 577.586 531.854C575.182 530.034 572.381 530.694 571.259 533.345C570.448 535.261 570.856 536.964 572.598 538.939C574.124 540.669 575.71 541.482 579.04 542.243C580.43 542.561 581.614 542.863 581.672 542.915C582.022 543.228 580.524 550.919 579.264 555.279L578.739 557.095L578.559 554.548C578.409 552.438 578.145 551.505 577.016 549.101C576.266 547.506 575.496 545.854 575.304 545.43C574.549 543.762 571.934 543.223 570.14 544.365C568.206 545.598 566.552 549.669 566.487 553.358C566.465 554.591 566.414 555.565 566.373 555.522C566.333 555.479 565.862 554.292 565.327 552.883C564.239 550.019 562.153 545.579 560.993 543.659L560.229 542.394L562.593 541.268C567.009 539.166 569.239 536.915 570.058 533.737C570.674 531.347 569.323 529.028 567.095 528.65C563.813 528.094 559.927 533.788 559.927 539.155C559.927 540.221 559.785 541.084 559.611 541.084C559.437 541.084 559.295 540.955 559.295 540.797C559.295 540.639 557.45 537.78 555.196 534.443L551.097 528.375L552.748 527.624C557.213 525.59 559.262 523.932 560.537 521.321C562.384 517.538 560.136 513.699 556.662 514.701C553.604 515.583 550.38 522.099 550.849 526.448C550.945 527.337 550.885 527.791 550.69 527.665C549.947 527.186 544.598 518.004 543.842 515.913C543.539 515.074 543.592 514.972 544.534 514.561C550.66 511.884 553.608 508.749 553.608 504.913C553.608 503.614 553.446 503.215 552.534 502.261C549.908 499.517 546.274 501.843 544.096 507.663C543.611 508.959 543.38 510.302 543.364 511.918C543.351 513.217 543.239 514.214 543.115 514.134C542.738 513.892 541.015 507.945 540.673 505.71C540.497 504.558 540.373 503.062 540.397 502.386C540.441 501.175 540.47 501.148 542.523 500.442C543.668 500.049 545.152 499.44 545.82 499.089C548.916 497.465 551.363 493.735 550.927 491.306C550.611 489.548 549.213 488.264 547.614 488.264C545.328 488.264 543.543 489.744 541.466 493.362L540.339 495.323V491.26V487.197L542.191 485.007C544.311 482.499 544.923 481.383 545.402 479.149C545.855 477.038 545.532 475.283 544.474 474.099C543.283 472.767 541.664 472.484 540.04 473.325L538.785 473.973L538.438 472.123C537.606 467.693 535.814 460.495 534.485 456.248L533.049 451.653L533.518 448.748C534.138 444.918 535.139 436.097 535.816 428.512C536.612 419.583 536.615 398.147 535.821 391.703C534.06 377.422 529.203 359.816 524.188 349.533C523.668 348.466 523.634 348.095 523.942 346.818C524.138 346.004 524.232 344.777 524.152 344.092C523.981 342.643 526.114 324.754 526.506 324.343C526.734 324.105 532.32 338.793 533.291 342.185C534.26 345.57 534.331 346.145 534.334 350.651C534.337 356.1 534.764 361.213 535.5 364.633C535.774 365.904 537.183 370.037 538.63 373.817L541.262 380.69L542.853 391.15L544.445 401.611L543.782 403.425C542.929 405.762 542.901 407.356 543.594 413.987C544.366 421.363 544.395 421.526 545.096 422.258C545.929 423.129 546.858 423.065 547.735 422.076L548.466 421.252L548.665 422.984C548.774 423.936 548.866 425.458 548.868 426.366C548.874 429.123 550.459 431.04 552.013 430.171C552.801 429.731 553.345 428.655 554.187 425.871C554.544 424.691 555.348 422.51 555.973 421.024C557.507 417.375 558.14 414.12 557.906 411.082C557.673 408.05 556.699 404.029 555.372 400.617L554.346 397.976L554.605 388.237C555.148 367.836 554.376 358.524 551.208 347.297C549.906 342.68 549.875 342.518 548.564 333.107C548.045 329.385 547.254 323.888 546.805 320.892C546.309 317.579 545.883 312.923 545.718 309.008C545.242 297.669 543.798 292.783 539.743 288.786C536.317 285.408 532.207 283.504 524.227 281.598C521.02 280.831 514.275 278.579 512.8 277.782C512.309 277.517 511.906 277.157 511.906 276.984C511.906 276.657 512.075 276.605 515.224 275.969C518.098 275.387 523.086 273.481 526.45 271.679C531.03 269.225 531.098 269.14 528.409 269.188C525.731 269.236 525.216 268.903 525.778 267.485C526.137 266.581 526.906 265.89 530.785 262.985C532.913 261.391 534.539 259.309 535.308 257.194C536.411 254.161 535.959 247.564 534.395 243.869C534.06 243.077 532.893 241.402 531.801 240.148C529.428 237.42 528.855 236.161 528.221 232.286C527.832 229.909 527.517 229.007 526.572 227.574C525.049 225.262 522.061 222.937 517.751 220.71C509.156 216.268 500.177 214.345 497.342 216.338C495.895 217.356 495.338 219.117 495.782 221.278C495.963 222.158 496.11 222.928 496.11 222.988C496.11 223.049 494.867 223.502 493.346 223.994C486.708 226.147 482.315 229.597 481.109 233.607C480.314 236.246 480.347 238.913 481.196 240.613L481.866 241.958L480.367 243.108C478.296 244.697 475.789 247.533 474.911 249.28C473.738 251.616 473.865 254.448 475.265 257.179C476.612 259.805 479.542 262.867 482.353 264.585C484.556 265.931 486.143 267.565 485.804 268.138C485.688 268.334 484.885 268.415 483.906 268.331C482.24 268.186 482.218 268.196 482.762 268.827C484.423 270.759 489.727 273.931 492.24 274.497C492.805 274.624 493.267 274.915 493.267 275.144C493.267 276.444 488.529 276.992 484.129 276.201C480.707 275.586 477.538 275.516 475.345 276.008C472.359 276.677 469.262 279.944 465.325 286.579C463.459 289.725 461.545 292.187 461.255 291.817C461.194 291.74 460.194 287.665 459.034 282.763L456.924 273.85L456.93 159.545L456.936 45.2403H371.795H286.654V176.299V307.357H365.328C427.994 307.357 444.027 307.441 444.121 307.77C445.533 312.7 446.096 314.216 447.338 316.436C449.116 319.61 453.26 324.071 455.441 325.158C458.581 326.723 458.597 326.718 465.308 321.769C468.609 319.335 471.397 317.395 471.502 317.457C471.607 317.52 471.794 319.247 471.916 321.295C472.039 323.343 472.339 327.205 472.583 329.876C472.843 332.725 472.968 336.692 472.884 339.472L472.742 344.211L470.985 346.994C468.68 350.647 464.584 359.366 462.932 364.136C461.351 368.699 459.73 375.199 458.938 380.149C458.14 385.144 458.139 396.198 458.938 402.432C460.96 418.216 464.694 434.986 471.618 459.379C473.14 464.738 474.142 468.963 474.478 471.428C475.49 478.864 477.724 489.219 479.642 495.362C480.153 496.996 481.648 501.12 482.965 504.527C486.514 513.704 489.699 524.744 492.159 536.388C493.505 542.761 493.518 542.904 492.982 545.87C492.575 548.121 492.497 548.254 489.993 550.932C485.768 555.452 481.695 558.707 479.166 559.582C474.774 561.102 472.416 562.561 472.416 563.759C472.416 564.116 450.499 564.192 347.982 564.192H223.547L223.699 562.785C223.906 560.866 223.316 560.244 219.837 558.72C218.273 558.035 214.292 556.179 210.991 554.595L204.988 551.716L204.897 548.479L204.806 545.243L203.11 543.385C201.606 541.738 201.39 541.322 201.197 539.712C201.078 538.713 201.109 524.241 201.267 507.551C201.425 490.861 201.508 475.942 201.451 474.399C200.855 458.333 200.763 457.094 199.927 453.766C197.493 444.078 196.718 440.581 194.696 430.163C193.48 423.899 190.782 409.281 188.7 397.68C185.424 379.428 184.973 376.515 185.354 376.057C185.941 375.353 186.411 373.644 186.667 371.285C186.884 369.284 187.449 367.368 188.823 363.973C189.455 362.41 197.426 335.168 199.906 326.092C200.192 325.048 200.57 324.193 200.748 324.193C200.926 324.193 202.45 324.808 204.136 325.56C207.668 327.135 216.595 330.678 219.837 331.792C221.147 332.242 222.627 333.054 223.47 333.785C227.056 336.895 230.714 337.694 234.121 336.112C238.086 334.27 241.154 328.555 241.165 322.991C241.168 321.736 241.496 320.04 242.1 318.157C242.612 316.562 243.264 313.665 243.55 311.72C243.836 309.774 244.122 307.997 244.185 307.77C244.274 307.452 246.344 307.357 253.157 307.357H262.012V176.299V45.2403H246.343H230.673L231.374 44.0023C231.76 43.3216 236.907 33.9996 242.813 23.2871C248.719 12.5747 253.894 3.25302 254.311 2.57198L255.071 1.33402H260.934C266.348 1.33402 266.789 1.28979 266.691 0.75631C266.595 0.233396 266.001 0.170012 260.42 0.0894618L254.256 0L242.338 21.5474ZM278.124 1.49908C278.124 1.93254 280.055 1.99427 293.604 1.99427C307.154 1.99427 309.085 1.93254 309.085 1.49908C309.085 1.06563 307.154 1.0039 293.604 1.0039C280.055 1.0039 278.124 1.06563 278.124 1.49908ZM278.184 9.50455C278.284 10.0453 279.271 10.0823 293.604 10.0823C307.937 10.0823 308.925 10.0453 309.025 9.50455C309.125 8.96084 308.221 8.92683 293.604 8.92683C278.987 8.92683 278.084 8.96084 278.184 9.50455ZM278.124 17.51C278.124 18.1613 278.335 18.1703 293.604 18.1703C308.874 18.1703 309.085 18.1613 309.085 17.51C309.085 16.8587 308.874 16.8498 293.604 16.8498C278.335 16.8498 278.124 16.8587 278.124 17.51ZM92.9677 46.6984C92.8954 46.774 92.872 105.156 92.9159 176.436L92.9955 306.037H97.9163H102.837L105.202 303.41C108.163 300.121 110.23 298.943 112.579 299.207L114.161 299.384L117.083 296.881C121.01 293.516 130.444 286.141 133.677 283.908L136.291 282.103L133.282 282.008C130.532 281.922 130.273 281.858 130.273 281.266C130.273 280.655 130.509 280.617 134.382 280.617H138.491L142.043 278.831C145.932 276.874 149.052 275.771 151.566 275.462C153.164 275.265 153.213 275.226 154.214 273.338C155.435 271.036 157.809 268.407 159.519 267.465L160.759 266.781L145.516 266.767C130.488 266.753 130.273 266.743 130.273 266.092C130.273 265.44 130.483 265.432 147.49 265.432C156.96 265.432 164.708 265.344 164.708 265.237C164.708 265.129 164.2 264.424 163.579 263.669C162.054 261.813 160.48 258.304 159.44 254.438L158.579 251.236H144.426C130.483 251.236 130.273 251.227 130.273 250.576C130.273 249.926 130.483 249.916 144.278 249.916H158.283L157.871 247.853C157.255 244.759 156.721 239.086 156.895 237.474L157.048 236.051H143.661C130.483 236.051 130.273 236.041 130.273 235.391C130.273 234.741 130.483 234.73 143.657 234.73H157.041L157.584 232.337C159.301 224.779 163.905 219.908 171.229 217.902C174.114 217.112 180.431 216.455 182.192 216.761C183.259 216.947 183.393 216.898 183.294 216.36C183.185 215.77 182.016 215.745 149.776 215.664C116.635 215.581 116.372 215.575 116.372 214.921C116.372 214.267 116.608 214.263 149.756 214.263C181.106 214.263 183.177 214.227 183.752 213.685C184.552 212.929 188.581 212.965 190.614 213.747C191.656 214.147 193.006 214.284 195.669 214.26C197.667 214.241 206.375 214.234 215.019 214.245C230.52 214.262 230.736 214.272 230.736 214.923C230.736 215.573 230.525 215.583 216.519 215.583C208.575 215.583 202.303 215.711 202.303 215.873C202.303 216.032 202.507 216.34 202.756 216.556C203.836 217.493 206.41 225.523 206.41 227.956C206.41 229.564 205.532 232.283 204.664 233.359C204.234 233.894 203.883 234.42 203.883 234.53C203.883 234.64 204.4 234.73 205.032 234.73C206.03 234.73 206.504 234.409 208.621 232.295C212.563 228.359 216.963 226.477 222.222 226.477C227.8 226.477 232.408 228.478 236.306 232.591C243.746 240.441 243.874 253.072 236.593 261.024L234.557 263.248L236.979 266.651C238.311 268.522 239.494 270.053 239.607 270.053C239.721 270.053 240.172 269.487 240.611 268.795C241.049 268.103 241.902 266.989 242.507 266.319C243.469 265.253 243.789 265.102 245.083 265.102C247.092 265.102 248.112 266.129 248.112 268.153C248.112 269.443 248.25 269.705 249.525 270.818C251.237 272.313 252.345 274.21 252.969 276.715C253.226 277.746 253.588 278.888 253.775 279.252C253.962 279.616 254.114 280.197 254.114 280.543C254.114 281.442 252.288 285.141 251.735 285.362C250.953 285.676 251.208 286.525 252.686 288.531L254.101 290.453L252.923 291.367C252.275 291.87 251.582 292.41 251.383 292.568C251.141 292.76 250.52 292.141 249.506 290.698C248.672 289.511 247.869 288.54 247.722 288.54C247.575 288.54 246.914 288.828 246.254 289.18L245.053 289.82L244.85 295.865C244.739 299.19 244.553 302.839 244.439 303.974L244.231 306.037H252.49H260.749V176.299V46.5608L245.347 46.5634L229.946 46.5657L229.193 47.9664C228.778 48.7366 226.628 52.635 224.416 56.6295C222.203 60.624 217.815 68.5466 214.665 74.2356C211.515 79.9242 208.937 84.7199 208.937 84.8922C208.937 85.0646 209.16 85.295 209.432 85.4043C210.347 85.771 215.924 92.5801 218.147 96.0438C222.039 102.109 224.81 109.027 226.36 116.547C227.338 121.29 227.423 133.069 226.516 138.17C225.168 145.752 221.449 154.941 217.235 161.1C213.016 167.266 206.392 173.632 200.351 177.327C195.16 180.502 188.473 183.104 182.434 184.298C179.39 184.9 177.665 185.022 172.29 185.014C166.507 185.006 165.388 184.911 161.833 184.126C151.9 181.934 143.066 177.232 135.34 170.026C123.374 158.864 116.39 139.994 117.929 122.984C118.868 112.621 122.338 102.776 127.993 94.4354C130.561 90.6473 136.429 84.4241 139.983 81.7188C147.482 76.0106 156.728 72.1594 165.773 70.9763C170.231 70.3929 179.395 70.7412 183.506 71.6497C191.735 73.469 200.461 77.7058 206.536 82.8313C207.678 83.7952 207.796 83.8286 208.151 83.2898C208.514 82.7392 212.038 76.3767 222.874 56.712C225.5 51.946 227.775 47.9053 227.929 47.7327C228.994 46.5376 230.313 46.5608 160.654 46.5608C123.499 46.5608 93.04 46.6225 92.9677 46.6984ZM287.918 176.298V306.037L365.872 306.036L443.825 306.036L443.79 296.215C443.77 290.573 443.603 285.482 443.397 284.249C442.966 281.658 442.276 269.888 442.517 269.231C442.635 268.909 441.785 268.225 439.782 267.028C437.808 265.848 435.986 264.387 434.103 262.473C430.84 259.156 430.494 258.208 431.66 255.769C432.222 254.593 432.293 254.161 432.013 253.614C431.205 252.038 431.774 250.206 433.66 248.312C434.279 247.69 434.848 246.738 434.955 246.142C435.24 244.554 437.393 242.653 438.908 242.653C439.267 242.653 439.56 242.525 439.56 242.369C439.56 241.736 437.071 237.411 435.678 235.623C434.485 234.093 434.19 233.465 434.19 232.458C434.19 230.849 434.949 230.106 436.584 230.116C439.296 230.132 442.251 232.279 445.212 236.386L447.113 239.022L447.428 237.827C447.851 236.226 448.633 235.391 449.707 235.391C451.314 235.391 452.165 236.854 454.262 243.22C454.933 245.257 455.525 246.878 455.579 246.823C455.631 246.768 455.675 201.723 455.675 146.724V46.7258L371.796 46.6426L287.918 46.5594V176.298ZM485.816 55.7768C485.744 55.8524 485.685 56.1122 485.685 56.3545C485.685 56.717 489.581 56.7945 507.8 56.7945C527.157 56.7945 529.914 56.7335 529.914 56.3037C529.914 55.8752 527.135 55.8022 507.931 55.7259C495.84 55.6784 485.889 55.7012 485.816 55.7768ZM485.685 64.0572C485.685 64.7112 485.896 64.7175 507.8 64.7175C529.703 64.7175 529.914 64.7112 529.914 64.0572C529.914 63.4033 529.703 63.397 507.8 63.397C485.896 63.397 485.685 63.4033 485.685 64.0572ZM359.208 71.1582C343.899 73.7539 330.475 82.6973 321.974 95.9655C310.99 113.108 309.679 135.083 318.541 153.509C321.354 159.357 323.855 163.002 328.494 168.014C334.082 174.051 340.961 178.735 348.575 181.685C368.589 189.44 391.514 184.161 406.337 168.386C415.535 158.595 420.916 146.44 422.196 132.558C422.828 125.705 421.933 117.515 419.79 110.546C413.642 90.5495 398.282 76.1001 378.429 71.6382C374.274 70.7042 363.476 70.4345 359.208 71.1582ZM163.602 72.618C152.862 74.602 143.262 79.6839 135.554 87.4652C127.209 95.8896 122.064 105.774 119.887 117.562C117.116 132.569 120.828 149.346 129.54 161.188L130.931 163.08L136.089 158.766L141.248 154.453L141.405 152.414C141.626 149.534 144.433 143.886 146.798 141.564C148.288 140.101 152.418 138.134 156.116 137.127L159.372 136.241L159.162 133.574C159.029 131.88 158.739 130.546 158.367 129.917C157.165 127.883 156.071 125.575 155.551 123.974L155.014 122.324L153.251 122.122C151.24 121.893 149.085 120.712 148.085 119.292C145.535 115.671 145.042 111.6 146.877 109.322L147.66 108.349L144.89 102.719C142.198 97.2497 142.12 97.0262 142.13 94.8514C142.143 92.0159 142.868 89.8011 144.777 86.7568C149.198 79.709 158.987 73.6701 165.44 74.0107C167.393 74.1137 168.184 74.3613 170.828 75.6967C172.532 76.5576 174.246 77.2621 174.637 77.2621C175.028 77.2621 176.555 76.8254 178.029 76.2916C183.193 74.4217 186.271 74.2507 189.817 75.6373C194.542 77.4843 196.63 81.2077 195.932 86.5409C195.569 89.3119 193.82 93.0043 191.89 95.0752C190.49 96.5779 187.176 98.6177 185.305 99.1287C184.728 99.2865 184.744 99.5292 185.762 105.856C187.403 116.066 187.852 119.854 187.653 121.829C187.405 124.29 186.169 129.218 184.796 133.218C184.173 135.033 183.664 136.607 183.664 136.714C183.664 136.822 184.268 137.096 185.006 137.324C187.66 138.143 190.121 139.791 192.669 142.457C195.464 145.38 196.678 147.58 197.489 151.194L197.985 153.399L205.277 158.391C209.289 161.136 212.808 163.477 213.099 163.594C213.742 163.851 215.773 161.288 218.129 157.243C227.792 140.657 228.774 120.782 220.782 103.507C213.276 87.2797 198.502 75.6581 181.525 72.6252C176.763 71.7745 168.187 71.7709 163.602 72.618ZM358.331 72.6513C351.069 73.988 342.519 77.7094 336.57 82.1218C332.708 84.986 326.538 91.4329 323.924 95.335C318.91 102.82 315.776 110.963 314.426 120.013C313.801 124.201 313.948 132.852 314.722 137.381C316.517 147.885 321.069 157.627 327.823 165.419L329.344 167.174L333.194 165.817C335.311 165.071 338.465 163.989 340.203 163.413C344.907 161.852 354.879 156.873 354.89 156.079C354.892 155.942 354.147 155.831 353.235 155.83C350.851 155.829 346.145 154.906 344.764 154.17C343.365 153.424 341.902 151.661 340.84 149.442C340.019 147.724 339.881 147.833 339.658 150.381C339.606 150.965 339.369 151.409 339.076 151.467C337.809 151.718 333.295 146.193 332.113 142.945C330.607 138.803 331.667 133.081 336.084 121.514C339.36 112.933 339.707 111.366 340.349 102.208C340.628 98.2311 340.796 97.3359 341.583 95.6054C342.848 92.8254 344.461 91.0173 346.736 89.8292C348.354 88.9844 349.048 88.8164 350.918 88.8164C352.151 88.8164 353.602 88.9491 354.143 89.1112C355.086 89.3938 355.214 89.3043 357.284 86.9165C360.787 82.8745 364.741 80.1956 369.584 78.5826C372.357 77.6589 379.271 77.2839 382.019 77.9085C387.546 79.1646 392.2 83.2155 394.985 89.1964C398.359 96.4396 398.73 103.292 396.087 109.556C395.445 111.077 395.254 111.284 394.668 111.089C394.043 110.882 394.063 110.974 394.927 112.303C398.712 118.118 401.097 125.24 401.432 131.732C401.609 135.164 401.094 140.648 400.361 143.136C399.114 147.366 397.684 149.243 394.541 150.777C392.962 151.547 392.224 151.702 390.119 151.703L387.591 151.705V149.311C387.591 147.995 387.549 146.918 387.497 146.918C387.445 146.918 386.433 147.946 385.247 149.202C384.061 150.458 382.291 151.958 381.313 152.535C380.335 153.112 379.535 153.779 379.535 154.019C379.535 154.259 380.068 154.894 380.72 155.43C384.749 158.744 392.703 162.855 400.045 165.417L405.599 167.355L406.945 165.802C418.93 151.975 423.63 133.569 419.773 115.562C418.226 108.342 415.346 101.573 411.202 95.4188C408.518 91.4326 402.352 84.989 398.566 82.2133C392.06 77.444 384.134 73.9982 376.556 72.6444C371.587 71.7567 363.171 71.76 358.331 72.6513ZM484.421 78.9127V82.5441H528.966H573.511V78.9127V75.2814H528.966H484.421V78.9127ZM485.897 76.4906C485.78 76.6124 485.685 77.7269 485.685 78.9679V81.2236H528.98H572.275L572.182 78.8302L572.09 76.4368L529.099 76.353C505.454 76.3071 486.013 76.3688 485.897 76.4906ZM484.421 91.1273V94.7586H506.694H528.966V91.1273V87.4959H506.694H484.421V91.1273ZM485.685 91.1273V93.4381H506.694H527.703V91.1273V88.8164H506.694H485.685V91.1273ZM173.803 98.3272C172.71 99.3823 171.363 100.575 170.808 100.977C170.034 101.539 169.778 101.991 169.703 102.927C169.611 104.072 169.457 104.232 167.183 105.562C164.083 107.375 163.094 107.597 162.214 106.677C161.294 105.716 161.348 104.215 162.332 103.407L163.114 102.763L161.792 102.543C161.065 102.421 159.86 102.04 159.114 101.695C158.368 101.35 157.759 101.097 157.759 101.132C157.76 101.167 158.112 102.236 158.542 103.507C158.972 104.778 159.327 106.381 159.331 107.069C159.34 108.806 158.293 110.773 156.816 111.795L155.571 112.656L155.48 115.344L155.389 118.032H154.29C153.219 118.032 153.135 117.931 150.815 113.825C149.508 111.511 148.362 109.617 148.27 109.616C147.793 109.61 147.017 111.714 147.017 113.008C147.017 117.181 150.564 121.105 154.022 120.758C155.751 120.584 155.898 120.709 156.47 122.819C157.093 125.121 158.871 128.413 160.572 130.412C161.421 131.41 162.175 132.153 162.247 132.062C162.32 131.972 162.277 130.486 162.151 128.761C161.764 123.412 161.817 117.99 162.26 117.608C162.979 116.99 164.751 116.916 167.511 117.389C171.101 118.004 171.119 118.003 170.733 117.25C170.559 116.911 170.507 116.54 170.617 116.425C171.012 116.012 171.62 116.229 171.809 116.852C172.14 117.942 174.444 120.178 175.236 120.178C176.113 120.178 177.346 118.909 177.342 118.011C177.341 117.659 176.702 114.482 175.922 110.95C174.98 106.683 174.61 104.418 174.819 104.199C175.025 103.984 175.241 103.982 175.444 104.194C175.614 104.372 176.428 107.596 177.251 111.358L178.749 118.197L180.495 118.199C181.456 118.2 182.786 118.359 183.452 118.552C184.758 118.931 185.285 119.798 185.736 122.31C185.959 123.554 185.985 123.578 186.269 122.805C186.735 121.541 186.281 116.801 184.833 107.798L183.506 99.5454L182.4 99.4595C180.014 99.2743 179.209 98.9772 177.684 97.7175C176.813 96.9978 176.03 96.4092 175.944 96.4092C175.859 96.4092 174.895 97.2725 173.803 98.3272ZM363.887 96.7238C360.699 97.2391 358.602 99.4321 356.868 104.065C355.638 107.354 354.793 110.565 353.931 115.222C353.579 117.125 353.17 118.81 353.022 118.964C352.873 119.12 352.18 118.85 351.476 118.363C346.719 115.074 343.661 119.399 345.914 126.229C346.593 128.286 349.085 130.949 351.549 132.248C353.124 133.079 353.563 133.517 354.35 135.041C356.779 139.747 359.719 143.137 362.808 144.792C365.251 146.102 369.118 146.308 372.058 145.285C376.857 143.617 381.531 138.904 385.096 132.141L386.012 130.404L384.948 127.189C383.864 123.915 380.136 114.023 378.917 111.185C378.451 110.102 378.005 109.557 377.468 109.416C376.501 109.162 375.126 109.504 374.413 110.175C373.855 110.701 372.901 110.559 372.901 109.95C372.901 109.416 374.821 108.308 376.139 108.082C376.791 107.97 377.324 107.799 377.324 107.702C377.324 107.383 374.722 102.559 373.581 100.761C372.952 99.7689 371.909 98.6666 371.183 98.2245C369.226 97.0328 366.036 96.3765 363.887 96.7238ZM41.1827 99.38C34.9644 101.119 30.1896 105.193 27.4392 111.105C24.552 117.31 24.6925 124.883 27.8113 131.171C29.5233 134.623 33.2831 138.493 36.6309 140.25C40.155 142.098 42.5892 142.712 46.3954 142.712C52.3913 142.712 56.8193 140.799 61.1079 136.354C64.2529 133.094 66.059 129.765 66.9487 125.587C67.657 122.26 67.4358 116.982 66.4593 113.906C64.3625 107.302 59.4199 102.13 53.0266 99.8487C49.56 98.6121 44.625 98.4167 41.1827 99.38ZM176.279 99.4701C175.534 100.045 175.504 101.665 176.228 102.218C176.526 102.446 177.767 102.818 178.986 103.046C181.643 103.542 182.242 103.286 182.242 101.655C182.242 100.605 182.144 100.502 180.662 99.9881C178.098 99.0987 176.938 98.9617 176.279 99.4701ZM484.421 103.507V107.307L514.671 107.222L544.92 107.138V103.507V99.8755L514.671 99.7913L484.421 99.7071V103.507ZM41.2465 100.708C37.7859 101.655 35.3552 103.161 32.4623 106.146C28.3759 110.364 26.6607 114.658 26.6541 120.686C26.6497 124.478 27.1529 126.864 28.5831 129.836C30.0749 132.936 32.789 136.354 33.7592 136.354C33.8183 136.354 33.9585 135.916 34.071 135.38C34.7411 132.192 38.8364 128.049 42.4275 126.925L44.3429 126.325L43.3923 125.907C39.3147 124.116 37.3774 118.854 39.2818 114.743C40.4845 112.147 43.7496 109.944 46.3954 109.944C48.17 109.944 50.4538 111.017 51.8928 112.527C53.5476 114.264 54.139 115.862 54.1286 118.566C54.1166 121.643 52.3051 124.541 49.6024 125.805L48.3725 126.38L49.4374 126.621C50.8641 126.944 53.3811 128.286 54.8956 129.533C56.2967 130.686 58.4134 133.923 58.7199 135.38C58.8323 135.916 59.0402 136.354 59.1814 136.354C59.3226 136.354 60.2274 135.463 61.192 134.375C63.1226 132.195 64.9227 128.678 65.6619 125.638C66.2739 123.123 66.2676 118.639 65.6487 115.886C63.9901 108.511 58.0343 102.288 50.9763 100.555C48.1801 99.8679 44.0791 99.9326 41.2465 100.708ZM485.685 103.507V105.983H514.75H543.815V103.507V101.031H514.75H485.685V103.507ZM178.925 108.597C178.925 110.316 179.184 110.935 179.906 110.935C180.391 110.935 180.504 110.69 180.504 109.641C180.504 107.922 180.245 107.303 179.523 107.303C179.038 107.303 178.925 107.548 178.925 108.597ZM361.133 108.976C359.986 109.609 359.621 110.354 360.257 110.765C360.427 110.875 360.964 110.658 361.45 110.282C362.431 109.524 363.615 109.367 365.398 109.758C366.385 109.975 366.582 109.928 366.582 109.478C366.582 108.224 363.081 107.902 361.133 108.976ZM167.552 110.238C167.552 111.825 168.601 113.382 169.133 112.585C169.557 111.951 169.274 110.326 168.604 109.553C167.82 108.648 167.552 108.822 167.552 110.238ZM44.5467 111.604C40.4084 112.9 38.5571 117.94 40.767 121.894C42.9484 125.797 48.8779 126.207 51.4852 122.635C53.6604 119.655 53.4847 116.224 51.0215 113.571C49.0928 111.493 46.9638 110.846 44.5467 111.604ZM484.421 115.886V119.518H503.377H522.332V115.886V112.255H503.377H484.421V115.886ZM485.685 115.886V118.197H503.377H521.068V115.886V113.576H503.377H485.685V115.886ZM372.069 114.396C371.637 115.574 372.249 118.708 373.361 121C375.079 124.543 374.767 125.777 372.071 126.1C370.992 126.23 370.531 126.433 370.531 126.78C370.531 127.138 370.953 127.304 372.046 127.377C373.412 127.468 373.667 127.366 374.652 126.337C375.96 124.97 376.082 123.622 375.077 121.651C374.71 120.932 374.201 119.931 373.945 119.428C373.689 118.924 373.385 117.525 373.269 116.318C373.063 114.171 372.49 113.251 372.069 114.396ZM363.62 117.25C362.663 118.677 363.291 121.215 364.483 120.737C365.266 120.423 365.311 117.744 364.548 116.929C364.201 116.559 364.047 116.612 363.62 117.25ZM375.7 117.671C375.191 118.838 375.704 120.673 376.538 120.673C377.356 120.673 377.866 119.166 377.457 117.953C377.05 116.741 376.167 116.6 375.7 117.671ZM163.76 118.655C163.76 118.725 164.179 118.847 164.691 118.926C165.204 119.004 165.551 118.947 165.463 118.798C165.306 118.533 163.76 118.404 163.76 118.655ZM166.861 119.083C167.088 119.178 167.361 119.167 167.466 119.057C167.571 118.947 167.384 118.869 167.051 118.884C166.683 118.899 166.608 118.978 166.861 119.083ZM163.518 121.168C163.518 121.804 163.583 122.064 163.662 121.746C163.742 121.429 163.742 120.908 163.662 120.591C163.583 120.273 163.518 120.533 163.518 121.168ZM165.403 120.777C165.066 121.011 165.083 121.659 165.492 124.32C166.168 128.71 166.904 132.037 167.44 133.135C167.81 133.893 168.089 134.043 169.124 134.043C171.012 134.043 171.891 133.448 173.115 131.342C175.034 128.042 175.992 128.087 177.761 131.565C178.314 132.654 178.99 133.588 179.264 133.642C180.586 133.901 183.141 129.447 183.529 126.206C183.66 125.111 183.599 123.897 183.375 123.116L183.006 121.829H180.403C178.971 121.829 176.098 121.617 174.018 121.357C168.076 120.617 165.846 120.467 165.403 120.777ZM166.288 121.681C166.288 122.416 169.852 124.067 172.789 124.692C175.648 125.301 178.767 125.013 178.767 124.139C178.767 123.736 178.358 123.665 176.552 123.756C174.043 123.883 171.114 123.211 168.769 121.969C167.02 121.043 166.288 120.958 166.288 121.681ZM163.469 124.662C163.485 125.047 163.56 125.125 163.66 124.862C163.752 124.623 163.74 124.339 163.635 124.229C163.53 124.119 163.456 124.314 163.469 124.662ZM484.421 128.266V132.065L518.62 131.981L552.818 131.897V128.266V124.635L518.62 124.551L484.421 124.467V128.266ZM163.506 126.285C163.512 126.83 163.583 127.013 163.663 126.692C163.744 126.37 163.738 125.925 163.652 125.701C163.565 125.478 163.5 125.741 163.506 126.285ZM485.685 128.266V130.742H518.699H551.713V128.266V125.79H518.699H485.685V128.266ZM361.212 127.367C361.212 128.725 363.403 131.242 365.477 132.266C367.995 133.51 373.003 133.285 374.461 131.862C375.229 131.114 374.552 130.927 372.816 131.409C370.588 132.028 367.593 131.95 366.244 131.239C364.884 130.522 363.193 128.875 362.598 127.688C362.088 126.67 361.212 126.467 361.212 127.367ZM43.4018 127.97C41.0996 128.616 39.3801 129.709 37.7401 131.569C36.3017 133.199 34.7502 136.318 34.9202 137.237C35.0696 138.047 39.1131 140.217 41.5609 140.801C42.7247 141.079 44.9002 141.306 46.3954 141.306C47.8907 141.306 50.0661 141.079 51.23 140.801C53.7229 140.207 57.7219 138.044 57.8764 137.206C58.0748 136.132 56.0797 132.499 54.4511 130.969C51.1589 127.876 47.3843 126.852 43.4018 127.97ZM184.636 127.963C184.651 128.348 184.726 128.426 184.827 128.163C184.918 127.925 184.907 127.64 184.802 127.53C184.697 127.421 184.623 127.615 184.636 127.963ZM174.978 131.068C174.867 131.255 174.994 131.311 175.275 131.198C175.822 130.979 175.923 130.742 175.468 130.742C175.305 130.742 175.084 130.889 174.978 131.068ZM183.247 131.72C182.85 132.423 182.804 132.741 183.076 132.916C183.306 133.065 183.361 133.012 183.22 132.774C183.096 132.564 183.128 132.393 183.292 132.393C183.563 132.393 184.066 131.053 183.871 130.849C183.826 130.801 183.545 131.193 183.247 131.72ZM176.397 132.723C176.752 133.449 177.113 134.043 177.2 134.043C177.287 134.043 177.068 133.449 176.713 132.723C176.359 131.996 175.997 131.402 175.91 131.402C175.824 131.402 176.043 131.996 176.397 132.723ZM182.043 133.63C181.651 134.154 181.662 134.166 182.163 133.755C182.689 133.324 182.856 133.053 182.596 133.053C182.531 133.053 182.282 133.313 182.043 133.63ZM181.913 135.716C181.798 135.909 181.772 136.139 181.855 136.225C181.938 136.312 182.09 136.153 182.193 135.873C182.406 135.291 182.225 135.189 181.913 135.716ZM484.421 140.479V144.277H508.442H532.462L532.373 140.563L532.283 136.849L508.352 136.765L484.421 136.68V140.479ZM156.02 138.522C151.712 139.73 148.091 141.758 146.631 143.782C145.659 145.129 145.44 145.71 145.439 146.94C145.434 151.714 149.175 157.313 155.12 161.428C157.308 162.943 163.249 166.162 165.524 167.066C166.318 167.381 166.333 167.362 166.118 166.315C165.894 165.22 165.674 164.706 163.666 160.592C161.548 156.253 160.499 151.024 159.733 141.002C159.602 139.292 159.353 137.855 159.18 137.809C159.006 137.763 157.584 138.084 156.02 138.522ZM168.974 138.006C169.186 138.364 171.027 139.436 171.027 139.201C171.027 139.124 170.521 138.748 169.902 138.367C169.283 137.985 168.866 137.823 168.974 138.006ZM179.083 138.335C178.975 138.516 179.038 138.665 179.222 138.665C179.406 138.665 179.557 138.516 179.557 138.335C179.557 138.153 179.494 138.005 179.417 138.005C179.34 138.005 179.19 138.153 179.083 138.335ZM181.669 139.001C181.007 139.52 180.321 139.994 180.145 140.055C179.949 140.124 180.133 141.44 180.622 143.46C182.302 150.399 182.785 153.16 183.019 157.152C183.254 161.156 184.523 168.376 184.991 168.376C185.311 168.376 187.499 165.285 188.709 163.124C191.482 158.171 192.917 151.494 192.365 146.107C192.183 144.336 191.957 143.688 191.21 142.799C189.679 140.977 186.477 139.081 183.506 138.237C183.102 138.122 182.437 138.399 181.669 139.001ZM485.685 140.478V142.956H508.445H531.206L531.113 140.563L531.02 138.17L508.352 138.085L485.685 138V140.478ZM177.918 138.89C178.146 138.986 178.418 138.974 178.523 138.864C178.628 138.755 178.442 138.677 178.109 138.691C177.741 138.707 177.666 138.785 177.918 138.89ZM176.654 139.22C176.882 139.316 177.155 139.304 177.259 139.194C177.364 139.085 177.178 139.007 176.845 139.021C176.477 139.037 176.402 139.115 176.654 139.22ZM172.536 139.567C173.279 139.637 174.416 139.636 175.063 139.565C175.71 139.494 175.102 139.437 173.712 139.438C172.322 139.439 171.792 139.497 172.536 139.567ZM176.081 141.02C175.299 141.193 171.697 142.627 168.076 144.207L161.492 147.08L161.705 149.16C162.586 157.752 166.856 165.494 171.492 166.902C173.787 167.599 175.385 167.396 177.298 166.163C178.988 165.074 180.568 162.594 181.346 159.81C182.071 157.218 181.747 153.808 180.103 146.753C178.568 140.16 178.755 140.427 176.081 141.02ZM358.47 144.714C358.583 145.577 358.768 148.099 358.882 150.317L359.088 154.351L357.811 155.557C357.108 156.22 355.153 157.612 353.465 158.65L350.397 160.537L359.357 169.904C364.285 175.056 368.406 179.234 368.514 179.188C368.869 179.038 386.644 161.307 386.603 161.144C386.581 161.056 385.231 160.111 383.602 159.044C379.33 156.245 378.41 155.207 377.484 152.145C377.061 150.746 376.543 148.626 376.333 147.435C376.123 146.242 375.858 145.267 375.744 145.267C375.63 145.267 374.624 145.67 373.508 146.161C371.727 146.946 371.055 147.057 368.004 147.069C364.863 147.082 364.352 146.996 362.685 146.18C361.671 145.684 360.261 144.798 359.553 144.211L358.264 143.145L358.47 144.714ZM193.589 149.346C193.537 156.567 191.272 162.806 186.592 168.62L185.2 170.35L185.925 174.028L186.651 177.706L188.012 176.095C191.281 172.224 194.714 165.849 195.813 161.608C196.619 158.501 196.793 153.745 196.19 151.297C195.699 149.299 194.351 146.133 193.858 145.82C193.724 145.735 193.603 147.322 193.589 149.346ZM143.262 150.027C141.788 154.145 142.34 155.419 147.859 160.634C150.971 163.575 152.605 164.985 157.357 168.83C158.919 170.094 162.201 173.891 164.435 177.018C165.865 179.021 165.919 178.904 166.177 173.207L166.374 168.871L163.567 167.632C156.909 164.695 151.521 160.952 148.344 157.058C146.584 154.901 144.493 150.947 144.484 149.762C144.482 149.378 144.356 148.86 144.205 148.611C144.01 148.289 143.739 148.696 143.262 150.027ZM484.421 152.86V156.491H511.275H538.128V152.86V149.229H511.275H484.421V152.86ZM485.685 152.86V155.171H511.275H536.864V152.86V150.549H511.275H485.685V152.86ZM41.6566 152.997C32.0933 155.283 25.3866 164.14 25.3866 174.483C25.3866 180.65 27.3453 185.598 31.5424 190.034C35.6171 194.341 40.4514 196.462 46.2612 196.492C52.0659 196.522 57.0414 194.4 61.0858 190.168C63.7437 187.386 65.1568 185.086 66.3965 181.526C67.1591 179.335 67.2393 178.665 67.2393 174.483C67.2393 170.301 67.1591 169.631 66.3965 167.44C65.1805 163.947 63.7591 161.618 61.233 158.979C57.109 154.669 53.014 152.825 47.1852 152.652C44.873 152.583 42.8628 152.709 41.6566 152.997ZM41.4986 154.371C34.7038 156.236 28.9272 162.26 27.1195 169.366C26.505 171.783 26.5195 177.161 27.1476 179.694C27.9642 182.988 29.8389 186.441 32.159 188.926C33.3975 190.252 33.9165 190.468 33.9165 189.658C33.9165 188.816 35.4491 185.929 36.6075 184.589C38.1199 182.839 39.8758 181.634 42.1791 180.762L44.1429 180.019L42.9563 179.431C40.2485 178.088 38.5435 175.173 38.5723 171.936C38.638 164.529 47.5615 161.042 52.2305 166.599C53.655 168.295 54.1355 169.659 54.1355 172.007C54.1355 175.31 52.6677 177.842 49.8838 179.34L48.6334 180.014L50.5662 180.745C54.2177 182.126 57.3067 185.19 58.4817 188.596C58.7793 189.458 59.116 190.164 59.2304 190.164C59.7378 190.164 62.9172 186.158 63.8277 184.372C66.0145 180.082 66.761 174.037 65.6619 169.518C63.8928 162.245 58.107 156.199 51.1469 154.351C48.7892 153.724 43.8162 153.735 41.4986 154.371ZM346.796 162.279C345.557 162.878 341.462 164.434 337.696 165.735C333.406 167.219 330.894 168.246 330.969 168.487C331.157 169.092 335.08 172.43 337.927 174.409C351.571 183.894 368.784 186.308 384.356 180.922C388.349 179.54 394.963 176.096 398.017 173.806C401.494 171.199 404.262 168.66 403.957 168.357C403.818 168.218 402.424 167.697 400.86 167.199C397.398 166.097 392.485 164.095 389.914 162.739L388.01 161.735L384.957 164.841C383.278 166.549 378.859 170.951 375.138 174.623L368.371 181.3L358.71 171.245L349.049 161.189L346.796 162.279ZM43.4583 165.928C37.4454 169.06 39.2025 178.368 45.9023 178.874C51.7958 179.32 55.2529 172.164 51.3371 167.625C49.0969 165.029 46.3304 164.433 43.4583 165.928ZM43.0264 181.864C40.6772 182.675 39.3365 183.569 37.7234 185.398C36.3981 186.9 34.8731 189.833 34.8674 190.89C34.8636 191.544 37.9878 193.443 40.4097 194.258C44.195 195.533 48.9566 195.476 52.7556 194.111C55.1831 193.239 57.9266 191.486 57.9266 190.807C57.9266 190.511 57.4928 189.362 56.9627 188.253C54.412 182.92 48.2069 180.075 43.0264 181.864ZM116.372 202.709C116.372 203.366 116.583 203.369 173.554 203.369C230.525 203.369 230.736 203.366 230.736 202.709C230.736 202.051 230.525 202.048 173.554 202.048C116.583 202.048 116.372 202.051 116.372 202.709ZM311.296 202.709C311.296 203.366 311.507 203.369 368.478 203.369C425.449 203.369 425.66 203.366 425.66 202.709C425.66 202.051 425.449 202.048 368.478 202.048C311.507 202.048 311.296 202.051 311.296 202.709ZM40.5509 207.114C36.8331 208.272 34.3692 209.819 31.5392 212.773C27.3548 217.139 25.3866 222.104 25.3866 228.293C25.3866 234.474 27.3444 239.407 31.5471 243.815C35.6677 248.137 40.495 250.252 46.209 250.241C52.2311 250.228 57.0066 248.224 61.0264 244.025C65.2961 239.565 67.0969 235.352 67.3281 229.283C67.4283 226.654 67.3243 225.015 66.9512 223.341C65.2064 215.513 59.3745 209.18 51.9253 207.023C48.6179 206.065 43.7922 206.104 40.5509 207.114ZM41.3555 208.168C34.7319 210.067 28.8317 216.252 27.151 223.059C26.5195 225.616 26.5034 230.987 27.1195 233.41C27.859 236.317 29.7072 239.859 31.5989 241.994C33.3975 244.024 33.9165 244.354 33.9165 243.468C33.9165 242.56 35.5069 239.655 36.8179 238.169C38.3716 236.408 39.7304 235.501 42.2641 234.533C44.135 233.819 44.1622 233.791 43.3316 233.454C41.9612 232.899 39.8675 230.721 39.205 229.161C38.4446 227.371 38.4036 224.446 39.1137 222.667C39.7633 221.039 41.2683 219.373 42.9203 218.453C44.6939 217.465 48.1001 217.469 49.9006 218.462C51.4022 219.291 53.0791 221.173 53.7011 222.729C54.26 224.126 54.26 227.508 53.7011 228.905C53.075 230.471 51.3933 232.352 49.9139 233.141L48.6334 233.824L50.6045 234.569C52.9331 235.45 54.6707 236.649 56.2253 238.447C57.3127 239.705 58.8649 242.705 58.8712 243.561C58.8772 244.361 59.4711 243.953 61.1929 241.965C64.3989 238.263 66.127 233.421 66.1358 228.115C66.1447 222.78 64.3328 218.062 60.7692 214.142C58.2567 211.378 55.5666 209.611 52.1446 208.477C50.1214 207.807 49.0744 207.666 46.3 207.69C44.4411 207.706 42.2161 207.921 41.3555 208.168ZM311.296 214.923C311.296 215.581 311.507 215.583 368.478 215.583C425.449 215.583 425.66 215.581 425.66 214.923C425.66 214.265 425.449 214.263 368.478 214.263C311.507 214.263 311.296 214.265 311.296 214.923ZM195.184 216.233C195.884 216.715 196.182 216.777 196.364 216.478C196.805 215.752 196.629 215.583 195.432 215.586L194.247 215.588L195.184 216.233ZM43.3563 219.807C37.179 223.179 39.5323 232.75 46.5385 232.75C47.1735 232.75 48.4413 232.36 49.3559 231.884C54.344 229.286 54.0894 222.017 48.9228 219.512C47.0952 218.626 45.3507 218.718 43.3563 219.807ZM495.005 230.152C492.225 232.157 489.822 233.926 489.666 234.083C489.377 234.372 488.712 248.453 488.784 252.762C488.808 254.238 489.065 255.79 489.474 256.932C490.936 261.015 495.691 266.668 499.17 268.457C501.148 269.475 501.203 269.483 503.422 269.101C508.122 268.289 513.462 265.377 515.719 262.392C516.376 261.524 517.342 259.866 517.865 258.709C518.633 257.012 519.095 256.435 520.261 255.722C522.337 254.45 522.77 253.612 522.566 251.26C522.317 248.398 521.803 247.501 520.21 247.149L518.885 246.857L517.722 241.766L516.558 236.675L512.416 234.574C507.603 232.132 503.829 229.746 501.749 227.831C500.94 227.086 500.229 226.484 500.169 226.491C500.109 226.499 497.785 228.146 495.005 230.152ZM220.468 229.144C217.094 229.488 213.549 231.092 211.149 233.36L209.727 234.703L220.255 234.717C230.107 234.729 230.775 234.767 230.676 235.308C230.577 235.843 229.757 235.892 219.586 235.973L208.602 236.059L207.657 237.616C207.138 238.473 206.476 239.958 206.187 240.917L205.661 242.66L206.651 243.73C207.893 245.071 208.621 246.864 208.621 248.581V249.907L219.596 249.994C229.758 250.075 230.577 250.124 230.676 250.659C230.776 251.2 230.071 251.236 219.423 251.236H208.064L207.183 252.445L206.301 253.653L207.221 255.498C209.101 259.271 213.53 262.946 217.762 264.245C219.948 264.916 224.348 264.926 226.774 264.266C234.996 262.028 240.596 253.156 239.324 244.386C238.884 241.36 237.103 237.339 235.165 235.002C231.696 230.817 226.066 228.573 220.468 229.144ZM435.453 232.392C435.453 233.053 435.89 233.891 436.844 235.059C437.609 235.995 438.967 238.198 439.862 239.955C441.421 243.015 441.477 243.214 441.203 244.712C440.947 246.109 441.014 246.476 441.832 248.17C442.573 249.705 442.729 250.412 442.654 251.884C442.57 253.527 442.464 253.767 441.547 254.368C440.87 254.812 440.528 255.299 440.52 255.832C440.513 256.272 440.266 256.911 439.97 257.252C439.674 257.594 439.403 258.465 439.368 259.188C439.275 261.084 438.558 262.038 436.981 262.364L435.654 262.638L437.844 264.168C439.049 265.01 440.863 266.195 441.875 266.803L443.716 267.908L443.853 273.19C443.929 276.095 444.149 279.66 444.343 281.113C444.538 282.565 444.752 288.433 444.819 294.152C444.887 299.872 445.013 304.886 445.101 305.294C445.257 306.028 445.324 306.037 450.466 306.037H455.672V290.103V274.17L454.736 269.723C454.152 266.948 453.61 265.131 453.296 264.89C452.841 264.543 452.887 264.187 453.758 261.255C455.798 254.393 455.929 251.283 454.353 247.144C454.001 246.218 453.231 244.023 452.643 242.267C451.352 238.411 450.408 236.641 449.717 236.78C449.001 236.924 448.416 238.301 448.413 239.847C448.411 241.247 449.287 245.415 450.127 248.001L450.632 249.552L449.657 251.207C447.488 254.891 447.009 257.902 448.077 261.136C448.648 262.864 448.562 263.426 447.721 263.446C447.209 263.458 446.366 259.839 446.372 257.651C446.377 255.569 446.527 254.997 447.76 252.369C448.521 250.747 449.122 249.316 449.096 249.189C448.137 244.519 447.118 241.596 445.665 239.347C442.355 234.227 439.176 231.439 436.638 231.432C435.539 231.429 435.453 231.499 435.453 232.392ZM505.588 234.016C505.154 234.153 504.798 234.481 504.798 234.745C504.798 235.124 505.187 235.201 506.626 235.11C508.11 235.016 508.777 235.16 510.176 235.875C511.784 236.697 512.538 236.751 512.538 236.045C512.538 235.882 511.905 235.361 511.132 234.887C509.647 233.978 507.021 233.565 505.588 234.016ZM495.238 234.408C493.88 234.7 492.003 235.674 492.003 236.087C492.003 236.648 493.038 236.613 494.583 235.999C495.837 235.501 496.653 235.382 497.769 235.536C499.133 235.725 499.27 235.682 499.27 235.072C499.27 234.702 499.074 234.4 498.835 234.4C498.596 234.4 497.992 234.337 497.493 234.26C496.993 234.182 495.979 234.249 495.238 234.408ZM325.257 235.308C325.357 235.855 328.039 235.89 375.512 235.969C425.502 236.053 425.66 236.051 425.66 235.392C425.66 234.733 425.475 234.73 375.405 234.73C327.714 234.73 325.156 234.76 325.257 235.308ZM43.2362 235.501C39.3567 236.849 36.1776 240.034 35.1562 243.598C34.6918 245.217 34.7581 245.296 37.9461 246.93C43.0887 249.567 49.712 249.595 54.708 247C58.4305 245.067 58.415 245.101 56.9731 242.086C55.8143 239.662 53.4636 237.288 51.1068 236.16C48.9831 235.144 45.1791 234.826 43.2362 235.501ZM201.987 239.211C201.987 242.041 202.045 242.36 202.539 242.26C202.893 242.189 203.345 241.404 203.802 240.065C204.193 238.918 204.726 237.662 204.988 237.272C205.721 236.178 205.59 236.051 203.725 236.051H201.987V239.211ZM198.791 237.41L197.016 238.057L196.818 239.778C196.483 242.677 195.99 243.982 194.657 245.494L193.377 246.945H197.243H201.11L200.889 245.719C200.769 245.044 200.684 242.742 200.702 240.602C200.72 238.462 200.696 236.723 200.65 236.737C200.603 236.751 199.767 237.054 198.791 237.41ZM500.849 239.455C500.849 240.623 500.672 241.054 499.863 241.849C498.521 243.167 497.882 244.766 498.34 245.66C499.137 247.216 502.429 247.661 502.429 246.213C502.429 245.667 502.287 245.59 501.606 245.769C501.081 245.906 500.506 245.796 500.021 245.463C499.126 244.851 499.286 244.357 501.033 242.336C501.934 241.294 502.113 240.835 502.113 239.56C502.113 238.252 502.022 238.032 501.481 238.032C500.947 238.032 500.849 238.252 500.849 239.455ZM495.28 239.568C495.03 240.61 495.485 241.498 496.268 241.498C497.052 241.498 497.507 240.61 497.257 239.568C497.1 238.917 496.846 238.692 496.268 238.692C495.69 238.692 495.437 238.917 495.28 239.568ZM507.601 239.568C507.348 240.623 507.808 241.498 508.616 241.498C509.416 241.498 509.955 239.912 509.395 239.207C508.747 238.391 507.84 238.574 507.601 239.568ZM202.009 244.717C202.021 245.307 202.154 246.087 202.303 246.45C202.537 247.019 202.578 246.973 202.601 246.12C202.616 245.575 202.713 244.795 202.818 244.386C202.958 243.84 202.873 243.644 202.498 243.644C202.128 243.644 201.993 243.939 202.009 244.717ZM437.823 244.357C435.634 245.615 435.522 247.723 437.495 250.524C439.766 253.747 441.173 254.327 441.615 252.222C441.786 251.407 441.605 250.709 440.776 248.981C439.718 246.78 439.68 246.579 440.004 244.882C440.158 244.068 440.087 243.975 439.316 243.984C438.842 243.989 438.17 244.157 437.823 244.357ZM205.146 245.789C205.146 246.853 205.221 246.945 206.094 246.945C207.243 246.945 207.325 246.347 206.311 245.352C205.318 244.378 205.146 244.442 205.146 245.789ZM186.654 247.287C185.827 248.243 185.684 251.295 186.325 254.306C186.848 256.766 188.354 259.777 189.106 259.869C189.327 259.895 189.79 259.933 190.134 259.951C190.478 259.97 190.809 260.245 190.868 260.562C190.947 260.987 190.769 261.14 190.194 261.14C189.644 261.14 189.229 261.464 188.794 262.235C187.464 264.59 182.959 267.451 178.586 268.717C177.333 269.08 176.26 269.427 176.202 269.487C176.144 269.547 177.737 270.318 179.741 271.199C181.745 272.08 184.43 273.424 185.709 274.185L188.033 275.569L188.928 274.644C189.782 273.762 189.896 273.735 191.349 274.064C194.559 274.791 196.03 273.761 198.591 268.993C199.936 266.49 202.303 259.868 202.303 258.61C202.303 258.329 203.035 257.38 203.931 256.502C205.556 254.907 205.558 254.904 205.018 254.044C204.721 253.57 203.776 252.475 202.917 251.61C201.807 250.492 201.355 249.781 201.355 249.151V248.265H196.616C194.01 248.265 191.878 248.354 191.878 248.462C191.878 248.57 192.172 249.091 192.532 249.619C193.144 250.518 193.151 250.593 192.629 250.802C192.229 250.962 191.887 250.752 191.422 250.058C190.345 248.456 188.413 246.615 187.806 246.615C187.493 246.615 186.974 246.917 186.654 247.287ZM485.38 247.253C485.2 247.604 485.053 248.316 485.053 248.834C485.053 249.88 486.279 252.627 486.822 252.799C487.182 252.913 487.711 247.433 487.392 246.893C487.08 246.366 485.709 246.611 485.38 247.253ZM205.203 249.008C205.282 249.59 205.51 249.751 206.252 249.751C206.994 249.751 207.222 249.59 207.301 249.008C207.39 248.355 207.264 248.265 206.252 248.265C205.24 248.265 205.114 248.355 205.203 249.008ZM433.759 250.181C433.301 250.872 432.926 251.807 432.926 252.26C432.926 253.28 434.831 255.294 436.47 256.007C439.765 257.441 440.215 255.894 437.472 252.557C436.502 251.377 435.557 250.077 435.373 249.668C434.917 248.662 434.726 248.722 433.759 250.181ZM325.407 250.136C324.349 251.242 324.1 251.236 375.428 251.236C425.449 251.236 425.66 251.234 425.66 250.576C425.66 249.919 425.449 249.916 375.639 249.916C348.127 249.916 325.523 250.015 325.407 250.136ZM505.363 252.61C502.89 254.061 501.113 254.158 498.873 252.966C497.328 252.142 497 252.068 496.682 252.468C496.391 252.834 496.409 253.007 496.762 253.255C499.832 255.405 502.441 255.602 505.691 253.93C507.16 253.175 507.805 252.664 507.738 252.307C507.589 251.507 507.149 251.563 505.363 252.61ZM432.621 256.497C431.849 258.005 432.351 259.262 434.195 260.437C435.715 261.405 437.194 261.363 437.84 260.334C438.782 258.831 438.361 258.089 436.085 257.244C434.956 256.825 433.897 256.341 433.732 256.17C433.281 255.702 432.984 255.79 432.621 256.497ZM204.446 257.94C203.861 258.453 203.395 259.483 202.845 261.47C202.419 263.014 201.965 264.536 201.837 264.854C201.62 265.392 201.998 265.432 207.324 265.432C210.47 265.432 213.044 265.377 213.044 265.311C213.044 265.244 212.448 264.777 211.718 264.272C209.79 262.939 207.421 260.544 206.272 258.765L205.271 257.215L204.446 257.94ZM455.243 262.529C455.139 264.216 455.176 266.191 455.326 266.917C455.477 267.644 455.626 268.052 455.659 267.825C455.799 266.84 455.747 259.788 455.598 259.632C455.508 259.537 455.348 260.841 455.243 262.529ZM41.0984 260.666C35.6001 262.058 30.2569 266.562 27.6521 272.001C25.8738 275.713 25.2685 278.821 25.4681 283.211C25.743 289.259 27.526 293.421 31.7117 297.786C34.168 300.347 36.8331 302.063 40.235 303.272C42.889 304.215 49.7098 304.153 52.7139 303.159C55.8943 302.106 58.7063 300.27 61.2419 297.591C65.285 293.318 67.088 289.064 67.3344 283.211C67.4431 280.635 67.3392 279.024 66.9455 277.174C65.2572 269.245 58.947 262.474 51.5487 260.651C49.0612 260.038 43.5471 260.046 41.0984 260.666ZM42.7671 261.647C35.4491 263.03 29.0229 269.294 27.1514 276.868C26.572 279.213 26.4939 284.082 26.9947 286.626C27.5403 289.397 29.5587 293.429 31.5471 295.72C33.3706 297.822 33.9165 298.181 33.9165 297.278C33.9165 296.333 35.5438 293.411 36.9367 291.854C38.4907 290.119 40.8617 288.644 43.0441 288.056L44.4999 287.663L43.0783 286.988C40.2612 285.65 38.5912 282.914 38.5934 279.641C38.595 277.126 39.3899 275.267 41.1859 273.579C43.4087 271.491 45.9952 270.876 48.8258 271.762C50.4481 272.27 52.8118 274.469 53.5422 276.148C54.242 277.758 54.3244 281.157 53.7011 282.715C53.0541 284.334 51.3759 286.172 49.7663 287.027L48.339 287.785L49.5613 288.025C51.3655 288.378 53.7049 289.722 55.3992 291.378C56.8679 292.814 58.8744 296.205 58.8744 297.252C58.8744 298.111 59.3444 297.876 60.7013 296.338C64.2201 292.349 65.8426 288.294 66.0692 282.924C66.3339 276.648 64.6026 272.024 60.2966 267.505C57.1959 264.251 53.86 262.377 49.8342 261.627C46.8188 261.066 45.8271 261.068 42.7671 261.647ZM230.657 266.041C230.533 266.536 230.038 266.702 228.014 266.926C225.374 267.218 224.368 267.217 210.201 266.911L201.197 266.717L199.551 269.821C198.632 271.553 197.331 273.466 196.606 274.15C195.319 275.366 195.287 275.376 192.8 275.307C190.795 275.252 190.171 275.353 189.684 275.813C189.089 276.376 189.106 276.427 190.477 278.186C191.247 279.174 191.878 280.125 191.878 280.3C191.878 280.5 199.089 280.617 211.307 280.617C230.525 280.617 230.736 280.625 230.736 281.278C230.736 281.931 230.525 281.938 211.6 281.938C194.424 281.938 192.473 281.991 192.565 282.453C192.622 282.738 195.349 284.447 198.67 286.278C206.723 290.718 210.311 292.981 214.548 296.294C216.505 297.824 219.314 299.702 220.792 300.467L223.479 301.858L224.851 301.141C225.607 300.747 226.519 300.425 226.879 300.425C227.266 300.425 227.62 300.142 227.744 299.734C227.859 299.354 229.662 295.306 231.749 290.738C235.064 283.486 235.662 281.912 236.467 278.323C236.975 276.063 237.319 274.021 237.232 273.785C236.954 273.028 231.359 265.432 231.079 265.432C230.931 265.432 230.741 265.706 230.657 266.041ZM325.257 266.009C325.357 266.556 328.039 266.592 375.512 266.671C425.502 266.754 425.66 266.752 425.66 266.093C425.66 265.434 425.475 265.432 375.405 265.432C327.714 265.432 325.156 265.461 325.257 266.009ZM243.303 267.449C240.14 270.924 238.531 274.393 237.239 280.52C236.897 282.143 235.483 285.638 232.789 291.526C230.617 296.271 228.84 300.278 228.84 300.432C228.84 300.585 229.16 300.81 229.551 300.931C232.786 301.933 237.239 308.416 239.614 315.58L240.644 318.686L241.07 317.401C242.424 313.313 243.313 305.746 243.568 296.133C243.663 292.593 243.79 289.523 243.851 289.312C243.913 289.102 244.932 288.396 246.116 287.744C249.37 285.953 251.29 284.291 252.169 282.505L252.946 280.926L252.384 279.039C251.163 274.94 250.799 274.143 249.468 272.656C248.709 271.808 247.659 270.928 247.135 270.701C246.438 270.4 246.243 270.147 246.406 269.759C246.861 268.673 246.899 267.207 246.481 266.857C245.304 265.871 244.624 265.998 243.303 267.449ZM160.443 268.531C159.574 268.961 158.419 269.813 157.876 270.426C156.681 271.774 154.915 274.337 154.915 274.725C154.915 274.879 156.915 275.005 159.359 275.005C161.804 275.005 165.393 275.244 167.336 275.536C172.181 276.264 182.712 279.05 187.273 280.809C189.344 281.609 191.082 282.219 191.134 282.165C191.462 281.822 189.636 279.032 188.158 277.621C185.001 274.607 174.429 269.867 167.63 268.42C163.56 267.553 162.382 267.571 160.443 268.531ZM508.216 269.093C505.989 270.164 500.833 270.94 495.287 271.038C495.085 271.041 494.85 272.032 494.729 273.386C494.615 274.674 494.379 276.007 494.204 276.346C493.799 277.138 491.102 277.976 488.964 277.976C488.05 277.976 487.237 278.088 487.158 278.224C487.079 278.36 487.144 279.326 487.302 280.369C488.199 286.302 491.501 290.411 496.804 292.192C502.146 293.987 507.841 292.583 513.638 288.04C516.173 286.054 519.805 282.548 519.805 282.087C519.805 281.883 518.929 281.462 517.86 281.151C514.554 280.191 511.028 278.641 510.799 278.047C510.68 277.736 510.424 275.439 510.231 272.942C510.037 270.446 509.802 268.415 509.708 268.431C509.614 268.446 508.943 268.744 508.216 269.093ZM43.3942 273.43C41.7116 274.362 40.0985 276.67 39.8094 278.56C39.5753 280.089 40.1639 282.423 41.147 283.866C42.0348 285.169 44.747 286.562 46.3784 286.552C50.5179 286.529 53.7779 282.148 52.7467 277.995C51.9474 274.774 49.8652 273.018 46.5534 272.772C45.17 272.669 44.5261 272.803 43.3942 273.43ZM152.469 276.67C146.031 277.507 138.09 281.898 126.324 291.124C118.069 297.598 109.742 304.961 108.051 307.282C107.212 308.434 107.167 308.65 107.356 310.658C107.597 313.206 109.053 317.923 110.46 320.711C111.014 321.809 112.182 323.462 113.054 324.383C115.075 326.517 117.568 327.341 121.259 327.093C122.574 327.005 123.71 326.869 123.785 326.792C123.884 326.688 128.823 310.733 132.023 300.177C132.167 299.705 132.472 299.662 133.035 300.035C133.337 300.236 133.254 300.857 132.674 302.753C132.26 304.105 130.47 309.965 128.696 315.775C126.921 321.586 124.333 329.83 122.944 334.097C120.437 341.793 115.108 358.312 115.108 358.385C115.108 358.406 117.419 358.515 120.242 358.627C127.908 358.932 138.835 360.236 145.911 361.689C156.164 363.794 168.095 367.87 179.953 373.317C185.057 375.662 184.703 375.822 185.416 370.857C185.723 368.721 186.275 366.706 187.12 364.639C189.008 360.022 199.321 323.852 198.838 323.54C198.627 323.404 196.335 322.789 193.744 322.174C189.954 321.276 189.035 320.948 189.035 320.499C189.034 320.192 189.141 319.875 189.271 319.793C189.402 319.712 191.108 320.053 193.062 320.552C195.017 321.05 196.616 321.414 196.616 321.36C196.616 321.306 195.406 320.342 193.926 319.219C191.724 317.547 191.303 317.091 191.607 316.708C191.811 316.451 192.141 316.306 192.338 316.385C192.537 316.464 194.473 317.871 196.643 319.511C199.99 322.042 201.339 322.821 205.54 324.649C216.31 329.335 223.197 331.736 226.702 332.028C228.646 332.189 228.922 332.13 229.916 331.337C232.178 329.535 233.488 324.742 233.171 319.427C232.732 312.07 229.208 305.658 224.547 303.735C220.919 302.238 216.956 299.916 213.841 297.462C206.794 291.909 193.824 284.719 185.531 281.767C180.082 279.828 173.746 278.055 168.973 277.135C165.653 276.495 155.923 276.221 152.469 276.67ZM475.828 277.3C473.197 277.834 470.012 281.221 466.514 287.206C465.503 288.935 464.047 291.062 463.279 291.934L461.881 293.518L462.588 294.743C467.033 302.444 467.791 309.321 465.302 319.345C465.085 320.22 465.255 320.139 468.226 317.951L471.38 315.627L470.912 313.885C470.211 311.271 470.224 303.82 470.936 301.088C471.559 298.699 471.765 298.354 472.35 298.731C472.672 298.939 472.652 299.381 472.249 300.946C471.274 304.736 471.364 313.106 472.395 314.437C472.544 314.628 473.05 319.39 473.521 325.019C474.159 332.651 474.323 336.16 474.168 338.823C473.98 342.045 474.024 342.533 474.627 343.835C476.795 348.513 487.762 350.934 504.798 350.496C514.199 350.254 521.267 349.138 522.395 347.718C522.634 347.417 522.814 345.956 522.86 343.958C522.9 342.16 523.376 337.238 523.916 333.019C526.102 315.947 527.35 308.513 528.03 308.513C528.781 308.513 528.738 309.404 527.706 315.313L526.718 320.97L529.589 328.276C531.169 332.295 532.588 335.796 532.743 336.057C532.983 336.459 533.345 336.47 535.123 336.127C538.103 335.554 542.007 334.212 544.716 332.832L547.041 331.646L546.859 330.313C546.759 329.58 546.182 325.415 545.577 321.057C544.827 315.648 544.462 311.768 544.429 308.829C544.328 299.947 542.646 293.762 539.371 290.233C536.444 287.081 532.765 285.227 525.848 283.422L521.567 282.305L518.711 285.192C512.717 291.251 507.171 294.177 501.588 294.225L499.011 294.247L498.353 297.254C497.159 302.709 496.483 306.487 496.087 309.916C495.788 312.511 495.587 313.299 495.226 313.299C494.226 313.299 495.024 307.002 497.573 294.768C497.742 293.96 497.634 293.857 496.064 293.32C490.931 291.565 487.294 287.203 486.3 281.608C485.603 277.684 485.72 277.856 483.45 277.434C481.156 277.008 477.573 276.945 475.828 277.3ZM325.197 281.278C325.197 281.935 325.407 281.938 375.428 281.938C425.449 281.938 425.66 281.935 425.66 281.278C425.66 280.62 425.449 280.617 375.428 280.617C325.407 280.617 325.197 280.62 325.197 281.278ZM456.936 293.932V307.357H451.249H445.563L445.57 308.1C445.581 309.344 447.02 313.204 448.463 315.862C450.833 320.227 455.956 324.884 458.341 324.842C458.698 324.836 459.942 324.096 461.107 323.198C463.167 321.608 463.245 321.494 464.02 318.929C465.079 315.428 465.461 312.798 465.463 308.995C465.467 304.395 464.034 299.513 461.501 295.495C460.589 294.047 460.086 292.505 458.823 287.283C457.967 283.747 457.193 280.775 457.102 280.68C457.011 280.585 456.936 286.549 456.936 293.932ZM42.4704 289.588C39.0679 290.817 35.6326 294.677 35.0001 297.982C34.814 298.954 34.8883 299.036 37.0312 300.212C41.5034 302.668 46.4583 303.325 51.1166 302.08C53.9517 301.322 57.9266 299.208 57.9263 298.457C57.9256 297.327 56.0099 293.893 54.5668 292.436C51.3595 289.198 46.6336 288.085 42.4704 289.588ZM134.393 292.455C133.604 295.223 133.598 295.473 134.317 295.473C135.109 295.473 136.565 290.916 135.912 290.483C135.169 289.991 135.052 290.142 134.393 292.455ZM473.588 293.995C472.584 296.134 472.543 296.465 473.285 296.46C474.058 296.455 475.783 292.842 475.197 292.454C474.544 292.021 474.489 292.074 473.588 293.995ZM109.738 301.075C107.786 302.171 100.879 310.115 99.7869 312.519C99.1124 314.005 99.1977 315.867 100.072 318.743C101.126 322.213 103.13 325.594 105.764 328.347C109.363 332.11 113.428 333.755 117.929 333.268C121.378 332.895 122.042 332.53 122.727 330.631C123.054 329.723 123.322 328.832 123.322 328.65C123.322 328.453 122.082 328.319 120.242 328.317C116.129 328.312 114.247 327.633 112.11 325.381C109.014 322.118 106.2 314.897 106.139 310.059L106.105 307.314L109.343 304.012C111.124 302.195 112.581 300.646 112.581 300.567C112.581 300.191 110.72 300.523 109.738 301.075ZM225.918 301.956C225.111 302.201 225.237 302.515 226.347 303.029C229.333 304.41 233.072 310.555 234.044 315.679C235.403 322.839 233.874 330.067 230.467 332.591C229.347 333.421 228.875 333.558 227.21 333.54L225.263 333.519L226.025 334.136C226.444 334.475 227.54 335.006 228.46 335.315C233.825 337.119 239.278 331.688 239.793 324.028C240.204 317.9 234.958 305.999 230.479 302.903C229.319 302.1 227.018 301.623 225.918 301.956ZM95.6148 323.112C85.3274 335.962 78.5844 345.192 71.9128 355.555C69.6666 359.044 68.1966 360.878 65.1435 364C62.9987 366.194 60.8176 368.632 60.2963 369.418C59.3166 370.897 54.0303 386.587 54.5118 386.587C55.1825 386.587 57.4495 383.934 58.3044 382.15C59.5845 379.476 63.0502 374.068 63.4919 374.053C64.3066 374.027 68.3735 371.63 69.7474 370.366C70.8623 369.34 71.3242 369.093 71.5949 369.376C72.163 369.969 69.5029 372.566 66.967 373.894C65.7706 374.52 64.6146 375.032 64.3979 375.032C64.0397 375.032 61.9467 378.023 62.1536 378.239C62.2023 378.29 63.1071 377.893 64.1641 377.358C66.048 376.405 68.3289 375.362 68.5314 375.362C68.5877 375.362 68.3669 376.174 68.0402 377.166C67.0905 380.051 66.9367 381.759 67.5676 382.418C68.2929 383.177 68.7204 382.765 70.2674 379.82C70.9467 378.527 72.5007 376.14 73.7205 374.517C77.1495 369.954 77.2989 369.513 77.4604 363.478L77.5975 358.361L91.9836 348.623C99.8959 343.266 107.836 337.918 109.628 336.738C111.421 335.558 112.889 334.505 112.892 334.397C112.895 334.29 112.293 334.017 111.554 333.791C107.076 332.42 102.924 328.198 100.082 322.122L98.727 319.224L95.6148 323.112ZM545.236 333.996C543.038 335.19 539.741 336.356 536.399 337.119C534.839 337.475 533.533 337.798 533.496 337.837C533.459 337.875 533.918 339.663 534.515 341.808C535.544 345.506 535.601 345.976 535.601 350.811C535.601 360.806 536.297 364.469 539.974 373.812L542.484 380.188L544.081 391.031C545.578 401.194 545.648 401.948 545.205 403.057C544.156 405.68 544.116 406.683 544.79 413.492C545.442 420.069 545.729 421.58 546.328 421.58C546.805 421.58 547.615 420.133 548.392 417.888L549.091 415.872L549.449 418.808C549.646 420.423 549.897 423.082 550.007 424.716C550.125 426.466 550.405 428.017 550.689 428.49L551.171 429.293L551.76 428.533C552.084 428.115 552.581 426.937 552.864 425.914C553.147 424.892 553.863 422.902 554.456 421.493C555.804 418.282 556.77 414.39 556.76 412.201C556.751 409.843 555.754 405.396 554.435 401.828L553.316 398.798L553.352 381.716C553.383 367.433 553.304 364.049 552.872 361.066C552.191 356.369 550.978 350.774 549.808 346.937C549.113 344.658 547.29 334.737 547.29 333.237C547.29 332.97 546.773 333.161 545.236 333.996ZM471.731 348.377C462.484 364.135 458.257 381.644 459.786 397.858C461.233 413.203 465.823 434.607 472.932 459.149C474.432 464.325 475.256 467.912 475.907 472.088C477.984 485.413 480.251 494.302 483.768 502.912C487.47 511.974 491.189 524.979 493.873 538.249C494.794 542.801 494.798 542.864 494.304 545.439C493.71 548.532 493.457 548.191 498.164 550.642C502.363 552.828 505.553 553.71 509.433 553.755C511.114 553.775 512.583 553.692 512.698 553.572C512.813 553.451 511.979 550.109 510.845 546.145C508.667 538.532 508.385 536.836 506.554 520.286C505.379 509.672 505.261 507.641 505.114 495.527C505.033 488.9 504.893 480.581 504.801 477.04C504.642 470.89 504.658 470.647 505.165 471.593C506.909 474.853 521.1 507.64 523.561 514.094C526.363 521.446 531.267 538.487 531.713 542.426C531.869 543.805 532.106 544.256 533.247 545.355C533.996 546.076 535.177 546.818 535.904 547.022C538.034 547.622 539.366 546.917 541.114 544.263C542.249 542.543 542.252 542.527 541.76 541.298C540.295 537.634 539.094 516.981 539.08 495.197C539.075 486.759 538.782 482.408 537.791 476.05C536.927 470.507 534.651 460.898 533.057 456.069L531.759 452.133L532.408 447.338C534.419 432.487 535.015 424.608 535.138 411.181C535.197 404.826 535.115 398.141 534.955 396.325C533.621 381.112 529.575 365.108 523.637 351.557L522.681 349.374L520.903 350.001C516.936 351.4 513.307 351.735 501.955 351.747C490.557 351.759 487.705 351.521 482.343 350.106C479.074 349.244 476.178 347.824 474.656 346.34C474.083 345.78 473.593 345.322 473.568 345.323C473.543 345.324 472.716 346.698 471.731 348.377ZM205.462 431.483V512.033H329.304H453.145V431.483V350.933H329.304H205.462V431.483ZM206.937 352.473C206.821 352.595 206.726 355.195 206.726 358.251V363.808H329.311H451.896L451.81 358.114L451.723 352.419L329.436 352.336C262.177 352.291 207.053 352.352 206.937 352.473ZM206.726 437.921V510.712H329.304H451.881V437.921V365.129H329.304H206.726V437.921ZM269.91 437.755C269.91 509.832 269.912 510.052 270.542 510.052C271.172 510.052 271.174 509.832 271.174 437.755C271.174 365.679 271.172 365.459 270.542 365.459C269.912 365.459 269.91 365.679 269.91 437.755ZM508.662 378.1C500.312 389.508 500.712 388.896 501.237 389.444C501.673 389.9 502.26 389.214 507.051 382.644C509.982 378.624 512.423 375.138 512.475 374.896C512.527 374.653 512.354 374.369 512.091 374.263C511.752 374.127 510.748 375.251 508.662 378.1ZM299.449 375.828C286.164 378.536 278.514 392.649 283.01 406.157C284.026 409.211 285.897 412.109 288.635 414.872C291.244 417.505 293.983 419.206 297.395 420.314C299.322 420.94 300.473 421.084 303.556 421.084C307.912 421.084 310.64 420.383 314.108 418.373C316.849 416.783 320.624 412.939 322.27 410.061C327.927 400.17 325.781 387.635 317.206 380.475C312.235 376.325 305.569 374.581 299.449 375.828ZM479.731 375.654C479.39 375.88 479.452 376.173 480.047 377.137C481.238 379.067 482.408 378.394 481.266 376.435C480.603 375.3 480.412 375.203 479.731 375.654ZM299.449 377.149C291.937 378.965 286.359 384.23 283.927 391.803C281.819 398.363 283.126 405.822 287.395 411.604C288.825 413.541 290.062 414.858 290.225 414.618C290.276 414.543 290.846 413.342 291.492 411.949C293.233 408.196 296.699 405.235 300.16 404.545C301.476 404.282 301.458 403.988 300.097 403.474C298.685 402.94 296.355 400.222 295.876 398.549C294.55 393.924 296.709 389.219 300.83 387.751C307.319 385.441 313.234 391.58 311.236 398.549C310.756 400.222 308.427 402.94 307.015 403.474C306.416 403.7 305.925 403.976 305.925 404.087C305.925 404.198 306.633 404.478 307.499 404.71C310.986 405.644 314.547 409.01 316.048 412.793C316.922 414.997 317.154 414.937 319.437 411.93C324.746 404.937 325.62 396.584 321.874 388.653C318.544 381.602 311.925 377.133 304.346 376.817C302.481 376.739 300.627 376.864 299.449 377.149ZM482.963 381.12C482.768 381.652 485.334 385.422 487.834 388.273C489.804 390.52 492.724 392.691 493.408 392.417C494.235 392.085 493.958 391.391 492.725 390.706C491.143 389.826 487.466 385.899 485.527 383.02C483.961 380.693 483.3 380.203 482.963 381.12ZM336.254 385.594C336.254 386.252 336.439 386.256 363.288 386.256C388.865 386.256 390.317 386.225 390.217 385.679C390.116 385.135 388.54 385.096 363.182 385.017C336.412 384.933 336.254 384.936 336.254 385.594ZM235.881 385.745C232.654 386.799 230.305 388.962 228.89 392.183C228.239 393.666 228.085 394.525 228.084 396.696C228.082 399.053 228.206 399.64 229.103 401.543C230.487 404.481 232.661 406.503 235.381 407.381C240.893 409.16 245.991 406.877 248.637 401.442C249.411 399.853 249.521 399.256 249.521 396.655C249.521 394.054 249.411 393.458 248.636 391.869C246.15 386.766 240.727 384.163 235.881 385.745ZM236.265 387.028C233.296 388.058 231.258 389.915 230.049 392.694C228.65 395.912 229.368 400.975 231.524 403.091L232.261 403.815L232.643 403.041C233.197 401.917 234.552 400.465 235.561 399.915L236.437 399.437L235.643 398.349C232.299 393.768 238.096 388.324 241.899 392.472C243.406 394.116 243.421 396.585 241.936 398.429L241.132 399.428L242.048 399.923C242.942 400.407 244.441 402.033 245.149 403.289C245.489 403.892 245.53 403.884 246.165 403.093C247.667 401.22 248.251 399.421 248.254 396.655C248.257 394.432 248.125 393.753 247.422 392.364C246.421 390.387 244.659 388.566 242.807 387.598C241.106 386.709 237.972 386.436 236.265 387.028ZM301.332 388.899C299.807 389.394 297.82 391.385 297.224 393.016C295.169 398.637 299.948 404.283 305.367 402.637C308.62 401.649 310.505 398.852 310.291 395.331C310.062 391.579 307.616 388.952 304.13 388.713C303.119 388.644 301.86 388.728 301.332 388.899ZM237.809 392.522C236.58 393.041 235.715 394.548 235.909 395.83C236.299 398.391 239.113 399.342 240.87 397.506C242.384 395.924 241.845 393.287 239.86 392.564C238.709 392.145 238.702 392.145 237.809 392.522ZM497.142 413.079C497.267 431.417 497.329 433.291 497.945 437.095C499.096 444.204 501.393 455.586 501.752 455.957C501.864 456.073 502.178 456.073 502.451 455.957C502.886 455.773 502.801 455.064 501.753 450.135C500.083 442.275 498.962 435.055 498.629 430.012C498.472 427.644 498.339 418.39 498.333 409.448C498.322 393.202 498.321 393.189 497.664 393.189H497.007L497.142 413.079ZM336.254 398.469C336.254 399.127 336.439 399.131 363.288 399.131C388.865 399.131 390.317 399.1 390.217 398.553C390.116 398.009 388.54 397.971 363.182 397.891C336.412 397.807 336.254 397.811 336.254 398.469ZM236.574 400.912C235.365 401.462 233.579 403.568 233.579 404.443C233.579 406.352 239.889 407.298 242.64 405.801C243.367 405.406 244.034 404.961 244.123 404.811C244.211 404.661 243.936 403.929 243.511 403.184C242.183 400.857 238.992 399.811 236.574 400.912ZM300.643 405.703C296.553 406.803 292.835 410.543 291.693 414.706C291.445 415.609 291.526 415.74 292.895 416.648C296.508 419.042 301.695 420.223 305.91 419.612C308.819 419.191 312.671 417.784 314.52 416.467L315.69 415.634L315.22 414.244C314.056 410.795 311.613 407.953 308.557 406.491C306.665 405.586 302.588 405.18 300.643 405.703ZM336.314 411.593C336.414 412.138 337.95 412.171 363.265 412.171C388.58 412.171 390.116 412.138 390.217 411.593C390.317 411.047 388.864 411.016 363.265 411.016C337.666 411.016 336.213 411.047 336.314 411.593ZM139.115 416.304C138.964 416.6 137.113 421.659 135.002 427.546C126.663 450.808 122.11 464.222 121.271 468.005C120.786 470.191 117.437 479.155 114.631 485.781C109.598 497.667 108.543 499.719 89.4483 534.75C83.3337 545.968 82.2276 548.198 82.4064 548.945C82.523 549.433 83.4006 551.507 84.3566 553.555C85.6996 556.432 86.5933 557.84 88.2898 559.752C89.5924 561.22 90.5616 562.626 90.6732 563.209L90.8615 564.192H136.947H183.032V562.428C183.032 561.458 182.743 559.787 182.389 558.715C181.792 556.903 181.772 556.494 182.109 552.968L182.47 549.172L180.992 540.754C178.286 525.346 173.935 503.028 172.496 497.177C171.715 494 170.851 489.814 170.575 487.876C169.95 483.477 169.458 472.451 169.673 467.632L169.834 464L156.127 440.066L142.42 416.133L140.905 415.95C139.707 415.805 139.333 415.879 139.115 416.304ZM234.685 430.964C232.185 432.051 229.468 434.982 228.645 437.478C227.841 439.917 227.912 443.316 228.817 445.765C229.721 448.21 232.02 450.704 234.442 451.865C237.014 453.099 240.55 453.108 243.095 451.888C245.578 450.697 247.3 448.948 248.503 446.392C249.422 444.443 249.533 443.902 249.533 441.394C249.533 438.959 249.41 438.319 248.619 436.635C247.498 434.249 245.823 432.452 243.62 431.271C241.151 429.947 237.325 429.815 234.685 430.964ZM234.485 432.561C230.973 434.461 228.869 438.384 229.257 442.309C229.447 444.231 230.665 447.191 231.651 448.123C232.228 448.67 232.281 448.639 232.971 447.355C233.682 446.034 235.596 444.358 236.393 444.358C236.623 444.358 236.374 443.847 235.828 443.197C235.291 442.558 234.763 441.665 234.655 441.214C234.114 438.964 235.733 436.332 237.921 435.903C242.017 435.1 244.708 440.039 241.862 443.139L240.894 444.193L242.147 444.805C242.946 445.194 243.786 446.015 244.465 447.069L245.53 448.722L246.487 447.341C247.887 445.322 248.54 442.995 248.344 440.726C248.018 436.979 246.184 434.159 242.987 432.489C241.371 431.646 240.691 431.483 238.769 431.483C236.799 431.483 236.198 431.634 234.485 432.561ZM295.816 437.095C295.816 437.753 296.027 437.755 345.837 437.755C373.348 437.755 395.943 437.667 396.047 437.558C396.15 437.449 396.159 437.152 396.065 436.898C395.921 436.503 388.493 436.435 345.856 436.435C296.027 436.435 295.816 436.438 295.816 437.095ZM236.895 437.892C235.84 438.994 235.6 440.236 236.193 441.534C237.51 444.421 241.793 443.417 241.793 440.221C241.793 437.582 238.631 436.078 236.895 437.892ZM237.382 445.407C235.786 445.884 234.598 446.88 233.885 448.339L233.258 449.624L234.603 450.347C235.515 450.837 236.727 451.118 238.363 451.221C240.467 451.352 241.005 451.262 242.546 450.525C243.974 449.842 244.275 449.564 244.109 449.082C243.148 446.304 240.046 444.61 237.382 445.407ZM295.816 452.281C295.816 452.938 296.027 452.941 345.889 452.941C395.752 452.941 395.963 452.938 395.963 452.281C395.963 451.623 395.752 451.621 345.889 451.621C296.027 451.621 295.816 451.623 295.816 452.281ZM502.862 459.749C502.606 459.859 502.655 460.523 503.035 462.094C503.566 464.292 503.848 464.696 504.536 464.239C504.813 464.055 504.774 463.439 504.378 461.77C503.876 459.652 503.684 459.396 502.862 459.749ZM295.816 467.549V468.292L345.889 468.207C395.674 468.123 395.963 468.119 395.963 467.465C395.963 466.81 395.701 466.806 345.889 466.806H295.816V467.549ZM602.734 470.05C601.11 470.848 598.76 473.491 597.662 475.755C596.902 477.323 595.78 481.603 596.054 481.889C596.252 482.096 602.192 480.395 603.249 479.829C604.801 478.997 606.091 477.805 607.078 476.292C609.584 472.449 606.596 468.154 602.734 470.05ZM236.493 475.061C233.251 475.774 230.378 478.258 228.902 481.622C228.251 483.105 228.084 484.008 228.069 486.125C228.053 488.472 228.168 489.023 229.087 490.973C232.415 498.037 240.767 499.736 246.127 494.439C248.578 492.017 249.5 489.8 249.518 486.283C249.531 483.921 249.402 483.184 248.701 481.622C247.55 479.057 245.863 477.224 243.576 476.053C241.419 474.948 238.72 474.57 236.493 475.061ZM236.319 476.505C231.921 477.792 228.765 482.582 229.282 487.184C229.496 489.087 230.599 491.698 231.581 492.624C232.153 493.165 232.225 493.123 233.274 491.659C233.876 490.818 234.903 489.843 235.556 489.494L236.742 488.858L235.974 488.226C235.551 487.878 235.038 487.066 234.834 486.422C233.396 481.868 238.75 478.5 241.923 481.961C243.468 483.646 243.334 486.791 241.656 488.246C241.032 488.787 241.02 489.255 241.63 489.255C242.139 489.255 244.577 491.656 245.149 492.721C245.496 493.367 245.517 493.364 246.169 492.556C247.69 490.672 248.27 488.889 248.264 486.118C248.258 483.909 248.12 483.204 247.419 481.806C245.284 477.548 240.522 475.274 236.319 476.505ZM506.232 484.495C506.256 499.344 506.769 511.04 507.789 519.956C509.31 533.257 510.264 539.729 511.109 542.478C512.55 547.163 515.319 557.401 515.71 559.49C515.922 560.625 516.02 562.148 515.927 562.873L515.758 564.192H525.807H535.856L534.928 562.402C532.994 558.67 531.715 553.388 530.726 545.045C529.996 538.884 525.993 524.201 522.594 515.217C520.598 509.942 506.868 477.992 506.342 477.398C506.275 477.322 506.225 480.516 506.232 484.495ZM238.092 481.925C237.093 482.082 235.791 483.83 235.791 485.014C235.791 486.52 237.295 487.934 238.897 487.934C239.917 487.934 240.314 487.74 240.975 486.918C242.009 485.635 242.02 484.305 241.007 483.047C240.208 482.055 239.354 481.726 238.092 481.925ZM295.816 482.982C295.816 483.64 296.027 483.642 345.889 483.642C395.752 483.642 395.963 483.64 395.963 482.982C395.963 482.325 395.752 482.322 345.889 482.322C296.027 482.322 295.816 482.325 295.816 482.982ZM236.498 490.46C235.19 491.134 233.579 493.036 233.579 493.906C233.579 494.674 235.44 495.652 237.593 496.016C239.212 496.289 241.921 495.741 243.31 494.858C244.298 494.23 244.32 494.172 243.883 493.298C242.428 490.387 239.113 489.113 236.498 490.46ZM540.67 510.827C540.66 511.943 540.857 512.722 541.322 513.404C541.688 513.942 542.038 514.33 542.099 514.267C542.159 514.203 541.866 513.043 541.446 511.689L540.684 509.227L540.67 510.827ZM46.8469 511.462C45.5453 512.378 44.1527 514.684 43.7537 516.584C43.4924 517.827 43.5196 517.981 43.978 517.848C44.2652 517.765 45.3162 517.459 46.3139 517.167C48.7743 516.449 50.3445 514.838 50.3445 513.031C50.3445 512.072 50.1644 511.608 49.6422 511.227C48.69 510.529 48.1001 510.579 46.8469 511.462ZM11.3774 513.067C10.5414 513.575 9.90644 515.387 9.90644 517.264C9.90644 518.901 10.6334 521.276 11.1341 521.276C11.5717 521.276 14.0027 518.378 14.3382 517.456C15.4569 514.381 13.6422 511.691 11.3774 513.067ZM541.33 515.754C540.647 516.097 540.599 516.273 540.774 517.795C540.88 518.711 540.967 520.372 540.969 521.486L540.971 523.512L542.335 523.726C543.797 523.955 547.389 525.595 547.744 526.196C547.862 526.395 548.076 526.558 548.22 526.558C548.363 526.558 547.598 525.009 546.52 523.115C545.442 521.221 544.163 518.695 543.678 517.503C542.765 515.259 542.584 515.124 541.33 515.754ZM41.3407 521.276C41.0712 521.821 40.9218 522.267 41.0086 522.267C41.0955 522.267 41.3871 521.821 41.6566 521.276C41.9261 520.732 42.0755 520.286 41.9886 520.286C41.9018 520.286 41.6102 520.732 41.3407 521.276ZM547.922 530.925C546.578 531.489 544.693 531.994 543.567 532.092L541.582 532.263L541.782 534.28C542.338 539.888 543.324 542.521 547.328 549.09C548.518 551.043 549.875 553.419 550.343 554.372L551.194 556.104L551.412 555.04C552.444 549.995 558.585 550.343 563.273 555.713C565.325 558.062 565.324 558.052 563.039 551.978C561.066 546.735 560.24 545.195 559.436 545.26C559.098 545.288 557.755 545.722 556.451 546.223C553.231 547.463 550.532 547.469 548.13 546.241C546.434 545.374 545.394 543.987 545.394 542.591C545.394 541.456 546.347 539.749 547.35 539.089C548.891 538.074 551.895 538.336 554.757 539.736C555.944 540.316 557.166 541.029 557.473 541.319C557.78 541.609 558.031 541.748 558.031 541.628C558.031 541.274 550.682 529.856 550.478 529.894C550.375 529.913 549.225 530.377 547.922 530.925ZM541.888 545.537C539.708 548.709 536.739 549.39 533.699 547.415C532.834 546.853 532.125 546.435 532.125 546.487C532.125 546.538 532.407 548.213 532.751 550.209C533.532 554.744 534.728 559.096 535.799 561.305C536.912 563.6 539.765 566.653 541.741 567.663C543.838 568.735 547.531 568.924 549.12 568.04C552.976 565.896 552.255 559.681 547.2 551.483C546.305 550.03 544.978 547.757 544.251 546.431L542.929 544.021L541.888 545.537ZM489.792 553.063C486.382 556.531 483.403 559.09 481.736 559.981C481.215 560.26 479.509 560.959 477.945 561.534C475.155 562.562 473.68 563.555 473.68 564.407C473.68 565.737 478.873 566.809 486.475 567.049C491.133 567.196 493.189 567.099 497.848 566.513C500.976 566.119 505.399 565.67 507.677 565.513C511.839 565.228 513.584 564.768 514.4 563.74C514.934 563.067 514.717 559.844 513.944 556.964L513.435 555.067L509.59 555.045C504.84 555.018 501.661 554.129 496.768 551.462C494.957 550.474 493.393 549.672 493.292 549.678C493.192 549.684 491.616 551.207 489.792 553.063ZM569.34 556.886C568.348 557.559 567.473 558.179 567.395 558.263C567.317 558.346 567.66 559.678 568.156 561.221L569.059 564.027L572.836 564.12L576.612 564.212L577.466 561.532C577.936 560.058 578.198 558.741 578.049 558.604C577.899 558.468 576.852 558.019 575.723 557.606C574.593 557.193 573.226 556.575 572.684 556.232C572.142 555.889 571.574 555.621 571.421 555.635C571.267 555.649 570.331 556.212 569.34 556.886ZM552.172 558.745C552.533 560.309 552.994 563.477 552.902 563.765C552.769 564.182 552.938 564.192 560.186 564.192H567.079L566.384 561.964C565.583 559.397 565.872 559.489 561.308 560.361C557.529 561.084 554.793 560.527 552.854 558.642L551.943 557.755L552.172 558.745ZM28.7038 560.43C28.3563 560.708 27.8672 561.059 27.617 561.209C27.236 561.438 27.2253 561.702 27.551 562.837L27.9393 564.192H30.3039C32.5514 564.192 32.6838 564.15 32.9766 563.346C33.5523 561.763 33.4815 561.695 29.5028 559.994C29.4108 559.955 29.0513 560.151 28.7038 560.43Z" fill="#545454"/>
</svg>
