<svg width="464" height="364" viewBox="0 0 464 364" fill="none" xmlns="http://www.w3.org/2000/svg">
<path fill-rule="evenodd" clip-rule="evenodd" d="M242.914 1.40839C242.914 2.0562 244.018 3.60691 245.367 4.85481C248.626 7.87051 247.8 8.35585 243.814 5.76741C240.202 3.42025 238.467 3.15683 237.744 4.84444C237.394 5.66508 238.353 6.88395 241.046 9.03891C244.293 11.6377 244.485 11.9198 242.374 10.9934C239.064 9.54084 237.454 9.63002 236.97 11.2934C236.569 12.6672 235.918 12.6761 133.343 12.6761H30.1214L29.9271 187.763L29.7328 362.849L15.1972 362.978C7.20194 363.049 0.465722 363.283 0.226713 363.497C-0.012297 363.711 66.898 363.892 148.916 363.899C230.934 363.905 322.5 363.914 352.396 363.917C453.926 363.928 464.448 363.886 463.986 363.473C463.733 363.245 458.298 363.104 451.908 363.158C445.244 363.215 440.289 362.985 440.289 362.619C440.289 362.268 440.834 360.813 441.498 359.386C442.166 357.954 442.755 354.548 442.815 351.783C442.916 346.986 442.766 346.533 439.265 341.13C437.254 338.027 435.813 335.191 436.064 334.828C436.313 334.465 431.555 329.896 425.489 324.674C405.777 307.704 390.914 294.501 386.282 289.844L381.745 285.284L381.334 255.277C381.108 238.772 381.183 222.935 381.502 220.084C382.058 215.089 382.157 214.89 384.199 214.68C386.265 214.466 386.32 214.347 386.32 210.059C386.32 205.77 386.265 205.652 384.199 205.438C382.119 205.224 382.07 205.109 381.566 199.343C381.149 194.579 381.267 193.315 382.192 192.666C383.178 191.976 382.581 189.771 377.839 176.579L372.345 161.292L374.861 157.349C376.244 155.181 378.995 149.976 380.974 145.782L384.571 138.158L389.3 137.952C395.227 137.694 395.559 136.429 389.699 136.429C385.603 136.429 385.391 136.345 385.772 134.874C389.084 122.099 389.33 118.747 387.394 112.876C385.781 107.983 380.668 98.7565 377.743 95.4573C376.475 94.0262 374.928 91.3209 374.307 89.4453C373.686 87.5696 372.145 85.1091 370.882 83.9766C367.939 81.337 367.658 77.453 370.321 76.214C379.836 71.7873 387.181 60.4345 386.053 51.8976C385.381 46.8106 382.553 43.0662 376.908 39.7905C371.617 36.7202 363.867 34.1082 360.048 34.1082C358.386 34.1082 357.154 33.5676 356.113 32.3799C353.237 29.1014 350.835 30.8941 349.256 37.4973C348.723 39.7262 347.33 42.4315 345.777 44.2567C341.865 48.8515 338.578 59.8558 338.533 68.5033C338.525 70.1197 338.258 71.4416 337.94 71.4416C337.622 71.4416 330.039 69.2528 321.089 66.5779L304.814 61.7135L290.826 43.1298C277.886 25.9378 271.93 18.8984 270.324 18.8984C269.058 18.8984 267.634 16.4358 267.611 14.204C267.597 12.9534 266.909 10.7397 266.081 9.28504C265.254 7.82973 264.171 5.19773 263.677 3.43545C262.782 0.248293 261.998 -0.295808 259.968 0.857377C259.177 1.30607 259.042 2.28227 259.438 4.65432C260.342 10.0587 257.73 9.77244 250.177 3.63871C245.898 0.164638 242.914 -0.752101 242.914 1.40839ZM246.671 4.71032C249.648 7.60641 250.75 9.91071 249.159 9.91071C248.778 9.91071 246.642 8.81007 244.413 7.46469C242.183 6.1193 240.067 4.85689 239.709 4.65847C239.351 4.46005 239.06 4.70548 239.062 5.20326C239.064 5.70104 241.012 7.45639 243.392 9.10459C246.607 11.3321 247.494 12.3021 246.848 12.8822C246.2 13.4629 245.336 13.4325 243.481 12.7646C236.861 10.3801 236.535 11.5064 242.997 14.4426C247.46 16.4703 247.339 17.8848 242.76 17.2281C238.835 16.6653 239.555 17.9775 243.519 18.6115C245.094 18.8631 248.917 20.1497 252.014 21.4695C255.978 23.1592 258.221 23.7393 259.596 23.4302C260.857 23.1468 261.372 23.2456 261.052 23.7102C260.383 24.6802 261.522 24.5827 263.006 23.5429C268.782 19.4992 268.654 19.6492 267.393 18.3736C266.739 17.7113 266.036 15.77 265.832 14.0589C265.462 10.9498 262.342 2.87614 261.104 1.82528C260.744 1.51901 260.692 2.76829 260.988 4.60039C261.48 7.63407 261.344 8.08553 259.466 9.64523C257.709 11.1061 257.48 11.7207 257.918 13.8141C258.266 15.4741 258.167 16.1219 257.612 15.8142C257.161 15.5646 256.792 13.989 256.792 12.3139C256.792 10.0338 256.425 9.09214 255.333 8.5681C254.531 8.18301 252.036 6.46084 249.79 4.74143C244.481 0.677627 242.505 0.657574 246.671 4.71032ZM31.6603 188.627V363.195H100.279H168.898V361.499C168.898 357.434 172.002 354.641 178.536 352.828C184.878 351.068 198.386 344.282 199.852 342.119L201.267 340.034L145.568 339.689L89.8707 339.343L89.6248 337.791L89.3796 336.241L146.293 336.063L203.207 335.886L205.241 332.084C206.359 329.992 207.119 328.048 206.93 327.763C206.741 327.477 180.214 327.244 147.982 327.244H89.378L89.624 325.689L89.8707 324.133L149.827 323.956L209.785 323.779L211.7 319.894C212.754 317.758 213.616 315.896 213.616 315.755C213.616 315.614 185.773 315.42 151.743 315.322L89.8707 315.145L89.624 313.59C89.4891 312.735 89.4891 311.961 89.624 311.872C89.7597 311.782 118.286 311.549 153.016 311.353L216.162 310.997L223.389 297.17C227.364 289.565 233.751 277.244 237.582 269.789C242.888 259.463 245.271 255.601 247.585 253.574L250.624 250.914V227.217V203.521L248.746 204.288C246.578 205.174 244.456 204.664 244.456 203.259C244.456 202.727 245.844 201.469 247.54 200.462C251.512 198.105 251.498 197.072 247.513 198.476C245.254 199.272 244.171 199.364 243.556 198.813C242.159 197.56 243.43 195.979 247.13 194.368C250.596 192.857 250.624 192.817 250.624 189.319C250.624 187.379 250.245 185.452 249.781 185.037C249.172 184.49 249.172 183.891 249.781 182.87C250.376 181.872 250.624 158.043 250.624 101.645V21.8318L248.504 21.1024C247.338 20.7021 245.516 20.1767 244.456 19.9354C240.118 18.9488 238.288 18.001 238.288 16.7406C238.288 15.8578 238.844 15.4381 240.023 15.4312C241.425 15.4222 241.536 15.2922 240.601 14.7502C239.869 14.3264 201.295 14.0761 135.552 14.0692L31.6603 14.0589V188.627ZM265.852 23.2111C261.11 26.4155 261.123 26.3989 262.131 27.8252C262.694 28.623 263.527 28.3949 266.686 26.5773C271.91 23.5713 272.785 22.5736 271.338 21.2753C270.35 20.3889 269.676 20.6268 265.852 23.2111ZM116.277 23.1018C115.16 23.6853 114.928 24.815 114.928 29.6635C114.928 35.157 115.041 35.567 116.758 36.268C118.086 36.8108 119.038 36.8004 120.228 36.2293C121.702 35.5214 121.867 34.8515 121.867 29.5729C121.867 23.9086 121.798 23.6798 119.89 23.0292C117.563 22.2362 117.95 22.2286 116.277 23.1018ZM97.9662 29.575C97.9662 34.987 98.1751 36.1823 99.1227 36.1823C99.8891 36.1823 100.279 35.4951 100.279 34.1463C100.279 32.6066 100.797 31.8876 102.399 31.1983C104.293 30.3846 104.52 29.9186 104.52 26.84V23.3922L101.243 23.18L97.9662 22.967V29.575ZM106.308 29.613C106.5 34.7491 106.794 36.1823 107.657 36.1823C108.409 36.1823 108.76 35.3935 108.76 33.7052C108.76 30.5809 110.58 30.8195 110.929 33.9886C111.073 35.2919 111.604 36.1823 112.238 36.1823C113.066 36.1823 113.292 34.9026 113.244 30.4786C113.21 27.3419 112.84 24.3864 112.419 23.9107C111.999 23.4358 110.397 23.0458 108.859 23.0451L106.062 23.0438L106.308 29.613ZM123.409 29.6144C123.409 34.9918 123.619 36.1823 124.566 36.1823C125.379 36.1823 125.722 35.4453 125.722 33.6976C125.722 31.795 126.083 31.1285 127.264 30.8519C128.112 30.6528 128.806 30.0597 128.806 29.5335C128.806 29.0081 128.112 28.5774 127.264 28.5774C126.133 28.5774 125.722 28.1162 125.722 26.849C125.722 25.4663 126.108 25.1206 127.65 25.1206C128.849 25.1206 129.577 24.7286 129.577 24.0836C129.577 23.3348 128.721 23.0465 126.493 23.0465H123.409V29.6144ZM131.119 29.6144C131.119 34.9918 131.329 36.1823 132.276 36.1823C133.222 36.1823 133.432 34.9918 133.432 29.6144C133.432 24.237 133.222 23.0465 132.276 23.0465C131.329 23.0465 131.119 24.237 131.119 29.6144ZM134.974 29.6144V36.1823H138.058C140.286 36.1823 141.142 35.894 141.142 35.1453C141.142 34.5003 140.414 34.1082 139.215 34.1082C137.319 34.1082 137.287 34.0163 137.287 28.5774C137.287 24.1223 137.062 23.0465 136.131 23.0465C135.184 23.0465 134.974 24.237 134.974 29.6144ZM141.913 29.6144V36.1823H145.447C147.929 36.1823 148.886 35.9251 148.663 35.3181C148.489 34.8432 147.592 34.3544 146.672 34.2327C144.386 33.9313 144.265 30.6515 146.539 30.6515C147.396 30.6515 148.081 30.1903 148.081 29.6144C148.081 29.0385 147.396 28.5774 146.539 28.5774C144.265 28.5774 144.386 25.2976 146.672 24.9961C147.592 24.8745 148.489 24.3864 148.663 23.9107C148.886 23.3037 147.929 23.0465 145.447 23.0465H141.913V29.6144ZM153.478 29.6144V36.1823H156.408C160.446 36.1823 161.188 35.2407 161.188 30.1219C161.188 24.2509 160.396 23.0465 156.535 23.0465H153.478V29.6144ZM163.906 23.9107C163.55 24.8765 161.959 34.3087 161.959 35.4509C161.959 35.8532 162.479 36.1823 163.116 36.1823C163.752 36.1823 164.272 35.7157 164.272 35.1453C164.272 34.5694 164.957 34.1082 165.814 34.1082C166.671 34.1082 167.356 34.5694 167.356 35.1453C167.356 35.7157 167.988 36.1823 168.762 36.1823C170.085 36.1823 170.11 35.8691 169.188 30.8243C168.65 27.877 168.19 24.9222 168.168 24.2564C168.12 22.8315 164.413 22.5315 163.906 23.9107ZM169.669 23.7593C169.669 24.152 170.189 24.6519 170.826 24.8703C171.718 25.178 171.982 26.5123 171.982 30.7254C171.982 35.1149 172.208 36.1823 173.139 36.1823C174.068 36.1823 174.295 35.1156 174.295 30.7324C174.295 25.8631 174.459 25.243 175.837 24.9201C178.844 24.2149 177.401 23.0465 173.524 23.0465C171.39 23.0465 169.669 23.3645 169.669 23.7593ZM178.921 23.265C178.921 23.3853 178.569 25.3301 178.138 27.586C176.458 36.3821 176.467 36.1823 177.73 36.1823C178.385 36.1823 178.921 35.7157 178.921 35.1453C178.921 34.5694 179.606 34.1082 180.463 34.1082C181.32 34.1082 182.005 34.5694 182.005 35.1453C182.005 35.7343 182.697 36.1823 183.608 36.1823C184.947 36.1823 185.141 35.8685 184.784 34.2811C184.549 33.2358 183.965 30.2802 183.487 27.7132C182.696 23.4662 182.451 23.0465 180.769 23.0465C179.753 23.0465 178.921 23.1447 178.921 23.265ZM252.166 102.777V182.656L259.298 182.933C263.22 183.085 267.184 183.448 268.107 183.739C269.345 184.129 270.148 183.888 271.17 182.817C271.931 182.02 272.956 181.368 273.445 181.368C273.936 181.368 274.812 180.754 275.395 180.004C276.223 178.937 298.335 170.618 310.851 166.666C311.934 166.324 312.153 164.117 312.53 149.795C313.074 129.176 315.177 116.115 320.446 100.625C321.534 97.4235 322.316 94.7099 322.183 94.5938C322.05 94.4777 317.778 92.3006 312.689 89.7557C302.945 84.883 295.393 80.5461 292.382 78.0945C289.172 75.4819 260.375 32.2851 260.948 30.9439C261.141 30.4931 260.839 28.9238 260.276 27.456C259.495 25.4193 258.734 24.6843 257.059 24.3483C255.852 24.1071 254.257 23.6819 253.515 23.4039C252.235 22.9241 252.166 26.9707 252.166 102.777ZM117.734 24.909C117.463 25.1524 117.241 27.3212 117.241 29.7299C117.241 33.1611 117.492 34.1082 118.398 34.1082C119.306 34.1082 119.554 33.1528 119.554 29.6552C119.554 25.514 118.916 23.8492 117.734 24.909ZM100.279 27.2521C100.279 29.8972 102.096 29.66 102.45 26.9686C102.624 25.6592 102.343 25.1206 101.487 25.1206C100.652 25.1206 100.279 25.7781 100.279 27.2521ZM108.76 26.849C108.76 28.0167 109.113 28.5871 109.724 28.4045C110.254 28.2462 110.688 27.5459 110.688 26.849C110.688 26.1521 110.254 25.4518 109.724 25.2934C109.113 25.1109 108.76 25.6813 108.76 26.849ZM155.791 29.6144C155.791 33.148 156.039 34.1082 156.948 34.1082C157.857 34.1082 158.104 33.148 158.104 29.6144C158.104 26.0809 157.857 25.1206 156.948 25.1206C156.039 25.1206 155.791 26.0809 155.791 29.6144ZM180.181 29.1457C179.832 30.4081 179.752 31.627 180.004 31.853C180.876 32.6343 181.342 31.468 181.08 29.1623L180.817 26.849L180.181 29.1457ZM165.043 29.9601C165.043 31.1008 165.39 32.0342 165.814 32.0342C166.238 32.0342 166.585 31.1008 166.585 29.9601C166.585 28.8194 166.238 27.886 165.814 27.886C165.39 27.886 165.043 28.8194 165.043 29.9601ZM348.369 42.9134C347.707 43.584 346.445 45.2115 345.563 46.5299L343.959 48.9261L345.611 50.5024C346.519 51.3687 347.026 52.2903 346.737 52.5489C346.448 52.8081 345.723 52.4209 345.126 51.6888C344.529 50.9567 343.84 50.5377 343.594 50.7582C342.793 51.4765 340.588 60.393 341.099 60.8507C341.955 61.6181 345.592 59.721 346.01 58.2892C346.4 56.9466 347.77 56.3499 347.77 57.5211C347.77 58.6335 344.582 61.7626 343.449 61.7626C341.872 61.7626 341.239 63.6493 342.397 64.8993C342.929 65.4738 343.112 66.1693 342.805 66.4451C342.498 66.7203 341.754 66.3421 341.153 65.6045C340.176 64.4063 340.06 64.8571 340.06 69.8404C340.06 80.1472 341.158 81.6613 349.091 82.2945C353.255 82.6271 357.19 81.8369 363.382 79.424C364.124 79.135 364.732 79.1855 364.732 79.536C364.732 80.208 359.872 82.5033 358.449 82.5033C357.99 82.5033 355.228 83.5148 352.311 84.7502L347.006 86.9972L347.003 91.6853C346.999 95.1649 347.289 96.4743 348.127 96.7619C349.898 97.371 356.247 95.1939 362.089 91.9742L367.43 89.0304V82.6748C367.43 77.6133 367.195 76.2617 366.274 76.035C365.598 75.8684 365.813 75.717 366.793 75.6699C368.925 75.5676 373.103 71.8454 374.535 68.7723C375.496 66.7113 375.493 66.2758 374.511 65.3964C373.119 64.1478 370.944 64.6939 367.771 67.0874L365.422 68.8601L365.797 67.2126C366.881 62.4505 366.897 60.8521 365.892 57.8571C364.882 54.8476 364.915 54.3312 366.298 51.5284C367.126 49.8498 367.588 48.1643 367.325 47.7833C366.687 46.8569 359.628 44.0901 355.403 43.109C353.537 42.6763 351.461 42.1805 350.79 42.0077C350.12 41.8349 349.03 42.2428 348.369 42.9134ZM91.991 47.0712C119.024 47.1722 163.261 47.1722 190.293 47.0712C217.327 46.9703 195.208 46.888 141.142 46.888C87.0758 46.888 64.9582 46.9703 91.991 47.0712ZM352.781 54.849C353.043 55.2292 354.054 55.5404 355.027 55.5404C356.849 55.5404 360.354 57.9836 361.046 59.7362C361.261 60.2803 361.685 60.5188 361.99 60.2665C362.911 59.5018 360.931 56.9328 358.322 55.5058C355.753 54.1016 351.955 53.6516 352.781 54.849ZM42.8113 57.0883C42.607 57.5681 42.5299 76.7823 42.6401 99.7873L42.8398 141.614H75.2217H107.604V99.0959V56.5774L75.3937 56.3969C50.0378 56.2552 43.1042 56.4018 42.8113 57.0883ZM343.915 57.2688C343.915 57.8391 344.262 58.3058 344.686 58.3058C345.11 58.3058 345.457 57.8391 345.457 57.2688C345.457 56.6984 345.11 56.2317 344.686 56.2317C344.262 56.2317 343.915 56.6984 343.915 57.2688ZM43.9963 85.5813V113.548L47.6585 112.534C49.6724 111.976 52.8821 111.2 54.7903 110.81C56.6985 110.42 59.9074 109.103 61.9205 107.882C64.7824 106.148 65.5819 105.253 65.5827 103.784C65.5843 101.861 62.9444 96.6582 61.5859 95.9053C60.5982 95.3577 57.8743 89.6409 57.8743 88.1151C57.8743 87.4624 58.2698 86.5734 58.7524 86.1406C59.2914 85.6573 59.6645 82.4321 59.7162 77.8118C59.7686 73.1976 60.1502 69.8943 60.7 69.3005C61.3854 68.56 63.9428 68.3305 71.4939 68.3305C80.4876 68.3305 81.6087 68.4708 83.7937 69.8681C87.7867 72.4219 88.9555 74.6868 89.338 80.6083C89.5292 83.568 89.9871 86.1565 90.3564 86.3611C91.5199 87.0061 91.0025 89.652 89.082 92.8737C88.0627 94.5848 86.7004 96.9748 86.0558 98.1847C85.4105 99.3946 84.53 100.58 84.0998 100.818C83.6696 101.057 83.3172 102.144 83.3172 103.234C83.3172 106.993 90.0534 110.343 103.556 113.3L105.676 113.764V85.6891V57.6144H74.8362H43.9963V85.5813ZM118.536 58.0659C117.575 58.9287 117.997 60.9177 119.232 61.3429C120.832 61.8939 165.673 61.8704 167.974 61.3173C169.236 61.0145 169.682 60.4663 169.516 59.4258C169.285 57.9712 169.095 57.9587 144.172 57.7783C130.361 57.678 118.825 57.8073 118.536 58.0659ZM354.292 61.8089C354.012 62.214 353.969 62.7118 354.194 62.9151C354.747 63.4101 356.251 62.5376 356.251 61.7218C356.251 60.8382 354.92 60.897 354.292 61.8089ZM342.378 72.1578C343.016 75.2918 344.061 76.2541 346.841 76.2707C348.518 76.2804 352.396 73.5281 352.396 72.3279C352.396 72.0203 350.748 71.3967 348.733 70.9417C346.719 70.4868 344.332 69.9199 343.428 69.6821C341.875 69.2728 341.818 69.409 342.378 72.1578ZM118.305 71.0627C118.069 71.6151 118.1 72.3929 118.375 72.7911C119.1 73.8434 186.013 73.7936 187.188 72.74C187.663 72.3134 187.869 71.5356 187.645 71.0116C187.018 69.548 118.932 69.5984 118.305 71.0627ZM343.915 72.74C343.915 74.8666 345.723 75.7667 348.069 74.8078C350.784 73.6989 350.609 72.4005 347.673 71.8737C344.177 71.2466 343.915 71.3068 343.915 72.74ZM65.4301 77.6998C64.373 78.2529 64.2049 79.0341 64.5611 81.7338C64.8433 83.8708 64.6899 85.2556 64.1371 85.5619C63.023 86.1793 63.0245 91.3824 64.1394 95.3536C65.0746 98.6839 69.6536 102.919 73.1755 103.711C75.5918 104.256 81.2972 101.776 83.0042 99.4395C85.0481 96.6423 86.2177 90.8867 85.3927 87.6885C85.0011 86.1675 84.6333 83.3993 84.577 81.5368C84.4945 78.8412 84.1591 78.0399 82.9317 77.6099C80.6881 76.8238 66.9697 76.8943 65.4301 77.6998ZM118.291 82.849C118.047 83.4194 118.047 84.3527 118.291 84.9231C118.665 85.7983 121.194 85.9601 134.47 85.9601C147.516 85.9601 150.369 85.7831 151.165 84.9231C151.931 84.0955 151.931 83.6766 151.165 82.849C150.369 81.989 147.516 81.812 134.47 81.812C121.194 81.812 118.665 81.9737 118.291 82.849ZM66.9335 83.9414C65.0368 84.9321 65.171 86.2069 67.0754 85.293C67.8957 84.8996 69.3043 84.5774 70.2048 84.5774C71.1061 84.5774 71.6289 84.2663 71.3667 83.886C70.76 83.0059 68.6744 83.0322 66.9335 83.9414ZM77.5347 83.886C77.2726 84.2663 77.7953 84.5774 78.6966 84.5774C79.5972 84.5774 81.0058 84.8996 81.8261 85.293C82.8022 85.7617 83.3172 85.77 83.3172 85.3172C83.3172 83.7367 78.4653 82.5358 77.5347 83.886ZM369.755 85.7873C372.112 90.8522 372.118 90.6095 369.559 93.7185C368.22 95.3453 365.853 98.7703 364.298 101.33C359.43 109.346 346.034 122.148 334.291 130.008C329.751 133.047 328.802 133.44 328.226 132.518C327.851 131.917 327.708 126.562 327.908 120.619C328.393 106.229 330.107 101.237 337.35 93.1205C340.113 90.0239 342.894 87.311 343.53 87.0926C344.165 86.8741 344.686 86.357 344.686 85.9442C344.686 84.6763 334.478 89.9216 328.978 94.0151C325.161 96.8566 323.917 98.1847 324.304 99.0095C326.586 103.885 326.589 103.717 324.157 105.552L321.848 107.295L323.927 118.232C325.071 124.248 326.425 131.426 326.935 134.182L327.863 139.195L331.968 136.05C336.879 132.289 345.959 127.55 353.922 124.595C357.111 123.412 359.83 122.355 359.965 122.246C360.1 122.137 359.306 120.451 358.203 118.497L356.197 114.947L358.729 114.03C360.123 113.525 363.622 112.553 366.507 111.868C370.099 111.016 372.026 110.17 372.625 109.181C373.132 108.345 373.516 104.25 373.537 99.4416C373.57 92.3379 373.334 90.6731 371.895 87.8614C370.971 86.0548 369.985 84.5774 369.704 84.5774C369.422 84.5774 369.446 85.1215 369.755 85.7873ZM59.8588 87.3822C59.5874 87.9741 59.8835 89.5296 60.5172 90.839L61.6691 93.2194L61.6452 91.1453C61.6313 90.0046 61.3353 88.449 60.9868 87.6885C60.4563 86.5312 60.2721 86.4807 59.8588 87.3822ZM68.3159 87.2951C68.0715 87.6491 68.2249 88.1338 68.6559 88.373C69.0869 88.6115 69.4392 88.3218 69.4392 87.7293C69.4392 86.5146 68.9766 86.3362 68.3159 87.2951ZM74.8362 87.8662C74.8362 88.534 75.1531 90.0716 75.5402 91.2822C76.167 93.2415 76.0606 93.5139 74.5764 93.749C73.0521 93.9902 73.029 94.0614 74.3096 94.5724C75.0806 94.88 76.0004 94.8565 76.3543 94.5212C77.1716 93.7455 76.4098 86.6515 75.5093 86.6515C75.1392 86.6515 74.8362 87.1977 74.8362 87.8662ZM79.5231 87.7459C79.5601 88.5513 79.7429 88.7152 79.9888 88.1642C80.2116 87.665 80.1839 87.0684 79.9279 86.8388C79.6719 86.6093 79.49 87.0172 79.5231 87.7459ZM87.9324 87.7231C87.927 88.4649 87.7428 89.849 87.523 90.7996C87.1915 92.237 87.348 92.1478 88.449 90.2721C89.4721 88.5313 89.5654 87.8296 88.8584 87.1956C88.1521 86.5623 87.9409 86.6826 87.9324 87.7231ZM342.235 90.6268C339.74 92.967 337.237 96.3305 337.99 96.3305C338.154 96.3305 339.434 95.9724 340.834 95.5347C343.041 94.8448 343.518 94.9084 344.418 96.0125C345.327 97.1269 345.457 96.708 345.457 92.6601C345.457 90.1159 345.353 88.0342 345.228 88.0342C345.102 88.0342 343.755 89.2012 342.235 90.6268ZM366.331 91.1577C362.323 93.6957 353.864 97.5044 351.046 98.0388C348.629 98.4979 348.541 98.6348 348.541 101.93V105.346L351.817 103.849C361.441 99.4506 369.358 93.5367 369.358 90.7464C369.358 89.1397 369.56 89.112 366.331 91.1577ZM118.305 95.2603C118.069 95.8127 118.1 96.5904 118.375 96.9887C118.711 97.4761 130.058 97.7132 153.056 97.7132C181.384 97.7132 187.307 97.55 187.645 96.7605C188.659 94.3912 186.764 94.2564 152.529 94.2564C123.696 94.2564 118.671 94.4037 118.305 95.2603ZM69.7631 96.2745C69.5834 96.4335 70.0106 97.1339 70.7137 97.83C72.955 100.051 79.4615 99.219 79.4622 96.7107C79.463 96.0263 70.4994 95.6225 69.7631 96.2745ZM73.487 97.4982C74.2295 97.6724 75.443 97.6724 76.1855 97.4982C76.928 97.3247 76.3204 97.1822 74.8362 97.1822C73.3521 97.1822 72.7445 97.3247 73.487 97.4982ZM337.062 98.6472C333.404 99.6324 331.635 103.407 329.725 114.306C329.389 116.228 329.827 115.729 331.856 111.886C333.26 109.224 335.354 106.046 336.509 104.823C338.25 102.981 340.501 98.4191 339.854 98.0471C339.755 97.9904 338.499 98.2608 337.062 98.6472ZM355.511 103.98C351.925 105.857 348.541 107.392 347.994 107.392C347.346 107.392 346.999 106.425 346.999 104.625V101.857L344.554 102.752C342.478 103.512 341.831 104.374 340.276 108.458C337.9 114.69 335.277 124.474 335.59 125.931C335.94 127.561 351.021 115.048 356.436 108.635C360.174 104.209 362.913 100.389 362.253 100.524C362.132 100.548 359.098 102.104 355.511 103.98ZM67.1263 104.35C67.1263 105.313 66.7739 106.691 66.3429 107.413C65.6783 108.527 66.1548 109.147 69.4963 111.515C74.0891 114.771 75.689 114.942 79.1862 112.549C85.0828 108.516 84.328 105.68 77.3466 105.635C74.1169 105.614 71.9897 105.172 69.9674 104.103L67.1263 102.599V104.35ZM118.9 106.621C118.328 106.946 117.986 107.797 118.139 108.512C118.405 109.746 119.473 109.812 139.215 109.812C158.956 109.812 160.025 109.746 160.29 108.512C160.443 107.797 160.101 106.946 159.529 106.621C158.958 106.296 149.816 106.031 139.215 106.031C128.613 106.031 119.472 106.296 118.9 106.621ZM62.8495 109.519C62.4486 110.1 66.3668 119.1 67.6089 120.452C67.7446 120.601 69.2457 119.597 70.9435 118.221C73.9943 115.749 74.0105 115.711 72.3128 114.93C71.3683 114.496 68.9697 112.931 66.9821 111.453C64.7099 109.764 63.1757 109.045 62.8495 109.519ZM83.2147 110.826C82.2232 112.028 80.254 113.653 78.8393 114.438L76.2657 115.864L78.7568 118.169C80.1276 119.437 81.4792 120.347 81.7598 120.191C82.0412 120.035 83.2424 117.689 84.429 114.977C86.9116 109.302 86.2725 107.116 83.2147 110.826ZM58.1896 111.379C57.3484 111.886 54.7903 117.996 54.7903 119.497C54.7903 119.935 56.2644 121.274 58.067 122.471C65.0392 127.106 64.6621 126.457 61.8788 129.032C60.5242 130.284 59.4163 131.597 59.4163 131.949C59.4163 132.299 61.4 134.385 63.8256 136.582C67.1424 139.588 68.7785 140.577 70.4307 140.577C72.1724 140.577 72.5379 140.327 72.1971 139.368C70.0915 133.447 60.3284 111.24 59.7601 111.079C59.3592 110.964 58.6522 111.1 58.1896 111.379ZM88.3156 111.725C88.1283 112.194 85.5516 118.878 82.5894 126.577L77.2032 140.577H79.3258C81.3735 140.577 82.9471 139.253 89.008 132.429C90.4567 130.797 90.4551 130.793 87.5161 128.094C85.8978 126.609 84.7251 125.283 84.9093 125.148C85.0936 125.012 87.2624 123.883 89.7281 122.639C92.1937 121.394 94.0657 120.021 93.8876 119.588C93.7103 119.154 92.9763 117.194 92.2562 115.23C90.984 111.76 89.0049 109.999 88.3156 111.725ZM69.9273 121.815L67.8664 123.744L69.7276 128.183L71.5888 132.622L72.1177 127.785C72.4091 125.124 72.807 122.429 73.002 121.796C73.6165 119.801 72.0691 119.81 69.9273 121.815ZM117.241 129.861V139.886H128.421H139.6V129.861V119.837H128.421H117.241V129.861ZM150.394 129.861V139.886H161.574H172.753V129.861V119.837H161.574H150.394V129.861ZM183.113 120.738C182.901 121.233 182.825 125.666 182.945 130.589L183.162 139.54L194.534 139.732L205.906 139.923V129.88V119.837H194.703C186.208 119.837 183.405 120.054 183.113 120.738ZM77.4252 124.778C77.6974 127.115 77.9472 129.837 77.9804 130.827C78.022 132.066 78.5918 131.227 79.8107 128.133L81.5809 123.639L80.0019 122.084C77.4484 119.568 76.8863 120.156 77.4252 124.778ZM118.783 129.861V138.503H128.421H138.058V129.861V121.219H128.421H118.783V129.861ZM151.936 129.861V138.503H161.574H171.211V129.861V121.219H161.574H151.936V129.861ZM185.089 129.861V138.503H194.727H204.364V129.861V121.219H194.727H185.089V129.861ZM400.198 137.121C400.198 137.515 402.511 137.812 405.595 137.812C408.679 137.812 410.992 137.515 410.992 137.121C410.992 136.726 408.679 136.429 405.595 136.429C402.511 136.429 400.198 136.726 400.198 137.121ZM414.076 137.121C414.076 137.538 417.354 137.813 422.364 137.815C431.358 137.818 434.251 138.693 436.805 142.188C439.528 145.915 439.467 147.292 435.589 169.688C431.648 192.456 431.38 194.508 432.48 193.432C433.64 192.299 440.503 150.42 440.118 146.828C439.323 139.41 434.184 136.468 421.978 136.444C417.213 136.435 414.076 136.704 414.076 137.121ZM43.2253 152.331C43.2253 152.787 76.3782 153.022 141.142 153.022C205.906 153.022 239.059 152.787 239.059 152.331C239.059 151.874 205.906 151.639 141.142 151.639C76.3782 151.639 43.2253 151.874 43.2253 152.331ZM78.0151 163.963C78.7969 165.085 78.7899 165.563 77.9796 166.439C77.1515 167.334 77.16 167.577 78.0258 167.825C78.6041 167.991 80.3496 168.477 81.9063 168.906C85.5716 169.915 90.6872 174.903 91.7766 178.53C92.5353 181.056 92.7735 181.265 94.0757 180.536C95.2214 179.894 95.8112 179.932 96.8683 180.718C98.1142 181.643 98.1682 181.522 97.637 178.98C95.9631 170.964 88.8962 164.715 79.6033 163.033C77.187 162.596 77.0991 162.648 78.0151 163.963ZM140.785 165.307C140.922 167.319 141.33 167.924 142.789 168.274C153.188 170.768 158.067 180.576 153.197 189.201C151.577 192.072 151.521 192.429 152.694 192.429C153.419 192.429 154.349 193.103 154.759 193.927C155.49 195.398 155.534 195.387 157.185 193.307C159.927 189.855 161.453 183.324 160.475 179.234C158.443 170.737 151.83 164.662 142.998 163.179C140.665 162.787 140.618 162.833 140.785 165.307ZM203.578 164.059C204.258 165.197 204.253 165.791 203.56 166.539C202.85 167.307 202.88 167.591 203.699 167.825C204.277 167.991 205.992 168.468 207.512 168.886C210.625 169.742 214.644 172.974 216.53 176.14C217.296 177.425 217.792 179.887 217.792 182.405C217.792 184.922 217.296 187.384 216.53 188.669C214.644 191.835 210.625 195.068 207.512 195.923C205.992 196.341 204.301 196.81 203.753 196.965C203.046 197.166 202.97 197.608 203.494 198.486C203.973 199.288 203.956 200.169 203.445 200.988C202.73 202.132 202.898 202.207 205.245 201.782C216.19 199.8 223.639 191.953 223.639 182.405C223.639 172.862 216.189 165.009 205.26 163.03C202.806 162.586 202.728 162.634 203.578 164.059ZM273.979 182.507C273.292 182.757 273.452 183.768 274.59 186.356C276.843 191.481 277.516 192.418 278.657 192.025C279.465 191.748 279.276 190.649 277.772 186.866C276.721 184.222 275.647 182.084 275.386 182.114C275.125 182.143 274.491 182.321 273.979 182.507ZM250.624 184.262C250.624 184.537 251.925 184.972 253.515 185.229C261.381 186.499 259.645 190.381 249.232 194.803C246.605 195.919 244.456 197.226 244.456 197.708C244.456 198.343 245.356 198.217 247.733 197.25C251.517 195.71 254.76 195.463 254.297 196.75C254.126 197.226 252.154 198.849 249.914 200.356C244.875 203.749 246.027 204.369 251.834 201.389C255.018 199.756 256.371 199.38 257.009 199.953C257.648 200.525 257.09 201.447 254.877 203.479C251.023 207.019 251.755 207.724 255.991 204.551C260.714 201.012 263.148 201.333 259.876 205.062C256.597 208.8 258.616 207.408 265.273 201.342C269.089 197.863 272.212 194.591 272.212 194.069C272.212 193.547 272.472 193.116 272.79 193.11C273.109 193.104 273.818 192.843 274.368 192.531C275.166 192.077 275.041 191.178 273.752 188.09L272.136 184.218L269.09 185.182C266.446 186.019 266.044 186.013 266.044 185.14C266.044 183.987 266.308 184.026 257.37 183.875C253.66 183.813 250.624 183.986 250.624 184.262ZM252.166 188.899C252.166 192.147 252.753 192.393 255.116 190.138C257.038 188.303 257.291 186.898 255.699 186.898C255.097 186.898 254.056 186.71 253.386 186.479C252.396 186.138 252.166 186.594 252.166 188.899ZM295.047 192.289C283.97 194.971 281.901 195.294 281.169 194.454C279.845 192.936 273.963 193.515 273.359 195.222C273.099 195.955 271.332 197.697 269.432 199.093C267.533 200.49 265.276 202.517 264.416 203.598L262.855 205.565H282.614H302.373L306.601 201.98C309.828 199.243 310.569 198.264 309.732 197.844C308.803 197.377 308.783 196.656 309.602 193.133C310.473 189.39 310.445 188.981 309.317 189.055C308.628 189.1 302.206 190.556 295.047 192.289ZM253.036 202.039C252.454 202.37 252.116 203.011 252.285 203.464C252.482 203.996 253.103 203.78 254.04 202.853C255.512 201.394 254.959 200.946 253.036 202.039ZM430.11 202.8C429.851 203.75 429.209 207.328 428.682 210.75C428.156 214.173 427.477 217.226 427.175 217.534C426.872 217.843 421.979 218.691 416.302 219.418C410.625 220.144 404.673 221.072 403.076 221.479C399.736 222.331 395.223 225.642 393.625 228.413C393.022 229.459 391.143 239.757 389.45 251.298C386.403 272.063 386.387 272.295 387.865 273.625C388.688 274.365 389.606 274.751 389.904 274.482C390.203 274.214 389.808 273.575 389.026 273.063C387.653 272.163 387.711 271.41 390.716 251.289C394.955 222.91 394.308 223.652 417.545 220.48C435.641 218.01 438.747 218.159 438.747 221.497C438.747 223.963 436.179 224.757 423.328 226.264C401.255 228.854 402 228.3 399.456 244.021C398.479 250.058 397.085 258.498 396.357 262.775C395.63 267.053 395.323 270.553 395.674 270.553C396.026 270.553 396.494 269.853 396.716 268.997C397.108 267.48 399.427 253.684 399.427 252.866C399.427 252.64 403.216 252.56 407.847 252.689C415.51 252.902 416.448 253.074 418.256 254.599C419.349 255.521 420.244 256.532 420.244 256.846C420.244 257.16 416.795 257.417 412.579 257.417C408.154 257.417 404.707 257.718 404.424 258.129C404.094 258.607 407.307 258.777 414.209 258.648L424.484 258.454L426.982 247.392C431.738 226.331 431.745 226.306 433.487 226.306C434.731 226.306 434.97 226.631 434.633 227.861C433.791 230.928 428.725 256.698 428.725 257.915C428.725 258.599 429.418 259.547 430.267 260.022C431.555 260.744 431.809 261.634 431.809 265.439C431.809 270.503 430.417 273.412 427.405 274.642C426.259 275.11 419.075 275.392 408.302 275.392C397.623 275.392 390.855 275.656 390.56 276.084C390.25 276.533 394.31 276.775 402.174 276.775C415.853 276.775 416.254 277.074 407.709 280.903C403.264 282.895 402.57 282.997 393.521 282.997C387.034 282.997 384.007 283.243 384.007 283.769C384.007 284.907 403.741 284.179 406.816 282.928C410.56 281.404 414.836 278.587 414.841 277.639C414.845 277.027 416.497 276.775 420.515 276.775C427.499 276.775 430.862 275.112 432.448 270.873C433.944 266.878 433.292 260.338 431.253 258.896L429.654 257.763L433.06 241.949C436.105 227.82 436.67 225.993 438.378 224.788C440.725 223.133 440.85 220.586 438.68 218.641C437.36 217.456 436.318 217.239 432.878 217.431C428.768 217.659 428.692 217.629 429.055 215.935C430.218 210.515 431.162 203.562 430.893 202.406C430.628 201.27 430.511 201.329 430.11 202.8ZM253.515 207.424C252.487 207.665 252.166 208.467 252.166 210.801V213.861H272.434H292.701L296.498 210.405L300.295 206.948H281.215C264.58 206.948 261.879 207.098 260.141 208.119C258.267 209.22 258.089 209.22 257.192 208.119C256.219 206.927 255.898 206.866 253.515 207.424ZM381.694 210.405C381.694 213.4 381.9 213.861 383.236 213.861C384.572 213.861 384.778 213.4 384.778 210.405C384.778 207.409 384.572 206.948 383.236 206.948C381.9 206.948 381.694 207.409 381.694 210.405ZM59.9305 209.483C59.6476 209.736 59.4163 210.514 59.4163 211.211C59.4163 212.401 60.4309 212.479 75.9287 212.479C92.7273 212.479 93.7565 212.32 92.7589 209.886C92.4906 209.233 88.5053 209.022 76.4245 209.022C67.6351 209.022 60.2127 209.229 59.9305 209.483ZM122.132 210.091C121.874 210.695 121.994 211.486 122.398 211.848C122.831 212.237 129.761 212.43 139.269 212.32C154.822 212.14 155.406 212.083 155.406 210.75C155.406 209.417 154.822 209.361 139.003 209.181C124.611 209.017 122.544 209.129 122.132 210.091ZM185.603 209.483C185.32 209.736 185.089 210.514 185.089 211.211C185.089 212.401 186.104 212.479 201.62 212.479C210.715 212.479 218.346 212.196 218.584 211.85C218.823 211.504 218.806 210.726 218.547 210.121C218.139 209.165 215.993 209.022 202.097 209.022C193.308 209.022 185.885 209.229 185.603 209.483ZM252.166 218.701V222.158H267.704H283.243L287.319 218.701L291.394 215.244H271.78H252.166V218.701ZM252.166 236.488V249.436L258.912 243.577C277.139 227.746 280.693 224.563 280.693 224.072C280.693 223.78 274.274 223.54 266.429 223.54H252.166V236.488ZM43.6108 224.923C43.9246 225.378 77.4145 225.614 141.573 225.614C206.049 225.614 239.059 225.38 239.059 224.923C239.059 224.466 205.891 224.232 141.097 224.232C75.985 224.232 43.2939 224.463 43.6108 224.923ZM416.323 228.372C411.411 229.043 406.713 229.917 405.884 230.315C403.475 231.471 402.614 233.717 401.124 242.726L399.723 251.195L406.706 251.21C414.715 251.227 419.176 252.595 420.952 255.579C422.29 257.826 423.167 257.916 423.707 255.861C424.371 253.334 430.267 227.692 430.267 227.33C430.267 226.758 425.586 227.108 416.323 228.372ZM331.964 234.368C329.42 236.089 322.53 240.58 316.654 244.346L305.969 251.195H320.56H335.15L336.448 243.406C337.852 234.983 338.081 231.119 337.168 231.191C336.85 231.217 334.509 232.646 331.964 234.368ZM42.6332 252.059L42.8398 268.824H61.7293H80.6187L80.8254 252.059L81.032 235.294H61.7293H42.4265L42.6332 252.059ZM90.3734 235.905C89.8013 236.23 89.459 237.081 89.6124 237.796C89.883 239.054 91.7411 239.096 148.081 239.096C204.421 239.096 206.279 239.054 206.55 237.796C206.703 237.081 206.361 236.23 205.789 235.905C205.217 235.58 179.249 235.315 148.081 235.315C116.913 235.315 90.9447 235.58 90.3734 235.905ZM43.9963 252.232V267.787H61.7293H79.4622V252.232V236.676H61.7293H43.9963V252.232ZM338.287 242.207C338.01 243.158 337.475 245.569 337.099 247.565C336.434 251.093 336.466 251.195 338.238 251.195C340.266 251.195 340.403 250.31 339.358 243.935C338.89 241.081 338.704 240.78 338.287 242.207ZM89.7458 248.818C89.4898 249.416 89.6063 250.197 90.0041 250.554C90.4466 250.951 116.755 251.134 157.762 251.026C224.216 250.85 224.795 250.837 224.795 249.466C224.795 248.095 224.216 248.082 157.503 247.907C96.8999 247.748 90.1645 247.838 89.7458 248.818ZM293.893 259.241C288.329 262.905 283.777 266.284 283.777 266.748C283.777 267.213 284.813 269.425 286.08 271.665C288.717 276.328 288.629 276.084 287.68 276.084C287.283 276.084 285.85 274.067 284.497 271.602L282.037 267.121L278.982 269.29C273.637 273.087 272.246 274.749 262.103 289.474L252.166 303.901V333.128C252.166 359.142 252.3 362.402 253.386 362.775C254.988 363.326 289.055 363.32 292.134 362.768L294.516 362.34L293.303 360.236C291.481 357.077 292.949 353.39 297.114 350.665C301.155 348.021 309.093 344.393 315.942 342.061C322.101 339.964 340.838 335.54 343.562 335.54H345.457V323.868C345.457 312.777 345.38 312.177 343.915 311.834C342.458 311.492 342.373 310.891 342.373 301.038V290.602H337.907C333.633 290.602 333.296 290.469 330.037 287.491L326.632 284.38H319.037C314.17 284.38 311.613 284.132 311.918 283.689C312.212 283.262 318.765 282.997 329.01 282.997H345.626L345.292 280.75C345.109 279.514 343.959 272.67 342.735 265.54L340.512 252.577H322.26H304.009L293.893 259.241ZM89.624 261.734L89.8707 263.294H155.791C221.197 263.294 221.711 263.282 221.711 261.911C221.711 260.541 221.132 260.527 155.544 260.351L89.3765 260.175L89.624 261.734ZM379.575 273.664C379.583 275.185 379.741 275.726 379.926 274.865C380.11 274.005 380.103 272.761 379.91 272.1C379.718 271.439 379.566 272.143 379.575 273.664ZM90.0033 272.392C89.718 272.648 89.4852 273.43 89.4852 274.128C89.4852 275.354 91.9046 275.394 157.14 275.223C224.216 275.048 224.795 275.035 224.795 273.664C224.795 272.293 224.216 272.28 157.658 272.105C120.733 272.007 90.2886 272.137 90.0033 272.392ZM293.029 280.257C293.029 280.666 294.558 281.608 296.428 282.349C300.452 283.945 306.907 284.887 306.907 283.879C306.907 283.5 305.196 283.008 303.104 282.786C301.013 282.564 297.891 281.736 296.165 280.947C294.403 280.141 293.029 279.838 293.029 280.257ZM89.6224 285.921L89.8707 287.491H105.291C120.196 287.491 120.711 287.445 120.711 286.108C120.711 284.777 120.127 284.719 105.042 284.538L89.3734 284.351L89.6224 285.921ZM331.579 286.8C334.155 289.183 334.292 289.219 340.596 289.219C347.31 289.219 347.468 289.132 346.513 285.935C346.066 284.441 345.713 284.38 337.505 284.38H328.964L331.579 286.8ZM343.316 300.454L343.529 310.306H352.01H360.491L360.732 307.288C360.969 304.332 360.859 304.176 355.251 299.542C352.103 296.941 349.09 293.866 348.555 292.708C347.787 291.045 347.112 290.602 345.342 290.602H343.101L343.316 300.454ZM42.8059 299.765C42.5969 300.255 42.5183 307.96 42.6324 316.888L42.8398 333.121H61.7293H80.6187V316.182V299.244L61.9027 299.059C47.1929 298.914 43.1058 299.064 42.8059 299.765ZM89.7782 300.594C89.5423 301.146 89.5731 301.924 89.8476 302.322C90.6332 303.461 206.399 303.323 206.867 302.182C207.938 299.57 208.381 299.59 148.378 299.59C98.2353 299.59 90.1483 299.728 89.7782 300.594ZM44.5244 300.729C44.2338 300.99 43.9963 307.995 43.9963 316.298V331.392H61.7439H79.4915L79.2841 316.01L79.0767 300.627L62.0646 300.441C52.7086 300.339 44.8151 300.469 44.5244 300.729ZM362.273 308.401C362.096 310.31 361.574 311.178 360.298 311.68C358.601 312.347 358.564 312.608 358.564 323.628C358.564 332.035 358.808 334.961 359.527 335.162C360.058 335.311 361.802 335.628 363.404 335.867C365.006 336.106 366.135 336.564 365.914 336.886C365.692 337.207 364.208 337.199 362.615 336.868C350.436 334.331 327.269 338.396 308.449 346.371L301.124 349.474L304.009 350.817L306.894 352.16L314.47 350.438C327.566 347.462 340.323 345.91 351.625 345.92C361.679 345.929 365.501 346.282 365.503 347.202C365.504 347.442 360.214 347.542 353.746 347.423C340.79 347.184 332.501 348.046 317.117 351.227L307.759 353.163L308.206 356.087C308.526 358.182 308.291 359.505 307.376 360.757L306.1 362.503H342.355C362.295 362.503 378.869 362.581 379.188 362.676C379.506 362.772 379.858 353.012 379.97 340.988L380.173 319.126L374.958 315.134L369.743 311.142L369.54 333.746C369.408 348.385 369.069 356.202 368.576 355.93C368.101 355.667 367.816 346.87 367.816 332.471V309.433L365.164 307.619L362.512 305.806L362.273 308.401ZM241.842 318.789C237.224 325.531 230.458 335.474 226.808 340.885C223.156 346.297 219.757 350.73 219.253 350.737C218.749 350.745 218.103 352.228 217.818 354.034C217.533 355.84 216.665 358.641 215.887 360.257L214.473 363.195H232.549H250.624V334.849C250.624 319.259 250.537 306.51 250.431 306.517C250.326 306.525 246.46 312.047 241.842 318.789ZM346.999 323.442V334.849H352.01H357.022V323.442V312.034H352.01H346.999V323.442ZM381.694 341.364V362.503H387.862C393.67 362.503 394.03 362.416 394.03 361.009C394.03 360.187 394.903 358.178 395.97 356.545L397.911 353.575L395.006 352.909C393.409 352.542 390.108 351.856 387.669 351.386C385.23 350.916 383.236 350.255 383.236 349.918C383.236 349.219 386.921 349.744 393.644 351.4C398.167 352.513 398.325 352.506 400.727 351.052L403.184 349.565L395.716 346.379C391.608 344.627 387.206 342.834 385.934 342.396C384.662 341.957 384.01 341.467 384.485 341.307C385.892 340.833 395.507 344.338 401.915 347.661C405.191 349.36 408.159 350.75 408.51 350.75C409.842 350.75 416.449 346.559 416.044 345.97C415.81 345.632 410.328 341.458 403.861 336.697C397.393 331.936 389.76 326.282 386.898 324.133L381.694 320.226V341.364ZM89.7705 349.007C89.523 349.585 89.5199 350.526 89.7643 351.096C90.1367 351.967 92.5206 352.132 104.689 352.123C112.652 352.116 119.637 351.846 120.208 351.521C120.78 351.196 121.122 350.345 120.969 349.63C120.709 348.418 119.664 348.318 105.456 348.143C92.4004 347.982 90.156 348.106 89.7705 349.007ZM296.817 352.328C293.238 354.792 292.968 358.406 296.148 361.259C298.179 363.08 298.884 363.31 301.353 362.956C306.79 362.175 308.871 356.596 305.014 353.139C302.935 351.274 298.925 350.877 296.817 352.328ZM400.861 352.81L399.041 354.178L402.703 353.091C404.717 352.493 406.366 351.877 406.366 351.722C406.366 350.863 402.413 351.644 400.861 352.81ZM201.28 362.503C200.42 363.002 200.864 363.176 203.015 363.184C204.605 363.19 205.906 362.884 205.906 362.503C205.906 361.623 202.8 361.623 201.28 362.503ZM426.412 362.503C425.532 363.014 425.843 363.176 427.715 363.184C429.068 363.19 430.39 362.884 430.652 362.503C431.263 361.617 427.94 361.617 426.412 362.503Z" fill="#545454"/>
</svg>
