<svg width="32" height="32" viewBox="0 0 32 32" fill="none" xmlns="http://www.w3.org/2000/svg">
<path d="M24 13.3334H18.6667V8.00004C18.6667 7.2928 18.3858 6.61452 17.8857 6.11442C17.3856 5.61433 16.7073 5.33337 16 5.33337C15.2928 5.33337 14.6145 5.61433 14.1144 6.11442C13.6143 6.61452 13.3334 7.2928 13.3334 8.00004L13.428 13.3334H8.00004C7.2928 13.3334 6.61452 13.6143 6.11442 14.1144C5.61433 14.6145 5.33337 15.2928 5.33337 16C5.33337 16.7073 5.61433 17.3856 6.11442 17.8857C6.61452 18.3858 7.2928 18.6667 8.00004 18.6667L13.428 18.572L13.3334 24C13.3334 24.7073 13.6143 25.3856 14.1144 25.8857C14.6145 26.3858 15.2928 26.6667 16 26.6667C16.7073 26.6667 17.3856 26.3858 17.8857 25.8857C18.3858 25.3856 18.6667 24.7073 18.6667 24V18.572L24 18.6667C24.7073 18.6667 25.3856 18.3858 25.8857 17.8857C26.3858 17.3856 26.6667 16.7073 26.6667 16C26.6667 15.2928 26.3858 14.6145 25.8857 14.1144C25.3856 13.6143 24.7073 13.3334 24 13.3334Z" fill="#958060"/>
</svg>
