<svg width="20" height="20" viewBox="0 0 20 20" fill="none" xmlns="http://www.w3.org/2000/svg">
<path d="M14.7958 11.6666C15.2928 11.6671 15.7693 11.8648 16.1206 12.2164C16.4719 12.568 16.6692 13.0446 16.6692 13.5416V14.3066C16.6692 14.7841 16.52 15.2497 16.2425 15.6383C14.9542 17.4416 12.8508 18.3341 10.0008 18.3341C7.14917 18.3341 5.04667 17.4408 3.76167 15.6374C3.48511 15.2491 3.33654 14.7842 3.33667 14.3074V13.5408C3.33689 13.0438 3.53442 12.5672 3.88584 12.2158C4.23727 11.8644 4.71384 11.6668 5.21084 11.6666H14.7958ZM10 1.67078C10.5472 1.67078 11.089 1.77855 11.5945 1.98794C12.1 2.19734 12.5594 2.50425 12.9463 2.89116C13.3332 3.27808 13.6401 3.73741 13.8495 4.24293C14.0589 4.74845 14.1667 5.29027 14.1667 5.83744C14.1667 6.38462 14.0589 6.92643 13.8495 7.43196C13.6401 7.93748 13.3332 8.39681 12.9463 8.78372C12.5594 9.17063 12.1 9.47755 11.5945 9.68694C11.089 9.89633 10.5472 10.0041 10 10.0041C8.89493 10.0041 7.83513 9.56512 7.05372 8.78372C6.27232 8.00232 5.83334 6.94251 5.83334 5.83744C5.83334 4.73237 6.27232 3.67257 7.05372 2.89116C7.83513 2.10976 8.89493 1.67078 10 1.67078Z" fill="#958060"/>
</svg>
