<svg width="20" height="20" viewBox="0 0 20 20" fill="none" xmlns="http://www.w3.org/2000/svg">
<path fill-rule="evenodd" clip-rule="evenodd" d="M4.99992 7.49992C4.33688 7.49992 3.70099 7.76331 3.23215 8.23215C2.76331 8.70099 2.49992 9.33688 2.49992 9.99992C2.49992 10.663 2.76331 11.2988 3.23215 11.7677C3.70099 12.2365 4.33688 12.4999 4.99992 12.4999H7.49992C7.72093 12.4999 7.93289 12.5877 8.08917 12.744C8.24545 12.9003 8.33325 13.1122 8.33325 13.3333C8.33325 13.5543 8.24545 13.7662 8.08917 13.9225C7.93289 14.0788 7.72093 14.1666 7.49992 14.1666H4.99992C3.89485 14.1666 2.83504 13.7276 2.05364 12.9462C1.27224 12.1648 0.833252 11.105 0.833252 9.99992C0.833252 8.89485 1.27224 7.83504 2.05364 7.05364C2.83504 6.27224 3.89485 5.83325 4.99992 5.83325H7.49992C7.72093 5.83325 7.93289 5.92105 8.08917 6.07733C8.24545 6.23361 8.33325 6.44557 8.33325 6.66659C8.33325 6.8876 8.24545 7.09956 8.08917 7.25584C7.93289 7.41212 7.72093 7.49992 7.49992 7.49992H4.99992ZM5.83325 9.99992C5.83325 9.7789 5.92105 9.56694 6.07733 9.41066C6.23361 9.25438 6.44557 9.16659 6.66658 9.16659H13.3333C13.5543 9.16659 13.7662 9.25438 13.9225 9.41066C14.0788 9.56694 14.1666 9.7789 14.1666 9.99992C14.1666 10.2209 14.0788 10.4329 13.9225 10.5892C13.7662 10.7455 13.5543 10.8333 13.3333 10.8333H6.66658C6.44557 10.8333 6.23361 10.7455 6.07733 10.5892C5.92105 10.4329 5.83325 10.2209 5.83325 9.99992ZM12.4999 5.83325C12.2789 5.83325 12.0669 5.92105 11.9107 6.07733C11.7544 6.23361 11.6666 6.44557 11.6666 6.66659C11.6666 6.8876 11.7544 7.09956 11.9107 7.25584C12.0669 7.41212 12.2789 7.49992 12.4999 7.49992H14.9999C15.663 7.49992 16.2988 7.76331 16.7677 8.23215C17.2365 8.70099 17.4999 9.33688 17.4999 9.99992C17.4999 10.663 17.2365 11.2988 16.7677 11.7677C16.2988 12.2365 15.663 12.4999 14.9999 12.4999H12.4999C12.2789 12.4999 12.0669 12.5877 11.9107 12.744C11.7544 12.9003 11.6666 13.1122 11.6666 13.3333C11.6666 13.5543 11.7544 13.7662 11.9107 13.9225C12.0669 14.0788 12.2789 14.1666 12.4999 14.1666H14.9999C16.105 14.1666 17.1648 13.7276 17.9462 12.9462C18.7276 12.1648 19.1666 11.105 19.1666 9.99992C19.1666 8.89485 18.7276 7.83504 17.9462 7.05364C17.1648 6.27224 16.105 5.83325 14.9999 5.83325H12.4999Z" fill="#958060"/>
</svg>
