<svg width="32" height="32" viewBox="0 0 32 32" fill="none" xmlns="http://www.w3.org/2000/svg">
<path fill-rule="evenodd" clip-rule="evenodd" d="M5.71429 20.5714C6.16894 20.5714 6.60498 20.752 6.92647 21.0735C7.24796 21.395 7.42857 21.831 7.42857 22.2857C7.42857 22.7403 7.24796 23.1764 6.92647 23.4979C6.60498 23.8194 6.16894 24 5.71429 24C5.25963 24 4.82359 23.8194 4.5021 23.4979C4.18061 23.1764 4 22.7403 4 22.2857C4 21.831 4.18061 21.395 4.5021 21.0735C4.82359 20.752 5.25963 20.5714 5.71429 20.5714ZM26.2846 21.1428C26.9166 21.1428 27.4286 21.6503 27.4286 22.2857C27.4286 22.9171 26.92 23.4285 26.2846 23.4285H10.2869C10.1366 23.429 9.98772 23.3997 9.8488 23.3425C9.70987 23.2852 9.58363 23.2011 9.47732 23.0949C9.37102 22.9887 9.28675 22.8625 9.22935 22.7237C9.17195 22.5848 9.14256 22.4359 9.14286 22.2857C9.14286 21.6543 9.65143 21.1428 10.2869 21.1428H26.2846ZM5.71429 14.8571C6.16894 14.8571 6.60498 15.0377 6.92647 15.3592C7.24796 15.6807 7.42857 16.1167 7.42857 16.5714C7.42857 17.0261 7.24796 17.4621 6.92647 17.7836C6.60498 18.1051 6.16894 18.2857 5.71429 18.2857C5.25963 18.2857 4.82359 18.1051 4.5021 17.7836C4.18061 17.4621 4 17.0261 4 16.5714C4 16.1167 4.18061 15.6807 4.5021 15.3592C4.82359 15.0377 5.25963 14.8571 5.71429 14.8571ZM26.2846 15.4285C26.9166 15.4285 27.4286 15.936 27.4286 16.5714C27.4286 17.2028 26.92 17.7143 26.2846 17.7143H10.2869C10.1366 17.7147 9.98772 17.6855 9.8488 17.6282C9.70987 17.5709 9.58363 17.4868 9.47732 17.3806C9.37102 17.2744 9.28675 17.1482 9.22935 17.0094C9.17195 16.8705 9.14256 16.7217 9.14286 16.5714C9.14286 15.94 9.65143 15.4285 10.2869 15.4285H26.2846ZM5.71429 9.14282C6.16894 9.14282 6.60498 9.32343 6.92647 9.64492C7.24796 9.96642 7.42857 10.4025 7.42857 10.8571C7.42857 11.3118 7.24796 11.7478 6.92647 12.0693C6.60498 12.3908 6.16894 12.5714 5.71429 12.5714C5.25963 12.5714 4.82359 12.3908 4.5021 12.0693C4.18061 11.7478 4 11.3118 4 10.8571C4 10.4025 4.18061 9.96642 4.5021 9.64492C4.82359 9.32343 5.25963 9.14282 5.71429 9.14282ZM26.2846 9.71425C26.9166 9.71425 27.4286 10.2217 27.4286 10.8571C27.4286 11.4885 26.92 12 26.2846 12H10.2869C10.1366 12.0004 9.98772 11.9712 9.8488 11.9139C9.70987 11.8567 9.58363 11.7725 9.47732 11.6663C9.37102 11.5601 9.28675 11.434 9.22935 11.2951C9.17195 11.1562 9.14256 11.0074 9.14286 10.8571C9.14286 10.2257 9.65143 9.71425 10.2869 9.71425H26.2846Z" fill="#958060"/>
</svg>
