<svg width="20" height="20" viewBox="0 0 20 20" fill="none" xmlns="http://www.w3.org/2000/svg">
<path d="M16.9918 13.5756C16.867 14.5242 16.4012 15.3948 15.6814 16.025C14.9615 16.6552 14.0369 17.0018 13.0802 17.0001C7.52208 17.0001 3.00001 12.478 3.00001 6.91993C2.99829 5.96321 3.34489 5.03859 3.97508 4.31875C4.60526 3.59891 5.47593 3.13308 6.42446 3.00826C6.66433 2.97897 6.90723 3.02804 7.11691 3.14815C7.32659 3.26825 7.4918 3.45295 7.58788 3.67467L9.06631 6.97523V6.98363C9.13987 7.15335 9.17025 7.33864 9.15474 7.52297C9.13923 7.70729 9.0783 7.88491 8.97741 8.03995C8.96481 8.05885 8.95151 8.07635 8.93751 8.09385L7.48008 9.82148C8.00439 10.8869 9.11881 11.9915 10.1982 12.5172L11.9021 11.0675C11.9188 11.0534 11.9363 11.0403 11.9546 11.0283C12.1095 10.925 12.2877 10.8619 12.4731 10.8448C12.6585 10.8277 12.8453 10.8571 13.0165 10.9303L13.0256 10.9345L16.3233 12.4122C16.5454 12.508 16.7306 12.673 16.8511 12.8827C16.9716 13.0925 17.021 13.3355 16.9918 13.5756Z" fill="#958060"/>
</svg>
