<svg width="32" height="32" viewBox="0 0 32 32" fill="none" xmlns="http://www.w3.org/2000/svg">
<path fill-rule="evenodd" clip-rule="evenodd" d="M3.20012 15.9999C3.20035 13.5366 3.91134 11.1257 5.24778 9.05649C6.58422 6.98727 8.48934 5.34763 10.7345 4.3343C12.9797 3.32097 15.4696 2.97701 17.9055 3.34368C20.3413 3.71035 22.6196 4.77208 24.467 6.40147C26.3144 8.03086 27.6523 10.1587 28.3204 12.5297C28.9885 14.9006 28.9582 17.414 28.2332 19.7682C27.5083 22.1223 26.1194 24.2173 24.2334 25.8018C22.3473 27.3862 20.0441 28.3928 17.6001 28.7007V19.1999H20.8001C21.2245 19.1999 21.6314 19.0313 21.9315 18.7312C22.2316 18.4312 22.4001 18.0242 22.4001 17.5999C22.4001 17.1755 22.2316 16.7686 21.9315 16.4685C21.6314 16.1684 21.2245 15.9999 20.8001 15.9999H17.6001V12.7999C17.6001 12.3755 17.7687 11.9686 18.0688 11.6685C18.3688 11.3684 18.7758 11.1999 19.2001 11.1999H20.0001C20.4245 11.1999 20.8314 11.0313 21.1315 10.7312C21.4316 10.4312 21.6001 10.0242 21.6001 9.59988C21.6001 9.17553 21.4316 8.76857 21.1315 8.46851C20.8314 8.16845 20.4245 7.99988 20.0001 7.99988H19.2001C17.9271 7.99988 16.7062 8.50559 15.806 9.40577C14.9058 10.3059 14.4001 11.5268 14.4001 12.7999V15.9999H11.2001C10.7758 15.9999 10.3688 16.1684 10.0688 16.4685C9.76869 16.7686 9.60012 17.1755 9.60012 17.5999C9.60012 18.0242 9.76869 18.4312 10.0688 18.7312C10.3688 19.0313 10.7758 19.1999 11.2001 19.1999H14.4001V28.7007C11.3067 28.3109 8.4619 26.8055 6.39973 24.467C4.33756 22.1285 3.19983 19.1178 3.20012 15.9999ZM16.0001 31.9999C24.8369 31.9999 32.0001 24.8367 32.0001 15.9999C32.0001 7.16308 24.8369 -0.00012207 16.0001 -0.00012207C7.16332 -0.00012207 0.00012207 7.16308 0.00012207 15.9999C0.00012207 24.8367 7.16332 31.9999 16.0001 31.9999Z" fill="#F7F7F7"/>
</svg>
