<svg width="161" height="160" viewBox="0 0 161 160" fill="none" xmlns="http://www.w3.org/2000/svg">
<path fill-rule="evenodd" clip-rule="evenodd" d="M146.499 49.375V132.5C146.499 137.141 144.542 141.592 141.059 144.874C137.576 148.156 132.853 150 127.927 150H72.2128V141.25H127.927C130.39 141.25 132.752 140.328 134.493 138.687C136.235 137.046 137.213 134.821 137.213 132.5V49.375H118.641C114.947 49.375 111.405 47.9922 108.792 45.5308C106.18 43.0694 104.713 39.731 104.713 36.25V18.75H53.6414C51.1787 18.75 48.8168 19.6719 47.0754 21.3128C45.334 22.9538 44.3557 25.1794 44.3557 27.5V106.25H35.07V27.5C35.07 22.8587 37.0266 18.4075 40.5094 15.1256C43.9922 11.8437 48.7159 10 53.6414 10L104.713 10L146.499 49.375ZM26.8335 139.675L23.9271 148.688H16.4985L28.96 113.696H37.5585L49.9642 148.688H42.155L39.2392 139.692H26.8335V139.675ZM37.7721 134.53L33.2221 120.381H32.9064L28.3564 134.53H37.7721ZM60.29 113.688V148.679H52.945V113.688H60.29Z" fill="#958060"/>
</svg>
