<svg width="160" height="160" viewBox="0 0 160 160" fill="none" xmlns="http://www.w3.org/2000/svg">
<g clip-path="url(#clip0_2043_3585)">
<path d="M153.449 109.95L120.499 142.9L107.549 129.95L100.499 137L120.499 157L160.499 117L153.449 109.95ZM60.4985 107H90.4985V117H60.4985V107ZM60.4985 87H100.499V97H60.4985V87Z" fill="#958060"/>
<path d="M40.4985 20H80.4985V50C80.4985 55.5 84.9985 60 90.4985 60H120.499V90H130.499V50C130.499 48.5 129.999 47.5 128.999 46.5L93.9985 11.5C92.9985 10.5 91.9985 10 90.4985 10H40.4985C34.9985 10 30.4985 14.5 30.4985 20V140C30.4985 145.5 34.9985 150 40.4985 150H75.4985V140H40.4985V20ZM90.4985 22L118.499 50H90.4985V22Z" fill="#958060"/>
</g>
<defs>
<clipPath id="clip0_2043_3585">
<rect width="160" height="160" fill="white"/>
</clipPath>
</defs>
</svg>
