<svg width="20" height="20" viewBox="0 0 20 20" fill="none" xmlns="http://www.w3.org/2000/svg">
<path d="M11.6667 2.5V5.83333C11.6667 6.05435 11.7545 6.26631 11.9108 6.42259C12.0671 6.57887 12.2791 6.66667 12.5001 6.66667H15.8334" stroke="#F7F7F7" stroke-width="2" stroke-linecap="round" stroke-linejoin="round"/>
<path d="M8.33341 17.5H5.83341C5.39139 17.5 4.96746 17.3244 4.6549 17.0118C4.34234 16.6993 4.16675 16.2754 4.16675 15.8333V4.16667C4.16675 3.72464 4.34234 3.30072 4.6549 2.98816C4.96746 2.67559 5.39139 2.5 5.83341 2.5H11.6667L15.8334 6.66667V10" stroke="#F7F7F7" stroke-width="2" stroke-linecap="round" stroke-linejoin="round"/>
<path d="M11.6667 17.5V14.1667C11.6667 13.7246 11.8423 13.3007 12.1549 12.9882C12.4675 12.6756 12.8914 12.5 13.3334 12.5C13.7754 12.5 14.1994 12.6756 14.5119 12.9882C14.8245 13.3007 15.0001 13.7246 15.0001 14.1667V17.5M11.6667 15.8333H15.0001M17.5001 12.5V17.5" stroke="#F7F7F7" stroke-width="2" stroke-linecap="round" stroke-linejoin="round"/>
</svg>
