<svg width="20" height="20" viewBox="0 0 20 20" fill="#958060" xmlns="http://www.w3.org/2000/svg">
<path fill-rule="evenodd" clip-rule="evenodd" d="M11.9042 1.78498C11.6695 1.50911 11.3776 1.28753 11.0488 1.13557C10.7201 0.98361 10.3622 0.904907 9.99998 0.904907C9.63779 0.904907 9.27991 0.98361 8.95113 1.13557C8.62235 1.28753 8.33051 1.50911 8.09582 1.78498L8.06082 1.82665C7.97519 1.92711 7.86692 2.00578 7.74493 2.0562C7.62294 2.10662 7.49072 2.12734 7.35915 2.11665L7.30498 2.11248C6.94409 2.08356 6.58122 2.13337 6.24147 2.25846C5.90172 2.38356 5.59319 2.58095 5.33723 2.837C5.08126 3.09305 4.88396 3.40164 4.75897 3.74143C4.63398 4.08122 4.58428 4.4441 4.61332 4.80498L4.61665 4.85915C4.62734 4.99072 4.60662 5.12294 4.5562 5.24493C4.50578 5.36692 4.42711 5.47519 4.32665 5.56082L4.28498 5.59582C4.00911 5.83051 3.78753 6.12235 3.63557 6.45113C3.48361 6.77991 3.40491 7.13779 3.40491 7.49998C3.40491 7.86218 3.48361 8.22006 3.63557 8.54884C3.78753 8.87762 4.00911 9.16946 4.28498 9.40415L4.32665 9.43915C4.42711 9.52478 4.50578 9.63305 4.5562 9.75504C4.60662 9.87703 4.62734 10.0093 4.61665 10.1408L4.61248 10.195C4.56246 10.8148 4.74519 11.4309 5.12501 11.9232C5.50483 12.4155 6.05447 12.7486 6.66665 12.8575V18.3333C6.66663 18.4842 6.70756 18.6322 6.78509 18.7617C6.86261 18.8911 6.97382 18.997 7.10685 19.0682C7.23987 19.1394 7.38972 19.1731 7.54041 19.1658C7.69111 19.1585 7.83698 19.1104 7.96248 19.0267L9.99998 17.6683L12.0375 19.0267C12.163 19.1104 12.3089 19.1585 12.4596 19.1658C12.6102 19.1731 12.7601 19.1394 12.8931 19.0682C13.0261 18.997 13.1374 18.8911 13.2149 18.7617C13.2924 18.6322 13.3333 18.4842 13.3333 18.3333V12.8583C13.9457 12.7494 14.4954 12.4162 14.8753 11.9237C15.2551 11.4313 15.4377 10.8149 15.3875 10.195L15.3833 10.1408C15.3726 10.0093 15.3933 9.87703 15.4438 9.75504C15.4942 9.63305 15.5729 9.52478 15.6733 9.43915L15.715 9.40415C15.9909 9.16946 16.2124 8.87762 16.3644 8.54884C16.5164 8.22006 16.5951 7.86218 16.5951 7.49998C16.5951 7.13779 16.5164 6.77991 16.3644 6.45113C16.2124 6.12235 15.9909 5.83051 15.715 5.59582L15.6733 5.56082C15.5729 5.47519 15.4942 5.36692 15.4438 5.24493C15.3933 5.12294 15.3726 4.99072 15.3833 4.85915L15.3875 4.80498C15.4164 4.44409 15.3666 4.08122 15.2415 3.74147C15.1164 3.40172 14.919 3.09319 14.663 2.83722C14.4069 2.58126 14.0983 2.38396 13.7585 2.25897C13.4188 2.13398 13.0559 2.08428 12.695 2.11332L12.6408 2.11665C12.5093 2.12734 12.377 2.10662 12.255 2.0562C12.133 2.00578 12.0248 1.92711 11.9392 1.82665L11.9042 1.78498ZM8.33332 16.7767V13.4583C8.79167 13.8683 9.38504 14.0949 9.99998 14.0949C10.6149 14.0949 11.2083 13.8683 11.6667 13.4583V16.775L10.4625 15.9725C10.3255 15.8811 10.1646 15.8324 9.99998 15.8324C9.83536 15.8324 9.67443 15.8811 9.53748 15.9725L8.33332 16.7767ZM12.2558 7.25582C12.4076 7.09865 12.4916 6.88815 12.4897 6.66965C12.4878 6.45115 12.4002 6.24214 12.2457 6.08764C12.0912 5.93313 11.8821 5.84549 11.6637 5.84359C11.4452 5.84169 11.2347 5.92569 11.0775 6.07748L9.16665 7.98832L8.92248 7.74415C8.76532 7.59235 8.55481 7.50836 8.33632 7.51026C8.11782 7.51216 7.90881 7.5998 7.7543 7.7543C7.5998 7.90881 7.51216 8.11782 7.51026 8.33632C7.50836 8.55481 7.59235 8.76532 7.74415 8.92248L8.57748 9.75582C8.73376 9.91204 8.94568 9.99981 9.16665 9.99981C9.38762 9.99981 9.59954 9.91204 9.75582 9.75582L12.2558 7.25582Z" />
</svg>
