<svg width="15" height="16" viewBox="0 0 15 16" fill="none" xmlns="http://www.w3.org/2000/svg">
<path d="M2.04688 10.06C1.51563 9.37 1.25 9.02438 1.25 8C1.25 6.975 1.51563 6.63063 2.04688 5.94C3.1075 4.5625 4.88625 3 7.5 3C10.1138 3 11.8925 4.5625 12.9531 5.94C13.4844 6.63125 13.75 6.97562 13.75 8C13.75 9.025 13.4844 9.36937 12.9531 10.06C11.8925 11.4375 10.1138 13 7.5 13C4.88625 13 3.1075 11.4375 2.04688 10.06Z" stroke="#958060" stroke-width="1.5"/>
<path d="M9.375 8C9.375 8.49728 9.17746 8.97419 8.82583 9.32583C8.47419 9.67746 7.99728 9.875 7.5 9.875C7.00272 9.875 6.52581 9.67746 6.17417 9.32583C5.82254 8.97419 5.625 8.49728 5.625 8C5.625 7.50272 5.82254 7.02581 6.17417 6.67417C6.52581 6.32254 7.00272 6.125 7.5 6.125C7.99728 6.125 8.47419 6.32254 8.82583 6.67417C9.17746 7.02581 9.375 7.50272 9.375 8Z" stroke="#958060" stroke-width="1.5"/>
</svg>
