<svg width="32" height="32" viewBox="0 0 32 32" fill="#958060" xmlns="http://www.w3.org/2000/svg">
<path d="M16 12C17.0609 12 18.0783 12.4214 18.8285 13.1716C19.5786 13.9217 20 14.9391 20 16C20 17.0609 19.5786 18.0783 18.8285 18.8284C18.0783 19.5786 17.0609 20 16 20C14.9392 20 13.9218 19.5786 13.1716 18.8284C12.4215 18.0783 12 17.0609 12 16C12 14.9391 12.4215 13.9217 13.1716 13.1716C13.9218 12.4214 14.9392 12 16 12ZM16 6C22.6667 6 28.36 10.1467 30.6667 16C28.36 21.8533 22.6667 26 16 26C9.33337 26 3.64004 21.8533 1.33337 16C3.64004 10.1467 9.33337 6 16 6ZM4.24004 16C5.31771 18.2004 6.99112 20.0543 9.07001 21.351C11.1489 22.6477 13.5499 23.3351 16 23.3351C18.4502 23.3351 20.8512 22.6477 22.9301 21.351C25.009 20.0543 26.6824 18.2004 27.76 16C26.6824 13.7996 25.009 11.9457 22.9301 10.649C20.8512 9.35232 18.4502 8.66491 16 8.66491C13.5499 8.66491 11.1489 9.35232 9.07001 10.649C6.99112 11.9457 5.31771 13.7996 4.24004 16Z" />
</svg>
