<svg width="50" height="50" viewBox="0 0 50 50" fill="none" xmlns="http://www.w3.org/2000/svg">
<path fill-rule="evenodd" clip-rule="evenodd" d="M12.2001 24.9999C12.2004 22.5366 12.9113 20.1257 14.2478 18.0565C15.5842 15.9873 17.4893 14.3476 19.7345 13.3343C21.9797 12.321 24.4696 11.977 26.9055 12.3437C29.3413 12.7103 31.6196 13.7721 33.467 15.4015C35.3144 17.0309 36.6523 19.1587 37.3204 21.5297C37.9885 23.9006 37.9582 26.414 37.2332 28.7682C36.5083 31.1223 35.1194 33.2173 33.2334 34.8018C31.3473 36.3862 29.0441 37.3928 26.6001 37.7007V28.1999H29.8001C30.2245 28.1999 30.6314 28.0313 30.9315 27.7312C31.2316 27.4312 31.4001 27.0242 31.4001 26.5999C31.4001 26.1755 31.2316 25.7686 30.9315 25.4685C30.6314 25.1684 30.2245 24.9999 29.8001 24.9999H26.6001V21.7999C26.6001 21.3755 26.7687 20.9686 27.0688 20.6685C27.3688 20.3684 27.7758 20.1999 28.2001 20.1999H29.0001C29.4245 20.1999 29.8314 20.0313 30.1315 19.7312C30.4316 19.4312 30.6001 19.0242 30.6001 18.5999C30.6001 18.1755 30.4316 17.7686 30.1315 17.4685C29.8314 17.1684 29.4245 16.9999 29.0001 16.9999H28.2001C26.9271 16.9999 25.7062 17.5056 24.806 18.4058C23.9058 19.3059 23.4001 20.5268 23.4001 21.7999V24.9999H20.2001C19.7758 24.9999 19.3688 25.1684 19.0688 25.4685C18.7687 25.7686 18.6001 26.1755 18.6001 26.5999C18.6001 27.0242 18.7687 27.4312 19.0688 27.7312C19.3688 28.0313 19.7758 28.1999 20.2001 28.1999H23.4001V37.7007C20.3067 37.3109 17.4619 35.8055 15.3997 33.467C13.3376 31.1285 12.1998 28.1178 12.2001 24.9999ZM25.0001 40.9999C33.8369 40.9999 41.0001 33.8367 41.0001 24.9999C41.0001 16.1631 33.8369 8.99988 25.0001 8.99988C16.1633 8.99988 9.00012 16.1631 9.00012 24.9999C9.00012 33.8367 16.1633 40.9999 25.0001 40.9999Z" fill="#958060"/>
</svg>
