<svg width="20" height="20" viewBox="0 0 20 20" fill="none" xmlns="http://www.w3.org/2000/svg">
<path d="M2.4999 10.8334H3.33324V16.6667C3.33324 17.5859 4.08074 18.3334 4.9999 18.3334H14.9999C15.9191 18.3334 16.6666 17.5859 16.6666 16.6667V10.8334H17.4999C17.6647 10.8333 17.8258 10.7844 17.9628 10.6929C18.0998 10.6013 18.2066 10.4712 18.2696 10.3189C18.3327 10.1667 18.3492 9.99913 18.3171 9.8375C18.2849 9.67587 18.2056 9.5274 18.0891 9.41086L10.5891 1.91086C10.4328 1.75463 10.2209 1.66687 9.9999 1.66687C9.77893 1.66687 9.56701 1.75463 9.41074 1.91086L1.91074 9.41086C1.79423 9.5274 1.71489 9.67587 1.68275 9.8375C1.65061 9.99913 1.66711 10.1667 1.73017 10.3189C1.79323 10.4712 1.90001 10.6013 2.03702 10.6929C2.17403 10.7844 2.33511 10.8333 2.4999 10.8334ZM8.33324 16.6667V12.5H11.6666V16.6667H8.33324ZM9.9999 3.67836L14.9999 8.67836V12.5L15.0007 16.6667H13.3332V12.5C13.3332 11.5809 12.5857 10.8334 11.6666 10.8334H8.33324C7.41407 10.8334 6.66657 11.5809 6.66657 12.5V16.6667H4.9999V8.67836L9.9999 3.67836Z" fill="#F7F7F7"/>
</svg>
