<svg width="24" height="24" viewBox="0 0 24 24" fill="#A2A2A2" xmlns="http://www.w3.org/2000/svg">
<path fill-rule="evenodd" clip-rule="evenodd" d="M8.625 4.5V2.25H15.375V4.5H8.625ZM6.375 4.5V1.5C6.375 1.10218 6.53304 0.720644 6.81434 0.43934C7.09564 0.158035 7.47718 0 7.875 0L16.125 0C16.5228 0 16.9044 0.158035 17.1857 0.43934C17.467 0.720644 17.625 1.10218 17.625 1.5V4.5H21.375C21.6734 4.5 21.9595 4.61853 22.1705 4.8295C22.3815 5.04048 22.5 5.32663 22.5 5.625C22.5 5.92337 22.3815 6.20952 22.1705 6.4205C21.9595 6.63147 21.6734 6.75 21.375 6.75H20.8275L19.713 21.2295C19.6552 21.9832 19.315 22.6872 18.7604 23.2009C18.2059 23.7146 17.4779 23.9999 16.722 24H7.278C6.52211 23.9999 5.79411 23.7146 5.23957 23.2009C4.68502 22.6872 4.34483 21.9832 4.287 21.2295L3.1725 6.75H2.625C2.32663 6.75 2.04048 6.63147 1.8295 6.4205C1.61853 6.20952 1.5 5.92337 1.5 5.625C1.5 5.32663 1.61853 5.04048 1.8295 4.8295C2.04048 4.61853 2.32663 4.5 2.625 4.5H6.375ZM5.43 6.75H18.57L17.469 21.057C17.4546 21.2454 17.3697 21.4214 17.2313 21.5498C17.0928 21.6783 16.9109 21.7498 16.722 21.75H7.278C7.0891 21.7498 6.90723 21.6783 6.76875 21.5498C6.63026 21.4214 6.54536 21.2454 6.531 21.057L5.43 6.75Z" />
</svg>
