<svg width="14" height="14" viewBox="0 0 14 14" fill="#958060" xmlns="http://www.w3.org/2000/svg">
<path d="M13.9918 10.5756C13.867 11.5242 13.4012 12.3948 12.6814 13.025C11.9615 13.6552 11.0369 14.0018 10.0802 14.0001C4.52208 14.0001 6.33416e-06 9.47802 6.33416e-06 3.91993C-0.00170868 2.96321 0.344893 2.03859 0.975076 1.31875C1.60526 0.598907 2.47593 0.133075 3.42446 0.00825849C3.66433 -0.0210294 3.90723 0.0280422 4.11691 0.148148C4.32659 0.268253 4.4918 0.452951 4.58788 0.67467L6.06631 3.97523V3.98363C6.13987 4.15335 6.17025 4.33864 6.15474 4.52297C6.13923 4.70729 6.0783 4.88491 5.97741 5.03995C5.96481 5.05885 5.95151 5.07635 5.93751 5.09385L4.48008 6.82148C5.00439 7.88689 6.11881 8.99151 7.19823 9.51722L8.90206 8.0675C8.91878 8.05342 8.93631 8.04033 8.95456 8.0283C9.10947 7.92498 9.28769 7.86191 9.47311 7.8448C9.65852 7.82769 9.84528 7.85707 10.0165 7.93029L10.0256 7.9345L13.3233 9.41222C13.5454 9.50796 13.7306 9.67303 13.8511 9.88274C13.9716 10.0925 14.021 10.3355 13.9918 10.5756Z" />
</svg>
