<svg width="32" height="32" viewBox="0 0 32 32" fill="none" xmlns="http://www.w3.org/2000/svg">
<path d="M24 13.3334H18.6666V8.00004C18.6666 7.2928 18.3857 6.61452 17.8856 6.11442C17.3855 5.61433 16.7072 5.33337 16 5.33337C15.2927 5.33337 14.6145 5.61433 14.1144 6.11442C13.6143 6.61452 13.3333 7.2928 13.3333 8.00004L13.428 13.3334H7.99998C7.29274 13.3334 6.61446 13.6143 6.11436 14.1144C5.61426 14.6145 5.33331 15.2928 5.33331 16C5.33331 16.7073 5.61426 17.3856 6.11436 17.8857C6.61446 18.3858 7.29274 18.6667 7.99998 18.6667L13.428 18.572L13.3333 24C13.3333 24.7073 13.6143 25.3856 14.1144 25.8857C14.6145 26.3858 15.2927 26.6667 16 26.6667C16.7072 26.6667 17.3855 26.3858 17.8856 25.8857C18.3857 25.3856 18.6666 24.7073 18.6666 24V18.572L24 18.6667C24.7072 18.6667 25.3855 18.3858 25.8856 17.8857C26.3857 17.3856 26.6666 16.7073 26.6666 16C26.6666 15.2928 26.3857 14.6145 25.8856 14.1144C25.3855 13.6143 24.7072 13.3334 24 13.3334Z" fill="#958060"/>
</svg>
