<svg width="25" height="24" viewBox="0 0 25 24" fill="none" xmlns="http://www.w3.org/2000/svg">
<path d="M7.875 21.025C7.275 21.0083 6.704 20.8543 6.162 20.563C5.62 20.2717 5.10767 19.8423 4.625 19.275C3.95833 18.475 3.43767 17.521 3.063 16.413C2.68833 15.305 2.50067 14.1673 2.5 13C2.5 11.6167 2.76267 10.3167 3.288 9.1C3.81333 7.88334 4.52567 6.825 5.425 5.925C6.32433 5.025 7.38267 4.31267 8.6 3.788C9.81733 3.26333 11.1173 3.00067 12.5 3C13.8827 2.99933 15.1827 3.266 16.4 3.8C17.6173 4.334 18.6757 5.059 19.575 5.975C20.4743 6.891 21.187 7.966 21.713 9.2C22.239 10.434 22.5013 11.759 22.5 13.175C22.5 14.4583 22.2917 15.6583 21.875 16.775C21.4583 17.8917 20.8667 18.8333 20.1 19.6C19.6333 20.0667 19.1417 20.421 18.625 20.663C18.1083 20.905 17.5833 21.0257 17.05 21.025C16.75 21.025 16.45 20.9877 16.15 20.913C15.85 20.8383 15.55 20.7257 15.25 20.575L13.85 19.875C13.65 19.775 13.4373 19.7 13.212 19.65C12.9867 19.6 12.7493 19.575 12.5 19.575C12.2507 19.575 12.0133 19.6 11.788 19.65C11.5627 19.7 11.35 19.775 11.15 19.875L9.75 20.575C9.43333 20.7417 9.121 20.8627 8.813 20.938C8.505 21.0133 8.19233 21.0423 7.875 21.025ZM7.925 19.025C8.075 19.025 8.22933 19.0083 8.388 18.975C8.54667 18.9417 8.70067 18.8833 8.85 18.8L10.25 18.1C10.6 17.9167 10.9627 17.7833 11.338 17.7C11.7133 17.6167 12.0923 17.575 12.475 17.575C12.8577 17.575 13.241 17.6167 13.625 17.7C14.009 17.7833 14.3757 17.9167 14.725 18.1L16.15 18.8C16.3 18.8833 16.45 18.9417 16.6 18.975C16.75 19.0083 16.9 19.025 17.05 19.025C17.3667 19.025 17.6667 18.9417 17.95 18.775C18.2333 18.6083 18.5167 18.3583 18.8 18.025C19.3333 17.3917 19.75 16.6333 20.05 15.75C20.35 14.8667 20.5 13.9583 20.5 13.025C20.5 10.7917 19.725 8.896 18.175 7.338C16.625 5.78 14.7333 5.00067 12.5 5C10.2667 4.99933 8.375 5.78267 6.825 7.35C5.275 8.91733 4.5 10.8173 4.5 13.05C4.5 14 4.654 14.925 4.962 15.825C5.27 16.725 5.69933 17.4833 6.25 18.1C6.53333 18.4333 6.80833 18.671 7.075 18.813C7.34167 18.955 7.625 19.0257 7.925 19.025ZM12.5 15C13.05 15 13.521 14.804 13.913 14.412C14.305 14.02 14.5007 13.5493 14.5 13C14.5 12.8667 14.4873 12.7333 14.462 12.6C14.4367 12.4667 14.3993 12.3333 14.35 12.2L15.6 10.525C15.7833 10.7583 15.9333 10.9957 16.05 11.237C16.1667 11.4783 16.2667 11.7327 16.35 12C16.4333 12.2673 16.5583 12.5007 16.725 12.7C16.8917 12.8993 17.1083 12.9993 17.375 13C17.7083 13 17.971 12.854 18.163 12.562C18.355 12.27 18.409 11.9493 18.325 11.6C17.9917 10.25 17.2833 9.146 16.2 8.288C15.1167 7.43 13.8833 7.00067 12.5 7C11.1 7 9.86233 7.42933 8.787 8.288C7.71167 9.14667 7.008 10.2507 6.676 11.6C6.59267 11.95 6.647 12.271 6.839 12.563C7.031 12.855 7.29333 13.0007 7.626 13C7.89267 13 8.10933 12.9 8.276 12.7C8.44267 12.5 8.56767 12.2667 8.651 12C8.88433 11.1167 9.35533 10.396 10.064 9.838C10.7727 9.28 11.5847 9.00067 12.5 9C12.7667 9 13.0293 9.025 13.288 9.075C13.5467 9.125 13.7923 9.2 14.025 9.3L12.75 11.025C12.7167 11.025 12.675 11.0207 12.625 11.012C12.575 11.0033 12.5333 10.9993 12.5 11C11.95 11 11.4793 11.196 11.088 11.588C10.6967 11.98 10.5007 12.4507 10.5 13C10.4993 13.5493 10.6953 14.0203 11.088 14.413C11.4807 14.8057 11.9513 15.0013 12.5 15Z" fill="#F7F7F7"/>
</svg>
