<svg width="29" height="29" viewBox="0 0 29 29" fill="none" xmlns="http://www.w3.org/2000/svg">
<path d="M21.0315 18.068H19.7341L19.2742 17.6246C20.3006 16.4322 21.0507 15.0277 21.4709 13.5115C21.8911 11.9954 21.971 10.4051 21.7049 8.85453C20.933 4.28885 17.1228 0.642874 12.5242 0.0844809C10.9075 -0.120046 9.26549 0.0479746 7.72373 0.575684C6.18197 1.10339 4.78137 1.97681 3.62909 3.12909C2.47681 4.28137 1.60339 5.68197 1.07568 7.22373C0.547975 8.76549 0.379954 10.4075 0.584481 12.0242C1.14287 16.6228 4.78885 20.433 9.35453 21.2049C10.9051 21.471 12.4954 21.3911 14.0115 20.9709C15.5277 20.5507 16.9322 19.8006 18.1246 18.7742L18.568 19.2341V20.5315L25.5479 27.5114C26.2213 28.1848 27.3216 28.1848 27.995 27.5114C28.6683 26.8381 28.6683 25.7377 27.995 25.0643L21.0315 18.068ZM11.1775 18.068C7.08811 18.068 3.78703 14.7669 3.78703 10.6775C3.78703 6.58811 7.08811 3.28703 11.1775 3.28703C15.2669 3.28703 18.568 6.58811 18.568 10.6775C18.568 14.7669 15.2669 18.068 11.1775 18.068Z" fill="#958060"/>
</svg>
