<svg width="20" height="20" viewBox="0 0 20 20" fill="none" xmlns="http://www.w3.org/2000/svg">
<path d="M16.875 10.475V9.51876L18.075 8.46876C18.2962 8.27379 18.4414 8.0069 18.4849 7.71526C18.5283 7.42362 18.4673 7.126 18.3125 6.87501L16.8375 4.37501C16.7279 4.18517 16.5703 4.0275 16.3806 3.9178C16.1908 3.8081 15.9755 3.75023 15.7563 3.75001C15.6204 3.74897 15.4853 3.77008 15.3563 3.81251L13.8375 4.32501C13.5757 4.1502 13.3021 3.99358 13.0188 3.85626L12.7 2.28126C12.6429 1.99351 12.4863 1.73504 12.2578 1.55107C12.0293 1.36711 11.7434 1.26939 11.45 1.27501H8.52504C8.23172 1.26939 7.94578 1.36711 7.71725 1.55107C7.48873 1.73504 7.33219 1.99351 7.27504 2.28126L6.95629 3.85626C6.67126 3.99417 6.39566 4.15076 6.13129 4.32501L4.64379 3.78751C4.51335 3.75352 4.37827 3.74086 4.24379 3.75001C4.02458 3.75023 3.80929 3.8081 3.61951 3.9178C3.42973 4.0275 3.27214 4.18517 3.16254 4.37501L1.68754 6.87501C1.54165 7.12563 1.48744 7.41917 1.53419 7.70536C1.58094 7.99155 1.72574 8.25259 1.94379 8.44376L3.12504 9.52501V10.4813L1.94379 11.5313C1.71958 11.7238 1.57082 11.9895 1.52391 12.2812C1.477 12.573 1.53497 12.8719 1.68754 13.125L3.16254 15.625C3.27214 15.8148 3.42973 15.9725 3.61951 16.0822C3.80929 16.1919 4.02458 16.2498 4.24379 16.25C4.37963 16.2511 4.51473 16.2299 4.64379 16.1875L6.16254 15.675C6.4244 15.8498 6.69796 16.0064 6.98129 16.1438L7.30004 17.7188C7.35719 18.0065 7.51373 18.265 7.74225 18.4489C7.97078 18.6329 8.25672 18.7306 8.55004 18.725H11.5C11.7934 18.7306 12.0793 18.6329 12.3078 18.4489C12.5363 18.265 12.6929 18.0065 12.75 17.7188L13.0688 16.1438C13.3538 16.0059 13.6294 15.8493 13.8938 15.675L15.4063 16.1875C15.5353 16.2299 15.6704 16.2511 15.8063 16.25C16.0255 16.2498 16.2408 16.1919 16.4306 16.0822C16.6203 15.9725 16.7779 15.8148 16.8875 15.625L18.3125 13.125C18.4584 12.8744 18.5126 12.5808 18.4659 12.2947C18.4191 12.0085 18.2743 11.7474 18.0563 11.5563L16.875 10.475ZM15.7563 15L13.6125 14.275C13.1104 14.6996 12.5369 15.0319 11.9188 15.2563L11.475 17.5H8.52504L8.08129 15.2813C7.468 15.0506 6.89763 14.7189 6.39379 14.3L4.24379 15L2.76879 12.5L4.46879 11C4.35322 10.353 4.35322 9.69072 4.46879 9.04376L2.76879 7.50001L4.24379 5.00001L6.38754 5.72501C6.88968 5.30038 7.46314 4.96815 8.08129 4.74376L8.52504 2.50001H11.475L11.9188 4.71876C12.5321 4.94945 13.1024 5.28111 13.6063 5.70001L15.7563 5.00001L17.2313 7.50001L15.5313 9.00001C15.6469 9.64697 15.6469 10.3093 15.5313 10.9563L17.2313 12.5L15.7563 15Z" fill="#F7F7F7"/>
<path d="M10 13.75C9.25832 13.75 8.5333 13.5301 7.91661 13.118C7.29993 12.706 6.81928 12.1203 6.53545 11.4351C6.25162 10.7498 6.17736 9.99584 6.32206 9.26841C6.46675 8.54098 6.8239 7.8728 7.34835 7.34835C7.8728 6.8239 8.54098 6.46675 9.26841 6.32206C9.99584 6.17736 10.7498 6.25162 11.4351 6.53545C12.1203 6.81928 12.706 7.29993 13.118 7.91661C13.5301 8.5333 13.75 9.25832 13.75 10C13.755 10.4939 13.6614 10.9837 13.4748 11.441C13.2881 11.8982 13.012 12.3136 12.6628 12.6628C12.3136 13.012 11.8982 13.2881 11.441 13.4748C10.9837 13.6614 10.4939 13.755 10 13.75ZM10 7.5C9.66959 7.4923 9.34105 7.55171 9.03426 7.67462C8.72747 7.79753 8.44879 7.9814 8.2151 8.2151C7.9814 8.44879 7.79753 8.72747 7.67462 9.03426C7.55171 9.34105 7.4923 9.66959 7.5 10C7.4923 10.3304 7.55171 10.6589 7.67462 10.9657C7.79753 11.2725 7.9814 11.5512 8.2151 11.7849C8.44879 12.0186 8.72747 12.2025 9.03426 12.3254C9.34105 12.4483 9.66959 12.5077 10 12.5C10.3304 12.5077 10.6589 12.4483 10.9657 12.3254C11.2725 12.2025 11.5512 12.0186 11.7849 11.7849C12.0186 11.5512 12.2025 11.2725 12.3254 10.9657C12.4483 10.6589 12.5077 10.3304 12.5 10C12.5077 9.66959 12.4483 9.34105 12.3254 9.03426C12.2025 8.72747 12.0186 8.44879 11.7849 8.2151C11.5512 7.9814 11.2725 7.79753 10.9657 7.67462C10.6589 7.55171 10.3304 7.4923 10 7.5Z" fill="#F7F7F7"/>
</svg>
