<svg width="19" height="20" viewBox="0 0 19 20" fill="none" xmlns="http://www.w3.org/2000/svg">
<path d="M11.284 3.64297L12.6774 6.45259C12.8674 6.84368 13.374 7.21893 13.8015 7.29018L16.3262 7.71372C17.9412 7.98526 18.3212 9.16643 17.1574 10.3318L15.1941 12.3109C14.8616 12.6458 14.6795 13.2926 14.7824 13.7557L15.3445 16.2059C15.7878 18.1455 14.7666 18.8952 13.0645 17.8819L10.6974 16.4688C10.2699 16.2138 9.56534 16.2138 9.12992 16.4688L6.76442 17.8819C5.07026 18.8952 4.04109 18.1368 4.48442 16.2059L5.04651 13.7557C5.14942 13.2926 4.96734 12.6458 4.63484 12.3109L2.67151 10.3318C1.51646 9.16564 1.88855 7.98526 3.50276 7.71372L6.02817 7.29018C6.44776 7.21893 6.95442 6.84368 7.14442 6.45259L8.53776 3.64297C9.29776 2.11901 10.5328 2.11901 11.2848 3.64297" stroke="#958060" stroke-width="1.1875" stroke-linecap="round" stroke-linejoin="round"/>
</svg>
