<svg width="24" height="24" viewBox="0 0 24 24" fill="none" xmlns="http://www.w3.org/2000/svg">
<path d="M14.5 15.5H9.5M12 18V13" stroke="#F7F7F7" stroke-width="2" stroke-linecap="round" stroke-linejoin="round"/>
<path d="M5 20V4C5 3.73478 5.10536 3.48043 5.29289 3.29289C5.48043 3.10536 5.73478 3 6 3H12.172C12.7024 3.00011 13.211 3.2109 13.586 3.586L18.414 8.414C18.7891 8.78899 18.9999 9.29761 19 9.828V20C19 20.2652 18.8946 20.5196 18.7071 20.7071C18.5196 20.8946 18.2652 21 18 21H6C5.73478 21 5.48043 20.8946 5.29289 20.7071C5.10536 20.5196 5 20.2652 5 20Z" stroke="#F7F7F7" stroke-width="2" stroke-linejoin="round"/>
<path d="M12 3V9C12 9.26522 12.1054 9.51957 12.2929 9.70711C12.4804 9.89464 12.7348 10 13 10H19" stroke="#F7F7F7" stroke-width="2" stroke-linejoin="round"/>
</svg>
