<svg width="20" height="20" viewBox="0 0 20 20" fill="none" xmlns="http://www.w3.org/2000/svg">
<path d="M12.0834 12.9167H7.91675M10.0001 15V10.8334" stroke="#F7F7F7" stroke-width="2" stroke-linecap="round" stroke-linejoin="round"/>
<path d="M4.16675 16.6667V3.33333C4.16675 3.11232 4.25455 2.90036 4.41083 2.74408C4.56711 2.5878 4.77907 2.5 5.00008 2.5H10.1434C10.5854 2.50009 11.0093 2.67575 11.3217 2.98833L15.3451 7.01167C15.6577 7.32415 15.8333 7.74801 15.8334 8.19V16.6667C15.8334 16.8877 15.7456 17.0996 15.5893 17.2559C15.4331 17.4122 15.2211 17.5 15.0001 17.5H5.00008C4.77907 17.5 4.56711 17.4122 4.41083 17.2559C4.25455 17.0996 4.16675 16.8877 4.16675 16.6667Z" stroke="#F7F7F7" stroke-width="2" stroke-linejoin="round"/>
<path d="M10 2.5V7.5C10 7.72101 10.0878 7.93298 10.2441 8.08926C10.4004 8.24554 10.6123 8.33333 10.8333 8.33333H15.8333" stroke="#F7F7F7" stroke-width="2" stroke-linejoin="round"/>
</svg>
