<svg width="25" height="24" viewBox="0 0 25 24" fill="none" xmlns="http://www.w3.org/2000/svg">
<path d="M17.5 14C17.7652 14 18.0196 13.8946 18.2071 13.7071C18.3946 13.5196 18.5 13.2652 18.5 13C18.5 12.7348 18.3946 12.4804 18.2071 12.2929C18.0196 12.1054 17.7652 12 17.5 12C17.2348 12 16.9804 12.1054 16.7929 12.2929C16.6054 12.4804 16.5 12.7348 16.5 13C16.5 13.2652 16.6054 13.5196 16.7929 13.7071C16.9804 13.8946 17.2348 14 17.5 14ZM17.5 18C17.7652 18 18.0196 17.8946 18.2071 17.7071C18.3946 17.5196 18.5 17.2652 18.5 17C18.5 16.7348 18.3946 16.4804 18.2071 16.2929C18.0196 16.1054 17.7652 16 17.5 16C17.2348 16 16.9804 16.1054 16.7929 16.2929C16.6054 16.4804 16.5 16.7348 16.5 17C16.5 17.2652 16.6054 17.5196 16.7929 17.7071C16.9804 17.8946 17.2348 18 17.5 18ZM13.5 13C13.5 13.2652 13.3946 13.5196 13.2071 13.7071C13.0196 13.8946 12.7652 14 12.5 14C12.2348 14 11.9804 13.8946 11.7929 13.7071C11.6054 13.5196 11.5 13.2652 11.5 13C11.5 12.7348 11.6054 12.4804 11.7929 12.2929C11.9804 12.1054 12.2348 12 12.5 12C12.7652 12 13.0196 12.1054 13.2071 12.2929C13.3946 12.4804 13.5 12.7348 13.5 13ZM13.5 17C13.5 17.2652 13.3946 17.5196 13.2071 17.7071C13.0196 17.8946 12.7652 18 12.5 18C12.2348 18 11.9804 17.8946 11.7929 17.7071C11.6054 17.5196 11.5 17.2652 11.5 17C11.5 16.7348 11.6054 16.4804 11.7929 16.2929C11.9804 16.1054 12.2348 16 12.5 16C12.7652 16 13.0196 16.1054 13.2071 16.2929C13.3946 16.4804 13.5 16.7348 13.5 17ZM7.5 14C7.76522 14 8.01957 13.8946 8.20711 13.7071C8.39464 13.5196 8.5 13.2652 8.5 13C8.5 12.7348 8.39464 12.4804 8.20711 12.2929C8.01957 12.1054 7.76522 12 7.5 12C7.23478 12 6.98043 12.1054 6.79289 12.2929C6.60536 12.4804 6.5 12.7348 6.5 13C6.5 13.2652 6.60536 13.5196 6.79289 13.7071C6.98043 13.8946 7.23478 14 7.5 14ZM7.5 18C7.76522 18 8.01957 17.8946 8.20711 17.7071C8.39464 17.5196 8.5 17.2652 8.5 17C8.5 16.7348 8.39464 16.4804 8.20711 16.2929C8.01957 16.1054 7.76522 16 7.5 16C7.23478 16 6.98043 16.1054 6.79289 16.2929C6.60536 16.4804 6.5 16.7348 6.5 17C6.5 17.2652 6.60536 17.5196 6.79289 17.7071C6.98043 17.8946 7.23478 18 7.5 18Z" fill="#958060"/>
<path fill-rule="evenodd" clip-rule="evenodd" d="M7.49998 1.75C7.69889 1.75 7.88965 1.82902 8.03031 1.96967C8.17096 2.11032 8.24998 2.30109 8.24998 2.5V3.263C8.91198 3.25 9.64098 3.25 10.443 3.25H14.556C15.359 3.25 16.088 3.25 16.75 3.263V2.5C16.75 2.30109 16.829 2.11032 16.9696 1.96967C17.1103 1.82902 17.3011 1.75 17.5 1.75C17.6989 1.75 17.8897 1.82902 18.0303 1.96967C18.171 2.11032 18.25 2.30109 18.25 2.5V3.327C18.51 3.347 18.7563 3.37233 18.989 3.403C20.161 3.561 21.11 3.893 21.859 4.641C22.607 5.39 22.939 6.339 23.097 7.511C23.25 8.651 23.25 10.106 23.25 11.944V14.056C23.25 15.894 23.25 17.35 23.097 18.489C22.939 19.661 22.607 20.61 21.859 21.359C21.11 22.107 20.161 22.439 18.989 22.597C17.849 22.75 16.394 22.75 14.556 22.75H10.445C8.60698 22.75 7.15098 22.75 6.01198 22.597C4.83998 22.439 3.89098 22.107 3.14198 21.359C2.39398 20.61 2.06198 19.661 1.90398 18.489C1.75098 17.349 1.75098 15.894 1.75098 14.056V11.944C1.75098 10.106 1.75098 8.65 1.90398 7.511C2.06198 6.339 2.39398 5.39 3.14198 4.641C3.89098 3.893 4.83998 3.561 6.01198 3.403C6.24531 3.37233 6.49164 3.347 6.75098 3.327V2.5C6.75098 2.30126 6.82986 2.11065 6.97029 1.97002C7.11073 1.8294 7.30124 1.75026 7.49998 1.75ZM6.20998 4.89C5.20498 5.025 4.62498 5.279 4.20198 5.702C3.77898 6.125 3.52498 6.705 3.38998 7.71C3.36731 7.88 3.34798 8.05967 3.33198 8.249H21.668C21.652 8.05967 21.6326 7.87967 21.61 7.709C21.475 6.704 21.221 6.124 20.798 5.701C20.375 5.278 19.795 5.024 18.789 4.889C17.762 4.751 16.407 4.749 14.5 4.749H10.5C8.59298 4.749 7.23898 4.752 6.20998 4.89ZM3.24998 12C3.24998 11.146 3.24998 10.403 3.26298 9.75H21.737C21.75 10.403 21.75 11.146 21.75 12V14C21.75 15.907 21.748 17.262 21.61 18.29C21.475 19.295 21.221 19.875 20.798 20.298C20.375 20.721 19.795 20.975 18.789 21.11C17.762 21.248 16.407 21.25 14.5 21.25H10.5C8.59298 21.25 7.23898 21.248 6.20998 21.11C5.20498 20.975 4.62498 20.721 4.20198 20.298C3.77898 19.875 3.52498 19.295 3.38998 18.289C3.25198 17.262 3.24998 15.907 3.24998 14V12Z" fill="#958060"/>
</svg>
