<svg width="32" height="32" viewBox="0 0 32 32" fill="none" xmlns="http://www.w3.org/2000/svg">
<path fill-rule="evenodd" clip-rule="evenodd" d="M4.70711 8.04044C4.31658 7.64992 4.31658 7.01675 4.70711 6.62623L6.62623 4.70711C7.01675 4.31658 7.64992 4.31658 8.04044 4.70711L15.2929 11.9596C15.6834 12.3501 16.3166 12.3501 16.7071 11.9596L23.9596 4.70711C24.3501 4.31658 24.9832 4.31658 25.3738 4.70711L27.2929 6.62623C27.6834 7.01675 27.6834 7.64992 27.2929 8.04044L20.0404 15.2929C19.6499 15.6834 19.6499 16.3166 20.0404 16.7071L27.2929 23.9596C27.6834 24.3501 27.6834 24.9832 27.2929 25.3738L25.3738 27.2929C24.9832 27.6834 24.3501 27.6834 23.9596 27.2929L16.7071 20.0404C16.3166 19.6499 15.6834 19.6499 15.2929 20.0404L8.04044 27.2929C7.64992 27.6834 7.01675 27.6834 6.62623 27.2929L4.70711 25.3738C4.31658 24.9832 4.31658 24.3501 4.70711 23.9596L11.9596 16.7071C12.3501 16.3166 12.3501 15.6834 11.9596 15.2929L4.70711 8.04044Z" fill="#958060" stroke="#958060" stroke-linecap="round" stroke-linejoin="round"/>
</svg>
