<svg width="21" height="20" viewBox="0 0 21 20" fill="none" xmlns="http://www.w3.org/2000/svg">
<path d="M6.125 2.5C5.79348 2.5 5.47554 2.6317 5.24112 2.86612C5.0067 3.10054 4.875 3.41848 4.875 3.75V15H16.125V3.75C16.125 3.41848 15.9933 3.10054 15.7589 2.86612C15.5245 2.6317 15.2065 2.5 14.875 2.5H6.125ZM4.875 16.25C4.875 16.5815 5.0067 16.8995 5.24112 17.1339C5.47554 17.3683 5.79348 17.5 6.125 17.5H16.75C16.9158 17.5 17.0747 17.5658 17.1919 17.6831C17.3092 17.8003 17.375 17.9592 17.375 18.125C17.375 18.2908 17.3092 18.4497 17.1919 18.5669C17.0747 18.6842 16.9158 18.75 16.75 18.75H6.125C5.46196 18.75 4.82607 18.4866 4.35723 18.0178C3.88839 17.5489 3.625 16.913 3.625 16.25V3.75C3.625 3.08696 3.88839 2.45107 4.35723 1.98223C4.82607 1.51339 5.46196 1.25 6.125 1.25H14.875C15.538 1.25 16.1739 1.51339 16.6428 1.98223C17.1116 2.45107 17.375 3.08696 17.375 3.75V15.1562C17.375 15.4463 17.2598 15.7245 17.0546 15.9296C16.8495 16.1348 16.5713 16.25 16.2812 16.25H4.875ZM12.375 6.5625C12.375 7.05978 12.1775 7.53669 11.8258 7.88833C11.4742 8.23996 10.9973 8.4375 10.5 8.4375C10.0027 8.4375 9.52581 8.23996 9.17417 7.88833C8.82254 7.53669 8.625 7.05978 8.625 6.5625C8.625 6.06522 8.82254 5.58831 9.17417 5.23667C9.52581 4.88504 10.0027 4.6875 10.5 4.6875C10.9973 4.6875 11.4742 4.88504 11.8258 5.23667C12.1775 5.58831 12.375 6.06522 12.375 6.5625ZM13.9375 10.7812C13.9375 11.9487 12.9556 13.125 10.5 13.125C8.04437 13.125 7.0625 11.9531 7.0625 10.7812V10.6531C7.0625 9.94687 7.635 9.375 8.34125 9.375H12.6594C13.3656 9.375 13.9375 9.94687 13.9375 10.6531V10.7812Z" fill="#F7F7F7"/>
</svg>
