<svg width="60" height="60" viewBox="0 0 60 60" fill="none" xmlns="http://www.w3.org/2000/svg">
<g clip-path="url(#clip0_3100_613)">
<path d="M51.2775 60H10.3131C10.1872 60 10.0625 59.9753 9.94611 59.9271C9.82977 59.8789 9.72406 59.8083 9.63501 59.7192C9.54597 59.6302 9.47535 59.5245 9.42717 59.4081C9.379 59.2918 9.35422 59.1671 9.35425 59.0412V0.958828C9.35422 0.832904 9.379 0.708208 9.42717 0.591864C9.47535 0.47552 9.54597 0.369807 9.63501 0.280766C9.72406 0.191724 9.82977 0.121098 9.94611 0.0729238C10.0625 0.024749 10.1872 -3.07633e-05 10.3131 2.86618e-08H33.8427L52.2364 18.3938V59.0412C52.2364 59.2955 52.1354 59.5394 51.9555 59.7192C51.7757 59.899 51.5318 60 51.2775 60Z" fill="#F9E7C0"/>
<path d="M33.8426 0L52.2364 18.3938H37.7523C35.593 18.3938 33.8425 16.6433 33.8425 14.484V0H33.8426Z" fill="#EAC083"/>
<path d="M27.5482 10.8282H14.8187C14.0984 10.8282 13.5144 10.2443 13.5144 9.52395C13.5144 8.8036 14.0984 8.21965 14.8187 8.21965H27.5482C28.2685 8.21965 28.8525 8.8036 28.8525 9.52395C28.8525 10.2443 28.2685 10.8282 27.5482 10.8282ZM28.8525 18.0614C28.8525 17.3411 28.2685 16.7571 27.5482 16.7571H14.8187C14.0984 16.7571 13.5144 17.3411 13.5144 18.0614C13.5144 18.7818 14.0984 19.3657 14.8187 19.3657H27.5482C28.2685 19.3657 28.8525 18.7818 28.8525 18.0614ZM28.8525 26.599C28.8525 25.8786 28.2685 25.2947 27.5482 25.2947H14.8187C14.0984 25.2947 13.5144 25.8786 13.5144 26.599C13.5144 27.3193 14.0984 27.9033 14.8187 27.9033H27.5482C28.2685 27.9032 28.8525 27.3193 28.8525 26.599ZM39.8726 35.1364C39.8726 34.4162 39.2886 33.8321 38.5683 33.8321H14.8187C14.0984 33.8321 13.5144 34.4161 13.5144 35.1364C13.5144 35.8568 14.0984 36.4407 14.8187 36.4407H38.5683C39.2886 36.4407 39.8726 35.8568 39.8726 35.1364ZM44.2663 26.599C44.2663 25.8786 43.6823 25.2947 42.962 25.2947H34.1747C33.4544 25.2947 32.8704 25.8786 32.8704 26.599C32.8704 27.3193 33.4543 27.9033 34.1747 27.9033H42.962C43.6823 27.9032 44.2663 27.3193 44.2663 26.599ZM35.1469 43.674C35.1469 42.9538 34.5629 42.3697 33.8426 42.3697H14.8187C14.0984 42.3697 13.5144 42.9537 13.5144 43.674C13.5144 44.3944 14.0984 44.9783 14.8187 44.9783H33.8426C34.5629 44.9782 35.1469 44.3943 35.1469 43.674ZM42.9058 52.2115C42.9058 51.4913 42.3219 50.9072 41.6016 50.9072H14.8187C14.0984 50.9072 13.5144 51.4911 13.5144 52.2115C13.5144 52.9318 14.0984 53.5158 14.8187 53.5158H41.6016C42.3218 53.5158 42.9058 52.9318 42.9058 52.2115Z" fill="#597B91"/>
</g>
<defs>
<clipPath id="clip0_3100_613">
<rect width="60" height="60" fill="white"/>
</clipPath>
</defs>
</svg>
