<svg width="19" height="19" viewBox="0 0 19 19" fill="none" xmlns="http://www.w3.org/2000/svg">
<path fill-rule="evenodd" clip-rule="evenodd" d="M11.875 5.34375C11.875 5.97364 11.6248 6.57773 11.1794 7.02313C10.734 7.46853 10.1299 7.71875 9.5 7.71875C8.87011 7.71875 8.26602 7.46853 7.82062 7.02313C7.37522 6.57773 7.125 5.97364 7.125 5.34375C7.125 4.71386 7.37522 4.10977 7.82062 3.66437C8.26602 3.21897 8.87011 2.96875 9.5 2.96875C10.1299 2.96875 10.734 3.21897 11.1794 3.66437C11.6248 4.10977 11.875 4.71386 11.875 5.34375ZM13.6562 5.34375C13.6562 6.44606 13.2184 7.50321 12.4389 8.28266C11.6595 9.06211 10.6023 9.5 9.5 9.5C8.39769 9.5 7.34054 9.06211 6.56109 8.28266C5.78164 7.50321 5.34375 6.44606 5.34375 5.34375C5.34375 4.24144 5.78164 3.18429 6.56109 2.40484C7.34054 1.62539 8.39769 1.1875 9.5 1.1875C10.6023 1.1875 11.6595 1.62539 12.4389 2.40484C13.2184 3.18429 13.6562 4.24144 13.6562 5.34375ZM2.96875 14.8438C2.96875 14.6015 3.23 13.8831 4.53625 13.1112C5.74512 12.3975 7.505 11.875 9.5 11.875C11.495 11.875 13.2549 12.3975 14.4638 13.1112C15.77 13.8831 16.0312 14.6015 16.0312 14.8438C16.0312 15.1587 15.9061 15.4607 15.6834 15.6834C15.4607 15.9061 15.1587 16.0312 14.8438 16.0312H4.15625C3.84131 16.0312 3.53926 15.9061 3.31656 15.6834C3.09386 15.4607 2.96875 15.1587 2.96875 14.8438ZM9.5 10.0938C4.92813 10.0938 1.1875 12.4688 1.1875 14.8438C1.1875 15.6311 1.50028 16.3862 2.05703 16.943C2.61378 17.4997 3.36889 17.8125 4.15625 17.8125H14.8438C15.6311 17.8125 16.3862 17.4997 16.943 16.943C17.4997 16.3862 17.8125 15.6311 17.8125 14.8438C17.8125 12.4688 14.0719 10.0938 9.5 10.0938Z" fill="#686868"/>
</svg>
