<svg width="19" height="19" viewBox="0 0 19 19" fill="none" xmlns="http://www.w3.org/2000/svg">
<g clip-path="url(#clip0_2910_1023)">
<path d="M12.6666 4.75004C12.6666 3.25696 12.6666 2.51121 12.2027 2.04729C11.7388 1.58337 10.993 1.58337 9.49992 1.58337C8.00683 1.58337 7.26109 1.58337 6.79717 2.04729C6.33325 2.51121 6.33325 3.25696 6.33325 4.75004M1.58325 11.0834C1.58325 8.098 1.58325 6.60492 2.51109 5.67787C3.43892 4.75083 4.93121 4.75004 7.91658 4.75004H11.0833C14.0686 4.75004 15.5617 4.75004 16.4888 5.67787C17.4158 6.60571 17.4166 8.098 17.4166 11.0834C17.4166 14.0687 17.4166 15.5618 16.4888 16.4889C15.5609 17.4159 14.0686 17.4167 11.0833 17.4167H7.91658C4.93121 17.4167 3.43813 17.4167 2.51109 16.4889C1.58404 15.561 1.58325 14.0687 1.58325 11.0834Z" stroke="#686868" stroke-width="1.5"/>
<path d="M9.49984 13.722C10.3746 13.722 11.0832 13.1315 11.0832 12.4031C11.0832 11.6748 10.3746 11.0834 9.49984 11.0834C8.62505 11.0834 7.9165 10.4928 7.9165 9.76371C7.9165 9.03537 8.62505 8.44479 9.49984 8.44479M9.49984 13.722C8.62505 13.722 7.9165 13.1315 7.9165 12.4031M9.49984 13.722V14.2501M9.49984 8.44479V7.91675M9.49984 8.44479C10.3746 8.44479 11.0832 9.03537 11.0832 9.76371" stroke="#686868" stroke-width="1.5" stroke-linecap="round"/>
</g>
<defs>
<clipPath id="clip0_2910_1023">
<rect width="19" height="19" fill="white"/>
</clipPath>
</defs>
</svg>
