<svg width="19" height="19" viewBox="0 0 19 19" fill="none" xmlns="http://www.w3.org/2000/svg">
<path d="M13.4583 11.0833C13.6683 11.0833 13.8697 10.9999 14.0181 10.8515C14.1666 10.703 14.25 10.5016 14.25 10.2917C14.25 10.0817 14.1666 9.88034 14.0181 9.73187C13.8697 9.58341 13.6683 9.5 13.4583 9.5C13.2484 9.5 13.047 9.58341 12.8985 9.73187C12.7501 9.88034 12.6667 10.0817 12.6667 10.2917C12.6667 10.5016 12.7501 10.703 12.8985 10.8515C13.047 10.9999 13.2484 11.0833 13.4583 11.0833ZM13.4583 14.25C13.6683 14.25 13.8697 14.1666 14.0181 14.0181C14.1666 13.8697 14.25 13.6683 14.25 13.4583C14.25 13.2484 14.1666 13.047 14.0181 12.8985C13.8697 12.7501 13.6683 12.6667 13.4583 12.6667C13.2484 12.6667 13.047 12.7501 12.8985 12.8985C12.7501 13.047 12.6667 13.2484 12.6667 13.4583C12.6667 13.6683 12.7501 13.8697 12.8985 14.0181C13.047 14.1666 13.2484 14.25 13.4583 14.25ZM10.2917 10.2917C10.2917 10.5016 10.2083 10.703 10.0598 10.8515C9.91133 10.9999 9.70996 11.0833 9.5 11.0833C9.29004 11.0833 9.08867 10.9999 8.94021 10.8515C8.79174 10.703 8.70833 10.5016 8.70833 10.2917C8.70833 10.0817 8.79174 9.88034 8.94021 9.73187C9.08867 9.58341 9.29004 9.5 9.5 9.5C9.70996 9.5 9.91133 9.58341 10.0598 9.73187C10.2083 9.88034 10.2917 10.0817 10.2917 10.2917ZM10.2917 13.4583C10.2917 13.6683 10.2083 13.8697 10.0598 14.0181C9.91133 14.1666 9.70996 14.25 9.5 14.25C9.29004 14.25 9.08867 14.1666 8.94021 14.0181C8.79174 13.8697 8.70833 13.6683 8.70833 13.4583C8.70833 13.2484 8.79174 13.047 8.94021 12.8985C9.08867 12.7501 9.29004 12.6667 9.5 12.6667C9.70996 12.6667 9.91133 12.7501 10.0598 12.8985C10.2083 13.047 10.2917 13.2484 10.2917 13.4583ZM5.54167 11.0833C5.75163 11.0833 5.95299 10.9999 6.10146 10.8515C6.24993 10.703 6.33333 10.5016 6.33333 10.2917C6.33333 10.0817 6.24993 9.88034 6.10146 9.73187C5.95299 9.58341 5.75163 9.5 5.54167 9.5C5.3317 9.5 5.13034 9.58341 4.98187 9.73187C4.83341 9.88034 4.75 10.0817 4.75 10.2917C4.75 10.5016 4.83341 10.703 4.98187 10.8515C5.13034 10.9999 5.3317 11.0833 5.54167 11.0833ZM5.54167 14.25C5.75163 14.25 5.95299 14.1666 6.10146 14.0181C6.24993 13.8697 6.33333 13.6683 6.33333 13.4583C6.33333 13.2484 6.24993 13.047 6.10146 12.8985C5.95299 12.7501 5.75163 12.6667 5.54167 12.6667C5.3317 12.6667 5.13034 12.7501 4.98187 12.8985C4.83341 13.047 4.75 13.2484 4.75 13.4583C4.75 13.6683 4.83341 13.8697 4.98187 14.0181C5.13034 14.1666 5.3317 14.25 5.54167 14.25Z" fill="#686868"/>
<path fill-rule="evenodd" clip-rule="evenodd" d="M5.54177 1.38538C5.69924 1.38538 5.85026 1.44793 5.96161 1.55928C6.07296 1.67063 6.13552 1.82165 6.13552 1.97913V2.58317C6.6596 2.57288 7.23673 2.57288 7.87164 2.57288H11.1278C11.7635 2.57288 12.3406 2.57288 12.8647 2.58317V1.97913C12.8647 1.82165 12.9272 1.67063 13.0386 1.55928C13.1499 1.44793 13.301 1.38538 13.4584 1.38538C13.6159 1.38538 13.7669 1.44793 13.8783 1.55928C13.9896 1.67063 14.0522 1.82165 14.0522 1.97913V2.63383C14.258 2.64967 14.453 2.66972 14.6372 2.694C15.5651 2.81908 16.3164 3.08192 16.9093 3.67408C17.5015 4.26704 17.7643 5.01833 17.8894 5.94617C18.0105 6.84867 18.0105 8.00054 18.0105 9.45563V11.1276C18.0105 12.5827 18.0105 13.7354 17.8894 14.6371C17.7643 15.5649 17.5015 16.3162 16.9093 16.9092C16.3164 17.5013 15.5651 17.7642 14.6372 17.8893C13.7347 18.0104 12.5829 18.0104 11.1278 18.0104H7.87323C6.41814 18.0104 5.26548 18.0104 4.36377 17.8893C3.43594 17.7642 2.68464 17.5013 2.09169 16.9092C1.49952 16.3162 1.23669 15.5649 1.1116 14.6371C0.990479 13.7346 0.990479 12.5827 0.990479 11.1276V9.45563C0.990479 8.00054 0.990479 6.84788 1.1116 5.94617C1.23669 5.01833 1.49952 4.26704 2.09169 3.67408C2.68464 3.08192 3.43594 2.81908 4.36377 2.694C4.54849 2.66972 4.74351 2.64967 4.94881 2.63383V1.97913C4.94881 1.82179 5.01126 1.67089 5.12244 1.55956C5.23362 1.44823 5.38443 1.38559 5.54177 1.38538ZM4.52052 3.87121C3.7249 3.97808 3.26573 4.17917 2.93085 4.51404C2.59598 4.84892 2.3949 5.30808 2.28802 6.10371C2.27008 6.23829 2.25477 6.38053 2.2421 6.53042H16.7581C16.7454 6.38053 16.7301 6.23803 16.7122 6.10292C16.6053 5.30729 16.4042 4.84813 16.0694 4.51325C15.7345 4.17838 15.2753 3.97729 14.4789 3.87042C13.6659 3.76117 12.5931 3.75958 11.0834 3.75958H7.91677C6.40706 3.75958 5.33514 3.76196 4.52052 3.87121ZM2.17719 9.49996C2.17719 8.82388 2.17719 8.23567 2.18748 7.71871H16.8127C16.823 8.23567 16.823 8.82388 16.823 9.49996V11.0833C16.823 12.593 16.8214 13.6657 16.7122 14.4795C16.6053 15.2752 16.4042 15.7343 16.0694 16.0692C15.7345 16.4041 15.2753 16.6052 14.4789 16.712C13.6659 16.8213 12.5931 16.8229 11.0834 16.8229H7.91677C6.40706 16.8229 5.33514 16.8213 4.52052 16.712C3.7249 16.6052 3.26573 16.4041 2.93085 16.0692C2.59598 15.7343 2.3949 15.2752 2.28802 14.4788C2.17877 13.6657 2.17719 12.593 2.17719 11.0833V9.49996Z" fill="#686868"/>
</svg>
