<svg width="99" height="98" viewBox="0 0 99 98" fill="none" xmlns="http://www.w3.org/2000/svg">
<g clip-path="url(#clip0_5166_968)">
<mask id="mask0_5166_968" style="mask-type:luminance" maskUnits="userSpaceOnUse" x="0" y="0" width="99" height="98">
<path d="M98.5 0H0.5V98H98.5V0Z" fill="white"/>
</mask>
<g mask="url(#mask0_5166_968)">
<path d="M61.0207 14.2986V47.7488C61.0207 47.7488 61.9254 64.2986 46.1565 64.2986C30.3877 64.2986 31.034 47.7488 31.034 47.7488" stroke="#F7F7F7" stroke-width="6.54"/>
<path d="M86.1248 50.796C86.1248 50.796 86.1248 44.2236 78.0481 44.2236C69.9715 44.2236 68.4389 53.5548 68.4389 54.4473C68.4389 58.4232 71.6703 63.1293 78.0481 63.1293C84.4259 63.1293 89.4365 66.5372 89.4365 72.2982C89.4365 75.5438 88.068 81.2236 78.0481 81.2236C68.0282 81.2236 68.4389 74.0021 68.4389 74.0021" stroke="#F7F7F7" stroke-width="3.6"/>
<path d="M80.4414 43.3895C78.8977 43.2236 77.111 43.2236 77.111 43.2236C66.9581 43.2236 67.4451 51.931 67.4451 53.6724C67.4451 55.4139 68.1726 58.3163 71.4227 60.2236" stroke="#F7F7F7" stroke-width="6.54"/>
<path d="M49.4761 70.573C66.5969 70.573 80.4761 56.47 80.4761 39.073C80.4761 21.676 66.5969 7.573 49.4761 7.573C32.3552 7.573 18.4761 21.676 18.4761 39.073C18.4761 56.47 32.3552 70.573 49.4761 70.573Z" stroke="#F7F7F7" stroke-width="2.45"/>
<path d="M29.7664 63.1788L32.3788 65.2398L12.872 94.9046L5.604 88.6874L29.7664 63.1788Z" fill="#F7F7F7"/>
</g>
</g>
<defs>
<clipPath id="clip0_5166_968">
<rect width="98" height="98" fill="white" transform="translate(0.5)"/>
</clipPath>
</defs>
</svg>
