<svg width="98" height="98" viewBox="0 0 98 98" fill="none" xmlns="http://www.w3.org/2000/svg">
<g clip-path="url(#clip0_4192_3757)">
<mask id="mask0_4192_3757" style="mask-type:luminance" maskUnits="userSpaceOnUse" x="0" y="0" width="98" height="98">
<path d="M98 0H0V98H98V0Z" fill="white"/>
</mask>
<g mask="url(#mask0_4192_3757)">
<path d="M60.5207 14.2986V47.7487C60.5207 47.7487 61.4254 64.2986 45.6565 64.2986C29.8877 64.2986 30.534 47.7487 30.534 47.7487" stroke="#604B2B" stroke-width="6.54"/>
<path d="M85.6248 50.796C85.6248 50.796 85.6248 44.2236 77.5481 44.2236C69.4715 44.2236 67.9389 53.5548 67.9389 54.4473C67.9389 58.4232 71.1703 63.1293 77.5481 63.1293C83.9259 63.1293 88.9365 66.5372 88.9365 72.2982C88.9365 75.5438 87.568 81.2236 77.5481 81.2236C67.5282 81.2236 67.9389 74.0021 67.9389 74.0021" stroke="#C8B18D" stroke-width="3.6"/>
<path d="M79.9414 43.3895C78.3977 43.2236 76.611 43.2236 76.611 43.2236C66.4581 43.2236 66.9451 51.931 66.9451 53.6724C66.9451 55.4139 67.6726 58.3163 70.9227 60.2236" stroke="#C8B18D" stroke-width="6.54"/>
<path d="M48.9761 70.573C66.0969 70.573 79.9761 56.47 79.9761 39.073C79.9761 21.676 66.0969 7.573 48.9761 7.573C31.8552 7.573 17.9761 21.676 17.9761 39.073C17.9761 56.47 31.8552 70.573 48.9761 70.573Z" stroke="#545454" stroke-width="2.45"/>
<path d="M29.2664 63.1788L31.8788 65.2398L12.372 94.9046L5.104 88.6874L29.2664 63.1788Z" fill="#545454"/>
</g>
</g>
<defs>
<clipPath id="clip0_4192_3757">
<rect width="98" height="98" fill="white"/>
</clipPath>
</defs>
</svg>
