<svg width="171" height="88" viewBox="0 0 171 88" fill="none" xmlns="http://www.w3.org/2000/svg">
<path d="M55.6434 8.17871V41.6713C55.6434 41.6713 56.5535 58.2421 40.6903 58.2421C24.8272 58.2421 25.4774 41.6713 25.4774 41.6713" stroke="#F7F7F7" stroke-width="6.53707"/>
<path d="M78.9369 44.4175C78.9369 44.4175 78.9369 37.7915 70.825 37.7915C62.7131 37.7915 61.1738 47.1988 61.1738 48.0987C61.1738 52.107 64.4193 56.8516 70.825 56.8516C77.2306 56.8516 82.2631 60.2873 82.2631 66.0953C82.2631 69.3675 80.8886 75.0937 70.825 75.0937C60.7613 75.0937 61.1738 67.8132 61.1738 67.8132" stroke="#F7F7F7" stroke-width="3.59539"/>
<path d="M74.15 38.773C72.6086 38.6094 70.8246 38.6094 70.8246 38.6094C60.6871 38.6094 61.1734 47.1987 61.1734 48.9166C61.1734 50.6344 61.8998 53.4975 65.1449 55.379" stroke="#F7F7F7" stroke-width="6.53707"/>
<path d="M43.6464 64.541C60.8069 64.541 74.7182 50.5138 74.7182 33.2104C74.7182 15.907 60.8069 1.87988 43.6464 1.87988C26.486 1.87988 12.5747 15.907 12.5747 33.2104C12.5747 50.5138 26.486 64.541 43.6464 64.541Z" stroke="#F7F7F7" stroke-width="2.4514"/>
<path d="M23.0345 57.5627L25.4549 59.4881L7.38249 87.2005L0.648926 81.3925L23.0345 57.5627Z" fill="#F7F7F7"/>
<path d="M98.3935 30.4047C98.3935 32.5311 97.9428 34.1817 97.0414 35.3564C96.1486 36.5224 94.7795 37.1055 92.9341 37.1055C91.4545 37.1055 90.213 36.7155 89.2096 35.9351C88.2062 35.1463 87.5046 33.9717 87.105 32.411L88.6229 31.8323C88.9884 33.2214 89.5328 34.1989 90.2555 34.7647C90.9783 35.3221 91.8712 35.6007 92.9341 35.6007C93.7165 35.6007 94.35 35.4421 94.8346 35.1249C95.3279 34.8077 95.702 34.4046 95.9571 33.9159C96.2208 33.4185 96.3994 32.8655 96.4929 32.2567C96.5865 31.6393 96.6332 31.022 96.6332 30.4047V20.0254H98.3935V30.4047ZM113.585 30.8548C113.585 31.7895 113.436 32.6383 113.139 33.4013C112.85 34.1646 112.429 34.8204 111.876 35.3692C111.332 35.9094 110.677 36.3338 109.911 36.6425C109.146 36.9513 108.292 37.1055 107.348 37.1055C106.421 37.1055 105.575 36.9513 104.809 36.6425C104.044 36.3338 103.385 35.9094 102.832 35.3692C102.288 34.8204 101.867 34.1646 101.569 33.4013C101.28 32.6383 101.136 31.7895 101.136 30.8548C101.136 29.946 101.28 29.1013 101.569 28.321C101.867 27.5323 102.288 26.8635 102.832 26.3147C103.385 25.7573 104.044 25.3243 104.809 25.0157C105.575 24.6983 106.421 24.5398 107.348 24.5398C108.292 24.5398 109.146 24.6983 109.911 25.0157C110.677 25.3243 111.332 25.7573 111.876 26.3147C112.429 26.8635 112.85 27.5323 113.139 28.321C113.436 29.1013 113.585 29.946 113.585 30.8548ZM111.838 30.8548C111.838 30.1688 111.736 29.5386 111.531 28.9642C111.336 28.3811 111.043 27.871 110.651 27.4336C110.26 26.9963 109.784 26.6534 109.223 26.4047C108.67 26.156 108.045 26.0317 107.348 26.0317C106.65 26.0317 106.021 26.156 105.46 26.4047C104.907 26.6534 104.439 26.9963 104.057 27.4336C103.674 27.871 103.381 28.3811 103.177 28.9642C102.981 29.5386 102.883 30.1688 102.883 30.8548C102.883 31.5408 102.981 32.1753 103.177 32.7584C103.381 33.3328 103.674 33.8301 104.057 34.2503C104.439 34.6704 104.907 35.0006 105.46 35.2406C106.021 35.4808 106.65 35.6007 107.348 35.6007C108.045 35.6007 108.67 35.4808 109.223 35.2406C109.784 35.0006 110.26 34.6704 110.651 34.2503C111.043 33.8301 111.336 33.3328 111.531 32.7584C111.736 32.1753 111.838 31.5408 111.838 30.8548ZM127.539 30.8291C127.539 31.7466 127.399 32.5912 127.119 33.3629C126.838 34.1344 126.434 34.799 125.907 35.3564C125.388 35.9052 124.759 36.3338 124.019 36.6425C123.279 36.9513 122.45 37.1055 121.532 37.1055C120.885 37.1055 120.265 36.9899 119.669 36.7584C119.083 36.5269 118.534 36.1838 118.024 35.7293V36.8097H116.276V20.0254H118.024V25.9288C118.534 25.4915 119.083 25.1528 119.669 24.9128C120.265 24.6641 120.885 24.5398 121.532 24.5398C122.45 24.5398 123.279 24.6983 124.019 25.0157C124.759 25.3243 125.388 25.7573 125.907 26.3147C126.434 26.8635 126.838 27.5279 127.119 28.3083C127.399 29.0798 127.539 29.9201 127.539 30.8291ZM125.766 30.8291C125.766 30.1431 125.677 29.5129 125.499 28.9385C125.329 28.3554 125.065 27.8495 124.708 27.4207C124.351 26.9921 123.904 26.6534 123.368 26.4047C122.841 26.156 122.229 26.0317 121.532 26.0317C120.188 26.0317 119.019 26.5677 118.024 27.6395V34.0445C118.534 34.6019 119.078 35.0006 119.657 35.2406C120.243 35.4808 120.868 35.6007 121.532 35.6007C122.229 35.6007 122.837 35.4763 123.356 35.2278C123.883 34.9791 124.325 34.6405 124.682 34.2117C125.039 33.783 125.307 33.2814 125.486 32.7068C125.673 32.1239 125.766 31.4979 125.766 30.8291ZM98.5975 58.7773C98.5975 59.4805 98.4529 60.1192 98.1638 60.6938C97.8748 61.2597 97.4878 61.7484 97.0032 62.16C96.5183 62.5715 95.9615 62.8889 95.3321 63.1117C94.7029 63.3347 94.0482 63.4461 93.3678 63.4461C92.4324 63.4461 91.5736 63.2704 90.7912 62.9188C90.0089 62.5672 89.3882 62.0484 88.9289 61.3626V63.1503H87.4493V58.0443H88.9289C88.9289 58.6187 89.0608 59.146 89.3243 59.6262C89.588 60.0977 89.9238 60.5051 90.3321 60.848C90.7403 61.1911 91.2079 61.4611 91.7351 61.6584C92.2708 61.847 92.815 61.9412 93.3678 61.9412C93.8611 61.9412 94.3159 61.8727 94.7327 61.7356C95.1494 61.5898 95.515 61.3883 95.8296 61.1311C96.1442 60.8652 96.3908 60.5437 96.5694 60.1665C96.7565 59.7892 96.85 59.3604 96.85 58.8802C96.85 58.3401 96.7311 57.8771 96.4929 57.4912C96.2633 57.1054 95.9487 56.7752 95.549 56.5009C95.1578 56.2265 94.7157 55.995 94.2224 55.8064C93.7292 55.609 93.2275 55.4162 92.7174 55.2275C92.1136 55.0132 91.5099 54.7902 90.9061 54.5587C90.3024 54.3187 89.7624 54.0186 89.2862 53.6584C88.81 53.2983 88.423 52.861 88.1254 52.3466C87.8278 51.8235 87.6789 51.1761 87.6789 50.4044C87.6789 49.7186 87.8234 49.1098 88.1126 48.5781C88.4017 48.0378 88.7801 47.5835 89.2479 47.2147C89.7155 46.8461 90.2597 46.5674 90.8805 46.3787C91.5013 46.1816 92.1391 46.0829 92.7938 46.0829C93.6017 46.0829 94.3457 46.2501 95.0261 46.5845C95.7149 46.9189 96.2505 47.4291 96.6332 48.1151V46.366H98.1766V51.1632H96.6332C96.6332 50.6573 96.5269 50.1858 96.3144 49.7485C96.1103 49.3027 95.8296 48.9254 95.4724 48.6167C95.1153 48.2995 94.7071 48.0508 94.2479 47.8706C93.7887 47.682 93.3041 47.5878 92.7938 47.5878C92.3432 47.5878 91.9137 47.6391 91.5055 47.7421C91.0974 47.845 90.7403 48.0122 90.4341 48.2437C90.1279 48.4667 89.8813 48.7582 89.6942 49.1183C89.5158 49.4784 89.4264 49.9072 89.4264 50.4044C89.4264 50.8417 89.5328 51.2147 89.7453 51.5235C89.9663 51.832 90.2597 52.1064 90.6254 52.3466C90.9911 52.5781 91.412 52.7924 91.8882 52.9897C92.3729 53.1783 92.8662 53.3712 93.3678 53.5684C93.9971 53.7914 94.6221 54.0401 95.2429 54.3144C95.8636 54.5888 96.4207 54.919 96.9138 55.3047C97.407 55.6905 97.811 56.1665 98.1256 56.7324C98.4402 57.2898 98.5975 57.9714 98.5975 58.7773ZM103.138 57.7742C103.266 59.0431 103.725 60.0549 104.516 60.8094C105.307 61.564 106.336 61.9412 107.603 61.9412C108.496 61.9412 109.291 61.757 109.988 61.3883C110.685 61.0195 111.208 60.5609 111.557 60.012L112.781 60.861C112.186 61.7012 111.476 62.3444 110.651 62.7902C109.826 63.2275 108.81 63.4461 107.603 63.4461C106.684 63.4461 105.843 63.2918 105.077 62.9831C104.312 62.6744 103.649 62.2457 103.087 61.697C102.535 61.1396 102.105 60.4794 101.799 59.7162C101.493 58.9532 101.34 58.1042 101.34 57.1697C101.34 56.2607 101.476 55.4248 101.748 54.6616C102.029 53.8899 102.428 53.2255 102.947 52.6681C103.474 52.1021 104.112 51.6648 104.86 51.3563C105.609 51.0389 106.446 50.8803 107.373 50.8803C108.385 50.8803 109.269 51.0518 110.026 51.3947C110.783 51.7378 111.412 52.2137 111.914 52.8225C112.424 53.4226 112.798 54.1428 113.037 54.9832C113.283 55.8235 113.406 56.7538 113.406 57.7742H103.138ZM111.557 56.2694C111.361 54.9574 110.889 53.98 110.141 53.3369C109.393 52.6937 108.47 52.3723 107.373 52.3723C106.812 52.3723 106.293 52.4667 105.817 52.6553C105.341 52.8353 104.92 53.0969 104.554 53.4398C104.189 53.7827 103.882 54.1986 103.636 54.6873C103.389 55.1675 103.232 55.6949 103.164 56.2694H111.557ZM117.399 57.7742C117.526 59.0431 117.986 60.0549 118.777 60.8094C119.567 61.564 120.596 61.9412 121.863 61.9412C122.756 61.9412 123.551 61.757 124.249 61.3883C124.946 61.0195 125.469 60.5609 125.817 60.012L127.042 60.861C126.447 61.7012 125.737 62.3444 124.912 62.7902C124.087 63.2275 123.071 63.4461 121.863 63.4461C120.945 63.4461 120.103 63.2918 119.338 62.9831C118.572 62.6744 117.909 62.2457 117.348 61.697C116.795 61.1396 116.366 60.4794 116.06 59.7162C115.753 58.9532 115.6 58.1042 115.6 57.1697C115.6 56.2607 115.736 55.4248 116.009 54.6616C116.289 53.8899 116.689 53.2255 117.208 52.6681C117.735 52.1021 118.373 51.6648 119.121 51.3563C119.869 51.0389 120.707 50.8803 121.634 50.8803C122.646 50.8803 123.53 51.0518 124.287 51.3947C125.044 51.7378 125.673 52.2137 126.175 52.8225C126.685 53.4226 127.059 54.1428 127.297 54.9832C127.544 55.8235 127.667 56.7538 127.667 57.7742H117.399ZM125.817 56.2694C125.622 54.9574 125.15 53.98 124.402 53.3369C123.653 52.6937 122.731 52.3723 121.634 52.3723C121.072 52.3723 120.554 52.4667 120.078 52.6553C119.601 52.8353 119.18 53.0969 118.815 53.4398C118.449 53.7827 118.143 54.1986 117.896 54.6873C117.65 55.1675 117.492 55.6949 117.424 56.2694H125.817ZM141.774 63.1503H139.287L134.427 57.7742L132.284 59.7548V63.1503H130.537V46.366H132.284V57.6198L139.058 51.1632H141.558L135.601 56.6681L141.774 63.1503ZM145.92 57.7742C146.047 59.0431 146.507 60.0549 147.297 60.8094C148.088 61.564 149.117 61.9412 150.384 61.9412C151.277 61.9412 152.072 61.757 152.77 61.3883C153.467 61.0195 153.99 60.5609 154.338 60.012L155.563 60.861C154.968 61.7012 154.258 62.3444 153.433 62.7902C152.608 63.2275 151.592 63.4461 150.384 63.4461C149.466 63.4461 148.624 63.2918 147.859 62.9831C147.093 62.6744 146.43 62.2457 145.869 61.697C145.316 61.1396 144.887 60.4794 144.581 59.7162C144.275 58.9532 144.121 58.1042 144.121 57.1697C144.121 56.2607 144.257 55.4248 144.53 54.6616C144.81 53.8899 145.21 53.2255 145.728 52.6681C146.256 52.1021 146.893 51.6648 147.642 51.3563C148.39 51.0389 149.228 50.8803 150.155 50.8803C151.167 50.8803 152.051 51.0518 152.808 51.3947C153.565 51.7378 154.194 52.2137 154.696 52.8225C155.206 53.4226 155.58 54.1428 155.818 54.9832C156.065 55.8235 156.188 56.7538 156.188 57.7742H145.92ZM154.338 56.2694C154.143 54.9574 153.671 53.98 152.923 53.3369C152.174 52.6937 151.252 52.3723 150.155 52.3723C149.593 52.3723 149.075 52.4667 148.598 52.6553C148.122 52.8353 147.701 53.0969 147.336 53.4398C146.97 53.7827 146.664 54.1986 146.417 54.6873C146.171 55.1675 146.013 55.6949 145.945 56.2694H154.338ZM169.671 52.8482C169.041 52.531 168.293 52.3723 167.425 52.3723C166.711 52.3723 166.073 52.5265 165.512 52.8353C164.951 53.144 164.475 53.5512 164.084 54.0571C163.692 54.5544 163.391 55.129 163.178 55.7807C162.974 56.4236 162.872 57.0882 162.872 57.7742V61.6455H165.563V63.1503H158.433V61.6455H161.124V52.6681H158.433V51.1632H162.872V54.1729C163.671 51.9778 165.189 50.8803 167.425 50.8803C168.029 50.8803 168.552 50.9189 168.994 50.996C169.445 51.0732 169.862 51.2105 170.244 51.4076L169.671 52.8482Z" fill="#F7F7F7"/>
<path d="M85.3457 0.652832V82.4558" stroke="#F7F7F7" stroke-width="0.980561"/>
</svg>
