<svg width="22" height="22" viewBox="0 0 22 22" fill="none" xmlns="http://www.w3.org/2000/svg">
<path d="M15 5C15 3.114 15 2.172 14.414 1.586C13.828 1 12.886 1 11 1C9.114 1 8.172 1 7.586 1.586C7 2.172 7 3.114 7 5M1 13C1 9.229 1 7.343 2.172 6.172C3.344 5.001 5.229 5 9 5H13C16.771 5 18.657 5 19.828 6.172C20.999 7.344 21 9.229 21 13C21 16.771 21 18.657 19.828 19.828C18.656 20.999 16.771 21 13 21H9C5.229 21 3.343 21 2.172 19.828C1.001 18.656 1 16.771 1 13Z" stroke="#958060" stroke-width="1.5"/>
<path d="M11 16.333C12.105 16.333 13 15.587 13 14.667C13 13.747 12.105 13 11 13C9.895 13 9 12.254 9 11.333C9 10.413 9.895 9.667 11 9.667M11 16.333C9.895 16.333 9 15.587 9 14.667M11 16.333V17M11 9.667V9M11 9.667C12.105 9.667 13 10.413 13 11.333" stroke="#958060" stroke-width="1.5" stroke-linecap="round"/>
</svg>
