<svg width="30" height="30" viewBox="0 0 30 30" fill="none" xmlns="http://www.w3.org/2000/svg">
<path d="M27.4559 13.459L22.1825 18.0094L23.7891 24.8145C23.8778 25.1839 23.8549 25.5713 23.7235 25.9277C23.5921 26.2842 23.358 26.5937 23.0508 26.8171C22.7435 27.0406 22.377 27.168 21.9974 27.1832C21.6178 27.1985 21.2422 27.1009 20.918 26.9027L15 23.2606L9.07857 26.9027C8.75446 27.0997 8.37931 27.1964 8.00037 27.1806C7.62142 27.1648 7.25563 27.0372 6.94904 26.814C6.64245 26.5907 6.40877 26.2817 6.27744 25.9259C6.1461 25.5701 6.12298 25.1834 6.21099 24.8145L7.82349 18.0094L2.55005 13.459C2.26329 13.2112 2.0559 12.8843 1.95378 12.5193C1.85166 12.1543 1.85933 11.7673 1.97585 11.4067C2.09236 11.046 2.31255 10.7276 2.60891 10.4914C2.90527 10.2551 3.26468 10.1114 3.64224 10.0781L10.5563 9.52032L13.2235 3.06563C13.3679 2.71386 13.6136 2.41296 13.9294 2.20119C14.2452 1.98942 14.6169 1.87634 14.9971 1.87634C15.3774 1.87634 15.749 1.98942 16.0648 2.20119C16.3807 2.41296 16.6264 2.71386 16.7708 3.06563L19.4368 9.52032L26.3508 10.0781C26.7291 10.1101 27.0896 10.2531 27.387 10.489C27.6845 10.7249 27.9057 11.0434 28.0229 11.4045C28.1402 11.7656 28.1482 12.1533 28.0461 12.519C27.944 12.8846 27.7362 13.212 27.4489 13.4602L27.4559 13.459Z" fill="#958060"/>
</svg>
