<svg width="81" height="80" viewBox="0 0 81 80" fill="none" xmlns="http://www.w3.org/2000/svg">
<path d="M12.1667 43.3333V40.6533C12.1667 30.7633 12.1667 25.82 13.7301 21.8667C16.2434 15.5167 21.5567 10.51 28.2967 8.14C32.4834 6.66666 37.7267 6.66666 48.2267 6.66666C54.2201 6.66666 57.2201 6.66666 59.6134 7.51C63.4634 8.86333 66.5001 11.7233 67.9368 15.3533C68.8301 17.61 68.8301 20.4367 68.8301 26.0867V43.3333" stroke="#685843" stroke-width="3" stroke-linecap="round" stroke-linejoin="round"/>
<path d="M12.1667 40C12.1667 37.0534 13.3373 34.2276 15.4208 32.144C17.5043 30.0605 20.3302 28.89 23.2767 28.89C25.4968 28.89 28.1134 29.2767 30.2701 28.7C31.2124 28.4464 32.0716 27.9495 32.7613 27.2591C33.4511 26.5688 33.9473 25.7092 34.2001 24.7667C34.7767 22.61 34.3901 19.9933 34.3901 17.7733C34.391 14.8274 35.5619 12.0023 37.6453 9.91953C39.7287 7.83672 42.5541 6.66666 45.5001 6.66666M12.1667 73.3333V63.3333M12.1667 63.3333V57.3333C12.1667 55.4467 12.1667 54.5067 12.7534 53.92C13.3334 53.3333 14.2801 53.3333 16.1667 53.3333H18.8334C20.1595 53.3333 21.4313 53.8601 22.369 54.7978C23.3066 55.7355 23.8334 57.0073 23.8334 58.3333C23.8334 59.6594 23.3066 60.9312 22.369 61.8689C21.4313 62.8065 20.1595 63.3333 18.8334 63.3333H12.1667ZM68.8334 53.3333H63.8334C60.6901 53.3333 59.1201 53.3333 58.1434 54.31C57.1668 55.2867 57.1668 56.8567 57.1668 60V63.3333M57.1668 63.3333V73.3333M57.1668 63.3333H65.5001M47.1668 63.3333C47.1668 65.9855 46.1132 68.529 44.2378 70.4044C42.3625 72.2798 39.8189 73.3333 37.1668 73.3333C35.9201 73.3333 35.3001 73.3333 34.8334 73.0667C33.7234 72.4233 33.8334 71.1267 33.8334 70V56.6667C33.8334 55.54 33.7234 54.2433 34.8334 53.6C35.3001 53.3333 35.9201 53.3333 37.1668 53.3333C38.48 53.3333 39.7803 53.592 40.9936 54.0945C42.2068 54.5971 43.3092 55.3337 44.2378 56.2623C45.1664 57.1908 45.903 58.2932 46.4055 59.5065C46.9081 60.7198 47.1668 62.0201 47.1668 63.3333Z" stroke="#685843" stroke-width="3" stroke-linecap="round" stroke-linejoin="round"/>
</svg>
