<svg width="81" height="80" viewBox="0 0 81 80" fill="none" xmlns="http://www.w3.org/2000/svg">
<path d="M12.1667 43.3333V40.6533C12.1667 30.7633 12.1667 25.82 13.7301 21.8667C16.2434 15.5167 21.5567 10.51 28.2967 8.14C32.4834 6.66666 37.7267 6.66666 48.2267 6.66666C54.2201 6.66666 57.2201 6.66666 59.6134 7.51C63.4634 8.86333 66.5001 11.7233 67.9368 15.3533C68.8301 17.61 68.8301 20.4367 68.8301 26.0867V43.3333" stroke="#685843" stroke-width="3" stroke-linecap="round" stroke-linejoin="round"/>
<path d="M12.1667 40C12.1667 37.0534 13.3373 34.2276 15.4208 32.144C17.5043 30.0605 20.3302 28.89 23.2767 28.89C25.4967 28.89 28.1134 29.2767 30.2701 28.7C31.2124 28.4464 32.0716 27.9495 32.7613 27.2591C33.4511 26.5688 33.9473 25.7092 34.2001 24.7667C34.7767 22.61 34.3901 19.9933 34.3901 17.7733C34.391 14.8274 35.5619 12.0023 37.6453 9.91953C39.7287 7.83672 42.5541 6.66666 45.5001 6.66666M68.8334 57.4C68.6634 53.4333 66.0801 53.3333 62.5767 53.3333C57.1801 53.3333 56.2867 54.6867 56.2867 60V66.6667C56.2867 71.98 57.1801 73.3333 62.5767 73.3333C66.0801 73.3333 68.6634 73.2333 68.8367 69.2667M24.7201 63.3333C24.7201 68.8567 20.5067 73.3333 15.3067 73.3333C14.1334 73.3333 13.5467 73.3333 13.1101 73.0667C12.0667 72.4233 12.1701 71.1267 12.1701 70V56.6667C12.1701 55.54 12.0667 54.2433 13.1101 53.6C13.5467 53.3333 14.1334 53.3333 15.3101 53.3333C20.5067 53.3333 24.7201 57.81 24.7201 63.3333ZM40.5001 73.3333C37.5401 73.3333 36.0634 73.3333 35.1434 72.3567C34.2234 71.38 34.2234 69.81 34.2234 66.6667V60C34.2234 56.8567 34.2234 55.2867 35.1434 54.31C36.0634 53.3333 37.5434 53.3333 40.5001 53.3333C43.4567 53.3333 44.9334 53.3333 45.8534 54.31C46.7734 55.2867 46.7734 56.8567 46.7734 60V66.6667C46.7734 69.81 46.7734 71.38 45.8534 72.3567C44.9367 73.3333 43.4567 73.3333 40.5001 73.3333Z" stroke="#685843" stroke-width="3" stroke-linecap="round" stroke-linejoin="round"/>
</svg>
