<svg width="492" height="388" viewBox="0 0 492 388" fill="none" xmlns="http://www.w3.org/2000/svg">
<path fill-rule="evenodd" clip-rule="evenodd" d="M405.165 0.99546C406.615 1.53555 409.22 3.71685 411.28 6.11311L414.868 10.2898V101.537V192.784L412.185 195.082L409.503 197.381H269.542H129.581L127.89 200.363L126.198 203.346L128.795 208.643C130.224 211.557 133.083 217.803 135.15 222.521L138.907 231.102L137.439 233.675C135.79 236.568 131.693 238.601 126.469 239.119C123.544 239.408 122.75 239.094 117.001 235.374C113.55 233.141 109.865 230.523 108.814 229.556C106.324 227.269 105.77 227.339 105.184 230.016C104.844 231.57 105.55 234.641 107.547 240.284C111.901 252.591 113.516 259.699 114.309 270.046C114.707 275.251 115.251 280.66 115.518 282.068C115.821 283.668 115.642 284.998 115.039 285.62C114.306 286.376 114.214 290.012 114.651 300.781L115.227 314.947L109.293 316.443L103.357 317.94L102.822 324.411C102.528 327.97 101.789 334.532 101.18 338.993C98.82 356.284 98.3663 361.388 98.6243 367.719C98.7979 371.985 99.2704 374.667 99.9742 375.393C100.932 376.38 103.515 376.509 122.262 376.509C135.622 376.509 143.468 376.755 143.468 377.173C143.468 377.585 136.058 377.906 123.941 378.018C105.153 378.192 104.547 378.239 107.909 379.253C112.332 380.587 113.722 382.271 111.543 383.658C106.828 386.657 87.5892 389.196 83.564 387.35C81.96 386.614 81.8258 386.197 82.2898 383.377C82.5746 381.645 82.9896 379.694 83.2105 379.044C83.5813 377.954 82.6748 377.861 71.7257 377.861H59.8385V381.578C59.8385 386.362 58.1588 388 53.2547 388C48.5549 388 47.2152 386.601 47.2152 381.694V377.861H23.9411C8.95096 377.861 0.666931 377.62 0.666931 377.185C0.666931 376.749 9.04642 376.509 24.2283 376.509H47.7896L48.244 373.636C48.4941 372.056 48.3766 359.965 47.9829 346.767C47.5892 333.569 47.2523 321.706 47.2342 320.404C47.201 318.053 47.1655 318.03 41.2634 316.494L35.3257 314.949L35.4125 300.299C35.4906 287.141 35.3604 285.562 34.1344 284.794C32.9241 284.035 32.8294 283.078 33.2902 276.317C33.9608 266.495 35.6878 259.427 41.1797 244.033C43.6318 237.162 45.6373 231.155 45.6373 230.683C45.6373 230.212 44.805 229.827 43.7873 229.827C37.8922 229.827 34.6843 218.758 34.6188 198.192C34.5865 188.244 35.0566 187.229 41.4772 183.37C45.0243 181.238 46.6677 179.654 48.4547 176.645C50.3071 173.526 51.3218 172.574 53.3431 172.061C55.7447 171.452 55.8937 171.231 55.8937 168.267V165.121L50.6882 162.925C47.8243 161.717 43.919 159.446 42.0097 157.878C38.5501 155.038 38.5367 155.01 38.5715 150.348C38.5904 147.776 38.8996 144.367 39.2586 142.775C39.8188 140.295 39.7005 139.782 38.4358 139.202C37.1829 138.628 36.9588 138.771 36.9588 140.148C36.9588 142.414 34.2275 145.145 31.4354 145.67C28.0184 146.313 27.9553 146.987 31.1166 149.053C41.9261 156.117 37.2105 166.287 23.1253 166.287C14.947 166.287 12.9296 163.876 13.4409 154.716L13.7723 148.784L9.93478 147.995C2.66379 146.5 -0.753998 142.232 0.139893 135.762C0.729248 131.5 2.68192 128.73 6.06729 127.354C9.72885 125.865 13.8882 126.432 20.2401 129.287L25.373 131.593L27.8125 127.51C30.7545 122.586 33.5332 120.623 36.6212 121.288C39.7778 121.966 43.7849 125.724 44.8018 128.96L45.6854 131.772L52.5644 129.657C56.3482 128.493 60.4476 126.829 61.6744 125.959C66.2717 122.698 70.4681 123.203 72.7316 127.29C74.2109 129.96 74.4049 132.93 73.2681 135.492C72.6156 136.962 72.8389 137.561 74.7119 139.357C75.93 140.525 78.4965 142.01 80.4145 142.657C83.6791 143.759 83.885 143.979 83.6389 146.104C83.4945 147.353 83.4148 151.766 83.4622 155.912C83.56 164.377 83.1221 165.231 78.2874 166.008C75.9134 166.389 75.5545 166.677 75.9355 167.893C76.1825 168.683 76.39 169.798 76.3955 170.372C76.4018 170.958 77.519 171.698 78.9454 172.061C80.8247 172.54 82.3111 173.805 84.6653 176.931C87.5766 180.795 90.6133 182.73 91.9576 181.578C92.2259 181.348 91.5063 179.296 90.3584 177.017C89.2113 174.738 88.4633 172.608 88.6976 172.284C89.8424 170.697 91.6697 172.001 93.5616 175.76C95.2578 179.127 95.8685 179.754 97.1205 179.413C98.0973 179.147 99.3052 179.545 100.537 180.536L102.442 182.07L102.444 94.5841C102.444 12.6489 102.532 6.94927 103.824 4.73349C104.613 3.38023 106.385 1.86203 107.965 1.18608C110.564 0.0727802 119.27 0.00518565 256.683 0.02952C379.616 0.0504746 403.038 0.203241 405.165 0.99546ZM407.039 3.32953L409.345 5.30535V96.3254V187.345L407.039 189.321L404.733 191.297H352.476H300.219L300.739 178.007C301.025 170.698 301.259 159.277 301.259 152.627V140.537L306.802 144.624C311.452 148.054 312.821 148.712 315.304 148.712C320.156 148.712 321.56 147.372 322.215 142.121C322.529 139.612 323.314 136.866 323.96 136.02C325.019 134.634 324.995 134.35 323.722 133.145C322.548 132.033 322.464 131.518 323.224 130.089C324.731 127.256 324.352 124.105 322.324 122.594C320.713 121.394 320.402 120.231 319.539 112.164C317.507 93.1971 316.222 86.3044 314.397 84.5996C312.477 82.807 300.739 77.8684 289.167 73.9858L281.415 71.384L281.966 63.2381C282.27 58.7578 282.673 54.8637 282.862 54.5852C283.051 54.3067 284.06 54.0782 285.104 54.0782C287.655 54.0782 288.635 52.2619 288.636 47.5323C288.636 45.3699 289.173 41.3966 289.829 38.7029C292.654 27.1015 287.592 22.2968 270.404 20.2642C266.762 19.833 261.785 19.6721 259.341 19.9053C254.902 20.3291 254.899 20.3278 253.254 17.9389C251.111 14.8282 248.806 14.7714 247.127 17.7882C246.088 19.6545 245.524 19.9824 243.741 19.7586C238.198 19.061 238.903 24.1841 245.416 31.9285C246.216 32.8803 246.126 33.8901 244.935 37.3361C243.046 42.8026 242.54 50.5355 243.591 57.898C244.498 64.254 245.575 65.9034 249.27 66.5989C250.552 66.8402 251.554 67.4736 251.554 68.0428C251.554 68.8133 250.997 68.9519 249.234 68.62C247.958 68.3801 246.182 68.5186 245.289 68.9283C243.499 69.7489 243.099 72.0208 244.651 72.5575C245.264 72.769 245.138 72.9184 244.317 72.9515C243.591 72.9806 241.946 72.2472 240.66 71.3205C238.703 69.9091 238.176 69.7894 237.41 70.5803C236.907 71.1001 236.719 72.2824 236.991 73.2138C237.454 74.7922 237.184 74.9767 232.883 76.0163C230.351 76.6281 224.786 78.0435 220.515 79.1615L212.751 81.1941L210.14 86.0563C207.885 90.254 199.503 109.071 196.231 117.28C195.545 119.002 193.316 121.503 190.094 124.167C185.277 128.151 185.002 128.551 184.369 132.513C183.574 137.499 184.613 139.488 189.404 142.15C193.707 144.541 211.602 165.182 211.793 167.977C211.87 169.092 212.35 171.329 212.861 172.947C213.644 175.431 214.27 176.062 216.885 177.003L219.98 178.116L219.988 184.707L219.996 191.297H176.588H133.179L134.739 188.677C136.498 185.724 136.257 185.213 133.108 185.213C131.738 185.213 130.592 184.721 130.09 183.916C129.644 183.203 128.291 182.433 127.083 182.206C125.875 181.979 124.541 181.118 124.118 180.293C123.096 178.297 119.528 177.931 118.1 179.674C117.027 180.985 113.355 181.811 107.57 182.045L104.414 182.172L104.209 94.6355C104.057 29.9426 104.24 6.60724 104.91 5.21342C106.904 1.05967 95.321 1.35372 256.919 1.35372H404.733L407.039 3.32953ZM252.293 19.0198L253.797 21.1382L261.198 21.0105C273.663 20.7949 284.346 23.4351 287.494 27.5078C289.085 29.5667 289.483 34.8919 288.384 39.41C287.879 41.4865 287.483 41.9036 286.315 41.5859C285.408 41.3392 283.961 41.8475 282.428 42.9533C280.81 44.12 279.468 44.5729 278.448 44.2958C277.005 43.9031 276.982 43.7314 278.081 41.4784C279.118 39.3532 279.116 38.9023 278.066 37.5295C277.415 36.6778 275.604 35.3042 274.044 34.4775C272.482 33.6508 271.322 32.7795 271.464 32.5423C274.127 28.1006 274.115 28.3304 271.797 26.6223C269.879 25.2082 268.825 25.0128 263.147 25.0162C254.692 25.0209 250.888 25.9382 248.246 28.6096C246.16 30.7192 246.1 30.7334 244.915 29.4058C241.567 25.6556 240.44 19.5646 243.277 20.5481C243.924 20.7725 244.915 21.118 245.479 21.3147C246.101 21.5323 247.029 20.7327 247.834 19.2868C249.468 16.3498 250.359 16.2964 252.293 19.0198ZM168.147 18.7494C170.007 20.344 170.52 20.4839 171.866 19.7633C172.724 19.3044 175.001 18.9285 176.927 18.9285C185.494 18.9285 189.114 27.2401 182.875 32.5862L180.548 34.5796V43.5178C180.548 49.5682 180.242 52.7182 179.602 53.2671C178.91 53.8599 172.628 54.0782 156.267 54.0782H133.879L131.573 52.1024L129.266 50.1266V37.7045C129.266 28.9442 129.546 25.0432 130.213 24.4714C130.893 23.8887 136.142 23.6602 148.848 23.6602H166.534L164.399 21.2613C160.779 17.1947 163.894 15.1067 168.147 18.7494ZM87.4519 18.9285C89.6626 20.8226 89.5687 24.612 87.2759 25.9875C81.4724 29.4707 74.6914 23.1668 79.8101 19.0462C82.0926 17.2096 85.3864 17.1589 87.4519 18.9285ZM70.5249 19.2361C72.6677 21.0713 72.913 22.3387 71.5544 24.5498C70.3253 26.5506 69.3533 27.0177 66.3924 27.0299C61.8716 27.0481 59.6634 21.7824 62.9943 18.9285C65.1269 17.1014 68.1793 17.2265 70.5249 19.2361ZM170.449 22.768L175.719 27.2833L176.683 25.4718C177.213 24.4754 178.129 23.6602 178.719 23.6602C179.534 23.6602 179.405 24.3105 178.182 26.364C177.296 27.8512 176.321 29.0679 176.014 29.0679C175.251 29.0679 163.98 19.4294 163.98 18.7765C163.98 17.5793 165.454 18.4892 170.449 22.768ZM86.5052 19.7397C87.0258 20.1858 87.4519 21.3417 87.4519 22.3083C87.4519 24.5424 86.1146 25.6881 83.5071 25.6881C80.8996 25.6881 79.5623 24.5424 79.5623 22.3083C79.5623 20.0743 80.8996 18.9285 83.5071 18.9285C84.6353 18.9285 85.9844 19.2936 86.5052 19.7397ZM69.6444 19.9905C72.1139 22.1069 70.4957 25.6881 67.0692 25.6881C64.3379 25.6881 62.9943 24.5734 62.9943 22.3083C62.9943 21.3417 63.4204 20.1858 63.9411 19.7397C65.2689 18.6021 68.173 18.7298 69.6444 19.9905ZM167.136 26.0477C167.136 26.9893 167.651 28.8144 168.279 30.1034L169.423 32.4476H149.739H130.055V29.0915C130.055 26.4654 130.388 25.5833 131.581 25.0358C132.498 24.6154 139.902 24.3362 150.122 24.3362H167.136V26.0477ZM386.237 26.364C386.464 27.1076 387.141 27.716 387.741 27.716C388.631 27.716 388.832 30.0243 388.832 40.2211V52.7263H363.586C341.67 52.7263 338.339 52.5925 338.339 51.7124C338.339 51.1547 337.807 50.6984 337.156 50.6984C336.145 50.6984 335.972 48.8206 335.972 37.8553V25.0121H360.899C385.161 25.0121 385.835 25.048 386.237 26.364ZM266.939 26.3302C272.33 27.0468 273.459 28.4548 270.489 30.7578C269.621 31.4303 268.911 32.2286 268.911 32.5315C268.911 32.8343 270.864 34.1524 273.251 35.4604C277.919 38.0189 278.283 38.8023 276.314 42.0645C275.119 44.0443 275.128 44.2356 276.465 45.0731C277.249 45.5645 278.167 45.9667 278.505 45.9667C278.842 45.9667 278.897 46.4987 278.627 47.1497C278.356 47.8006 279.555 47.0402 281.292 45.4598C283.027 43.8794 284.844 42.587 285.328 42.587C286.572 42.587 288.039 47.733 287.449 50.0326C286.729 52.8419 285.113 53.7842 282.657 52.8257C280.014 51.7935 279.568 51.8482 280.743 53.0609C281.455 53.7963 281.574 55.6843 281.181 59.9894C279.863 74.4116 278.242 85.4669 277.19 87.2095C275.046 90.7616 267.288 93.4228 262.242 92.3379L260.233 91.906V82.761C260.233 73.7404 260.204 73.5937 258.145 71.9586C256.511 70.6607 256.347 70.3011 257.388 70.3011C259.549 70.3011 264.354 67.8839 267.552 65.1882C269.191 63.8066 270.421 62.581 270.284 62.4648C270.148 62.3485 268.098 63.0758 265.727 64.0803C262.126 65.6066 260.407 65.902 255.281 65.8743C249.777 65.8452 248.939 65.6634 247.125 64.1101C245.239 62.4938 245.075 61.8287 244.661 54.1343L244.218 45.8904L246.505 46.2912C248.541 46.6474 248.634 46.5961 247.344 45.8221C246.547 45.3442 245.328 44.6115 244.634 44.1951C243.553 43.5441 243.842 43.1838 246.676 41.6514C248.491 40.67 249.98 39.4897 249.985 39.0294C249.99 38.5698 250.205 37.0969 250.464 35.7564C250.874 33.6333 250.708 33.2683 249.172 32.9242L247.408 32.5294L248.93 30.2913C251.126 27.0623 259.158 25.2954 266.939 26.3302ZM384.888 37.8553V49.3465H360.825H336.761V37.8553V26.364H360.825H384.888V37.8553ZM143.974 28.0614C145.064 30.4928 143.932 31.431 139.76 31.554C135.139 31.6899 133.069 30.484 134.525 28.5041C135.607 27.0319 143.351 26.6689 143.974 28.0614ZM142.481 28.1945C143.857 28.6271 143.714 30.194 142.254 30.6739C141.551 30.9051 140.844 30.632 140.571 30.025C140.016 28.784 141.087 27.7565 142.481 28.1945ZM138.469 28.7752C139.127 30.2434 137.457 31.6243 136.262 30.6003C135.252 29.735 135.878 27.716 137.156 27.716C137.618 27.716 138.208 28.1925 138.469 28.7752ZM379.957 30.3819C381.548 31.5189 381.732 32.2591 381.732 37.5301C381.732 42.7019 381.518 43.6036 379.957 45.015C378.196 46.6069 378.047 46.6197 361.057 46.6312L343.934 46.6427L341.925 44.9224C340.106 43.363 339.917 42.6897 339.917 37.7505C339.917 33.0242 340.153 32.0874 341.692 30.6956C343.457 29.101 343.574 29.0915 360.825 29.1023C376.635 29.1118 378.339 29.226 379.957 30.3819ZM379.168 31.3715C380.658 32.7187 380.943 33.7286 380.943 37.664C380.943 41.6893 380.685 42.5586 379.117 43.8213C377.362 45.234 376.649 45.2908 360.699 45.2908C340.788 45.2908 341.495 45.5727 341.495 37.6329C341.495 29.5661 341.06 29.7411 361.022 29.7553C377.219 29.7668 377.412 29.7844 379.168 31.3715ZM87.7241 32.3321C89.5931 34.101 89.3824 37.5207 87.3028 39.1808C82.2314 43.2291 74.663 36.6453 79.5623 32.4476C81.5774 30.7213 85.9576 30.6597 87.7241 32.3321ZM70.8531 32.5754C73.0038 34.5526 72.8831 36.8799 70.5249 38.8996C65.4693 43.2318 58.5044 37.6626 62.6448 32.5984C64.3072 30.5644 68.6535 30.5523 70.8531 32.5754ZM365.02 33.4616C366.901 34.8175 367.531 35.8274 367.531 37.4862C367.531 40.6909 364.9 43.2629 361.621 43.2629C357.895 43.2629 356.593 42.6985 355.273 40.5104C353.666 37.8478 353.828 36.185 355.894 34.1747C358.612 31.5283 361.974 31.2654 365.02 33.4616ZM260.963 32.4105C262.016 32.6376 263.038 33.2372 263.236 33.7435C263.473 34.3552 263.251 34.4829 262.574 34.124C262.013 33.8266 260.458 33.3906 259.118 33.1554C257.585 32.885 257.121 32.5916 257.866 32.3625C258.517 32.1624 259.911 32.184 260.963 32.4105ZM86.5052 33.2588C87.0258 33.7049 87.4519 34.8608 87.4519 35.8274C87.4519 38.0615 86.1146 39.2072 83.5071 39.2072C80.8996 39.2072 79.5623 38.0615 79.5623 35.8274C79.5623 33.5934 80.8996 32.4476 83.5071 32.4476C84.6353 32.4476 85.9844 32.8127 86.5052 33.2588ZM69.9371 33.2588C70.4578 33.7049 70.8839 34.8608 70.8839 35.8274C70.8839 38.0952 69.5403 39.2072 66.7994 39.2072C65.3328 39.2072 64.1809 38.6482 63.3162 37.5173C62.1194 35.9518 62.1194 35.703 63.3162 34.1375C64.7245 32.2962 68.2653 31.8264 69.9371 33.2588ZM364.767 34.4735C367.905 37.4436 365.349 42.587 360.737 42.587C356.171 42.587 353.752 36.3952 357.45 34.1761C359.863 32.7275 363.06 32.8579 364.767 34.4735ZM361.869 34.6269C363.126 35.7037 363.036 36.8441 361.614 37.8553C360.963 38.3183 360.43 39.1531 360.43 39.7108C360.43 40.5354 360.651 40.5672 361.614 39.8832C362.577 39.1984 362.797 39.2322 362.797 40.0663C362.797 41.1891 360.71 42.1395 359.57 41.5352C358.452 40.9437 358.725 38.7868 360.036 37.8553C360.686 37.3923 361.219 36.7562 361.219 36.4419C361.219 36.1275 360.686 36.0451 360.036 36.2587C358.573 36.74 358.477 35.5834 359.897 34.5742C360.659 34.0321 361.191 34.0463 361.869 34.6269ZM249.188 35.6922C249.188 37.0732 248.734 37.7992 247.731 38.0243C246.48 38.3041 246.343 38.0601 246.765 36.2945C247.427 33.5184 249.188 33.0803 249.188 35.6922ZM259.928 38.1507C260.55 39.5384 259.674 41.4372 258.66 40.8998C258.223 40.6686 257.866 39.9068 257.866 39.2072C257.866 37.5416 259.322 36.7961 259.928 38.1507ZM176.604 44.8176C176.604 47.2288 176.193 49.4283 175.657 49.8873C174.307 51.0438 132.352 51.0438 131.002 49.8873C130.466 49.4283 130.055 47.2288 130.055 44.8176V40.5591H153.33H176.604V44.8176ZM85.0851 44.4249C89.1158 45.672 90.4207 50.086 87.4417 52.3964C83.9442 55.1077 77.9845 52.973 77.9845 49.0085C77.9845 46.1418 82.0823 43.4961 85.0851 44.4249ZM69.2925 44.8082C73.7288 46.7312 73.0701 52.2214 68.2377 53.5969C62.8665 55.1259 58.9549 48.3995 63.4527 45.3685C65.9048 43.7158 66.6164 43.6475 69.2925 44.8082ZM69.5781 46.5271C72.2069 49.0153 70.3837 52.7263 66.5328 52.7263C64.6732 52.7263 62.2054 50.5206 62.2054 48.8578C62.2054 47.5701 65.1521 45.2908 66.8168 45.2908C67.6176 45.2908 68.8602 45.8471 69.5781 46.5271ZM264.375 46.6968C265.134 47.076 265.756 47.6931 265.756 48.0683C265.756 48.4434 265.396 48.5597 264.956 48.3272C264.517 48.0947 262.678 48.9889 260.87 50.3152C257.509 52.7797 256.024 53.0649 250.568 52.2923C246.025 51.6488 247.059 50.8782 251.752 51.4109C254.131 51.6806 256.565 51.5927 257.472 51.2047C260.207 50.034 262.502 47.8871 262.064 46.909C261.57 45.8072 262.433 45.7281 264.375 46.6968ZM326.008 62.0977C328.074 63.9458 328.359 64.0141 330.321 63.1373C331.477 62.6209 333.789 62.1964 335.46 62.1937C337.866 62.1903 339.055 62.6676 341.18 64.4879C342.655 65.7519 343.862 67.2728 343.862 67.8677C343.862 68.8336 346.227 68.9492 365.921 68.9492H387.98L389.984 70.8013L391.988 72.6534V87.7212C391.988 100.739 392.156 102.844 393.217 103.193C393.893 103.415 394.259 104.014 394.031 104.524C393.766 105.116 394.178 105.451 395.169 105.451C397.202 105.451 397.133 106.238 394.947 107.992C391.582 110.692 389.644 110.858 361.537 110.858C331.209 110.858 330.906 110.82 326.62 106.38L324.092 103.761L327.074 103.423L330.055 103.085L330.27 90.0573C330.455 78.7715 330.32 76.9755 329.255 76.6254C327.415 76.0204 325.716 72.7352 325.716 69.7854C325.716 67.7589 325.179 66.7334 323.318 65.2058C320.8 63.1394 320.431 60.6681 322.586 60.3166C323.251 60.2078 324.791 61.0094 326.008 62.0977ZM328.066 65.8925C330.87 68.3172 333.382 70.3011 333.647 70.3011C333.912 70.3011 334.603 69.5407 335.184 68.6112C336.28 66.8551 337.55 66.359 337.55 67.6865C337.55 68.1077 336.79 69.5062 335.86 70.7952L334.169 73.1388L328.268 68.0826C325.022 65.3018 322.501 62.6797 322.666 62.2552C322.831 61.8314 325.261 63.4679 328.066 65.8925ZM168.187 69.7671L171.081 72.6136V90.9549C171.081 107.866 170.968 109.384 169.638 110.416C168.426 111.355 166.238 111.534 155.964 111.534H143.732L141.233 108.87L138.734 106.206V87.6826C138.734 70.5952 138.846 69.0722 140.177 68.0401C141.384 67.1039 143.549 66.9213 153.457 66.9213H165.294L168.187 69.7671ZM165.997 69.1419C166.211 69.6191 166.466 70.9122 166.564 72.0147L166.742 74.0189L153.132 74.2041L139.523 74.3886V72.1424C139.523 70.9068 139.949 69.5305 140.47 69.0844C141.86 67.8934 165.461 67.9461 165.997 69.1419ZM254.513 71.2907C256.791 72.1992 258.7 73.0327 258.754 73.1428C258.809 73.253 259.075 77.7393 259.346 83.1132L259.838 92.8828L282.324 104.551C294.69 110.969 305.158 116.329 305.584 116.464C307.722 117.139 302.248 133.087 299.113 135.316C297.862 136.205 294.387 133.236 266.798 107.702C259.498 100.946 252.884 95.2168 252.098 94.9688C249.969 94.2975 248.711 91.5484 249.949 90.2709C251.464 88.706 250.33 86.0705 247.918 85.552C245.083 84.9423 244.525 85.648 247.163 86.5071C248.585 86.9702 249.206 87.6002 249.017 88.385C248.644 89.9268 244.466 89.7294 243.079 88.1038C242.006 86.8465 241.713 82.0661 242.679 81.5652C243.004 81.3962 245.33 81.8072 247.849 82.4771C250.886 83.2855 252.327 83.4322 252.13 82.9131C251.968 82.4825 249.819 81.6876 247.356 81.1468C243.999 80.4094 242.876 79.8585 242.876 78.95C242.876 77.3872 244.247 77.4189 248.793 79.0885C252.99 80.6297 253.132 80.6547 253.132 79.847C253.132 79.5205 250.989 78.5667 248.369 77.7272C245.748 76.8876 243.746 75.8622 243.919 75.4478C244.39 74.319 247.309 74.8327 252.46 76.9512C255 77.9948 257.077 78.5897 257.077 78.272C257.077 77.9543 256.545 77.519 255.894 77.3054C255.243 77.0911 254.71 76.1941 254.71 75.3113C254.71 74.1892 254.176 73.614 252.935 73.3984C247.595 72.4703 246.346 72.1573 245.453 71.5219C244.913 71.138 244.666 70.5539 244.904 70.2247C245.705 69.1128 250.343 69.6272 254.513 71.2907ZM388.306 70.752C388.596 70.9994 388.75 78.3761 388.651 87.1439L388.469 103.085L388.242 87.7793C388.069 76.1562 387.765 72.2965 386.978 71.7368C386.304 71.2576 378.662 70.9331 365.099 70.8081L344.257 70.6154L366.018 70.4586C377.987 70.3721 388.017 70.5039 388.306 70.752ZM240.706 72.5777C242.979 74.1405 243.632 76.3847 241.815 76.3847C240.173 76.3847 237.986 73.9465 238.276 72.4392C238.532 71.1102 238.575 71.1129 240.706 72.5777ZM386.384 72.5832C387.015 73.2341 387.222 77.9624 387.073 88.2991L386.86 103.085L360.233 103.263L333.606 103.441V91.0023V78.5633L336.502 78.0976C339.48 77.619 343.862 74.3433 343.862 72.5953C343.862 71.2083 385.042 71.1968 386.384 72.5832ZM166.61 75.4837C166.9 75.7311 167.136 81.6626 167.136 88.6648V101.395H153.33H139.523V88.2139V75.0328H152.803C160.108 75.0328 166.321 75.2356 166.61 75.4837ZM331.699 90.2418C331.698 97.3055 331.581 100.103 331.439 96.4592C331.297 92.8152 331.298 87.0357 331.441 83.6161C331.584 80.1964 331.7 83.1781 331.699 90.2418ZM166.827 103.708C167.064 104.237 166.863 105.301 166.38 106.074C165.55 107.402 164.847 107.479 153.46 107.479C140.706 107.479 139.523 107.209 139.523 104.302V102.747H152.96C163.848 102.747 166.478 102.929 166.827 103.708ZM391.988 104.736C391.988 105.087 391.199 105.848 390.234 106.426C388.725 107.333 384.455 107.479 359.509 107.479H330.538L328.324 105.81L326.111 104.141L359.049 104.121C379.18 104.107 391.988 104.347 391.988 104.736ZM160.885 124.736C162.829 126.401 162.96 126.419 165.827 125.393C168.158 124.559 169.415 124.487 171.857 125.05C179.578 126.832 180.996 135.074 174.309 139.309C171.264 141.239 170.918 143.98 173.72 143.98C177.449 143.98 178.185 145.73 178.149 154.511L178.118 162.569L175.923 160.372L173.727 158.175H165.805C156.912 158.175 154.049 157.103 153.577 153.598C153.345 151.871 153.055 151.74 148.99 151.535L144.651 151.316L140.912 154.914C138.411 157.322 137.17 158.122 137.165 157.33C137.16 156.68 136.801 156.147 136.367 156.147C135.872 156.147 135.578 151.901 135.578 144.761C135.578 134.589 135.732 133.256 137.021 132.256C138.216 131.33 140.32 131.137 149.25 131.137C155.182 131.137 160.036 130.953 160.036 130.727C160.036 130.502 158.935 129.127 157.591 127.672C153.756 123.524 156.556 121.028 160.885 124.736ZM217.659 125.898C217.675 127.107 218.012 134.017 218.408 141.254C218.804 148.492 219.012 154.512 218.87 154.635C218.727 154.756 216.944 151.287 214.906 146.924C211.814 140.305 211.341 138.728 212.048 137.398C213.165 135.298 213.124 133.343 211.957 133.009C211.343 132.834 212.04 131.174 213.968 128.222C215.59 125.736 217.078 123.702 217.274 123.702C217.469 123.702 217.643 124.69 217.659 125.898ZM162.68 128.301L167.982 132.827L169.478 131.147C170.3 130.223 171.19 129.653 171.455 129.88C171.981 130.331 169.502 135.193 168.747 135.193C167.693 135.193 155.985 124.513 156.652 124.161C157.05 123.949 159.763 125.813 162.68 128.301ZM365.832 127.367C377.453 129.853 385.469 140.136 384.751 151.633C383.718 168.189 362.32 176.814 346.095 167.215C340.299 163.786 335.184 154.633 335.184 147.693C335.184 134.072 350.305 124.044 365.832 127.367ZM366.976 128.732C377.091 131.823 382.529 138.551 382.513 147.952C382.483 165.315 357.182 173.93 342.998 161.408C338.449 157.392 336.484 153.264 336.47 147.698C336.449 139.582 340.877 133.535 349.56 129.817C354.988 127.493 361.579 127.083 366.976 128.732ZM160.229 134.179L160.606 135.869H151.248C145.535 135.869 141.89 136.132 141.89 136.545C141.89 136.958 145.56 137.221 151.322 137.221C160.082 137.221 160.962 137.341 163.661 138.911C165.259 139.84 167.253 140.6 168.09 140.6C169.218 140.6 169.547 140.995 169.361 142.121C169.113 143.617 168.873 143.648 155.302 144.005C147.708 144.204 144.246 144.432 147.61 144.512L153.724 144.656V146.684V148.712H147.872H142.021L139.21 151.585L136.398 154.458L136.383 144.781C136.374 139.375 136.728 134.527 137.184 133.796C137.931 132.601 138.932 132.489 148.926 132.489H159.852L160.229 134.179ZM372.996 135.622C374.974 137.776 375.17 142.242 373.444 145.782C371.89 148.968 361.911 157.083 356.934 159.208C351.945 161.338 349.064 161.341 346.588 159.22C343.738 156.779 344.125 154.843 348.136 151.47L351.621 148.54L354.053 150.024L356.485 151.508L358.737 150.134C359.976 149.378 361.949 147.681 363.124 146.362L365.258 143.965L363.594 141.963C361.612 139.577 362.138 138.327 366.257 135.636C369.7 133.385 370.941 133.383 372.996 135.622ZM74.3576 140.532C75.5624 141.61 78.1139 143.003 80.0279 143.629C81.9411 144.255 83.5071 144.875 83.5071 145.006C83.5071 145.137 83.1205 146.101 82.6472 147.147C82.1746 148.193 81.8329 152.303 81.889 156.279C81.9813 162.832 81.8456 163.573 80.4341 164.221C79.5773 164.614 77.9663 164.935 76.8531 164.935C74.9501 164.935 74.8286 165.137 74.8286 168.315V171.694H66.2487H57.6689L57.1758 169.582C56.248 165.607 56.2985 165.56 60.9565 166.029C64.8199 166.419 65.4219 166.296 67.216 164.759C68.308 163.824 69.4417 161.959 69.7359 160.617C70.1414 158.765 70.6574 158.175 71.8708 158.175C73.3501 158.175 73.4258 157.909 72.8736 154.627C72.1935 150.582 72.1967 149.354 72.898 145.928C73.2349 144.284 72.9864 142.8 72.1414 141.399C70.0089 137.866 70.9604 137.494 74.3576 140.532ZM210.057 139.817C210.349 140.223 212.492 144.482 214.818 149.283C218.414 156.706 218.821 157.962 217.545 157.676C215.611 157.243 213.692 158.616 213.659 160.455C213.646 161.246 213.18 162.405 212.624 163.031C211.734 164.034 210.562 162.966 202.73 154.015C197.843 148.43 194.029 143.449 194.255 142.946C194.481 142.443 195.583 141.516 196.705 140.886C199.151 139.513 209.254 138.704 210.057 139.817ZM158.655 140.427C155.509 140.554 150.361 140.554 147.215 140.427C144.07 140.298 146.643 140.193 152.935 140.193C159.227 140.193 161.801 140.298 158.655 140.427ZM174.829 145.104C175.521 145.344 175.815 147.374 175.815 151.928V158.411L173.989 156.941C172.351 155.624 171.3 155.471 163.817 155.471C156.934 155.471 155.387 155.284 154.992 154.402C154.152 152.528 154.478 146.309 155.46 145.467C156.399 144.662 172.668 144.357 174.829 145.104ZM70.5509 149.219C70.8184 150.241 71.3557 152.142 71.7446 153.444C72.6259 156.387 72.6464 157.499 71.8188 157.499C70.8412 157.499 68.5951 153.087 68.0294 150.054C67.6176 147.851 67.7573 147.36 68.7955 147.36C69.5363 147.36 70.2669 148.134 70.5509 149.219ZM173.448 148.712C173.448 149.12 170.16 149.388 165.164 149.388C160.167 149.388 156.88 149.12 156.88 148.712C156.88 148.304 160.167 148.036 165.164 148.036C170.16 148.036 173.448 148.304 173.448 148.712ZM173.448 152.092C173.448 152.499 170.16 152.768 165.164 152.768C160.167 152.768 156.88 152.499 156.88 152.092C156.88 151.684 160.167 151.416 165.164 151.416C170.16 151.416 173.448 151.684 173.448 152.092ZM221.883 162.27C226.242 166.302 226.889 167.251 225.711 167.875C224.84 168.336 214.474 161.686 214.474 160.664C214.474 159.739 216.007 158.175 216.913 158.175C217.214 158.175 219.45 160.018 221.883 162.27ZM219.799 166.348C224.582 169.6 226.029 171.694 223.491 171.694C222.036 171.694 216.32 168.427 214.132 166.344C212.81 165.086 212.757 164.767 213.737 163.944C214.712 163.126 215.55 163.459 219.799 166.348ZM218.418 170.818L222.758 173.183L219.602 172.727C215.827 172.181 212.896 170.689 212.896 169.313C212.896 167.95 213.422 168.094 218.418 170.818ZM77.9845 172.8C80.6322 173.747 86.6203 180.067 85.6547 180.895C85.4716 181.052 82.162 180.505 78.3 179.679C70.4744 178.004 57.8172 177.677 52.3876 179.007C50.6764 179.426 49.1198 179.635 48.9288 179.471C48.3442 178.971 50.4263 175.241 51.9482 174.06C53.1024 173.166 55.6649 172.894 65.0914 172.662C71.5316 172.505 77.3336 172.566 77.9845 172.8ZM218.418 174.579C220.92 175.946 221.017 176.108 219.446 176.3C217.225 176.57 214.474 175.317 214.474 174.037C214.474 172.704 215.162 172.799 218.418 174.579ZM122.797 179.941C123.318 180.387 123.744 181.3 123.744 181.969C123.744 182.777 124.34 183.189 125.519 183.196C126.495 183.202 127.827 183.501 128.478 183.862C129.39 184.367 129.134 184.519 127.356 184.527C126.089 184.533 124.462 184.995 123.741 185.554C121.872 187.003 115.288 186.202 114.638 184.448C114.38 183.753 113.64 183.186 112.994 183.186C112.346 183.186 112.037 182.879 112.308 182.504C112.579 182.13 113.724 181.967 114.854 182.142C116.336 182.372 117.411 181.997 118.711 180.795C120.739 178.921 121.436 178.775 122.797 179.941ZM72.4618 179.598C73.5466 179.754 77.0969 180.509 80.3513 181.275C83.6057 182.041 87.0771 182.758 88.0649 182.869C89.8053 183.065 105.078 191.382 105.973 192.621C106.216 192.959 105.716 194.396 104.861 195.815C102.685 199.425 101.666 205.758 101.659 215.718C101.654 222.559 101.893 224.424 102.86 225.112C103.725 225.726 104.04 227.14 103.972 230.095C103.904 233.018 104.6 236.189 106.36 240.98C110.424 252.039 111.924 258.1 112.717 266.666C113.13 271.127 113.696 276.95 113.973 279.605L114.478 284.434L111.813 284.895C110.347 285.148 108.519 285.508 107.751 285.694C106.672 285.954 105.892 285.168 104.336 282.256C103.226 280.18 101.992 278.654 101.592 278.866C101.192 279.078 100.864 281.176 100.864 283.53V287.808L98.3 288.201C85.9135 290.097 68.5241 290.896 59.1277 290.001C50.8539 289.214 39.6215 286.462 35.7044 284.263C33.616 283.091 33.6042 283.036 34.1233 277.24C35.0606 266.778 37.0338 258.775 41.8125 246.049C48.0073 229.553 48.0026 229.591 44.4357 221.727C38.876 209.471 36.1699 199.957 36.1699 192.668C36.1699 188.998 36.3569 188.606 39.1284 186.463C43.5363 183.057 47.1711 181.327 52.3576 180.169C56.6598 179.209 67.6018 178.898 72.4618 179.598ZM100.899 182.313C102.41 183.777 102.463 183.921 101.139 182.967C100.205 182.294 98.8965 181.84 98.2322 181.958C97.5671 182.076 96.9809 181.867 96.9296 181.496C96.7292 180.049 99.0558 180.528 100.899 182.313ZM93.7635 183.225C93.7635 183.619 93.4085 183.753 92.9746 183.524C92.5406 183.294 92.1856 182.972 92.1856 182.808C92.1856 182.643 92.5406 182.51 92.9746 182.51C93.4085 182.51 93.7635 182.832 93.7635 183.225ZM101.679 185.587C102.631 186.908 103.235 188.139 103.02 188.323C102.558 188.719 95.3415 185.082 95.3415 184.452C95.3415 184.064 98.0831 183.218 99.4188 183.195C99.7091 183.19 100.726 184.266 101.679 185.587ZM111.936 185.837C113.47 186.094 115.166 186.538 115.704 186.824C116.242 187.109 119.391 187.331 122.7 187.316C126.01 187.301 129.02 187.449 129.391 187.646C130.084 188.012 119.814 205.456 118.893 205.479C118.61 205.486 115.972 202.678 113.029 199.24C110.085 195.801 106.851 192.206 105.839 191.252C104.221 189.723 104.106 189.26 104.877 187.365C105.808 185.076 106.505 184.926 111.936 185.837ZM121.969 211.183C134.569 225.577 136.367 227.943 136.367 230.126C136.367 233.517 135.29 234.987 131.638 236.584C125.385 239.317 122.639 238.404 110.726 229.63C101.553 222.875 102.16 224.107 102.745 213.42C103.319 202.959 104.316 198.023 106.253 196.065C107.525 194.78 108.071 195.306 121.969 211.183ZM38.2551 208.992C39.1853 212.093 41.2571 217.628 42.8586 221.292C45.8748 228.191 45.8212 230.006 42.6432 228.549C38.8713 226.819 35.8906 217.273 36.3245 208.31L36.5644 203.355L38.2551 208.992ZM396.722 206C402.031 208.272 403.503 213.248 404.369 231.854C404.901 243.267 404.955 243.554 405.894 240.024C408.218 231.279 417.06 219.898 423.396 217.497C426.724 216.236 427.331 216.197 430.228 217.055C433.982 218.167 435.12 219.858 438.125 228.792C440.937 237.156 441.522 243.791 439.788 247.68C437.455 252.915 430.624 257.106 422.785 258.113L419.262 258.565L417.045 264.643C414.263 272.27 411.18 285.371 410.605 292.014L410.167 297.084L411.656 291.676C413.617 284.557 417.805 273.436 419.803 270.046C422.096 266.154 425.858 261.596 426.778 261.596C427.212 261.596 426.45 262.988 425.083 264.689C419.897 271.148 415.909 280.303 412.889 292.684C409.673 305.865 409.374 308.667 409.883 320.737C410.158 327.246 410.593 332.572 410.85 332.572C411.107 332.572 411.195 327.96 411.045 322.324C410.754 311.365 411.337 304.858 412.611 304.858C413.075 304.858 413.154 305.481 412.806 306.378C411.901 308.706 412.124 331.167 413.059 331.968C413.603 332.434 413.983 329.41 414.239 322.584C414.667 311.169 415.95 307.426 419.587 306.987C420.665 306.857 422.795 305.912 424.321 304.888C428.476 302.1 430.212 301.478 433.844 301.478C436.613 301.478 437.626 301.891 440.142 304.046C445.454 308.598 445.011 314.635 439.139 317.703C432.774 321.028 425.442 317.918 421.999 310.434C420.753 307.725 418.641 307.575 417.254 310.096C416.122 312.154 415.131 322.643 415.499 328.685L415.736 332.572H424.779H433.822L433.4 335.107C432.776 338.874 429.069 372.849 429.069 374.814V376.509H460.233C480.483 376.509 491.396 376.745 491.396 377.185C491.396 377.624 480.458 377.861 460.16 377.861C430.118 377.861 428.847 377.912 426.918 379.213C425.04 380.478 423.717 380.564 406.189 380.564C388.662 380.564 387.339 380.478 385.461 379.213C383.476 377.874 382.26 377.861 266.617 377.861C189.251 377.861 149.779 377.632 149.779 377.185C149.779 376.737 189.362 376.509 266.948 376.509H384.118L383.701 373.974C383.164 370.706 380.39 346.175 379.688 338.486L379.148 332.572H389.513H399.878L399.836 328.009C399.771 320.96 398.599 305.565 398.094 305.132C397.845 304.919 396.862 305.414 395.907 306.232C393.094 308.642 387.663 307.841 382.166 304.207C374.873 299.388 372.561 294.685 376.801 293.3C380.866 291.972 392.079 294.304 395.429 297.175L397.511 298.958V297.221C397.511 290.884 392.73 279.329 388.76 276.07C387.498 275.034 386.466 273.88 386.466 273.505C386.466 272.339 392.048 277.351 393.575 279.888C395.774 283.541 397.513 290.009 399.109 300.464C402.318 321.499 403.002 326.279 403.21 329.139C403.337 330.878 403.864 332.252 404.471 332.422C406.487 332.991 403.727 301.752 400.751 290.316C399.354 284.949 393.154 266.425 392.593 265.945C392.477 265.845 390.746 266.083 388.749 266.475C383.28 267.547 378.304 266.667 375.303 264.096C369.555 259.172 365.37 246.216 366.177 235.845C366.655 229.691 368.286 226.672 371.815 225.408C375.789 223.986 379.576 225.203 385.019 229.651C399.424 241.423 404.263 256.763 395.702 263.524C393.73 265.08 393.713 265.176 394.834 268.255C398.144 277.344 402.367 290.965 403.352 295.732L404.47 301.14L404.541 291.13C404.586 284.643 404.889 281.267 405.4 281.537C405.892 281.797 406.227 289.017 406.288 300.673C406.397 321.26 407.165 321.423 408.483 301.14C408.918 294.448 410.002 285.746 410.894 281.803C412.306 275.553 416.193 262.649 417.607 259.515C417.967 258.719 417.323 258.25 415.075 257.674C411.627 256.788 407.556 253.415 406.349 250.443C405.722 248.902 405.483 252.065 405.352 263.624C405.234 273.949 404.985 277.639 404.578 275.115C404.249 273.071 403.934 265.77 403.88 258.893C403.766 244.421 402.544 219.378 401.784 215.903L401.262 213.523L399.533 214.916C396.875 217.055 394.144 216.664 389.932 213.541C385.392 210.175 383.563 210.278 376.743 214.284C371.61 217.3 369.898 217.634 369.898 215.617C369.898 213.551 376.093 208.196 380.548 206.41C385.454 204.444 392.66 204.262 396.722 206ZM125.949 205.909C127.387 208.212 133.291 221.196 133.01 221.437C132.863 221.563 130.356 218.936 127.439 215.6L122.136 209.534L123.623 207.051C125.005 204.743 125.17 204.662 125.949 205.909ZM314.034 205.997C308.694 206.115 300.173 206.114 295.099 205.996C290.025 205.879 294.395 205.783 304.809 205.783C315.223 205.784 319.374 205.88 314.034 205.997ZM195.341 205.997C190.243 206.115 181.899 206.115 176.801 205.997C171.703 205.879 175.874 205.783 186.071 205.783C196.268 205.783 200.44 205.879 195.341 205.997ZM395.144 206.645C397.531 207.393 399.878 209.828 399.878 211.558C399.878 215.631 395.616 216.089 390.995 212.512C388.11 210.279 387.518 210.095 384.109 210.376C381.55 210.586 379.049 211.447 376.142 213.116C373.812 214.454 371.748 215.414 371.555 215.249C370.654 214.477 376.343 209.689 380.137 208.027C383.463 206.571 385.419 206.18 389.171 206.221C391.805 206.251 394.493 206.442 395.144 206.645ZM314.034 212.757C308.694 212.874 300.173 212.874 295.099 212.756C290.025 212.638 294.395 212.543 304.809 212.543C315.223 212.544 319.374 212.64 314.034 212.757ZM194.902 212.757C189.562 212.874 181.041 212.874 175.967 212.756C170.893 212.638 175.263 212.543 185.677 212.543C196.091 212.544 200.242 212.64 194.902 212.757ZM430.647 218.533C434.763 220.313 439.598 234.024 439.179 242.722C438.868 249.156 436.847 251.738 429.743 254.779C417.575 259.989 406.978 255.394 406.978 244.908C406.978 235.697 416.809 220.883 424.584 218.376C427.411 217.464 428.226 217.485 430.647 218.533ZM61.7967 223.391C65.6949 226.51 68.689 229.229 68.4499 229.433C67.9615 229.852 54.7111 219.815 54.0208 218.504C53.0945 216.743 54.9288 217.897 61.7967 223.391ZM322.56 219.011C322.56 219.442 315.97 219.687 304.368 219.687C292.44 219.687 286.343 219.455 286.663 219.011C286.964 218.593 293.903 218.335 304.855 218.335C316.133 218.335 322.56 218.581 322.56 219.011ZM204.217 219.011C204.217 219.442 197.643 219.687 186.071 219.687C174.5 219.687 167.925 219.442 167.925 219.011C167.925 218.58 174.5 218.335 186.071 218.335C197.643 218.335 204.217 218.58 204.217 219.011ZM154.513 243.684V266.383L148.004 266.186L141.495 265.99V243.684V221.377L148.004 221.181L154.513 220.984V243.684ZM153.366 222.567C153.576 223.035 153.653 232.845 153.539 244.366L153.33 265.314H148.201H143.073L142.865 243.515L142.657 221.715H147.821C151.245 221.715 153.113 222.002 153.366 222.567ZM251.947 225.769C253.902 227.619 253.678 231.193 251.514 232.694C246.417 236.231 239.634 230.653 243.677 226.249C245.763 223.977 249.807 223.743 251.947 225.769ZM234.986 225.771C237.115 227.594 237.003 230.59 234.739 232.413C232.369 234.319 229.388 234.282 227.234 232.318C223.818 229.202 226.124 224.419 231.042 224.419C232.357 224.419 234.11 225.02 234.986 225.771ZM250.765 226.447C252.731 228.131 252.78 229.954 250.9 231.412C248.136 233.555 243.665 232.128 243.665 229.103C243.665 227.555 246.328 225.095 248.004 225.095C248.655 225.095 249.898 225.703 250.765 226.447ZM234.14 226.876C236.1 229.01 236.11 229.117 234.547 231.028C233.194 232.683 229.613 233.064 228.044 231.719C226.474 230.375 226.918 227.307 228.851 226.147C231.284 224.687 232.253 224.82 234.14 226.876ZM379.054 227.061C381.079 227.849 384.037 230.096 386.944 233.055C398.296 244.609 401.576 253.92 396.709 260.775C394.709 263.595 391.084 265.088 385.318 265.469C381.233 265.739 380.153 265.553 377.799 264.177C374.256 262.107 371.967 258.549 369.838 251.805C366.41 240.946 367.046 229.962 371.267 227.118C373.725 225.462 374.922 225.453 379.054 227.061ZM332.828 226.796C333.603 227.597 333.631 228.228 332.945 229.518L332.052 231.196L304.709 231.018C279.66 230.855 277.294 230.741 276.496 229.658C275.861 228.795 275.861 228.154 276.496 227.292C277.294 226.208 279.655 226.094 304.593 225.931C328.332 225.776 331.947 225.887 332.828 226.796ZM295.999 226.898C296.288 227.145 296.525 227.905 296.525 228.587C296.525 229.72 295.713 229.827 287.104 229.827C277.58 229.827 275.747 229.363 277.618 227.431C278.345 226.681 280.586 226.447 287.023 226.447C291.67 226.447 295.71 226.65 295.999 226.898ZM61.317 230.911C65.5561 234.874 66.9194 236.586 65.8369 236.586C65.1482 236.586 55.7115 227.054 56.0839 226.735C56.304 226.546 58.659 228.425 61.317 230.911ZM331.633 227.799C332.895 229.547 330.5 229.827 314.23 229.827C297.84 229.827 297.314 229.785 297.314 228.475C297.314 227.165 297.84 227.123 314.23 227.123C324.656 227.123 331.333 227.382 331.633 227.799ZM171.081 247.036V266.328H164.362H157.644L157.853 247.232L158.063 228.137L164.572 227.941L171.081 227.744V247.036ZM169.503 247.063V264.976H164.375H159.247V247.063V229.151H164.375H169.503V247.063ZM77.9845 236.248C79.4566 237.549 80.3947 238.614 80.0697 238.614C79.2129 238.614 74.0397 234.989 74.0397 234.389C74.0397 233.325 75.4054 233.968 77.9845 236.248ZM332.649 238.064C333.944 239.174 333.852 240.334 332.366 241.608C331.288 242.53 327.69 242.67 304.903 242.67C276.632 242.67 275.591 242.546 276.134 239.252L276.406 237.6L304.049 237.422C324.89 237.288 331.928 237.447 332.649 238.064ZM249.188 237.791C252.916 238.809 254.533 243.4 251.944 245.619C247.52 249.41 240.53 245.494 242.915 240.561C243.838 238.652 247.085 237.218 249.188 237.791ZM233.16 237.949C236.901 239.227 237.603 243.193 234.552 245.807C232.218 247.807 229.196 247.595 226.9 245.27C223.296 241.621 227.956 236.172 233.16 237.949ZM282.586 238.389C282.876 238.636 283.113 239.397 283.113 240.079C283.113 241.04 282.504 241.318 280.398 241.318C278.904 241.318 277.431 240.968 277.121 240.539C276.059 239.065 281.073 237.092 282.586 238.389ZM331.633 239.29C332.937 241.097 330.356 241.318 307.918 241.318C285.217 241.318 284.69 241.287 284.69 239.966C284.69 238.644 285.217 238.614 307.918 238.614C322.552 238.614 331.326 238.864 331.633 239.29ZM233.362 239.744C234.622 240.5 235.011 241.332 234.833 242.891C234.345 247.178 227.097 246.633 227.097 242.309C227.097 239.665 230.743 238.172 233.362 239.744ZM251.527 240.597C252.687 242.455 252.556 243.164 250.765 244.698C248.62 246.535 246.333 246.396 244.754 244.332C242.753 241.715 244.294 239.29 247.959 239.29C249.872 239.29 250.959 239.689 251.527 240.597ZM187.649 252.782V266.328H180.926H174.204L174.418 252.978L174.631 239.628L181.14 239.432L187.649 239.235V252.782ZM185.892 252.978L185.677 265.314L180.746 265.516L175.815 265.716V253.179V240.642H180.961H186.107L185.892 252.978ZM462.144 245.772C465.114 247.912 465.384 251.049 462.922 254.803C461.12 257.549 455.742 260.922 453.172 260.918C450.699 260.914 446.679 258.531 444.675 255.882C443.686 254.573 442.598 253.498 442.258 253.493C441.026 253.477 433.969 256.833 431.515 258.601C430.133 259.598 428.828 260.263 428.615 260.081C427.855 259.429 434.2 255.283 438.5 253.62C440.907 252.69 444.376 250.645 446.209 249.074C452.33 243.832 457.864 242.685 462.144 245.772ZM204.217 255.175V266.328H197.511H190.805V255.175V244.022H197.511H204.217V255.175ZM459.049 245.194C465.011 246.988 463.96 254.731 457.281 258.22C453.592 260.148 450.921 259.936 448.065 257.489C444.469 254.408 444.173 252.474 446.919 250.014C450.884 246.462 456.219 244.343 459.049 245.194ZM202.639 255.175V264.976H197.511H192.383V255.175V245.373H197.511H202.639V255.175ZM332.649 249.556C333.944 250.666 333.852 251.825 332.366 253.099C331.288 254.022 327.65 254.161 304.455 254.161C275.714 254.161 275.571 254.143 276.148 250.649L276.406 249.091L304.049 248.913C324.89 248.78 331.928 248.938 332.649 249.556ZM319.105 250.411C320.102 252.637 318.599 252.809 298.141 252.809C281.552 252.809 277.681 252.636 277.341 251.878C276.357 249.679 278.53 249.429 298.679 249.429C315.423 249.429 318.736 249.589 319.105 250.411ZM331.88 251.288C331.663 252.262 330.608 252.506 325.905 252.67C320.603 252.854 320.193 252.769 320.193 251.487C320.193 250.217 320.677 250.105 326.168 250.105C331.434 250.105 332.112 250.246 331.88 251.288ZM251.554 252.133C255.19 255.248 252.963 260.244 247.939 260.244C246.072 260.244 244.892 259.738 243.677 258.415C239.59 253.963 246.892 248.139 251.554 252.133ZM234.485 252.182C238.496 254.885 236.207 260.244 231.042 260.244C226.003 260.244 223.841 255.537 227.456 252.441C229.821 250.413 231.756 250.342 234.485 252.182ZM251.132 253.458C252.956 255.185 252.175 258.003 249.592 259.012C245.393 260.651 241.693 255.899 245.108 253.252C247.035 251.757 249.421 251.839 251.132 253.458ZM331.399 260.028C334.294 260.681 333.987 264.549 330.987 265.238C327.859 265.957 279.161 265.697 277.538 264.953C276.672 264.555 276.012 263.542 276.012 262.61C276.012 261.678 276.672 260.666 277.538 260.268C279.029 259.585 328.455 259.364 331.399 260.028ZM331.728 261.902C331.969 262.442 331.938 263.202 331.657 263.592C331.318 264.062 322.662 264.3 305.946 264.3H280.746V262.61V260.92H306.017C327.382 260.92 331.356 261.072 331.728 261.902ZM279.168 262.61C279.168 263.54 278.842 264.3 278.444 264.3C277.52 264.3 276.926 262.862 277.396 261.765C278.024 260.302 279.168 260.847 279.168 262.61ZM369.606 267.977C370.963 268.484 372.316 269.233 372.611 269.641C372.905 270.05 374.279 270.386 375.664 270.388C378.916 270.393 384.099 271.627 384.099 272.396C384.099 272.735 382.992 272.721 381.54 272.364C376.242 271.062 373.412 271.566 368.085 274.757C356.772 281.533 348.766 283.434 345.03 280.234C343.337 278.783 343.215 278.349 343.975 276.482C345.087 273.747 351.356 270.095 357.949 268.339C363.787 266.784 366.204 266.709 369.606 267.977ZM369.046 269.17C370.097 269.652 371.078 270.362 371.227 270.749C371.561 271.621 360.453 277.886 355.878 279.405C346.799 282.419 341.265 278.236 348.495 273.825C355.308 269.668 365.231 267.42 369.046 269.17ZM452.212 282.565C457.827 284.264 462.241 286.587 464.473 289.019C466.59 291.325 466.594 292.813 464.488 294.444C460.697 297.381 451.907 295.156 440.63 288.404C436.726 286.067 435.471 285.663 432.478 285.775C428.088 285.938 421.703 288.813 419.008 291.84C417.918 293.065 416.238 295.93 415.276 298.208C414.312 300.487 413.319 302.065 413.068 301.716C412.382 300.766 416.052 293.498 418.617 290.725C421.452 287.661 428.363 284.579 432.398 284.579C434.274 284.579 436.323 284.023 437.729 283.132C440.985 281.069 446.551 280.851 452.212 282.565ZM451.234 283.541C458.414 285.806 464.572 289.768 464.572 292.123C464.572 293.587 462.273 294.718 459.299 294.718C456.488 294.717 448.704 291.579 442.367 287.892L437.479 285.048L439.278 283.799C441.415 282.318 446.974 282.197 451.234 283.541ZM386.208 294.748C394.753 296.196 398.855 300.596 395.494 304.707C394.008 306.525 389.921 306.727 386.38 305.157C383.113 303.71 377.912 299.59 376.593 297.404C374.664 294.208 377.839 293.33 386.208 294.748ZM438.258 303.82C440.323 305.059 442.481 308.873 442.481 311.28C442.481 312.453 441.524 313.924 439.799 315.402C437.628 317.263 436.505 317.701 433.909 317.701C429.995 317.701 426.119 315.08 423.957 310.973C422.554 308.306 422.555 308.197 424.017 306.812C427.719 303.306 434.89 301.799 438.258 303.82ZM101.385 325.882C101.098 330.119 100.155 338.605 99.2902 344.739C98.4065 351.006 97.7162 360.114 97.713 365.529C97.7083 374.968 97.7485 375.196 99.6807 376.635C102.569 378.787 102.229 380.364 98.6945 381.205C94.7403 382.146 88.7924 382.102 86.2614 381.115C84.3592 380.372 84.2542 380.11 84.8436 377.566C85.6799 373.952 85.3572 366.323 83.4803 345.415C82.6298 335.935 81.9324 326.489 81.9316 324.424L81.9292 320.671L89.6215 319.825C93.8519 319.359 98.3474 318.798 99.6105 318.578L101.907 318.177L101.385 325.882ZM59.0496 319.672C66.4523 320.665 67.3146 320.924 67.1552 322.115C67.0574 322.847 65.9285 330.29 64.6456 338.655C63.3628 347.02 61.5127 359.492 60.5344 366.369C59.2768 375.208 58.4073 379.123 57.5679 379.72C56.9154 380.185 54.7624 380.564 52.7845 380.563L49.1876 380.562L49.0535 349.469C48.9518 326.062 49.1466 318.4 49.8425 318.469C50.3498 318.52 54.4933 319.061 59.0496 319.672ZM80.7419 322.094C80.9225 322.838 81.2207 327.249 81.4038 331.896C81.5876 336.543 82.3773 348.184 83.1584 357.765C84.1115 369.457 84.3174 375.409 83.7841 375.866C83.3028 376.278 78.4839 376.472 71.56 376.359L60.1304 376.171L63.4653 354.878C65.2996 343.167 67.2752 330.696 67.8558 327.164L68.9115 320.742H74.6622C79.7769 320.742 80.4492 320.892 80.7419 322.094ZM408.286 326.826C408.283 329.8 408.144 330.933 407.978 329.343C407.811 327.753 407.813 325.32 407.983 323.936C408.152 322.551 408.289 323.852 408.286 326.826ZM401.67 327.094C402.238 331.769 402.052 333.308 401.025 332.428C400.787 332.225 400.699 329.816 400.828 327.076L401.061 322.094L401.67 327.094ZM430.502 349.302L430.253 351.16L406.638 351.34C381.939 351.527 381.774 351.509 381.744 348.626C381.733 347.524 383.42 347.443 406.242 347.443H430.752L430.502 349.302ZM429.069 361.638C429.069 362.073 420.917 362.314 406.189 362.314C391.462 362.314 383.31 362.073 383.31 361.638C383.31 361.202 391.462 360.962 406.189 360.962C420.917 360.962 429.069 361.202 429.069 361.638Z" fill="#545454"/>
</svg>
