<svg width="471" height="366" viewBox="0 0 471 366" fill="none" xmlns="http://www.w3.org/2000/svg">
<path fill-rule="evenodd" clip-rule="evenodd" d="M130.036 1.45155C135.703 2.76796 141.061 5.15797 144.555 7.92618C147.245 10.0583 147.778 10.818 147.778 12.5171C147.778 14.4388 148.035 14.6777 152.348 16.7712C162.193 21.549 169.827 28.2989 174.89 36.7014C179.542 44.4203 181.054 49.5813 181.116 57.9609C181.244 75.1894 171.28 90.2389 153.774 99.2551C143.564 104.513 133.2 106.669 120.403 106.195C110.595 105.832 104.513 104.516 96.3504 100.992C84.8301 96.0175 76.9435 89.3583 71.2294 79.7798C66.8294 72.4027 65.7637 68.8849 65.3609 60.4046C64.6832 46.1205 69.6566 35.1103 81.3442 25.0249C85.6927 21.2726 93.2835 16.6666 97.4926 15.2254C99.1242 14.6671 99.6367 14.0841 99.959 12.4181C100.472 9.76568 102.232 8.43808 105.75 8.04814C107.748 7.82659 108.511 7.47973 108.511 6.79439C108.511 5.56749 110.806 3.85163 114.495 2.32095C118.332 0.728732 125.258 0.341585 130.036 1.45155ZM311.102 8.43472C324.576 10.4449 335.622 18.0216 340.199 28.3946C342.218 32.9681 342.666 42.3145 341.084 46.8142C337.326 57.4943 327.129 65.8845 314.637 68.5732C309.54 69.6703 300.834 69.6703 295.737 68.5732C283.287 65.8934 273.046 57.4909 269.319 46.8976C267.99 43.1173 267.839 35.5965 269.015 31.6663C272.222 20.9442 281.937 12.4662 294.564 9.3707C299.109 8.25626 306.936 7.81372 311.102 8.43472ZM314.7 14.572C319.952 16.1172 322.377 17.2977 325.915 20.0323C343.994 34.0065 336.538 58.3872 312.61 63.537C298.482 66.5782 283.747 60.7514 277.331 49.5863C273.149 42.3111 273.517 33.0509 278.253 26.3732C280.694 22.9314 285.577 18.7181 289.108 17.0084C296.34 13.5062 307.475 12.446 314.7 14.572ZM114.188 17.7369C117.574 20.8816 119.515 21.4237 119.88 19.3268C120.069 18.2409 120.296 18.2773 124.747 20.1028C127.314 21.1563 131.643 22.4386 134.366 22.9533L139.315 23.8887L139.181 32.6683C139.026 42.7072 138.732 43.5369 132.972 50.2409C130.174 53.4964 129.022 54.3809 126.966 54.8531C121.641 56.0749 120.976 55.8355 114.064 50.2062C106.695 44.206 106.947 44.7934 106.054 31.4833L105.591 24.5869L107.364 23.2279C109.295 21.7482 110.833 17.9808 110.354 15.9069C110.188 15.1896 110.238 14.6168 110.466 14.6335C110.694 14.6509 112.369 16.0473 114.188 17.7369ZM151.372 16.9547C160.615 21.0986 169.453 28.8639 174.482 37.2609C182.675 50.9396 182.631 66.2056 174.362 79.7557C171.582 84.3086 171.376 84.1698 170.239 76.9825C169.85 74.5209 168.813 70.6186 167.935 68.3109L166.338 64.1149L161.967 62.6889C159.562 61.9045 154.244 60.4202 150.148 59.3903C145.936 58.3318 141.965 56.9667 141.008 56.2484C140.077 55.5502 138.56 54.8945 137.636 54.7915C136.204 54.6315 135.876 54.2046 135.409 51.8907C134.907 49.4067 135.043 48.9429 137.009 46.4103C138.567 44.4035 139.281 42.6887 139.605 40.1723C139.907 37.831 140.631 35.973 141.83 34.4636C144.393 31.2377 145.438 27.966 144.412 26.3811C143.867 25.5385 143.174 25.2191 142.304 25.407C141.524 25.5754 141.008 25.4009 141.008 24.9695C141.008 24.5013 142.34 24.1611 144.844 23.9894C147.789 23.7874 148.972 23.4282 149.938 22.443C151.131 21.2251 151.136 21.0858 150.038 19.6994C149.402 18.8966 148.173 17.7783 147.308 17.2154C146.442 16.6521 145.908 15.96 146.119 15.6769C146.681 14.9261 147.044 15.0145 151.372 16.9547ZM101.306 18.2202C101.947 19.902 102.765 21.4276 103.121 21.61C103.479 21.7924 103.771 22.8229 103.771 23.8999C103.771 25.1178 103.504 25.7215 103.065 25.4971C101.857 24.88 100.386 26.404 100.386 28.2737C100.386 29.3596 101.429 31.4867 103.048 33.7049C105.092 36.5067 105.818 38.184 106.178 40.9427C106.5 43.4054 107.153 45.0933 108.256 46.3146C110.301 48.5793 110.586 53.201 108.68 53.2122C108.029 53.2161 106.846 54.0346 106.053 55.0304C104.99 56.3647 102.067 57.9418 94.9524 61.0189C79.4641 67.7178 80.2406 67.1584 76.4316 74.3653C74.6138 77.8049 72.8623 80.619 72.5387 80.619C72.2158 80.619 71.9497 80.5557 71.9491 80.4791C71.9477 80.4025 71.0452 78.512 69.9437 76.2781C64.5403 65.3217 64.4422 51.8437 69.6864 41.012C73.385 33.3726 79.638 26.2149 86.4841 21.784C90.8178 18.9794 98.2455 15.1622 99.37 15.1622C99.7932 15.1622 100.664 16.5385 101.306 18.2202ZM304.462 17.1601C305.047 17.644 305.539 18.4619 305.555 18.9783C305.623 21.1171 307.554 24.1332 312.14 29.2589L316.993 34.684L321.076 35.0655L325.159 35.4471V42.917C325.159 50.2107 325.123 50.3931 323.636 50.6571C320.709 51.1763 314.575 51.5304 302.639 51.87C289.669 52.2387 288.206 51.9897 288.778 49.513C288.984 48.6218 288.623 48.1037 287.498 47.6802C285.6 46.9652 284.722 44.5797 285.918 43.3886C286.607 42.7027 286.605 42.2781 285.907 41.2011C285.006 39.8092 285.437 36.9811 286.55 36.9811C286.898 36.9811 286.667 36.2399 286.039 35.3335C284.943 33.757 284.955 33.6188 286.31 32.1166C287.669 30.6106 287.989 30.5406 294.256 30.3873C301.509 30.2094 301.44 30.2604 299.771 26.3514C299.212 25.0434 298.755 22.7642 298.755 21.2866C298.755 19.051 299.054 18.406 300.539 17.4409C302.679 16.0495 303.082 16.0204 304.462 17.1601ZM304.146 18.0681C304.506 18.7775 305.13 20.4312 305.531 21.7431C305.932 23.0551 307.105 24.9433 308.138 25.9391C309.172 26.9349 311.322 29.3076 312.917 31.2114C315.962 34.8451 317.994 35.8622 322.213 35.8622H324.482V42.8555C324.482 46.7017 324.253 49.8582 323.974 49.87C323.125 49.9052 318.304 50.4216 313.52 50.9894C311.028 51.2848 304.739 51.5271 299.544 51.5271C291.579 51.5271 290.034 51.3895 289.69 50.6476C289.466 50.1637 289.579 49.3083 289.942 48.7471C290.484 47.9113 290.303 47.664 288.944 47.3826C286.737 46.9244 285.609 45.1755 286.569 43.6946C286.967 43.0792 287.644 42.5757 288.074 42.5757C288.504 42.5757 288.188 42.0621 287.374 41.435C285.544 40.0268 285.468 38.3283 287.193 37.4382C288.477 36.7758 288.477 36.7478 287.193 35.3995C285.563 33.6882 285.569 33.3318 287.246 31.946C288.409 30.9849 289.502 30.8271 294.992 30.8271C298.507 30.8271 301.549 30.605 301.752 30.3331C301.956 30.0617 301.517 28.3856 300.777 26.6093C299.095 22.5695 299.036 19.5333 300.617 18.411C302.883 16.8026 303.472 16.7455 304.146 18.0681ZM134.407 25.3231C135.431 25.6325 136.269 26.0969 136.269 26.3553C136.269 26.6138 135.41 26.4711 134.361 26.0387C132.948 25.4563 131.862 25.3919 130.174 25.792C127.219 26.4924 126.747 26.1086 129.565 25.2974C132.053 24.5807 131.944 24.5802 134.407 25.3231ZM119.577 25.6521C119.749 25.8826 118.543 25.9827 116.896 25.8748C114.927 25.745 113.325 25.9894 112.221 26.5869C111.297 27.0871 110.542 27.279 110.542 27.0138C110.542 25.7187 118.707 24.4884 119.577 25.6521ZM143.597 26.4767C144.78 27.4541 144.574 28.54 142.561 31.946C140.816 34.8977 140.732 34.9559 140.479 33.3777C139.822 29.2701 141.767 24.9645 143.597 26.4767ZM103.677 26.7643C104.047 27.3366 104.547 29.429 104.788 31.414L105.225 35.023L103.835 33.6244C101.207 30.9793 100.249 26.4728 102.202 25.9419C102.643 25.8222 103.306 26.192 103.677 26.7643ZM408.014 28.0488C410.828 28.7453 413.173 30.7751 413.173 32.5144C413.173 33.8498 413.689 34.1721 418.081 35.5769C441.163 42.9584 456.197 62.1137 454.947 82.548C454.471 90.3379 453.168 94.5523 449.06 101.599C441.699 114.224 427.951 123.485 411.142 127.142C399.71 129.629 384.59 128.589 373.557 124.557C345.095 114.155 331.525 86.7948 342.887 62.7163C346.071 55.9714 349.536 52.03 359.654 43.6465C365.072 39.158 370.936 34.7992 372.686 33.9595C382.034 29.4738 400.969 26.3055 408.014 28.0488ZM131.717 28.3716C132.468 28.9921 132.298 31.8336 131.484 32.2487C130.624 32.6884 130.473 32.576 129.918 31.0777C129.463 29.8519 130.898 27.6947 131.717 28.3716ZM117.523 29.5101C118.27 30.1266 118.059 32.9625 117.236 33.3833C116.213 33.9058 115.229 32.5267 115.444 30.8702C115.622 29.4961 116.673 28.808 117.523 29.5101ZM415.712 35.4409C418.837 36.2695 418.435 36.9811 414.842 36.9811C411.981 36.9811 411.821 36.9045 412.496 35.8622C412.894 35.2468 413.286 34.769 413.366 34.8004C413.446 34.8317 414.502 35.1198 415.712 35.4409ZM429.073 41.0081C439.915 46.9423 448.789 57.1295 452.454 67.8471C454.396 73.5273 454.899 82.4333 453.616 88.4514C452.459 93.8781 449.332 100.894 446.294 104.878L444.22 107.598L438.338 102.841L432.456 98.0853L422.306 95.4183C416.724 93.9514 412.108 92.7279 412.048 92.6994C411.989 92.6708 411.74 91.7656 411.496 90.6875L411.054 88.7283L419.053 88.7294C425.953 88.7311 427.423 88.5655 429.76 87.5266C435.209 85.1036 437.546 81.6461 437.546 76.0062C437.546 71.2917 436.601 70.2941 430.743 68.8239C428.153 68.1738 425.876 67.4303 425.682 67.1718C425.489 66.9128 426.994 65.1605 429.027 63.278C432.869 59.7198 435.515 55.9144 435.515 53.9462C435.515 52.6404 432.754 49.0683 430.56 47.5353C429.748 46.968 427.677 45.7411 425.958 44.8097L422.834 43.1156L423.927 41.1855C424.528 40.1242 425.197 39.2469 425.413 39.2374C425.628 39.2274 427.275 40.024 429.073 41.0081ZM127.806 40.1001C127.061 40.5656 125.83 41.0747 125.071 41.2325C123.639 41.5295 119.57 40.5231 120.177 40.0218C120.367 39.8646 121.296 40.0274 122.24 40.3832C123.621 40.9035 124.39 40.8526 126.155 40.1247C128.887 38.9985 129.586 38.9885 127.806 40.1001ZM410.827 45.5146L417.091 50.6912L417.597 54.5935C417.875 56.7396 417.819 62.3812 417.472 67.131L416.842 75.7662L412.523 79.0491C410.147 80.8545 406.392 83.3312 404.179 84.5525C396.441 88.8223 390.61 87.3006 381.952 78.752L378.644 75.4859L378.718 65.6048C378.758 60.1696 378.987 54.2147 379.226 52.3719L379.66 49.0207L383.23 48.5983C387.394 48.1054 392.196 46.224 398.061 42.7889C400.362 41.4406 402.766 40.3379 403.403 40.3379C404.041 40.3379 407.381 42.6675 410.827 45.5146ZM392.211 42.2708C391.125 43.3511 385.749 45.9358 384.617 45.9207C384.125 45.914 385.614 44.907 387.928 43.6829C392.383 41.3248 393.545 40.9416 392.211 42.2708ZM119.324 43.4423C122.036 45.0245 124.079 45.1476 128.228 43.9794C130.764 43.2655 131.007 43.2622 129.915 43.9565C126.72 45.9873 120.275 45.5314 117.594 43.0843C116.068 41.6901 116.459 41.7707 119.324 43.4423ZM361.889 45.0732C361.617 47.0665 361.9 48.0478 363.327 50.0602C364.304 51.4381 365.104 52.8329 365.104 53.1596C365.104 53.4863 363.168 54.4788 360.803 55.365C358.438 56.2517 356 57.5687 355.386 58.2926C352.897 61.2298 354.879 67.8627 359.686 72.6819L361.731 74.7323L358.353 77.2986C355.15 79.7317 355.008 79.9594 355.61 81.6937C356.908 85.432 363.541 90.6355 368.511 91.8132C371.237 92.4594 374.979 91.7522 377.498 90.1147C379.233 88.9868 379.241 88.9868 381.441 90.0928C384.211 91.4842 384.369 91.4395 370.542 93.2046C353.866 95.3333 353.96 95.3014 349.487 100.448C348.269 101.85 347.06 102.997 346.802 102.997C346.038 102.997 342.964 96.9099 341.293 92.0879C339.999 88.3518 339.753 86.3641 339.806 80.0595C339.861 73.6017 340.13 71.7929 341.663 67.5796C343.589 62.2838 345.794 58.3318 349.056 54.3244C352.141 50.5324 356.688 46.2173 359.615 44.3017L362.227 42.592L361.889 45.0732ZM395.279 50.5889C395.852 51.8214 395.08 52.6426 393.33 52.6656C392.514 52.6768 391.085 53.0455 390.154 53.4852C387.765 54.6136 385.257 54.57 385.534 53.4046C386.107 51.0012 394.363 48.6151 395.279 50.5889ZM134.509 51.5595C134.709 52.3109 135.196 56.5684 135.592 61.02C136.266 68.5883 136.23 69.2066 135.043 70.5308C132.798 73.0372 129.573 74.4649 126.157 74.4649C124.238 74.4649 121.848 73.9748 120.018 73.2061C117.179 72.0134 116.961 71.7493 115.889 68.1799C113.525 60.305 113.33 61.0379 118.495 58.4275C121.01 57.1569 124.36 55.9434 125.942 55.7314C128.242 55.4226 129.351 54.8301 131.482 52.7696C134.059 50.2778 134.158 50.2381 134.509 51.5595ZM409.111 52.2085C410.786 52.9106 412.263 53.9563 412.392 54.5319C412.592 55.4276 412.3 55.5367 410.361 55.29C406.203 54.7613 402.679 53.3795 402.679 52.2784C402.679 50.7455 405.545 50.7147 409.111 52.2085ZM110.03 54.744C110.609 55.2827 111.705 57.402 112.466 59.4541C114.132 63.9493 118.823 81.2349 118.459 81.5365C118.317 81.654 116.896 81.3698 115.301 80.9048C113.707 80.4399 111.084 80.0595 109.472 80.0595C106.628 80.0595 106.526 79.9974 106.028 77.9615C105.746 76.8079 105.53 71.7096 105.547 66.6325C105.574 59.0915 105.789 57.0685 106.724 55.5832C108.031 53.5059 108.556 53.3727 110.03 54.744ZM140.261 56.4223C141.263 57.1066 142.681 60.1814 144.97 66.6325C149.691 79.9359 149.507 78.9747 147.275 78.6055C145.819 78.3649 144.681 78.7493 142.189 80.3224C140.422 81.4369 138.965 82.2744 138.951 82.1832C138.937 82.092 138.234 76.0387 137.389 68.7305L135.854 55.4433H137.34C138.158 55.4433 139.472 55.8836 140.261 56.4223ZM104.813 66.7723C104.822 71.7728 105.061 77.0272 105.344 78.4494L105.859 81.0358L108.886 80.7538C112.374 80.4287 117.646 81.8419 118.633 83.3665C119.31 84.4104 121.016 94.3817 121.729 101.459L122.167 105.795H119.445C112.667 105.795 101.179 102.821 93.5855 99.1007C87.9235 96.3269 80.202 90.4212 76.2455 85.8398C72.7168 81.7535 72.5827 82.8478 77.7424 73.577C79.5737 70.2863 81.2595 68.091 82.5235 67.3519C84.3745 66.27 103.901 57.6811 104.51 57.6811C104.668 57.6811 104.805 61.7725 104.813 66.7723ZM405.172 59.6392C406.075 61.2779 405.021 63.8352 403.442 63.8352C401.682 63.8352 400.96 60.164 402.476 58.9119C403.683 57.9144 404.314 58.0851 405.172 59.6392ZM390.15 59.0764C391.296 60.2166 390.731 63.509 389.353 63.7244C387.868 63.9566 386.623 61.9923 387.152 60.2507C387.656 58.5919 389.097 58.0274 390.15 59.0764ZM154.699 61.2236C160.553 62.8477 165.58 64.3723 165.87 64.6112C166.159 64.85 166.499 70.4698 166.625 77.0994L166.853 89.1524L163.579 91.929C161.777 93.4563 158.43 95.82 156.141 97.1818C151.741 99.7989 142.4 103.642 141.526 103.196C141.241 103.05 140.988 100.743 140.963 98.0691C140.939 95.3948 140.539 90.9908 140.074 88.2824L139.229 83.3581L141.736 81.4861C144.649 79.3121 146.922 78.5691 147.982 79.4447C149.012 80.2956 149.809 80.2133 149.809 79.2561C149.809 78.8141 148.287 74.094 146.425 68.7663C144.564 63.4385 143.041 58.8907 143.04 58.6602C143.038 58.0084 143.39 58.0856 154.699 61.2236ZM420.209 60.804C420.835 62.1512 420.701 64.3437 419.919 65.5505C418.694 67.4426 418.244 66.7321 418.48 63.2768C418.704 59.9979 419.383 59.0261 420.209 60.804ZM377.516 60.2921C378.176 60.8376 378.068 67.1919 377.399 67.1919C377.086 67.1919 376.477 66.5508 376.045 65.767C374.452 62.8785 375.577 58.6904 377.516 60.2921ZM396.4 69.0007C398.193 70.1537 398.284 70.1582 399.616 69.1624C400.415 68.5649 400.986 68.4116 400.986 68.7953C400.986 69.1573 400.21 69.7459 399.262 70.1028C397.745 70.674 397.322 70.5728 395.724 69.2513C393.562 67.4655 393.848 67.3592 396.4 69.0007ZM168.561 72.5376C169.007 74.0934 169.702 77.5554 170.104 80.2313C170.806 84.8999 170.773 85.1668 169.293 86.825L167.75 88.5532L167.554 84.054C167.446 81.5796 167.446 77.34 167.554 74.6322L167.75 69.7095L168.561 72.5376ZM137.237 74.8425C137.491 77.2505 138.19 81.9896 138.791 85.3744C139.391 88.7591 139.908 94.2787 139.937 97.6405L139.992 103.753L136.607 104.483C134.745 104.884 130.903 105.376 128.069 105.577L122.917 105.942L122.448 100.693C121.989 95.5481 119.203 79.5862 118.042 75.444C117.367 73.0333 117.271 73.083 120.463 74.1852C123.3 75.1648 127.925 75.2761 130.639 74.4308C131.687 74.1041 133.497 73.078 134.661 72.1504L136.777 70.4642L137.237 74.8425ZM392.794 73.4629C395.672 74.9858 400.51 75.0814 403.356 73.671L405.387 72.6651L403.816 73.8266C401.504 75.5351 398.085 75.8887 394.579 74.7821C392.949 74.2674 391.249 73.4819 390.801 73.0366C389.706 71.9468 390.076 72.0257 392.794 73.4629ZM307.556 77.9101C310.3 78.5613 312.63 80.1927 314.222 82.5771C315.227 84.0826 315.363 88.1062 315.549 121.642C315.69 147.149 315.52 159.965 315.015 161.974C314.159 165.385 311.223 168.145 307.517 169.023C306.16 169.344 293.094 169.577 276.079 169.583L246.963 169.593L226.313 176.841C205.828 184.031 205.69 184.07 208.874 181.726C210.639 180.427 214.942 177.224 218.435 174.608L224.786 169.853L218.88 169.53C211.705 169.139 208.524 167.785 206.614 164.311C205.499 162.282 205.353 160.469 205.34 148.453L205.325 134.887H147.756C86.2208 134.887 86.6378 134.904 84.8688 132.173C84.4531 131.531 84.1376 127.922 84.1376 123.81C84.1376 116.741 84.1782 116.544 85.9222 115.102L87.7075 113.627H146.516H205.325V99.2579C205.325 82.9967 205.669 81.6517 210.512 78.9406L213.011 77.5419L259.099 77.4451C288.316 77.3836 306.054 77.5537 307.556 77.9101ZM387.429 84.2409C389.846 86.3668 393.023 87.3302 397.703 87.3571C400.067 87.3705 403.83 87.6933 406.064 88.0754L410.126 88.7692L410.907 91.8272C411.337 93.5089 411.718 95.8346 411.754 96.9955C411.813 98.9161 411.539 99.2523 408.706 100.737C401.368 104.582 392.471 103.899 385.14 98.9278L383.174 97.5941L384.05 90.4895C384.532 86.5822 385.145 83.2742 385.411 83.1382C385.677 83.0023 386.585 83.4985 387.429 84.2409ZM306.047 83.2311C307.589 83.7441 308.911 86.6561 308.911 89.5423V92.3676H261.18H213.45V88.9857C213.45 86.1403 213.714 85.385 215.112 84.2303L216.773 82.8568L260.98 82.901C285.294 82.925 305.574 83.0739 306.047 83.2311ZM94.1901 88.0245C95.0966 93.3864 95.207 97.9622 94.429 97.9622C94.1312 97.9622 94.0168 97.0486 94.1745 95.9319C94.3322 94.8158 94.0892 91.6509 93.6342 88.9001C93.1793 86.1492 92.9423 83.7866 93.1075 83.6496C93.2727 83.513 93.7602 85.4818 94.1901 88.0245ZM382.546 94.8343C382.204 97.3395 382.293 97.5001 385.211 99.6221C388.954 102.344 393.961 103.81 399.294 103.744C403.929 103.686 407.366 102.619 410.695 100.203C412.827 98.6565 412.98 98.3309 412.664 96.0102L412.32 93.4944L414.27 94.0102C415.342 94.2944 419.26 95.3232 422.977 96.2967C431.867 98.6257 432.267 98.8249 438.426 103.977L443.708 108.394L439.179 112.436C420.639 128.984 391.131 132.57 367.559 121.139C361.308 118.108 351.395 110.203 348.871 106.237L347.194 103.603L348.917 102.041C349.865 101.182 351.156 99.7911 351.788 98.9491C353.958 96.0561 354.786 95.8709 380.264 92.5824L382.899 92.2423L382.546 94.8343ZM308.911 128.173V162.859H261.18H213.45V148.542C213.45 135.071 213.53 134.14 214.804 132.801C216.004 131.54 216.158 130.532 216.158 123.902C216.158 117.17 216.022 116.312 214.804 115.305C213.547 114.267 213.45 113.441 213.45 103.837V93.4865H261.18H308.911V128.173ZM384.399 101.707C387.75 104.355 389.731 106.189 388.8 105.783C385.925 104.532 376.483 96.6553 378.113 96.8685C378.219 96.8824 381.048 99.0599 384.399 101.707ZM383.738 104.689C385.563 106.22 386.75 107.473 386.377 107.473C385.497 107.473 379.638 102.549 380.082 102.183C380.267 102.029 381.912 103.157 383.738 104.689ZM393.768 107.259C394.825 107.733 395.55 108.236 395.379 108.377C394.927 108.75 391.508 107.378 391.508 106.823C391.508 106.235 391.462 106.227 393.768 107.259ZM213.819 115.56C215.411 116.875 215.481 117.234 215.481 124.134C215.481 130.937 215.394 131.402 213.914 132.551L212.347 133.768H149.984H87.6209L86.2181 132.293C84.9696 130.982 84.8146 130.053 84.8146 123.876C84.8146 117.25 84.8904 116.87 86.4767 115.56L88.1381 114.187H150.148H212.157L213.819 115.56ZM197.793 117.708C198.206 118.568 198.732 119.889 198.961 120.645C199.343 121.898 199.715 122.021 203.198 122.036L207.018 122.053L204.109 124.134L201.2 126.215L202.254 128.68C202.835 130.035 203.159 131.269 202.975 131.421C202.792 131.572 201.477 131.029 200.054 130.214C198.631 129.399 197.234 128.732 196.951 128.732C196.666 128.732 195.379 129.397 194.091 130.209C192.802 131.021 191.57 131.539 191.352 131.359C191.134 131.178 191.431 129.879 192.011 128.471L193.066 125.912L190.395 124.45C188.925 123.646 187.723 122.784 187.723 122.533C187.723 122.282 189.297 122.002 191.222 121.908L194.721 121.739L195.882 118.942L197.042 116.145L197.793 117.708ZM151.253 119.105L152.24 121.739L155.764 121.908C157.702 122.002 159.281 122.253 159.273 122.468C159.265 122.682 158.064 123.557 156.602 124.411L153.946 125.963L154.9 128.58C155.424 130.02 155.739 131.291 155.601 131.406C155.463 131.52 154.103 130.932 152.58 130.099L149.809 128.584L147.039 130.099C145.515 130.932 144.141 131.508 143.985 131.379C143.829 131.25 144.179 130.035 144.762 128.68L145.823 126.215L143.61 124.676C142.393 123.83 141.157 123.138 140.864 123.138C140.57 123.138 140.331 122.886 140.331 122.578C140.331 122.271 141.94 122.019 143.907 122.019H147.482L148.384 119.495C148.88 118.107 149.507 116.859 149.776 116.721C150.045 116.583 150.71 117.656 151.253 119.105ZM127.557 119.105L128.544 121.739L132.068 121.908C134.006 122.002 135.585 122.253 135.577 122.468C135.569 122.682 134.371 123.555 132.914 124.406L130.265 125.954L131.312 128.492C131.888 129.889 132.181 131.178 131.963 131.359C131.745 131.539 130.512 131.021 129.224 130.209C126.352 128.4 126.247 128.398 123.405 130.131C122.143 130.9 120.88 131.53 120.598 131.53C120.316 131.53 120.528 130.334 121.069 128.872L122.052 126.215L119.174 124.134L116.296 122.053L120.101 122.036L123.906 122.019L124.764 119.487C125.236 118.094 125.835 116.846 126.096 116.713C126.357 116.58 127.014 117.656 127.557 119.105ZM104.108 119.217L105.234 122.019H108.565C110.397 122.019 111.896 122.237 111.896 122.504C111.896 122.771 110.693 123.646 109.223 124.45L106.552 125.912L107.607 128.471C108.188 129.879 108.496 131.168 108.293 131.337C108.089 131.505 106.884 130.988 105.614 130.188C102.774 128.398 102.555 128.396 99.7092 130.131C98.4472 130.9 97.1994 131.53 96.9361 131.53C96.672 131.53 96.8948 130.334 97.4296 128.872L98.4025 126.215L95.5014 124.134L92.6004 122.053L96.4053 122.036L100.21 122.019L101.068 119.487C101.54 118.094 102.163 116.834 102.454 116.685C102.744 116.537 103.489 117.676 104.108 119.217ZM175.025 119.362C175.97 121.713 176.02 121.741 179.483 121.908C181.408 122.002 182.984 122.316 182.984 122.608C182.984 122.9 182.755 123.145 182.476 123.153C182.196 123.161 180.965 123.856 179.74 124.696L177.512 126.224L178.563 128.684C179.14 130.038 179.481 131.254 179.319 131.387C179.158 131.52 177.866 130.978 176.447 130.181C175.028 129.384 173.613 128.732 173.303 128.732C172.992 128.732 171.683 129.397 170.395 130.209C169.107 131.021 167.907 131.566 167.731 131.42C167.554 131.274 167.838 129.979 168.361 128.542L169.312 125.93L166.684 124.394C165.239 123.549 164.049 122.682 164.041 122.468C164.034 122.253 165.602 122.002 167.528 121.908C170.99 121.741 171.04 121.713 171.985 119.362C172.511 118.054 173.195 116.984 173.505 116.984C173.815 116.984 174.5 118.054 175.025 119.362ZM278.444 129.572V141.041H250.686H222.928V129.572V118.103H250.686H278.444V129.572ZM277.767 129.352C277.767 139.26 277.681 140.014 276.595 139.669C275.95 139.465 271.673 137.546 267.091 135.404L258.758 131.511L254.031 132.697L249.305 133.883L246.78 132.319C245.391 131.459 242.07 129.293 239.399 127.506C236.729 125.719 234.263 124.257 233.919 124.257C233.575 124.257 231.495 125.214 229.296 126.383C227.097 127.553 224.917 128.701 224.451 128.934C223.797 129.262 223.605 128.142 223.605 124.01V118.662H250.686H277.767V129.352ZM198.31 120.48C198.875 122.116 199.241 122.327 201.962 122.578L204.987 122.858L202.721 124.194C200.392 125.566 200.228 126.419 201.686 129.572C202.128 130.528 201.836 130.461 199.672 129.105L197.141 127.518L194.7 129.057L192.259 130.595L192.693 129.244C192.932 128.501 193.31 127.354 193.532 126.695C193.844 125.768 193.463 125.267 191.844 124.477C189.044 123.109 189.209 122.676 192.609 122.47C195.183 122.315 195.527 122.119 196.093 120.48C196.437 119.48 196.936 118.662 197.201 118.662C197.466 118.662 197.965 119.48 198.31 120.48ZM174.614 120.48C175.179 122.116 175.545 122.327 178.266 122.578L181.291 122.858L179.025 124.194C176.696 125.566 176.532 126.419 177.99 129.572C178.432 130.528 178.14 130.461 175.976 129.105L173.445 127.518L171.106 128.993C168.569 130.592 168.363 130.414 169.536 127.632C170.266 125.903 170.185 125.726 168.021 124.332L165.734 122.858L168.752 122.578C171.465 122.327 171.832 122.115 172.396 120.48C172.741 119.48 173.24 118.662 173.505 118.662C173.77 118.662 174.269 119.48 174.614 120.48ZM150.917 120.48C151.483 122.119 151.827 122.315 154.401 122.47C157.8 122.676 157.967 123.109 155.17 124.474C153.564 125.259 153.173 125.77 153.472 126.693C153.686 127.353 154.065 128.504 154.314 129.25L154.768 130.606L152.319 129.063L149.869 127.518L147.339 129.105C145.174 130.461 144.882 130.528 145.325 129.572C146.782 126.419 146.618 125.566 144.289 124.194L142.023 122.858L145.048 122.578C147.769 122.327 148.136 122.116 148.7 120.48C149.046 119.48 149.544 118.662 149.809 118.662C150.074 118.662 150.573 119.48 150.917 120.48ZM127.222 120.48C127.788 122.119 128.131 122.315 130.705 122.47C134.104 122.676 134.271 123.109 131.474 124.474C129.868 125.259 129.477 125.77 129.776 126.693C129.99 127.353 130.369 128.504 130.618 129.25L131.072 130.606L128.623 129.063L126.173 127.518L123.643 129.105C121.654 130.351 121.213 130.47 121.584 129.66C123.084 126.389 122.98 125.797 120.627 124.185L118.327 122.609L121.513 122.594C124.612 122.579 124.71 122.526 125.142 120.62C125.698 118.174 126.41 118.126 127.222 120.48ZM103.769 120.615C104.488 122.416 104.773 122.578 107.209 122.578C110.404 122.578 110.567 123.113 107.786 124.47C106.326 125.183 105.837 125.76 106.141 126.41C106.379 126.918 106.754 128.07 106.974 128.969L107.372 130.604L105.025 129.124L102.677 127.644L100.067 129.11C98.0139 130.263 97.5535 130.368 97.909 129.602C99.3876 126.417 99.2752 125.791 96.9313 124.185L94.6315 122.609L97.7939 122.594C100.748 122.58 100.985 122.469 101.4 120.906C102.046 118.479 102.875 118.376 103.769 120.615ZM270.689 122.833C271.603 123.588 272.351 124.687 272.351 125.275C272.351 127.091 269.754 129.292 267.612 129.292C265.47 129.292 262.873 127.091 262.873 125.275C262.873 123.849 265.841 121.459 267.612 121.459C268.39 121.459 269.775 122.078 270.689 122.833ZM275.567 145.93C273.426 146.04 269.923 146.04 267.781 145.93C265.64 145.819 267.392 145.728 271.674 145.728C275.956 145.728 277.708 145.819 275.567 145.93ZM251.152 145.935C245.264 146.028 235.819 146.028 230.164 145.935C224.508 145.841 229.326 145.765 240.869 145.765C252.413 145.765 257.039 145.842 251.152 145.935ZM89.8923 148.009C95.9192 149.12 100.272 150.634 105.533 153.446C114.024 157.985 117.904 161.557 116.973 163.978C116.749 164.562 115.096 165.62 113.301 166.328C110.3 167.511 110.002 167.81 109.618 170.032C109.389 171.362 108.093 174.086 106.739 176.086C104.573 179.287 104.329 180.031 104.702 182.283C105.221 185.41 104.419 186.357 101.253 186.357C99.4736 186.357 98.1534 186.901 95.8251 188.595C92.4325 191.062 91.1949 191.273 88.0352 189.923C85.9439 189.029 85.8795 189.041 84.3914 190.583C83.0374 191.987 82.9798 192.274 83.8458 193.295C85.495 195.24 85.0712 197.004 82.7835 197.717C81.3665 198.159 80.7524 198.726 80.7524 199.594C80.7524 200.277 80.4877 200.972 80.1641 201.137C79.8405 201.303 80.5764 203.646 81.7998 206.345C84.7563 212.868 86.3196 219.218 85.5289 221.495C84.9771 223.085 85.1348 223.385 87.2688 224.801L89.6161 226.358L110.742 225.719C122.361 225.367 132.63 225.213 133.561 225.377C135.502 225.719 147.069 232.105 150.244 234.587C151.413 235.502 152.93 237.109 153.613 238.158C154.825 240.016 154.965 240.065 159.103 240.065C162.898 240.065 163.35 240.184 163.35 241.184C163.35 242.262 163.801 242.303 175.802 242.303C186.247 242.303 188.318 242.167 188.645 241.464C188.968 240.766 190.867 240.624 199.909 240.624C208.417 240.624 210.861 240.46 211.135 239.868C211.328 239.453 206.673 231.899 200.789 223.082C192.927 211.301 189.963 207.312 189.604 208.034C189.335 208.573 188.019 213.798 186.679 219.645C182.791 236.603 183.148 235.59 181.065 235.581C180.072 235.576 178.915 235.387 178.494 235.161C177.948 234.868 179.806 225.895 184.948 203.98L192.167 173.209L194.479 173.367C195.751 173.453 196.926 173.635 197.09 173.771C197.255 173.907 195.832 180.679 193.93 188.82L190.47 203.622L193.593 208.277C209.92 232.608 213.576 238.258 213.619 239.226C213.646 239.841 213.434 240.785 213.148 241.324C212.66 242.242 213.739 242.303 230.641 242.303H248.655V246.219V250.135H244.336H240.017L239.592 289.157C238.849 357.548 238.828 363.982 239.346 364.125C239.626 364.202 253.03 364.265 269.135 364.265L298.417 364.264L298.302 350.278C298.193 336.83 298.238 336.292 299.487 336.292C300.635 336.292 300.786 335.868 300.786 332.655C300.786 330.51 300.497 329.019 300.082 329.019C299.694 329.019 298.501 329.554 297.429 330.209C294.867 331.774 286.897 332.33 284.894 331.082C283.731 330.357 283.67 330.079 284.421 328.919C285.382 327.435 290.728 324.299 293.339 323.688C294.27 323.47 295.488 322.964 296.047 322.563C296.606 322.162 297.924 321.655 298.976 321.438C300.636 321.096 300.831 320.85 300.445 319.58C300.201 318.775 299.058 317.466 297.906 316.671C295.603 315.082 295.679 313.475 298.081 312.956C299.172 312.72 299.432 312.191 299.432 310.212C299.432 307.546 299.336 307.464 297.282 308.371C295.17 309.306 290.57 307.598 287.299 304.666C284.16 301.851 283.858 300.672 286.095 299.97C288.133 299.329 294.396 300.262 297.232 301.627C300.098 303.007 300.029 302.416 297.063 300.171C294.356 298.123 294.045 296.449 296.145 295.234C297.444 294.482 297.509 294.22 296.767 292.74C296.311 291.831 295.201 290.514 294.3 289.814C293.399 289.115 292.662 288.291 292.662 287.983C292.662 286.913 295.883 289.933 297.079 292.125C297.742 293.339 298.694 294.332 299.197 294.332C300.45 294.332 300.37 293.758 298.323 288.12L296.535 283.2L292.351 283.523C288.361 283.831 288.053 283.763 285.709 282.062C281.675 279.136 280.224 275.217 280.177 267.12C280.142 261.198 280.302 260.177 281.427 259.147C284.074 256.725 288.694 257.941 293.337 262.284C301.179 269.621 303.294 277.193 298.643 281.284L297.145 282.601L299.142 288.275C300.616 292.459 301.448 293.985 302.317 294.091C302.964 294.169 303.754 293.851 304.07 293.382C304.58 292.631 304.695 292.636 305.065 293.432C305.731 294.867 307.491 294.477 307.947 292.794C308.176 291.947 309.248 288.386 310.33 284.879C311.411 281.373 312.296 278.414 312.296 278.306C312.296 278.197 311.754 278.108 311.093 278.108C309.125 278.108 306.821 276.434 305.407 273.978L304.081 271.674L304.383 281.185C304.549 286.416 304.448 289.941 304.158 289.018C303.867 288.094 303.45 280.29 303.23 271.674C303.01 263.059 302.639 254.969 302.406 253.698C301.996 251.455 301.935 251.408 300.326 252.098C298.249 252.988 296.593 252.646 294.633 250.922C292.503 249.048 290.043 249.227 285.954 251.551C283.11 253.167 282.407 253.369 282.079 252.664C281.476 251.364 284.787 248.168 288.118 246.835C291.361 245.539 296.358 245.291 299.025 246.295C300.002 246.663 301.169 247.873 301.798 249.171C302.699 251.033 303.85 259.622 304.212 267.199C304.283 268.687 304.388 268.592 305.138 266.359C306.782 261.465 311.727 255.172 315.042 253.755C317.66 252.636 320.655 252.72 322.002 253.951C324.587 256.31 327.608 266.576 326.833 270.365C326.043 274.232 321.484 277.442 315.512 278.337C314.115 278.547 312.973 278.829 312.973 278.964C312.973 279.099 312.231 281.324 311.325 283.907C308.967 290.633 308.221 294.332 309.222 294.332C309.665 294.332 310.735 292.464 311.602 290.182C313.114 286.196 316.769 280.499 317.451 281.063C317.631 281.212 317.015 282.263 316.082 283.399C314.329 285.535 312.109 290.002 311.346 292.934C310.943 294.482 311.096 294.66 313.327 295.237C315.189 295.717 316.322 295.69 318.252 295.121C319.631 294.715 321.52 294.363 322.451 294.339C323.382 294.316 324.735 293.927 325.458 293.475C329.633 290.866 342.762 295.214 342.762 299.206C342.762 300.117 342.199 300.691 340.911 301.096C338.199 301.948 334.178 300.834 328.378 297.625C322.941 294.616 323.136 294.663 319.574 295.481C317.344 295.992 317.035 296.273 317.035 297.781C317.035 299.053 316.354 300.028 314.417 301.532C310.266 304.752 309.597 305.13 309.534 304.285C309.505 303.888 309.154 304.306 308.755 305.214C308.345 306.15 308.294 306.936 308.64 307.031C308.975 307.123 309.145 308.584 309.017 310.276C308.739 313.972 309.762 314.328 311.047 310.981C311.632 309.457 312.417 308.536 313.243 308.406C313.95 308.295 315.749 307.475 317.238 306.583C320.706 304.507 324.275 304.392 326.43 306.288C330.913 310.231 328.307 315.592 321.907 315.592C319.518 315.592 316.665 313.539 315.299 310.837C313.312 306.907 311.722 308.841 311.227 315.794L310.842 321.19L312.631 320.628C315.563 319.707 320.845 321.309 326.06 324.7C332.017 328.575 330.439 331.257 322.203 331.257C319.541 331.257 316.359 331.018 315.13 330.727C311.699 329.914 310.942 330.425 310.942 333.554C310.942 336.097 311.061 336.292 312.623 336.292H314.304L314.484 350.286L314.665 364.281L364.596 364.28C396.018 364.279 414.527 364.478 414.527 364.816C414.527 365.157 339.289 365.345 207.695 365.331C82.881 365.318 0.863251 365.106 0.863251 364.796C0.863251 364.503 8.24893 364.22 18.1186 364.135L35.3734 363.985L34.3375 362.336C33.7674 361.428 33.391 360.219 33.5 359.649C33.6361 358.941 39.1789 356.057 50.9632 350.564L68.2274 342.518L68.4048 322.061L68.5829 301.605H63.8349H59.0876V298.528V295.451H56.7579C55.4763 295.451 54.2204 295.729 53.9665 296.068C52.9469 297.432 46.5267 299.357 42.9811 299.362C32.9679 299.378 30.19 294.647 29.5116 276.43C29.1745 267.373 28.9714 265.957 27.8841 265.098C26.134 263.717 25.4068 260.9 24.8875 253.492C24.5673 248.927 23.7495 244.864 22.0718 239.505C20.2587 233.713 19.7895 231.256 20.0597 228.966C20.8105 222.597 25.4874 218.156 30.0573 219.472C33.917 220.584 36.6245 224.846 38.5195 232.792C39.7151 237.807 40.8633 258.361 40.103 261.146C39.4626 263.494 37.2636 265.571 34.9008 266.061L33.1845 266.417L33.5555 276.878C33.9394 287.703 34.8879 292.327 37.1485 294.391C38.7118 295.819 43.1632 296.796 44.7095 296.052C45.7718 295.54 45.7488 295.484 44.4672 295.468C41.7381 295.436 40.8078 293.771 40.8078 288.92C40.8078 284.004 41.7259 282.584 44.9052 282.584C46.5043 282.584 46.4976 282.563 44.4374 281.007C40.1017 277.736 40.0211 275.638 43.4726 255.908C44.8097 248.262 45.1977 244.604 44.7231 244.124C43.8748 243.267 44.3297 239.362 46.9499 225.011C48.0399 219.04 48.9322 213.816 48.9322 213.403C48.9322 212.884 47.9789 212.651 45.8517 212.651C42.3813 212.651 39.8729 211.75 37.4965 209.647C35.9827 208.308 35.9075 207.942 36.3401 204L36.8019 199.784L33.6259 198.246C24.6526 193.898 21.8511 191.119 21.8511 186.563C21.8511 182.204 23.8239 180.6 31.6084 178.626C39.0205 176.746 40.646 175.401 39.5337 172.071C38.6082 169.302 39.6732 165.648 41.9114 163.91C43.7888 162.453 47.5943 162.256 57.7639 163.091C62.5803 163.487 63.9066 163.413 65.6838 162.654C68.2152 161.572 70.6058 159.065 72.4487 155.558C73.8291 152.932 77.4012 149.19 79.3219 148.357C81.4863 147.42 85.908 147.273 89.8923 148.009ZM276.582 150.401C275 150.519 272.41 150.519 270.828 150.401C269.246 150.284 270.54 150.187 273.705 150.187C276.87 150.187 278.165 150.284 276.582 150.401ZM258.679 150.409C254.696 150.508 247.994 150.508 243.784 150.41C239.574 150.311 242.833 150.231 251.025 150.23C259.217 150.23 262.661 150.31 258.679 150.409ZM229.845 150.405C227.878 150.518 224.831 150.517 223.074 150.403C221.318 150.287 222.928 150.195 226.652 150.196C230.375 150.198 231.812 150.292 229.845 150.405ZM273.197 154.884C269.753 154.986 264.117 154.986 260.672 154.884C257.228 154.783 260.046 154.7 266.935 154.7C273.824 154.7 276.642 154.783 273.197 154.884ZM244.047 154.886C239.464 154.983 232.152 154.982 227.798 154.885C223.444 154.788 227.193 154.709 236.13 154.709C245.067 154.709 248.629 154.789 244.047 154.886ZM277.937 159.338C277.098 159.471 275.728 159.471 274.89 159.338C274.052 159.205 274.738 159.095 276.413 159.095C278.089 159.095 278.775 159.205 277.937 159.338ZM262.324 159.362C256.995 159.456 248.465 159.456 243.367 159.361C238.27 159.267 242.63 159.189 253.056 159.189C263.482 159.189 267.652 159.267 262.324 159.362ZM228.832 159.355C227.052 159.471 224.31 159.469 222.739 159.352C221.167 159.235 222.623 159.14 225.975 159.142C229.326 159.144 230.612 159.24 228.832 159.355ZM108.922 170.159C108.661 171.507 107.475 173.878 106.286 175.427C104.431 177.846 104.125 178.759 104.118 181.881L104.11 185.518L101.7 185.56C99.9421 185.591 98.3233 186.234 95.7154 187.938C93.7493 189.222 91.5916 190.273 90.9207 190.273C90.2504 190.273 88.2214 189.432 86.4117 188.404C83.6102 186.813 83.0909 186.229 82.9108 184.471C82.7943 183.336 83.1857 181.025 83.7794 179.336C84.6338 176.908 84.7076 175.797 84.1301 174.026C83.317 171.529 84.17 169.328 86.3772 168.226C87.3859 167.722 87.843 167.886 88.9729 169.153C89.9708 170.274 90.9268 170.69 92.4873 170.685C94.7696 170.677 105.947 168.854 108.107 168.136C109.296 167.742 109.359 167.9 108.922 170.159ZM405.438 171.843C407.328 172.444 410.15 173.838 411.71 174.94C414.89 177.19 418.589 181.349 418.589 182.676C418.589 183.209 420.325 184.199 423.055 185.222C438.731 191.095 451.016 203.564 455.143 217.788C456.993 224.166 456.983 233.61 455.121 240.065C452.462 249.275 444.692 259.865 436.458 265.5C414.652 280.423 383.907 280.726 361.868 266.235C346.991 256.453 338.371 239.246 340.701 223.98C341.111 221.288 341.515 218.582 341.597 217.966C341.744 216.86 341.293 216.846 302.761 216.703L263.775 216.559L262.139 215.119L260.503 213.68V198.353V183.025L262.38 181.474L264.257 179.923L315.696 179.773C344.25 179.69 367.135 179.837 367.135 180.106C367.135 180.371 365.916 182.147 364.427 184.051C362.591 186.398 361.719 188.14 361.719 189.457V191.4L365.67 189.172C367.842 187.946 371.651 186.158 374.133 185.199C378.296 183.589 378.644 183.318 378.647 181.689C378.65 179.173 380.846 176.527 384.534 174.595C391.966 170.7 398.951 169.781 405.438 171.843ZM403.356 172.001C407.676 173.183 409.934 174.351 412.903 176.941C418.461 181.789 418.653 182.671 417.206 196.707C416.008 208.327 414.712 212.059 409.823 217.966L408.434 219.645L408.861 216.208C409.48 211.235 408.794 208.918 406.406 207.897C405.324 207.435 403.814 207.057 403.051 207.057C401.351 207.057 401.282 206.571 402.847 205.626C403.498 205.232 403.819 204.735 403.56 204.521C403.3 204.307 402.27 204.664 401.269 205.315C398.963 206.813 396.252 206.822 393.969 205.338C392.988 204.7 392.185 204.433 392.185 204.745C392.185 205.057 392.49 205.468 392.862 205.658C394.189 206.336 393.501 206.919 390.982 207.251C389.576 207.437 387.884 207.917 387.222 208.317C385.552 209.326 384.77 212.696 385.364 216.318C385.64 217.994 385.769 219.365 385.651 219.365C384.992 219.365 381.848 213.237 380.64 209.596C379.364 205.754 379.252 204.122 379.446 192.255L379.66 179.155L381.691 177.403C382.808 176.44 385.869 174.774 388.492 173.702C393.982 171.46 399.194 170.863 403.356 172.001ZM104.99 173.601C105.437 173.97 105.793 174.662 105.782 175.14C105.765 175.834 105.619 175.805 105.047 174.992C104.654 174.434 103.673 173.758 102.867 173.489C101.446 173.015 101.444 173 102.79 172.965C103.553 172.946 104.543 173.232 104.99 173.601ZM195.001 173.919C195.839 174.033 196.524 174.275 196.524 174.455C196.524 174.832 183.17 231.855 182.633 233.771C182.155 235.479 178.921 235.58 178.921 233.887C178.921 232.132 192.544 174.37 193.041 174.02C193.281 173.851 194.163 173.805 195.001 173.919ZM102.417 177.29C102.417 177.586 101.925 178.165 101.324 178.578C100.377 179.227 100.264 179.186 100.478 178.273C100.732 177.186 102.417 176.332 102.417 177.29ZM94.8116 182.657C95.255 183.461 95.9294 184.119 96.3098 184.119C96.6896 184.119 97.0011 184.428 97.0011 184.805C97.0011 185.183 96.2029 184.833 95.2279 184.027C94.2523 183.221 93.5787 182.254 93.7297 181.878C93.8813 181.502 94.3681 181.853 94.8116 182.657ZM349.45 183.365C353.984 185.274 355.862 189.769 353.77 193.704L352.47 196.147L351.34 194.357C350.718 193.372 349.676 192.318 349.024 192.014C348.075 191.572 348.008 191.321 348.686 190.755C349.849 189.785 349.747 187.419 348.478 185.922C347.1 184.296 343.305 184.23 341.408 185.797C339.946 187.005 339.602 189.676 340.783 190.652C341.304 191.083 341.043 191.643 339.868 192.614C338.963 193.361 338.084 194.318 337.914 194.74C337.42 195.963 336.101 194.886 335.353 192.648C334.403 189.802 335.441 187.018 338.31 184.72C341.211 182.396 345.817 181.836 349.45 183.365ZM425.06 186.804C440.693 193.664 451.226 205.165 454.865 219.351C456.464 225.581 455.821 239.033 453.797 241.74C453.341 242.35 452.542 242.007 450.12 240.162C446.232 237.2 439.104 233.375 430.682 229.729C424.778 227.173 423.723 226.462 419.616 222.258C417.119 219.702 414.648 217.475 414.125 217.309C412.744 216.871 412.949 215.398 414.858 212.007C415.786 210.362 416.548 208.636 416.551 208.172C416.555 207.709 417.504 206.984 418.661 206.561C421.128 205.658 422.621 203.114 423.109 198.98C423.508 195.606 422.291 193.715 420.21 194.476C419.008 194.916 419.022 194.959 420.419 195.162C422.464 195.46 422.887 196.989 421.952 200.709C421.224 203.61 418.43 207.112 417.475 206.322C417.279 206.161 417.466 203.805 417.892 201.088C418.316 198.371 418.632 193.567 418.594 190.413C418.54 186.048 418.734 184.682 419.403 184.693C419.886 184.701 422.432 185.651 425.06 186.804ZM378.39 186.427C378.158 187.388 377.967 189.537 377.967 191.202C377.967 194.134 377.922 194.208 376.497 193.579C371.898 191.544 372.473 202.169 377.11 204.884C377.94 205.371 379.099 207.591 380.23 210.858C382.692 217.971 382.62 218.893 379.479 220.611C377.193 221.861 375.261 224.152 374.343 226.702C374.164 227.198 371.327 228.801 368.038 230.263C364.748 231.726 360.011 234.039 357.511 235.404C353.439 237.628 352.694 238.335 350.355 242.195C348.92 244.565 347.538 247.132 347.285 247.9C346.663 249.784 345.938 248.837 343.827 243.389C340.876 235.772 340.332 223.247 342.726 218.045C343.404 216.571 343.423 216.568 350.9 216.568C357.955 216.568 358.493 216.487 360.057 215.194C361.706 213.831 361.719 213.743 361.719 202.998V192.176L366.966 189.325C371.917 186.634 376.618 184.678 378.135 184.678C378.534 184.678 378.64 185.398 378.39 186.427ZM347.735 186.261C348.351 186.824 348.855 187.831 348.855 188.499C348.855 190.021 346.584 191.951 344.793 191.951C342.956 191.951 340.731 190.007 340.731 188.402C340.731 185.622 345.454 184.178 347.735 186.261ZM327.19 185.797C327.19 186.158 320.195 186.357 307.556 186.357C294.918 186.357 287.923 186.158 287.923 185.797C287.923 185.437 294.918 185.238 307.556 185.238C320.195 185.238 327.19 185.437 327.19 185.797ZM326.852 188.595C327.126 188.961 322.119 189.154 312.336 189.154C302.831 189.154 297.401 188.95 297.401 188.595C297.401 188.239 302.691 188.035 311.917 188.035C320.864 188.035 326.594 188.25 326.852 188.595ZM408.796 189.673C410.868 190.387 412.173 191.883 411.331 192.578C410.295 193.434 401.325 191.363 401.325 190.267C401.325 189.301 406.516 188.888 408.796 189.673ZM394.216 190.205C394.216 191.033 393.274 191.452 389.778 192.177C385.171 193.134 384.061 193.023 384.061 191.61C384.061 190.492 388.106 189.154 391.486 189.154C393.705 189.154 394.216 189.35 394.216 190.205ZM349.871 193.733C352.071 195.893 352.005 196.769 349.566 197.811C346.915 198.944 342.425 198.894 339.989 197.705C337.616 196.547 337.539 195.835 339.576 193.878C340.83 192.673 341.809 192.355 344.655 192.229C347.844 192.086 348.341 192.23 349.871 193.733ZM83.0834 193.195C84.9094 195.348 84.0049 197.546 81.294 197.546C80.4457 197.546 80.0754 197.971 80.0754 198.945C80.0754 199.714 79.7355 200.343 79.3198 200.343C78.5548 200.343 73.3051 195.885 73.3051 195.235C73.3051 195.041 74.6334 194.605 76.257 194.267C77.8805 193.93 79.594 193.27 80.0639 192.802C81.2216 191.649 81.8418 191.73 83.0834 193.195ZM377.033 194.617C377.451 194.843 377.995 197.294 378.244 200.064L378.696 205.099L377.009 203.559C372.963 199.867 372.983 192.422 377.033 194.617ZM327.19 195.308C327.19 195.672 317.035 195.868 298.078 195.868C279.121 195.868 268.966 195.672 268.966 195.308C268.966 194.944 279.121 194.749 298.078 194.749C317.035 194.749 327.19 194.944 327.19 195.308ZM405.48 196.147C406.023 197.314 405.222 198.805 404.201 198.528C402.872 198.168 402.7 195.308 404.009 195.308C404.604 195.308 405.266 195.686 405.48 196.147ZM389.702 195.681C390.413 196.269 390.23 198.001 389.412 198.418C388.331 198.97 386.643 197.347 387.155 196.247C387.598 195.291 388.885 195.006 389.702 195.681ZM75.6321 198.474C78.502 201.139 79.3868 202.578 81.8918 208.653C84.0881 213.98 84.8091 216.583 84.8119 219.187C84.8145 222.386 84.6636 222.735 82.8011 223.83C80.9569 224.915 80.8215 225.218 81.1877 227.428C81.5648 229.703 81.4823 229.863 79.7362 230.225C78.718 230.435 77.741 230.49 77.565 230.345C77.3896 230.199 76.221 224.082 74.9685 216.751C73.7167 209.419 72.3675 202.495 71.9707 201.364C71.0114 198.627 67.7942 196.427 64.7502 196.427C63.3508 196.427 62.5627 196.2 62.8112 195.868C63.0414 195.56 65.2682 195.322 67.7596 195.339L72.2896 195.37L75.6321 198.474ZM68.4265 198.374C69.5233 199.137 70.7439 200.459 71.1386 201.311C71.5327 202.163 72.8 208.525 73.9537 215.449C75.1074 222.372 76.2197 228.729 76.4248 229.575L76.7979 231.113L82.5777 230.746C88.0528 230.399 88.3372 230.435 87.9648 231.445C87.7488 232.032 87.2397 234.267 86.8335 236.412C86.4273 238.557 86.0353 240.355 85.9622 240.407C85.4483 240.777 69.6526 243.981 68.3445 243.981C67.44 243.981 66.3602 243.642 65.9438 243.227C64.8911 242.179 62.2622 232.268 59.1397 217.577L56.4959 205.141L58.3983 201.674C61.1017 196.748 64.4855 195.634 68.4265 198.374ZM406.064 201.725C407.181 202.481 407.731 203.109 407.287 203.12C406.842 203.132 405.623 202.519 404.579 201.76C402.105 199.961 403.415 199.93 406.064 201.725ZM327.19 200.903C327.19 201.267 317.035 201.462 298.078 201.462C279.121 201.462 268.966 201.267 268.966 200.903C268.966 200.539 279.121 200.343 298.078 200.343C317.035 200.343 327.19 200.539 327.19 200.903ZM390.831 201.358C390.831 201.925 387.418 203.304 386.957 202.923C386.784 202.78 387.585 202.261 388.737 201.769C389.888 201.276 390.831 201.092 390.831 201.358ZM293.708 203.955C294.622 204.71 295.37 205.843 295.37 206.472C295.37 208.112 292.984 209.854 290.736 209.854C286.676 209.854 285.114 205.846 288.353 203.741C290.664 202.238 291.681 202.279 293.708 203.955ZM281.359 203.203C283.993 204.469 284.107 208.02 281.559 209.426C278.995 210.84 275.05 209.033 275.069 206.453C275.082 204.785 275.644 204.055 277.553 203.224C279.34 202.447 279.782 202.445 281.359 203.203ZM327.19 206.497C327.19 206.853 321.887 207.057 312.634 207.057C303.381 207.057 298.078 206.853 298.078 206.497C298.078 206.142 303.381 205.938 312.634 205.938C321.887 205.938 327.19 206.142 327.19 206.497ZM294.016 207.268C294.016 207.384 293.482 207.825 292.831 208.247C291.757 208.943 291.734 208.923 292.575 208.036C293.46 207.104 294.016 206.808 294.016 207.268ZM277.624 207.952C278.105 208.383 278.199 208.735 277.834 208.735C277.131 208.735 276.113 207.671 276.515 207.356C276.645 207.253 277.144 207.522 277.624 207.952ZM57.3632 213.071C59.2968 222.905 63.8545 241.357 64.7224 242.862C65.8524 244.821 69.0981 244.92 76.5921 243.224C83.0442 241.762 83.6169 241.88 82.8187 244.505C82.2128 246.498 79.9941 246.839 65.4699 247.177C53.4425 247.458 52.341 247.399 49.3945 246.322C44.6005 244.57 44.4455 243.934 46.2146 233.256C49.2599 214.871 49.7365 213.183 52.5346 210.889C53.9049 209.766 55.0254 208.444 55.0254 207.952C55.0254 207.46 55.2854 207.057 55.6036 207.057C55.9211 207.057 56.7132 209.763 57.3632 213.071ZM402.053 211.823C399.29 213.55 394.586 213.565 391.846 211.854C390.607 211.08 391.039 211.009 396.924 211.009C402.699 211.009 403.223 211.092 402.053 211.823ZM403.694 212.736C403.694 213.059 402.658 214.179 401.392 215.225C399.734 216.596 398.485 217.127 396.924 217.127C395.363 217.127 394.114 216.596 392.456 215.225C389.559 212.832 389.416 211.748 392.151 212.917C394.665 213.991 398.31 214.008 401.346 212.96C402.813 212.453 403.694 212.369 403.694 212.736ZM412.584 219.232C412.813 221.931 412.591 222.477 409.928 225.772C408.329 227.749 405.361 230.621 403.332 232.153C397.526 236.538 393.479 236.643 388.888 232.527C384.475 228.57 382.607 224.968 382.845 220.871L383.045 217.407L384.167 219.097C386.784 223.039 392.278 226.087 396.728 226.066C401.602 226.043 407.178 222.821 411.23 217.686C412.333 216.289 412.334 216.29 412.584 219.232ZM414.29 218.038C414.718 218.183 416.797 220.167 418.911 222.448L422.753 226.593L420.534 229.273C417.563 232.861 412.245 237.473 408.369 239.824C406.629 240.879 405.066 241.743 404.896 241.743C404.726 241.743 404.213 240.363 403.756 238.676C403.299 236.988 402.589 235.437 402.179 235.227C401.678 234.972 401.599 235.198 401.937 235.917C402.214 236.506 402.765 238.31 403.161 239.925C403.558 241.54 404.136 242.862 404.446 242.862C404.757 242.862 407.381 241.283 410.277 239.353C414.803 236.337 420.34 231.19 422.518 227.974C423.077 227.148 424.054 227.447 430.763 230.499C438.263 233.91 447.948 239.037 448.639 239.961C448.833 240.221 447.501 241.374 445.677 242.523C441.724 245.014 435.488 251.574 433.448 255.387C432.643 256.89 431.844 259.659 431.672 261.541C431.501 263.422 431.287 265.716 431.196 266.639C431.047 268.159 430.427 268.568 424.641 270.973C415.168 274.909 409.366 276.021 398.278 276.027C390.286 276.032 388.377 275.843 383.078 274.523C375.831 272.717 368.178 269.51 363.04 266.125C359.413 263.736 359.241 263.5 358.071 259.271C357.403 256.862 355.957 252.522 354.856 249.627C353.475 245.996 352.916 243.487 353.055 241.536C353.251 238.773 353.35 238.653 357.318 236.356C361.592 233.882 372.766 228.703 373.659 228.782C373.947 228.808 374.543 230.289 374.984 232.074C375.424 233.859 376.669 236.941 377.749 238.925L379.713 242.53L381.804 239.48C387.228 231.564 389.156 232.8 391.171 245.485C391.685 248.725 392.225 251.473 392.369 251.593C392.513 251.712 393.636 249.608 394.865 246.916C398.913 238.046 400.651 235.351 403.994 232.763C405.761 231.394 408.701 228.429 410.528 226.172C413.511 222.487 413.805 221.848 413.424 219.878C413.19 218.673 413.114 217.707 413.255 217.731C413.396 217.755 413.861 217.894 414.29 218.038ZM382.029 222.422C382.029 225.048 383.975 228.96 386.624 231.665L387.977 233.045L386.027 234.025C384.954 234.564 383.235 236.266 382.207 237.807C381.178 239.348 380.146 240.612 379.912 240.617C379.679 240.621 378.871 239.429 378.118 237.967C373.712 229.425 374.277 224.41 380.025 221.028L382.029 219.848V222.422ZM31.1913 220.803C35.261 223.158 37.8824 231.153 38.883 244.261C39.8024 256.304 39.4971 261.978 37.8486 263.483C35.871 265.288 32.4283 266.028 30.1704 265.134C27.2788 263.988 26.4867 261.866 25.851 253.561C25.4224 247.969 24.7223 244.3 23.2213 239.785C21.9005 235.812 21.1801 232.343 21.1896 229.995C21.2188 222.599 26.2714 217.955 31.1913 220.803ZM86.9695 225.379L89.3101 226.918L101.449 226.555C108.126 226.355 118.227 226.117 123.897 226.025L134.204 225.857L140.96 229.633C147.606 233.348 154.718 238.992 153.26 239.394C152.85 239.507 151.168 238.619 149.521 237.421C145.524 234.513 131.41 228.779 127.467 228.461C125.792 228.326 116.164 228.616 106.073 229.105C80.483 230.346 82.3224 230.438 81.9338 227.897C81.7206 226.502 81.9582 225.47 82.642 224.82C83.9879 223.538 84.2127 223.567 86.9695 225.379ZM137.961 232.456C146.725 236.009 150.938 238.447 150.146 239.508C149.431 240.464 148.027 240.12 147.28 238.806C146.886 238.113 144.966 236.82 143.011 235.931C141.057 235.042 139.675 234.605 139.94 234.96C140.206 235.314 141.565 236.087 142.961 236.675C146.112 238.004 147.814 239.505 146.168 239.505C145.564 239.505 145.07 239.258 145.07 238.955C145.07 238.319 138.332 235.375 137.828 235.792C137.643 235.946 139.044 236.623 140.942 237.298C142.84 237.972 144.393 238.766 144.393 239.061C144.393 239.357 144.012 239.468 143.547 239.308C142.596 238.983 138.954 238.112 134.957 237.256C133.491 236.941 130.716 235.655 128.789 234.396L125.287 232.109L106.912 236.097C96.8068 238.291 88.1246 240.081 87.6189 240.075C87.0068 240.068 86.824 239.643 87.0732 238.806C87.279 238.113 87.6507 236.258 87.8991 234.682C88.1476 233.106 88.5789 231.512 88.8571 231.139C89.2044 230.675 94.6626 230.217 106.215 229.682C130.341 228.564 127.815 228.344 137.961 232.456ZM72.7073 230.755C71.6085 231.849 69.1617 237.944 69.9085 237.729C70.2531 237.629 71.6505 236.289 73.014 234.75C74.3776 233.212 75.3193 232.385 75.106 232.913C74.5475 234.298 69.7426 239.505 69.0229 239.505C68.6878 239.505 68.6275 238.564 68.8875 237.407C69.5185 234.607 71.949 229.995 72.7946 229.995C73.2022 229.995 73.1677 230.296 72.7073 230.755ZM128.966 235.276C131.517 236.889 133.822 237.85 135.736 238.099C139.453 238.582 143.039 239.603 143.039 240.177C143.039 240.423 139.078 240.624 134.238 240.624C126.865 240.624 125.436 240.761 125.436 241.464C125.436 242.158 124.157 242.303 117.989 242.303H110.542V246.219V250.135H115.281H120.02V255.048V259.961L111.049 258.711C106.115 258.022 98.651 257.285 94.4616 257.072L86.8443 256.684L86.2093 254.668C84.0827 247.923 83.5587 245.715 83.6393 243.841C83.6887 242.688 83.7564 241.743 83.7896 241.743C83.8228 241.743 93.1007 239.729 104.406 237.268C115.712 234.806 124.993 232.8 125.03 232.811C125.067 232.821 126.838 233.93 128.966 235.276ZM391.781 235.422C393.027 235.962 394.787 236.178 396.584 236.01L399.42 235.746L396.486 241.682C394.872 244.947 393.548 247.933 393.545 248.317C393.542 248.702 393.234 249.016 392.862 249.016C392.49 249.016 392.179 248.072 392.173 246.918C392.167 245.765 391.595 242.554 390.903 239.785C390.21 237.016 389.682 234.709 389.729 234.659C389.777 234.61 390.7 234.953 391.781 235.422ZM162.673 241.184C162.673 241.546 156.152 241.708 144.224 241.644C127.11 241.552 126.509 241.517 135.93 241.157C151.94 240.545 162.673 240.556 162.673 241.184ZM451.612 242.055C452.44 242.534 453.117 243.266 453.117 243.682C453.117 244.099 451.614 246.917 449.776 249.944C446.22 255.805 440.521 261.874 435.179 265.49L431.918 267.697L432.293 263.252C432.771 257.587 434.116 254.775 438.809 249.63C442.118 246.003 448.299 241.184 449.642 241.184C449.899 241.184 450.785 241.576 451.612 242.055ZM351.801 242.303C351.984 242.764 352.337 244.149 352.584 245.38C352.831 246.611 353.625 249.002 354.349 250.695C355.972 254.491 357.903 261.307 357.459 261.674C357.042 262.019 353.106 258.046 349.907 254.051C347.868 251.506 347.514 250.647 347.857 249.083C348.462 246.327 351.396 241.284 351.801 242.303ZM298.684 246.826C301.043 247.606 300.078 247.972 297.36 247.328C294.455 246.64 294.016 246.641 294.016 247.338C294.016 247.646 294.798 247.897 295.753 247.897C299.061 247.897 301.972 249.793 300.664 251.095C299.513 252.242 297.093 251.93 295.37 250.415C293.088 248.408 289.623 248.526 285.93 250.736C282.468 252.808 281.805 252.588 284.257 250.181C287.733 246.767 294.057 245.296 298.684 246.826ZM49.5354 247.14C50.798 247.594 54.1493 248.034 56.9827 248.118C62.7943 248.292 76.4343 247.677 80.1783 247.073L82.6508 246.674L83.6819 249.664C84.2486 251.308 85.0515 253.723 85.4666 255.03L86.2208 257.408H89.5538C95.3769 257.408 118.767 260.102 119.71 260.882C119.853 261 120.059 265.743 120.165 271.421L120.358 281.745L112.234 282.114C86.9452 283.263 59.8302 283.775 54.8372 283.199C47.6086 282.364 44.4333 280.937 42.7313 277.758C41.4781 275.417 41.4388 274.823 42.1687 269.261C43.5701 258.579 45.8828 246.592 46.5693 246.452C46.9383 246.377 48.2727 246.687 49.5354 247.14ZM238.9 289.967C238.671 311.907 238.3 337.726 238.075 347.341L237.667 364.824H235.119H232.571L232.143 313.494C231.908 285.262 231.642 259.52 231.553 256.289L231.391 250.415L235.353 250.245L239.315 250.076L238.9 289.967ZM230.635 259.786C230.857 265.093 231.119 290.769 231.215 316.842L231.391 364.248L194.324 364.396C173.936 364.477 157.256 364.414 157.256 364.254C157.256 363.726 165.226 360.332 168.962 359.271C177.695 356.788 185.905 350.61 182.082 349.398C181.587 349.241 179.835 349.36 178.189 349.662C176.544 349.964 171.016 350.389 165.905 350.605C158.258 350.93 156.55 350.861 156.262 350.219C156.07 349.79 154.095 334.286 151.873 315.765L147.832 282.091L150.852 276.752C154.21 270.814 154.435 269.752 152.624 268.398C151.146 267.292 142.899 264.741 135.084 262.972L129.498 261.708V255.922V250.135H179.864H230.23L230.635 259.786ZM128.547 285.491C128.318 304.97 127.945 330.788 127.72 342.866L127.309 364.824H124.762H122.216L121.785 317.97C121.548 292.2 121.283 266.457 121.195 260.765L121.036 250.415L125 250.245L128.964 250.076L128.547 285.491ZM321.258 254.191C322.981 255.29 325.27 261.733 325.664 266.592C325.952 270.141 325.79 271.38 324.845 272.828C323.515 274.869 318.157 277.549 315.407 277.549C313.904 277.549 313.68 277.351 313.98 276.29C316.566 267.155 318.107 260.765 317.723 260.765C317.461 260.765 316.238 264.541 315.004 269.157C312.492 278.55 312.125 278.908 308.075 275.915C305.93 274.33 305.865 274.151 305.888 269.901C305.907 266.203 306.211 265.041 307.837 262.443C312.359 255.223 317.713 251.931 321.258 254.191ZM73.3051 257.781C70.8848 258.222 67.2423 259.064 65.2106 259.652C61.3847 260.759 59.9399 260.766 62.4287 259.666C64.4984 258.75 73.8989 256.837 75.9523 256.914C76.9164 256.95 75.7255 257.34 73.3051 257.781ZM319.066 257.902C319.066 258.209 318.761 258.617 318.389 258.807C318.017 258.997 317.712 258.901 317.712 258.593C317.712 258.285 318.017 257.878 318.389 257.688C318.761 257.498 319.066 257.594 319.066 257.902ZM83.4605 257.957C83.4605 258.27 82.7747 258.528 81.9372 258.529C78.7742 258.532 67.3446 261.443 62.1714 263.563C56.1581 266.028 54.5691 266.164 59.4613 263.795C63.3887 261.893 70.1563 259.833 76.0038 258.759C78.4295 258.313 81.0998 257.822 81.9372 257.668C82.7747 257.513 83.4605 257.643 83.4605 257.957ZM287.621 259.064C289.944 259.841 295.807 265.578 298.022 269.24C300.453 273.261 300.801 277.247 298.947 279.84C297.867 281.352 296.047 282.072 296.047 280.987C296.047 280.14 288.506 267.37 288.169 267.648C287.99 267.795 289.667 271.087 291.893 274.964C294.121 278.84 295.738 282.11 295.487 282.232C293.975 282.963 290.307 283.142 288.261 282.584C283.586 281.309 280.163 273.692 280.58 265.495C280.896 259.274 282.868 257.472 287.621 259.064ZM132.037 262.838C133.93 263.139 133.926 263.17 131.529 266.919L129.562 269.996L129.53 266.22C129.513 264.143 129.727 262.477 130.006 262.519C130.286 262.561 131.2 262.705 132.037 262.838ZM141.685 265.183C149.372 267.24 153.194 268.913 153.194 270.221C153.194 271.528 145.809 283.949 136.386 298.489L129.16 309.64L128.953 298.489C128.839 292.357 128.936 285.79 129.169 283.897L129.592 280.455L133.438 278.986C137.513 277.431 136.347 277.353 132.037 278.894L129.498 279.802V275.771C129.498 272.214 129.796 271.261 132.037 267.654C133.433 265.406 134.881 263.584 135.253 263.605C135.625 263.626 138.52 264.336 141.685 265.183ZM287.246 265.274C287.246 265.599 286.941 265.711 286.569 265.52C286.196 265.33 285.892 265.064 285.892 264.928C285.892 264.792 286.196 264.681 286.569 264.681C286.941 264.681 287.246 264.948 287.246 265.274ZM340.731 270.835C342.949 272.668 342.491 275.107 339.457 277.615C335.489 280.893 331.586 280.381 328.763 276.213C328.104 275.241 327.967 275.238 325.77 276.158C324.503 276.688 322.4 277.765 321.097 278.551L318.727 279.98L320.38 278.475C321.289 277.647 323.574 276.366 325.458 275.629C327.341 274.891 329.644 273.613 330.575 272.788C334.093 269.671 338.335 268.855 340.731 270.835ZM340.287 271.299C341.666 272.558 341.704 273.775 340.427 275.815C339.266 277.669 336.61 279.227 334.609 279.227C333.823 279.227 332.238 278.449 331.089 277.499C329.405 276.108 329.184 275.673 329.955 275.27C331.26 274.587 335.111 274.622 336.713 275.33C337.591 275.719 338.023 275.723 338.023 275.341C338.023 274.69 336.16 274.276 332.268 274.062L329.56 273.912L332.539 272.094C335.879 270.055 338.618 269.774 340.287 271.299ZM120.697 283.502C120.697 284.294 120.12 284.372 116.535 284.062C114.247 283.864 111.276 283.685 109.934 283.664C105.106 283.586 109.992 282.664 115.45 282.623C119.885 282.59 120.697 282.726 120.697 283.502ZM51.9788 283.791C53.2469 284.135 62.9331 284.226 77.7532 284.033C95.5238 283.802 101.698 283.891 102.295 284.385C102.76 284.769 103.094 286.717 103.094 289.043C103.094 295.339 105.467 294.892 72.1054 294.892H43.5924L42.539 293.648C40.9094 291.726 41.1024 285.697 42.8389 284.262C44.3325 283.028 48.3953 282.818 51.9788 283.791ZM281.591 284.233C282.391 284.514 283.246 285.012 283.493 285.342C283.739 285.671 284.913 285.958 286.101 285.98C287.289 286.002 288.871 286.238 289.615 286.504C290.493 286.818 289.829 286.875 287.727 286.666C284.87 286.38 284.145 286.542 281.634 288.026C274.533 292.219 268.309 293.709 265.967 291.775C264.592 290.639 264.625 290.3 266.274 288.568C269.061 285.64 278.215 283.049 281.591 284.233ZM147.381 284.895C147.571 285.624 149.444 300.696 151.543 318.389C153.953 338.701 155.647 350.719 156.139 350.993C156.567 351.232 159.742 351.372 163.193 351.303C168.286 351.202 169.681 351.354 170.596 352.111C171.649 352.981 171.479 353.135 168.045 354.426C164.802 355.645 151.232 358.354 150.675 357.894C150.559 357.797 149.429 354.723 148.164 351.062C146.9 347.4 142.771 336.222 138.99 326.222C135.209 316.221 132.093 307.662 132.066 307.2C132.028 306.552 145.778 284.702 146.807 283.777C146.932 283.664 147.19 284.167 147.381 284.895ZM107.495 284.03C108.24 284.126 111.514 284.366 114.773 284.563L120.697 284.922V287.087C120.697 290.177 108.954 318.514 103.088 329.578C98.6523 337.945 97.7939 339.15 93.9253 342.446C91.5774 344.446 89.5572 346.632 89.4359 347.304C89.2274 348.46 88.8558 348.357 82.6143 345.424L76.0132 342.323V321.965V301.605H80.7524H85.4916V298.528V295.451H93.511C103.665 295.451 103.771 295.38 103.771 288.554C103.771 283.345 103.619 283.53 107.495 284.03ZM280.257 284.699C281.068 284.803 282.134 285.298 282.626 285.799C283.407 286.593 283.355 286.658 282.22 286.305C280.156 285.665 273.849 287.005 271.82 288.515L269.981 289.883L273.298 288.472C276.937 286.922 281.907 286.473 280.56 287.814C278.955 289.412 271.237 292.181 268.902 291.996C264.65 291.66 265.836 288.677 271.106 286.455C274.017 285.227 278.174 284.429 280.257 284.699ZM120.843 306.78L121.076 320.907L114.095 332.512L107.114 344.117L109.199 348.256C110.346 350.533 112.336 353.618 113.621 355.112C116.38 358.318 116.457 358.67 114.402 358.67C113.304 358.67 110.218 356.477 103.908 351.211C98.9922 347.108 94.97 343.535 94.97 343.269C94.97 343.004 95.7141 342.144 96.6233 341.358C99.3341 339.014 109.27 319.595 114.888 305.661C117.773 298.507 120.24 292.654 120.372 292.654C120.503 292.654 120.715 299.011 120.843 306.78ZM335.764 294.57C341.77 296.88 343.758 299.429 340.383 300.489C338.166 301.186 332.837 299.549 328.257 296.766C325.14 294.871 325.005 294.69 326.186 293.977C328.083 292.831 331.851 293.064 335.764 294.57ZM330.575 295.131C334.082 295.935 337.733 297.408 338.387 298.283C338.634 298.613 337.308 298.244 335.439 297.461C333.571 296.679 330.791 295.874 329.262 295.672C327.734 295.47 326.32 295.085 326.12 294.819C325.648 294.188 326.821 294.27 330.575 295.131ZM312.561 295.635C316.482 296.613 316.987 297.688 314.806 300.411C313.466 302.085 312.395 302.763 310.672 303.03C306.398 303.693 297.782 300.827 295.772 298.074C294.543 296.391 297.428 294.892 301.894 294.892C305.18 294.892 305.626 295.036 306.202 296.291C306.557 297.06 307.011 297.689 307.214 297.689C307.416 297.689 307.391 297.06 307.158 296.291C306.792 295.088 306.957 294.898 308.33 294.935C309.208 294.958 311.112 295.273 312.561 295.635ZM294.285 301.313C297.193 302.169 299.047 303.43 298.664 304.291C298.524 304.607 296.367 304.16 293.677 303.256C291.071 302.381 288.329 301.668 287.584 301.673L286.23 301.681L287.584 302.161C288.329 302.425 291.147 303.329 293.847 304.169C296.547 305.01 298.755 305.86 298.755 306.058C298.755 306.941 296.952 307.759 295.005 307.759C293.718 307.759 291.935 307.152 290.487 306.221C287.718 304.441 285.12 301.626 285.624 300.95C286.162 300.232 291.351 300.448 294.285 301.313ZM301.983 302.632C302.496 302.901 303.013 304.924 303.268 307.659C303.672 311.984 303.62 312.235 302.337 312.235C301.172 312.235 300.918 311.746 300.544 308.796C299.739 302.429 299.941 301.561 301.983 302.632ZM306.548 303.852C306.782 304.165 307.257 304.276 307.603 304.099C307.95 303.922 308.234 304.071 308.234 304.43C308.234 304.788 307.777 304.937 307.218 304.76C306.371 304.491 306.202 305.136 306.202 308.649C306.202 311.314 305.954 312.734 305.525 312.515C304.666 312.076 304.628 303.284 305.485 303.284C305.836 303.284 306.314 303.539 306.548 303.852ZM325.004 305.896C326.293 306.324 327.867 309.159 327.867 311.048C327.867 314.244 322.619 316.131 319.213 314.159C317.854 313.373 315.681 310.619 315.681 309.685C315.681 309.048 319.238 310.022 321.264 311.215C322.332 311.843 323.375 312.217 323.582 312.047C324.048 311.661 319.948 309.532 317.881 309.086C315.78 308.633 315.973 307.937 318.558 306.634C320.666 305.573 323.169 305.286 325.004 305.896ZM133.06 312.545C133.976 314.99 137.538 324.543 140.978 333.774C144.418 343.005 148.337 353.453 149.688 356.992C151.038 360.53 152.235 363.677 152.348 363.985C152.481 364.348 148.226 364.486 140.242 364.38L127.93 364.214L128.375 352.071C128.618 345.393 128.825 333.383 128.835 325.382C128.85 312.017 128.955 310.725 130.124 309.468L131.397 308.1L133.06 312.545ZM304.408 314.882L305.515 316.991L305.181 315.099L304.847 313.207L307.328 313.54C310.898 314.019 311.481 314.727 309.823 316.569C307.529 319.119 301.409 318.802 298.184 315.965C296.398 314.394 297.05 313.703 300.859 313.137C303.186 312.791 303.353 312.873 304.408 314.882ZM310.265 319.442C310.265 320.365 309.96 321.276 309.588 321.466C309.194 321.668 308.911 321.11 308.911 320.134C308.911 319.21 309.215 318.3 309.588 318.109C309.982 317.908 310.265 318.466 310.265 319.442ZM302.987 318.775C304.673 319.139 304.529 321.186 302.817 321.186C301.824 321.186 301.463 320.813 301.463 319.788C301.463 319.019 301.54 318.418 301.632 318.454C301.725 318.49 302.335 318.634 302.987 318.775ZM306.202 320.035C306.202 320.668 305.898 321.186 305.525 321.186C305.153 321.186 304.848 320.824 304.848 320.38C304.848 319.937 305.153 319.419 305.525 319.228C305.898 319.038 306.202 319.401 306.202 320.035ZM307.503 320.394C307.471 321.046 307.31 321.178 307.094 320.732C306.898 320.328 306.923 319.845 307.148 319.66C307.372 319.474 307.532 319.804 307.503 320.394ZM320.158 322.326C324.039 323.914 328.544 327.221 328.544 328.484C328.544 330.23 326.093 330.853 320.312 330.577C317.392 330.437 314.817 330.17 314.591 329.983C314.257 329.707 315.082 328.48 317.43 325.761C317.516 325.661 319.487 326.359 321.81 327.311C324.133 328.264 326.169 328.93 326.336 328.792C326.651 328.532 323.936 327.238 319.574 325.569C318.177 325.035 317.035 324.321 317.035 323.983C317.035 323.644 315.969 322.999 314.665 322.549C313.362 322.099 312.296 321.608 312.296 321.459C312.296 320.725 317.702 321.322 320.158 322.326ZM310.741 322.333C316.925 323.343 317.805 324.874 314.078 328.14C312.065 329.903 311.409 330.137 308.492 330.132C302.89 330.123 294.545 326.007 295.585 323.767C296.029 322.812 300.09 321.754 303.325 321.749C304.536 321.748 305.534 321.809 305.544 321.886C305.555 321.963 306.17 323.41 306.911 325.103C308.173 327.985 308.317 326.962 307.177 323.21C306.933 322.404 306.994 321.773 307.314 321.807C307.634 321.841 309.176 322.078 310.741 322.333ZM121.374 342.56V361.135L118.583 358.924C115.246 356.279 112.152 352.378 109.622 347.627L107.764 344.135L113.961 334.06C117.369 328.518 120.431 323.984 120.765 323.984C121.113 323.984 121.374 331.947 121.374 342.56ZM294.914 325.333C295.168 325.879 294.158 326.498 291.629 327.347C289.619 328.02 287.62 328.926 287.185 329.359C286.75 329.792 288.456 329.35 290.975 328.375C294.398 327.051 295.832 326.747 296.648 327.172C299.709 328.765 297.07 330.571 290.911 331.099C283.884 331.702 283.035 329.372 289.119 326.184C292.553 324.384 294.352 324.12 294.914 325.333ZM304.171 333.215C304.171 334.907 303.867 336.292 303.494 336.292C303.122 336.292 302.814 335.851 302.81 335.313C302.806 334.775 302.614 333.39 302.383 332.236C302.041 330.527 302.168 330.138 303.067 330.138C303.954 330.138 304.171 330.743 304.171 333.215ZM310.265 333.495C310.265 335.033 309.96 336.292 309.588 336.292C309.215 336.292 308.911 335.033 308.911 333.495C308.911 331.956 309.215 330.697 309.588 330.697C309.96 330.697 310.265 331.956 310.265 333.495ZM308.132 333.652L308.03 336.572L307.58 334.054L307.131 331.536L306.785 334.054L306.439 336.572L306.321 333.974C306.236 332.114 306.491 331.285 307.218 331.054C308.048 330.791 308.215 331.266 308.132 333.652ZM103.433 351.787C112.751 359.683 112.947 359.81 115.043 359.3C116.951 358.835 117.396 358.969 119.275 360.57C120.43 361.555 121.374 362.821 121.374 363.386C121.374 364.313 120.888 364.386 116.328 364.145C113.531 363.996 110.992 364.116 110.632 364.414C109.867 365.046 108.318 364.415 108.86 363.691C109.064 363.418 109.754 363.332 110.394 363.5C111.797 363.867 110.882 363.167 99.7586 355.363C95.192 352.159 91.1245 348.937 90.7196 348.202C90.0818 347.045 90.2484 346.66 91.9688 345.311L93.9545 343.755L103.433 351.787ZM182.017 350.344C182.702 351.259 181.237 352.618 176.999 355C174.519 356.393 170.779 358.016 168.689 358.605C166.599 359.194 162.57 360.728 159.737 362.013C156.903 363.298 154.267 364.187 153.879 363.989C153.182 363.633 151.163 360.074 151.163 359.201C151.163 358.953 152.915 358.469 155.056 358.126C160.798 357.207 169.555 354.925 171.337 353.884C172.585 353.155 172.733 352.816 172.087 352.173C171.644 351.731 171.401 351.294 171.546 351.201C172.214 350.776 181.756 349.995 182.017 350.344ZM89.8923 354.84C97.3396 357.007 103.553 358.875 103.699 358.991C103.844 359.107 103.592 359.574 103.136 360.027C102.681 360.481 102.406 361.626 102.526 362.574L102.745 364.295L89.1828 364.42L75.6199 364.545L75.5691 362.586C75.5406 361.51 75.429 360.251 75.3206 359.789C74.9239 358.105 75.3504 350.839 75.844 350.869C76.1236 350.887 82.445 352.673 89.8923 354.84ZM69.373 354.614C69.4447 356.691 69.4285 359.02 69.3371 359.789C69.2457 360.558 69.1604 361.943 69.1475 362.866L69.1238 364.545L55.1412 364.416L41.1579 364.288L41.3759 362.57C41.4957 361.625 41.2316 360.491 40.7888 360.05C40.1355 359.399 40.3088 359.146 41.7076 358.707C44.7576 357.748 68.7094 350.838 68.9809 350.838C69.1252 350.838 69.3012 352.537 69.373 354.614ZM105.578 360.5C105.888 360.924 106.674 361.434 107.326 361.632C107.977 361.83 108.511 362.369 108.511 362.829C108.511 364.03 106.414 364.777 104.618 364.217C102.863 363.669 102.534 361.43 104.055 360.386C104.802 359.874 105.142 359.899 105.578 360.5ZM40.3563 360.722C41.3075 361.507 40.7509 363.691 39.4538 364.265C37.6935 365.044 35.3916 364.081 35.3916 362.567C35.3916 361.767 35.8533 361.468 37.0842 361.468C38.0151 361.468 38.7767 361.216 38.7767 360.908C38.7767 360.271 39.6826 360.165 40.3563 360.722ZM75.2164 362.38C75.0959 362.881 74.3342 363.655 73.5238 364.099C72.1961 364.827 71.9084 364.789 70.6221 363.726C68.7393 362.17 69.3919 361.468 72.7175 361.468C74.8684 361.468 75.3897 361.658 75.2164 362.38ZM470.043 364.964C470.043 365.195 459.38 365.384 446.347 365.384C433.314 365.384 422.651 365.195 422.651 364.964C422.651 364.733 433.314 364.545 446.347 364.545C459.38 364.545 470.043 364.733 470.043 364.964Z" fill="#545454"/>
</svg>
