<svg width="32" height="32" viewBox="0 0 32 32" fill="none" xmlns="http://www.w3.org/2000/svg">
<path fill-rule="evenodd" clip-rule="evenodd" d="M3.2 16C3.20023 13.5367 3.91122 11.1258 5.24766 9.05661C6.5841 6.9874 8.48922 5.34775 10.7344 4.33442C12.9796 3.32109 15.4695 2.97713 17.9053 3.3438C20.3412 3.71047 22.6195 4.7722 24.4669 6.40159C26.3142 8.03098 27.6522 10.1588 28.3203 12.5298C28.9883 14.9007 28.9581 17.4141 28.2331 19.7683C27.5082 22.1225 26.1193 24.2175 24.2332 25.8019C22.3472 27.3863 20.044 28.3929 17.6 28.7008V19.2H20.8C21.2243 19.2 21.6313 19.0314 21.9314 18.7314C22.2314 18.4313 22.4 18.0243 22.4 17.6C22.4 17.1757 22.2314 16.7687 21.9314 16.4686C21.6313 16.1686 21.2243 16 20.8 16H17.6V12.8C17.6 12.3757 17.7686 11.9687 18.0686 11.6686C18.3687 11.3686 18.7757 11.2 19.2 11.2H20C20.4243 11.2 20.8313 11.0314 21.1314 10.7314C21.4314 10.4313 21.6 10.0243 21.6 9.6C21.6 9.17565 21.4314 8.76869 21.1314 8.46863C20.8313 8.16857 20.4243 8 20 8H19.2C17.927 8 16.7061 8.50571 15.8059 9.40589C14.9057 10.3061 14.4 11.527 14.4 12.8V16H11.2C10.7757 16 10.3687 16.1686 10.0686 16.4686C9.76857 16.7687 9.6 17.1757 9.6 17.6C9.6 18.0243 9.76857 18.4313 10.0686 18.7314C10.3687 19.0314 10.7757 19.2 11.2 19.2H14.4V28.7008C11.3066 28.3111 8.46178 26.8057 6.39961 24.4672C4.33744 22.1287 3.19971 19.1179 3.2 16ZM16 32C24.8368 32 32 24.8368 32 16C32 7.1632 24.8368 0 16 0C7.1632 0 0 7.1632 0 16C0 24.8368 7.1632 32 16 32Z" fill="#F7F7F7"/>
</svg>
