<svg width="342" height="316" viewBox="0 0 342 316" fill="none" xmlns="http://www.w3.org/2000/svg">
<g filter="url(#filter0_f_2004_6811)">
<path d="M157.341 117.677L162.391 122.753L164.418 116.463L181.186 64.4309L186.696 117.868L187.431 124.996L193.526 120.781L241.14 87.8578L210.258 133.382L206.066 139.562L214.242 139.289L274.477 137.275L218.798 158.242L211.67 160.926L218.431 164.91L269.119 194.777L209.155 182.778L201.905 181.327L204.551 187.658L225.862 238.658L185.18 197.764L180.13 192.688L178.103 198.979L161.335 251.01L155.825 197.574L155.09 190.446L148.995 194.66L101.381 227.583L132.263 182.059L136.455 175.879L128.279 176.153L68.044 178.166L123.723 157.199L130.851 154.515L124.09 150.531L73.4023 120.665L133.366 132.663L140.616 134.114L137.97 127.783L116.659 76.7828L157.341 117.677Z" stroke="#958060" stroke-width="8"/>
</g>
<defs>
<filter id="filter0_f_2004_6811" x="0.737305" y="0.164455" width="341.046" height="315.112" filterUnits="userSpaceOnUse" color-interpolation-filters="sRGB">
<feFlood flood-opacity="0" result="BackgroundImageFix"/>
<feBlend mode="normal" in="SourceGraphic" in2="BackgroundImageFix" result="shape"/>
<feGaussianBlur stdDeviation="22" result="effect1_foregroundBlur_2004_6811"/>
</filter>
</defs>
</svg>
