<svg width="20" height="20" viewBox="0 0 20 20" fill='none' stroke-width="1.66667" stroke="#958060" xmlns="http://www.w3.org/2000/svg">
<path d="M7.49998 12.5H16.6666M7.49998 9.16667H10.8333M7.49998 5.83333H10.8333M2.91665 17.5C3.46918 17.5 3.99908 17.2805 4.38979 16.8898C4.78049 16.4991 4.99998 15.9692 4.99998 15.4167V2.5H19.1666V15.4167C19.1666 15.9692 18.9472 16.4991 18.5565 16.8898C18.1657 17.2805 17.6358 17.5 17.0833 17.5H2.91665ZM2.91665 17.5C2.36411 17.5 1.83421 17.2805 1.44351 16.8898C1.05281 16.4991 0.833313 15.9692 0.833313 15.4167V5.83333H5.02081M13.3333 5.83333H15.8333V9.16667H13.3333V5.83333Z" />
</svg>
