<svg width="21" height="21" viewBox="0 0 21 21" fill="none" xmlns="http://www.w3.org/2000/svg">
<path d="M10.5 20C15.7467 20 20 15.7467 20 10.5C20 5.25329 15.7467 1 10.5 1C5.25329 1 1 5.25329 1 10.5C1 15.7467 5.25329 20 10.5 20Z" stroke="#F7F7F7" stroke-width="1.1875" stroke-linecap="round" stroke-linejoin="round"/>
<path d="M13.6665 8.38919V8.1253C13.6665 7.63538 13.4718 7.16554 13.1254 6.81911C12.779 6.47269 12.3092 6.27808 11.8192 6.27808H9.44424C8.88434 6.27808 8.34737 6.5005 7.95146 6.89641C7.55555 7.29232 7.33313 7.82929 7.33313 8.38919V12.6114C7.33313 13.1713 7.55555 13.7083 7.95146 14.1042C8.34737 14.5001 8.88434 14.7225 9.44424 14.7225H11.8192C12.3092 14.7225 12.779 14.5279 13.1254 14.1815C13.4718 13.8351 13.6665 13.3652 13.6665 12.8753V12.6114" stroke="#F7F7F7" stroke-width="1.1875" stroke-linecap="round" stroke-linejoin="round"/>
</svg>
