<svg width="16" height="16" viewBox="0 0 16 16" fill="#958060" xmlns="http://www.w3.org/2000/svg">
<path fill-rule="evenodd" clip-rule="evenodd" d="M3 0.916667C3 0.80616 3.0439 0.700179 3.12204 0.622039C3.20018 0.543899 3.30616 0.5 3.41667 0.5H12.5833C12.6938 0.5 12.7998 0.543899 12.878 0.622039C12.9561 0.700179 13 0.80616 13 0.916667V1.33333H15.0833C15.1938 1.33333 15.2998 1.37723 15.378 1.45537C15.4561 1.53351 15.5 1.63949 15.5 1.75V4.25C15.5 4.80253 15.2805 5.33244 14.8898 5.72314C14.4991 6.11384 13.9692 6.33333 13.4167 6.33333H12.7154C12.4175 7.17373 11.9006 7.91935 11.2181 8.49318C10.5357 9.06701 9.7124 9.44824 8.83333 9.5975V12.1667H11.3333C11.4438 12.1667 11.5498 12.2106 11.628 12.2887C11.7061 12.3668 11.75 12.4728 11.75 12.5833V15.0833C11.75 15.1938 11.7061 15.2998 11.628 15.378C11.5498 15.4561 11.4438 15.5 11.3333 15.5H4.66667C4.55616 15.5 4.45018 15.4561 4.37204 15.378C4.2939 15.2998 4.25 15.1938 4.25 15.0833V12.5833C4.25 12.4728 4.2939 12.3668 4.37204 12.2887C4.45018 12.2106 4.55616 12.1667 4.66667 12.1667H7.16667V9.5975C6.2876 9.44824 5.46433 9.06701 4.78187 8.49318C4.09941 7.91935 3.58252 7.17373 3.28458 6.33333H2.58333C2.0308 6.33333 1.5009 6.11384 1.11019 5.72314C0.719493 5.33244 0.5 4.80253 0.5 4.25V1.75C0.5 1.63949 0.543899 1.53351 0.622039 1.45537C0.700179 1.37723 0.80616 1.33333 0.916667 1.33333H3V0.916667ZM13 4.66667V2.16667H14.6667V4.25C14.6667 4.58152 14.535 4.89946 14.3005 5.13388C14.0661 5.3683 13.7482 5.5 13.4167 5.5H13V4.66667ZM3 2.16667H1.33333V4.25C1.33333 4.58152 1.46503 4.89946 1.69945 5.13388C1.93387 5.3683 2.25181 5.5 2.58333 5.5H3V2.16667Z" />
</svg>
