<svg width="20" height="20" viewBox="0 0 20 20" fill="#958060" xmlns="http://www.w3.org/2000/svg">
<path fill-rule="evenodd" clip-rule="evenodd" d="M10 2.44751L18.125 5.83376V11.875H16.875V7.26126L16.25 7.57376V14.8225L15.8275 14.9663L15.8238 14.9675L15.815 14.97L15.7825 14.9825L15.66 15.0225C15.0164 15.2332 14.3675 15.427 13.7137 15.6038C12.5537 15.9163 11.0763 16.25 10.0013 16.25C8.92625 16.25 7.44625 15.915 6.2875 15.6038C5.59185 15.4155 4.90158 15.208 4.2175 14.9813L4.185 14.97L4.17625 14.9675H4.175L4.375 14.375L4.175 14.9663L3.75 14.8213V7.57501L1 6.20001L10 2.44751ZM5 8.20001V13.9238C5.53376 14.0945 6.0714 14.2529 6.6125 14.3988C7.77375 14.7113 9.1075 15.0013 10 15.0013C10.8925 15.0013 12.2262 14.7113 13.3875 14.3975C13.9285 14.2512 14.4661 14.0929 15 13.9225V8.20001L10 10.7L5 8.20001Z" />
</svg>
