<svg width="20" height="20" viewBox="0 0 20 20" fill="#958060" xmlns="http://www.w3.org/2000/svg">
<path d="M13.3615 11.5757C13.3615 12.1882 13.5357 12.4325 13.9915 12.4325C15.0072 12.4325 15.654 11.1382 15.654 8.98573C15.654 5.69573 13.2565 4.12073 10.2632 4.12073C7.18396 4.12073 4.38323 6.18573 4.38323 10.0882C4.38323 13.8157 6.83323 15.8457 10.5957 15.8457C11.8732 15.8457 12.7307 15.7057 14.0425 15.2682L14.324 16.44C13.029 16.8607 11.645 16.9825 10.5782 16.9825C5.64323 16.9825 3 14.27 3 10.0875C3 5.87 6.06323 3 10.2807 3C14.6732 3 17 5.625 17 8.845C17 11.575 16.1432 13.6575 13.4482 13.6575C12.2225 13.6575 11.4182 13.1675 11.3132 12.0818C10.9982 13.2893 10.1582 13.6575 9.02 13.6575C7.4975 13.6575 6.22 12.4843 6.22 10.1225C6.22 7.7425 7.34073 6.2725 9.35323 6.2725C10.4207 6.2725 11.0857 6.6925 11.3818 7.3575L11.89 6.43H13.36V11.5757H13.3615ZM11.2097 9.26573C11.2097 8.30396 10.4915 7.90073 9.89646 7.90073C9.24896 7.90073 8.53219 8.425 8.53219 9.96573C8.53219 11.1907 9.07469 11.8732 9.89646 11.8732C10.474 11.8732 11.2097 11.5057 11.2097 10.4907V9.26573Z" />
</svg>
