<svg width="32" height="32" viewBox="0 0 32 32" fill="none" xmlns="http://www.w3.org/2000/svg">
<path fill-rule="evenodd" clip-rule="evenodd" d="M18.1147 2.66675C18.7408 2.6669 19.3468 2.88733 19.8267 3.28941L20 3.44808L25.8854 9.33342C26.3281 9.77611 26.6009 10.3605 26.656 10.9841L26.6667 11.2187V16.0001H24V13.3334H18C17.5029 13.3334 17.0235 13.1482 16.6555 12.8139C16.2874 12.4797 16.0571 12.0203 16.0094 11.5254L16 11.3334V5.33341H8.00004V26.6667H16V29.3334H8.00004C7.32727 29.3336 6.67929 29.0795 6.18598 28.6221C5.69267 28.1646 5.3905 27.5376 5.34004 26.8667L5.33337 26.6667V5.33341C5.33316 4.66065 5.58725 4.01266 6.0447 3.51935C6.50216 3.02604 7.12917 2.72387 7.80004 2.67341L8.00004 2.66675H18.1147ZM24.9427 19.2867L28.7134 23.0574C28.9633 23.3075 29.1038 23.6465 29.1038 24.0001C29.1038 24.3536 28.9633 24.6927 28.7134 24.9427L24.9427 28.7134C24.8197 28.8408 24.6726 28.9423 24.5099 29.0122C24.3472 29.0821 24.1723 29.1189 23.9952 29.1204C23.8182 29.122 23.6426 29.0882 23.4788 29.0212C23.3149 28.9541 23.166 28.8551 23.0408 28.7299C22.9157 28.6048 22.8167 28.4559 22.7496 28.292C22.6826 28.1282 22.6488 27.9526 22.6504 27.7755C22.6519 27.5985 22.6887 27.4235 22.7586 27.2609C22.8285 27.0982 22.93 26.9511 23.0574 26.8281L24.552 25.3334H18.6667C18.3131 25.3334 17.9739 25.1929 17.7239 24.9429C17.4739 24.6928 17.3334 24.3537 17.3334 24.0001C17.3334 23.6465 17.4739 23.3073 17.7239 23.0573C17.9739 22.8072 18.3131 22.6667 18.6667 22.6667H24.552L23.0574 21.1721C22.8072 20.9221 22.6666 20.5829 22.6664 20.2292C22.6663 19.8755 22.8067 19.5363 23.0567 19.2861C23.3067 19.0359 23.6459 18.8953 23.9996 18.8951C24.3533 18.895 24.6925 19.0354 24.9427 19.2854V19.2867ZM18.6667 5.88541V10.6667H23.448L18.6667 5.88541Z" fill="#F7F7F7"/>
</svg>
