<svg width="20" height="10" viewBox="0 0 20 10" fill="#958060" xmlns="http://www.w3.org/2000/svg">
<path fill-rule="evenodd" clip-rule="evenodd" d="M4.99992 2.50004C4.33688 2.50004 3.70099 2.76343 3.23215 3.23227C2.76331 3.70111 2.49992 4.337 2.49992 5.00004C2.49992 5.66308 2.76331 6.29897 3.23215 6.76781C3.70099 7.23665 4.33688 7.50004 4.99992 7.50004H7.49992C7.72093 7.50004 7.93289 7.58784 8.08917 7.74412C8.24545 7.9004 8.33325 8.11236 8.33325 8.33337C8.33325 8.55439 8.24545 8.76635 8.08917 8.92263C7.93289 9.07891 7.72093 9.16671 7.49992 9.16671H4.99992C3.89485 9.16671 2.83504 8.72772 2.05364 7.94632C1.27224 7.16492 0.833252 6.10511 0.833252 5.00004C0.833252 3.89497 1.27224 2.83516 2.05364 2.05376C2.83504 1.27236 3.89485 0.833374 4.99992 0.833374H7.49992C7.72093 0.833374 7.93289 0.921172 8.08917 1.07745C8.24545 1.23373 8.33325 1.44569 8.33325 1.66671C8.33325 1.88772 8.24545 2.09968 8.08917 2.25596C7.93289 2.41224 7.72093 2.50004 7.49992 2.50004H4.99992ZM5.83325 5.00004C5.83325 4.77903 5.92105 4.56707 6.07733 4.41079C6.23361 4.2545 6.44557 4.16671 6.66658 4.16671H13.3333C13.5543 4.16671 13.7662 4.2545 13.9225 4.41079C14.0788 4.56707 14.1666 4.77903 14.1666 5.00004C14.1666 5.22105 14.0788 5.43302 13.9225 5.5893C13.7662 5.74558 13.5543 5.83337 13.3333 5.83337H6.66658C6.44557 5.83337 6.23361 5.74558 6.07733 5.5893C5.92105 5.43302 5.83325 5.22105 5.83325 5.00004ZM12.4999 0.833374C12.2789 0.833374 12.0669 0.921172 11.9107 1.07745C11.7544 1.23373 11.6666 1.44569 11.6666 1.66671C11.6666 1.88772 11.7544 2.09968 11.9107 2.25596C12.0669 2.41224 12.2789 2.50004 12.4999 2.50004H14.9999C15.663 2.50004 16.2988 2.76343 16.7677 3.23227C17.2365 3.70111 17.4999 4.337 17.4999 5.00004C17.4999 5.66308 17.2365 6.29897 16.7677 6.76781C16.2988 7.23665 15.663 7.50004 14.9999 7.50004H12.4999C12.2789 7.50004 12.0669 7.58784 11.9107 7.74412C11.7544 7.9004 11.6666 8.11236 11.6666 8.33337C11.6666 8.55439 11.7544 8.76635 11.9107 8.92263C12.0669 9.07891 12.2789 9.16671 12.4999 9.16671H14.9999C16.105 9.16671 17.1648 8.72772 17.9462 7.94632C18.7276 7.16492 19.1666 6.10511 19.1666 5.00004C19.1666 3.89497 18.7276 2.83516 17.9462 2.05376C17.1648 1.27236 16.105 0.833374 14.9999 0.833374H12.4999Z" />
</svg>
