<svg width="20" height="20" viewBox="0 0 20 20" fill="#958060" xmlns="http://www.w3.org/2000/svg">
<path d="M12.9282 3.51325L11.6033 4.83813L15.1619 8.39669L16.4867 7.07181C17.1711 6.38747 17.1711 5.27885 16.4867 4.59451L15.4082 3.51325C14.7239 2.82892 13.6153 2.82892 12.9309 3.51325H12.9282ZM10.9847 5.45677L4.6039 11.8403C4.31921 12.125 4.11118 12.4781 3.99621 12.864L3.02718 16.1571C2.95875 16.3898 3.02171 16.6389 3.19142 16.8086C3.36114 16.9783 3.61024 17.0413 3.84018 16.9756L7.13321 16.0065C7.51918 15.8916 7.8723 15.6835 8.15698 15.3988L14.5432 9.01533L10.9847 5.45677Z" />
</svg>
