<svg width="20" height="20" viewBox="0 0 20 20" fill="#958060" xmlns="http://www.w3.org/2000/svg">
<path d="M7.08333 9.16667V7.08333H12.9167V9.16667H7.08333ZM14.7917 17.5C15.51 17.5 16.1988 17.2147 16.7067 16.7067C17.2147 16.1988 17.5 15.51 17.5 14.7917V5.20833C17.5 4.49004 17.2147 3.80116 16.7067 3.29325C16.1988 2.78534 15.51 2.5 14.7917 2.5H5.20833C4.49004 2.5 3.80116 2.78534 3.29325 3.29325C2.78534 3.80116 2.5 4.49004 2.5 5.20833V14.7917C2.5 15.51 2.78534 16.1988 3.29325 16.7067C3.80116 17.2147 4.49004 17.5 5.20833 17.5H14.7917ZM6.45833 5.83333H13.5417C13.7074 5.83333 13.8664 5.89918 13.9836 6.01639C14.1008 6.1336 14.1667 6.29257 14.1667 6.45833V9.79167C14.1667 9.95743 14.1008 10.1164 13.9836 10.2336C13.8664 10.3508 13.7074 10.4167 13.5417 10.4167H6.45833C6.29257 10.4167 6.1336 10.3508 6.01639 10.2336C5.89918 10.1164 5.83333 9.95743 5.83333 9.79167V6.45833C5.83333 6.29257 5.89918 6.1336 6.01639 6.01639C6.1336 5.89918 6.29257 5.83333 6.45833 5.83333Z" />
</svg>
