<svg width="20" height="20" viewBox="0 0 20 20" fill="#958060" xmlns="http://www.w3.org/2000/svg">
<path d="M4.65234 0.976562V0.980469C3.67578 1.10547 2.8125 2.23047 2.8125 3.66797C2.8125 4.46484 3.08984 5.16797 3.49609 5.65625L3.89453 6.13281L3.28125 6.24609C2.74609 6.34766 2.35156 6.63281 2.02344 7.08594C1.69141 7.53516 1.44141 8.16016 1.26563 8.875C0.945313 10.1875 0.878906 11.793 0.871094 13.1914H2.58984L3.05469 19.3789H6.81641L7.22656 13.1914H8.86328C8.86328 11.7773 8.85156 10.1523 8.55859 8.82812C8.40234 8.10547 8.16016 7.48438 7.82812 7.03516C7.49219 6.58984 7.07812 6.30469 6.48047 6.21484L5.85547 6.11719L6.25 5.625C6.64062 5.13672 6.90234 4.44531 6.90234 3.66797C6.90234 2.13672 5.93359 0.980469 4.85547 0.980469C4.74219 0.980469 4.67188 0.976562 4.65234 0.976562ZM17.1875 1.28906C16.5156 1.28906 15.9766 1.82695 15.9766 2.5C15.9766 3.17305 16.5156 3.71094 17.1875 3.71094C17.8594 3.71094 18.3984 3.17305 18.3984 2.5C18.3984 1.82695 17.8594 1.28906 17.1875 1.28906ZM12.1484 2.14844V4.02344H8.125V4.72656H12.1484V10.8984H10V11.6016H12.1484V15.8984H8.125V16.6016H12.1484V17.8516H15.3047C15.2852 17.7383 15.2734 17.6211 15.2734 17.5C15.2734 17.3789 15.2852 17.2617 15.3047 17.1484H12.8516V11.6016H15.3047C15.2852 11.4883 15.2734 11.3711 15.2734 11.25C15.2734 11.1289 15.2852 11.0117 15.3047 10.8984H12.8516V2.85156H15.3047C15.2852 2.7375 15.2734 2.61992 15.2734 2.5C15.2734 2.38008 15.2852 2.2625 15.3047 2.14844H12.1484ZM17.1875 10.0391C16.5156 10.0391 15.9766 10.5781 15.9766 11.25C15.9766 11.9219 16.5156 12.4609 17.1875 12.4609C17.8594 12.4609 18.3984 11.9219 18.3984 11.25C18.3984 10.5781 17.8594 10.0391 17.1875 10.0391ZM17.1875 16.2891C16.5156 16.2891 15.9766 16.8281 15.9766 17.5C15.9766 18.1719 16.5156 18.7109 17.1875 18.7109C17.8594 18.7109 18.3984 18.1719 18.3984 17.5C18.3984 16.8281 17.8594 16.2891 17.1875 16.2891Z" />
</svg>
