<svg width="20" height="20" viewBox="0 0 20 20" fill="#958060" xmlns="http://www.w3.org/2000/svg">
<path d="M11.2583 18.0592C11.3683 18.0903 11.5025 18.105 11.6608 18.1033C11.8197 18.1017 11.9525 18.0839 12.0592 18.05L17.5 16.25C17.5 15.8633 17.368 15.5478 17.1042 15.3033C16.8403 15.0583 16.5128 14.9358 16.1217 14.9358H11.8233C11.5467 14.9358 11.2633 14.9192 10.9733 14.8858C10.6822 14.8519 10.4108 14.7908 10.1592 14.7025L8.84915 14.2642C8.75971 14.2331 8.69415 14.1744 8.65249 14.0883C8.61082 14.0022 8.60388 13.9139 8.63165 13.8233C8.65943 13.7478 8.71554 13.6903 8.79999 13.6508C8.88443 13.6108 8.97138 13.6064 9.06082 13.6375L10.255 14.0558C10.4817 14.1369 10.7297 14.1972 10.9992 14.2367C11.2692 14.2756 11.5617 14.295 11.8767 14.295H12.8783C13.0355 14.295 13.1614 14.25 13.2558 14.16C13.3503 14.07 13.3975 13.9433 13.3975 13.78C13.3975 13.5644 13.3117 13.3397 13.14 13.1058C12.9689 12.8719 12.77 12.7147 12.5433 12.6342L7.52582 10.7933C7.44971 10.7656 7.37388 10.7439 7.29832 10.7283C7.22221 10.7128 7.1411 10.705 7.05499 10.705H5.32082V16.3192L11.2583 18.0592ZM1.98749 16.6025C1.98749 16.8581 2.07304 17.0714 2.24415 17.2425C2.41582 17.4142 2.62943 17.5 2.88499 17.5H3.58999C3.84554 17.5 4.05888 17.4142 4.22999 17.2425C4.40165 17.0714 4.48749 16.8581 4.48749 16.6025V11.6025C4.48749 11.3469 4.40165 11.1336 4.22999 10.9625C4.05832 10.7908 3.84499 10.705 3.58999 10.705H2.88499C2.62943 10.705 2.41582 10.7908 2.24415 10.9625C2.07304 11.1342 1.98749 11.3475 1.98749 11.6025V16.6025ZM13.0767 9.79833C12.9111 9.79833 12.7492 9.76806 12.5908 9.7075C12.4319 9.6475 12.2853 9.55694 12.1508 9.43583L9.93915 7.31417C9.57249 6.96139 9.26665 6.56639 9.02165 6.12917C8.77665 5.69139 8.65415 5.21667 8.65415 4.705C8.65415 4.09056 8.86804 3.56944 9.29582 3.14167C9.7236 2.71389 10.2444 2.5 10.8583 2.5C11.3133 2.5 11.7272 2.62306 12.1 2.86917C12.4728 3.11528 12.798 3.41417 13.0758 3.76583C13.3536 3.41417 13.6792 3.11528 14.0525 2.86917C14.4247 2.62306 14.8386 2.5 15.2942 2.5C15.9086 2.5 16.4297 2.71389 16.8575 3.14167C17.2853 3.56944 17.4994 4.09056 17.5 4.705C17.5 5.21667 17.3783 5.69139 17.135 6.12917C16.8917 6.56694 16.5864 6.96194 16.2192 7.31417L14.0025 9.43583C13.8686 9.55694 13.7222 9.6475 13.5633 9.7075C13.4044 9.7675 13.2422 9.79778 13.0767 9.79833Z" />
</svg>
