<svg width="190" height="98" viewBox="0 0 190 98" fill="none" xmlns="http://www.w3.org/2000/svg">
<g clip-path="url(#clip0_2004_6889)">
<mask id="mask0_2004_6889" style="mask-type:luminance" maskUnits="userSpaceOnUse" x="0" y="0" width="190" height="98">
<path d="M190 0H0V98H190V0Z" fill="white"/>
</mask>
<g mask="url(#mask0_2004_6889)">
<path d="M55.6434 17.1786V50.6712C55.6434 50.6712 56.5535 67.242 40.6903 67.242C24.8272 67.242 25.4774 50.6712 25.4774 50.6712" stroke="#604B2B" stroke-width="6.53707"/>
<path d="M78.9369 53.4174C78.9369 53.4174 78.9369 46.7914 70.825 46.7914C62.7131 46.7914 61.1738 56.1987 61.1738 57.0986C61.1738 61.1069 64.4193 65.8515 70.825 65.8515C77.2306 65.8515 82.2631 69.2872 82.2631 75.0952C82.2631 78.3673 80.8886 84.0936 70.825 84.0936C60.7613 84.0936 61.1738 76.8131 61.1738 76.8131" stroke="#C8B18D" stroke-width="3.59539"/>
<path d="M74.1503 47.773C72.6089 47.6094 70.8249 47.6094 70.8249 47.6094C60.6874 47.6094 61.1736 56.1987 61.1736 57.9166C61.1736 59.6344 61.9001 62.4975 65.1451 64.379" stroke="#C8B18D" stroke-width="6.53707"/>
<path d="M43.6464 73.5409C60.8069 73.5409 74.7182 59.5137 74.7182 42.2103C74.7182 24.9069 60.8069 10.8798 43.6464 10.8798C26.486 10.8798 12.5747 24.9069 12.5747 42.2103C12.5747 59.5137 26.486 73.5409 43.6464 73.5409Z" stroke="#545454" stroke-width="2.4514"/>
<path d="M23.0345 66.5626L25.4549 68.4879L7.38249 96.2003L0.648926 90.3923L23.0345 66.5626Z" fill="#545454"/>
<path d="M98.3935 39.4047C98.3935 41.5311 97.9428 43.1817 97.0414 44.3564C96.1486 45.5224 94.7795 46.1055 92.9341 46.1055C91.4545 46.1055 90.213 45.7155 89.2096 44.9351C88.2062 44.1463 87.5046 42.9717 87.105 41.411L88.6229 40.8323C88.9884 42.2214 89.5328 43.1989 90.2555 43.7647C90.9783 44.3221 91.8712 44.6007 92.9341 44.6007C93.7165 44.6007 94.35 44.4421 94.8346 44.1249C95.3279 43.8077 95.702 43.4046 95.9571 42.9159C96.2208 42.4185 96.3994 41.8655 96.4929 41.2567C96.5865 40.6393 96.6332 40.022 96.6332 39.4047V29.0254H98.3935V39.4047ZM113.585 39.8548C113.585 40.7895 113.436 41.6383 113.139 42.4013C112.85 43.1646 112.429 43.8204 111.876 44.3692C111.332 44.9094 110.677 45.3338 109.911 45.6425C109.146 45.9513 108.292 46.1055 107.348 46.1055C106.421 46.1055 105.575 45.9513 104.809 45.6425C104.044 45.3338 103.385 44.9094 102.832 44.3692C102.288 43.8204 101.867 43.1646 101.569 42.4013C101.28 41.6383 101.136 40.7895 101.136 39.8548C101.136 38.946 101.28 38.1013 101.569 37.321C101.867 36.5323 102.288 35.8635 102.832 35.3147C103.385 34.7573 104.044 34.3243 104.809 34.0157C105.575 33.6983 106.421 33.5398 107.348 33.5398C108.292 33.5398 109.146 33.6983 109.911 34.0157C110.677 34.3243 111.332 34.7573 111.876 35.3147C112.429 35.8635 112.85 36.5323 113.139 37.321C113.436 38.1013 113.585 38.946 113.585 39.8548ZM111.838 39.8548C111.838 39.1688 111.736 38.5386 111.531 37.9642C111.336 37.3811 111.043 36.871 110.651 36.4336C110.26 35.9963 109.784 35.6534 109.223 35.4047C108.67 35.156 108.045 35.0317 107.348 35.0317C106.65 35.0317 106.021 35.156 105.46 35.4047C104.907 35.6534 104.439 35.9963 104.057 36.4336C103.674 36.871 103.381 37.3811 103.177 37.9642C102.981 38.5386 102.883 39.1688 102.883 39.8548C102.883 40.5408 102.981 41.1753 103.177 41.7584C103.381 42.3328 103.674 42.8301 104.057 43.2503C104.439 43.6704 104.907 44.0006 105.46 44.2406C106.021 44.4808 106.65 44.6007 107.348 44.6007C108.045 44.6007 108.67 44.4808 109.223 44.2406C109.784 44.0006 110.26 43.6704 110.651 43.2503C111.043 42.8301 111.336 42.3328 111.531 41.7584C111.736 41.1753 111.838 40.5408 111.838 39.8548ZM127.539 39.8291C127.539 40.7466 127.399 41.5912 127.119 42.3629C126.838 43.1344 126.434 43.799 125.907 44.3564C125.388 44.9052 124.759 45.3338 124.019 45.6425C123.279 45.9513 122.45 46.1055 121.532 46.1055C120.885 46.1055 120.265 45.9899 119.669 45.7584C119.083 45.5269 118.534 45.1838 118.024 44.7293V45.8097H116.276V29.0254H118.024V34.9288C118.534 34.4915 119.083 34.1528 119.669 33.9128C120.265 33.6641 120.885 33.5398 121.532 33.5398C122.45 33.5398 123.279 33.6983 124.019 34.0157C124.759 34.3243 125.388 34.7573 125.907 35.3147C126.434 35.8635 126.838 36.5279 127.119 37.3083C127.399 38.0798 127.539 38.9201 127.539 39.8291ZM125.766 39.8291C125.766 39.1431 125.677 38.5129 125.499 37.9385C125.329 37.3554 125.065 36.8495 124.708 36.4207C124.351 35.9921 123.904 35.6534 123.368 35.4047C122.841 35.156 122.229 35.0317 121.532 35.0317C120.188 35.0317 119.019 35.5677 118.024 36.6395V43.0445C118.534 43.6019 119.078 44.0006 119.657 44.2406C120.243 44.4808 120.868 44.6007 121.532 44.6007C122.229 44.6007 122.837 44.4763 123.356 44.2278C123.883 43.9791 124.325 43.6405 124.682 43.2117C125.039 42.783 125.307 42.2814 125.486 41.7068C125.673 41.1239 125.766 40.4979 125.766 39.8291ZM98.5975 67.7773C98.5975 68.4805 98.4529 69.1192 98.1638 69.6938C97.8748 70.2597 97.4878 70.7484 97.0032 71.16C96.5183 71.5715 95.9615 71.8889 95.3321 72.1117C94.7029 72.3347 94.0482 72.4461 93.3678 72.4461C92.4324 72.4461 91.5736 72.2704 90.7912 71.9188C90.0089 71.5672 89.3882 71.0484 88.9289 70.3626V72.1503H87.4493V67.0443H88.9289C88.9289 67.6187 89.0608 68.146 89.3243 68.6262C89.588 69.0977 89.9238 69.5051 90.3321 69.848C90.7403 70.1911 91.2079 70.4611 91.7351 70.6584C92.2708 70.847 92.815 70.9412 93.3678 70.9412C93.8611 70.9412 94.3159 70.8727 94.7327 70.7356C95.1494 70.5898 95.515 70.3883 95.8296 70.1311C96.1442 69.8652 96.3908 69.5437 96.5694 69.1665C96.7565 68.7892 96.85 68.3604 96.85 67.8802C96.85 67.3401 96.7311 66.8771 96.4929 66.4912C96.2633 66.1054 95.9487 65.7752 95.549 65.5009C95.1578 65.2265 94.7157 64.995 94.2224 64.8064C93.7292 64.609 93.2275 64.4162 92.7174 64.2275C92.1136 64.0132 91.5099 63.7902 90.9061 63.5587C90.3024 63.3187 89.7624 63.0186 89.2862 62.6584C88.81 62.2983 88.423 61.861 88.1254 61.3466C87.8278 60.8235 87.6789 60.1761 87.6789 59.4044C87.6789 58.7186 87.8234 58.1098 88.1126 57.5781C88.4017 57.0378 88.7801 56.5835 89.2479 56.2147C89.7155 55.8461 90.2597 55.5674 90.8805 55.3787C91.5013 55.1816 92.1391 55.0829 92.7938 55.0829C93.6017 55.0829 94.3457 55.2501 95.0261 55.5845C95.7149 55.9189 96.2505 56.4291 96.6332 57.1151V55.366H98.1766V60.1632H96.6332C96.6332 59.6573 96.5269 59.1858 96.3144 58.7485C96.1103 58.3027 95.8296 57.9254 95.4724 57.6167C95.1153 57.2995 94.7071 57.0508 94.2479 56.8706C93.7887 56.682 93.3041 56.5878 92.7938 56.5878C92.3432 56.5878 91.9137 56.6391 91.5055 56.7421C91.0974 56.845 90.7403 57.0122 90.4341 57.2437C90.1279 57.4667 89.8813 57.7582 89.6942 58.1183C89.5158 58.4784 89.4264 58.9072 89.4264 59.4044C89.4264 59.8417 89.5328 60.2147 89.7453 60.5235C89.9663 60.832 90.2597 61.1064 90.6254 61.3466C90.9911 61.5781 91.412 61.7924 91.8882 61.9897C92.3729 62.1783 92.8662 62.3712 93.3678 62.5684C93.9971 62.7914 94.6221 63.0401 95.2429 63.3144C95.8636 63.5888 96.4207 63.919 96.9138 64.3047C97.407 64.6905 97.811 65.1665 98.1256 65.7324C98.4402 66.2898 98.5975 66.9714 98.5975 67.7773ZM103.138 66.7742C103.266 68.0431 103.725 69.0549 104.516 69.8094C105.307 70.564 106.336 70.9412 107.603 70.9412C108.496 70.9412 109.291 70.757 109.988 70.3883C110.685 70.0195 111.208 69.5609 111.557 69.012L112.781 69.861C112.186 70.7012 111.476 71.3444 110.651 71.7902C109.826 72.2275 108.81 72.4461 107.603 72.4461C106.684 72.4461 105.843 72.2918 105.077 71.9831C104.312 71.6744 103.649 71.2457 103.087 70.697C102.535 70.1396 102.105 69.4794 101.799 68.7162C101.493 67.9532 101.34 67.1042 101.34 66.1697C101.34 65.2607 101.476 64.4248 101.748 63.6616C102.029 62.8899 102.428 62.2255 102.947 61.6681C103.474 61.1021 104.112 60.6648 104.86 60.3563C105.609 60.0389 106.446 59.8803 107.373 59.8803C108.385 59.8803 109.269 60.0518 110.026 60.3947C110.783 60.7378 111.412 61.2137 111.914 61.8225C112.424 62.4226 112.798 63.1428 113.037 63.9832C113.283 64.8235 113.406 65.7538 113.406 66.7742H103.138ZM111.557 65.2694C111.361 63.9574 110.889 62.98 110.141 62.3369C109.393 61.6937 108.47 61.3723 107.373 61.3723C106.812 61.3723 106.293 61.4667 105.817 61.6553C105.341 61.8353 104.92 62.0969 104.554 62.4398C104.189 62.7827 103.882 63.1986 103.636 63.6873C103.389 64.1675 103.232 64.6949 103.164 65.2694H111.557ZM117.399 66.7742C117.526 68.0431 117.986 69.0549 118.777 69.8094C119.567 70.564 120.596 70.9412 121.863 70.9412C122.756 70.9412 123.551 70.757 124.249 70.3883C124.946 70.0195 125.469 69.5609 125.817 69.012L127.042 69.861C126.447 70.7012 125.737 71.3444 124.912 71.7902C124.087 72.2275 123.071 72.4461 121.863 72.4461C120.945 72.4461 120.103 72.2918 119.338 71.9831C118.572 71.6744 117.909 71.2457 117.348 70.697C116.795 70.1396 116.366 69.4794 116.06 68.7162C115.753 67.9532 115.6 67.1042 115.6 66.1697C115.6 65.2607 115.736 64.4248 116.009 63.6616C116.289 62.8899 116.689 62.2255 117.208 61.6681C117.735 61.1021 118.373 60.6648 119.121 60.3563C119.869 60.0389 120.707 59.8803 121.634 59.8803C122.646 59.8803 123.53 60.0518 124.287 60.3947C125.044 60.7378 125.673 61.2137 126.175 61.8225C126.685 62.4226 127.059 63.1428 127.297 63.9832C127.544 64.8235 127.667 65.7538 127.667 66.7742H117.399ZM125.817 65.2694C125.622 63.9574 125.15 62.98 124.402 62.3369C123.653 61.6937 122.731 61.3723 121.634 61.3723C121.072 61.3723 120.554 61.4667 120.078 61.6553C119.601 61.8353 119.18 62.0969 118.815 62.4398C118.449 62.7827 118.143 63.1986 117.896 63.6873C117.65 64.1675 117.492 64.6949 117.424 65.2694H125.817ZM141.774 72.1503H139.287L134.427 66.7742L132.284 68.7548V72.1503H130.537V55.366H132.284V66.6198L139.058 60.1632H141.558L135.601 65.6681L141.774 72.1503ZM145.92 66.7742C146.047 68.0431 146.507 69.0549 147.297 69.8094C148.088 70.564 149.117 70.9412 150.384 70.9412C151.277 70.9412 152.072 70.757 152.77 70.3883C153.467 70.0195 153.99 69.5609 154.338 69.012L155.563 69.861C154.968 70.7012 154.258 71.3444 153.433 71.7902C152.608 72.2275 151.592 72.4461 150.384 72.4461C149.466 72.4461 148.624 72.2918 147.859 71.9831C147.093 71.6744 146.43 71.2457 145.869 70.697C145.316 70.1396 144.887 69.4794 144.581 68.7162C144.275 67.9532 144.121 67.1042 144.121 66.1697C144.121 65.2607 144.257 64.4248 144.53 63.6616C144.81 62.8899 145.21 62.2255 145.728 61.6681C146.256 61.1021 146.893 60.6648 147.642 60.3563C148.39 60.0389 149.228 59.8803 150.155 59.8803C151.167 59.8803 152.051 60.0518 152.808 60.3947C153.565 60.7378 154.194 61.2137 154.696 61.8225C155.206 62.4226 155.58 63.1428 155.818 63.9832C156.065 64.8235 156.188 65.7538 156.188 66.7742H145.92ZM154.338 65.2694C154.143 63.9574 153.671 62.98 152.923 62.3369C152.174 61.6937 151.252 61.3723 150.155 61.3723C149.593 61.3723 149.075 61.4667 148.598 61.6553C148.122 61.8353 147.701 62.0969 147.336 62.4398C146.97 62.7827 146.664 63.1986 146.417 63.6873C146.171 64.1675 146.013 64.6949 145.945 65.2694H154.338ZM169.671 61.8482C169.041 61.531 168.293 61.3723 167.425 61.3723C166.711 61.3723 166.073 61.5265 165.512 61.8353C164.951 62.144 164.475 62.5512 164.084 63.0571C163.692 63.5544 163.391 64.129 163.178 64.7807C162.974 65.4236 162.872 66.0882 162.872 66.7742V70.6455H165.563V72.1503H158.433V70.6455H161.124V61.6681H158.433V60.1632H162.872V63.1729C163.671 60.9778 165.189 59.8803 167.425 59.8803C168.029 59.8803 168.552 59.9189 168.994 59.996C169.445 60.0732 169.862 60.2105 170.244 60.4076L169.671 61.8482Z" fill="#545454"/>
<path d="M85.3457 9.65277V91.4558" stroke="#545454" stroke-width="0.980561"/>
</g>
</g>
<defs>
<clipPath id="clip0_2004_6889">
<rect width="190" height="98" fill="white"/>
</clipPath>
</defs>
</svg>
