<svg width="20" height="20" viewBox="0 0 20 20" fill="#958060" xmlns="http://www.w3.org/2000/svg">
<path  clip-rule="evenodd" d="M11.3217 1.66675C11.713 1.66684 12.0918 1.80461 12.3917 2.05591L12.5 2.15508L16.1784 5.83341C16.4551 6.1101 16.6256 6.47531 16.66 6.86508L16.6667 7.01175V10.0001H15V8.33341H11.25C10.9393 8.3334 10.6397 8.21765 10.4097 8.00873C10.1797 7.79982 10.0357 7.51271 10.0059 7.20341L10 7.08341V3.33341H5.00004V16.6667H10V18.3334H5.00004C4.57956 18.3335 4.17457 18.1747 3.86625 17.8888C3.55793 17.6029 3.36908 17.211 3.33754 16.7917L3.33337 16.6667V3.33341C3.33324 2.91293 3.49205 2.50794 3.77795 2.19962C4.06386 1.89131 4.45574 1.70245 4.87504 1.67091L5.00004 1.66675H11.3217ZM15.5892 12.0542L17.9459 14.4109C18.1021 14.5672 18.1899 14.7791 18.1899 15.0001C18.1899 15.2211 18.1021 15.433 17.9459 15.5892L15.5892 17.9459C15.5123 18.0255 15.4204 18.089 15.3187 18.1327C15.217 18.1763 15.1077 18.1993 14.997 18.2003C14.8864 18.2013 14.7767 18.1802 14.6742 18.1383C14.5718 18.0964 14.4788 18.0345 14.4005 17.9562C14.3223 17.878 14.2604 17.785 14.2185 17.6825C14.1766 17.5801 14.1555 17.4704 14.1565 17.3597C14.1575 17.2491 14.1804 17.1397 14.2241 17.0381C14.2678 16.9364 14.3313 16.8445 14.4109 16.7676L15.345 15.8334H11.6667C11.4457 15.8334 11.2337 15.7456 11.0775 15.5893C10.9212 15.4331 10.8334 15.2211 10.8334 15.0001C10.8334 14.7791 10.9212 14.5671 11.0775 14.4108C11.2337 14.2545 11.4457 14.1667 11.6667 14.1667H15.345L14.4109 13.2326C14.2545 13.0763 14.1666 12.8644 14.1665 12.6433C14.1665 12.4222 14.2542 12.2102 14.4105 12.0538C14.5667 11.8975 14.7787 11.8096 14.9997 11.8095C15.2208 11.8094 15.4328 11.8972 15.5892 12.0534V12.0542ZM11.6667 3.67841V6.66675H14.655L11.6667 3.67841Z"/>
</svg>
