<svg width="24" height="24" viewBox="0 0 24 24" fill="none" xmlns="http://www.w3.org/2000/svg">
<rect x="1" y="1" width="22" height="22" rx="11" stroke="#958060" stroke-width="2"/>
<path fill-rule="evenodd" clip-rule="evenodd" d="M6.87805 13.8536C7.11092 13.8536 7.33426 13.9461 7.49892 14.1108C7.66359 14.2755 7.7561 14.4988 7.7561 14.7317C7.7561 14.9646 7.66359 15.1879 7.49892 15.3526C7.33426 15.5172 7.11092 15.6097 6.87805 15.6097C6.64518 15.6097 6.42184 15.5172 6.25717 15.3526C6.09251 15.1879 6 14.9646 6 14.7317C6 14.4988 6.09251 14.2755 6.25717 14.1108C6.42184 13.9461 6.64518 13.8536 6.87805 13.8536ZM17.414 14.1463C17.7378 14.1463 18 14.4062 18 14.7317C18 15.0551 17.7395 15.317 17.414 15.317H9.2201C9.14313 15.3173 9.06688 15.3023 8.99573 15.273C8.92457 15.2436 8.85991 15.2005 8.80546 15.1461C8.75101 15.0918 8.70785 15.0271 8.67845 14.956C8.64905 14.8849 8.63399 14.8086 8.63415 14.7317C8.63415 14.4083 8.89463 14.1463 9.2201 14.1463H17.414ZM6.87805 10.9268C7.11092 10.9268 7.33426 11.0193 7.49892 11.184C7.66359 11.3486 7.7561 11.572 7.7561 11.8048C7.7561 12.0377 7.66359 12.2611 7.49892 12.4257C7.33426 12.5904 7.11092 12.6829 6.87805 12.6829C6.64518 12.6829 6.42184 12.5904 6.25717 12.4257C6.09251 12.2611 6 12.0377 6 11.8048C6 11.572 6.09251 11.3486 6.25717 11.184C6.42184 11.0193 6.64518 10.9268 6.87805 10.9268ZM17.414 11.2195C17.7378 11.2195 18 11.4794 18 11.8048C18 12.1283 17.7395 12.3902 17.414 12.3902H9.2201C9.14313 12.3904 9.06688 12.3755 8.99573 12.3461C8.92457 12.3168 8.85991 12.2737 8.80546 12.2193C8.75101 12.1649 8.70785 12.1003 8.67845 12.0292C8.64905 11.958 8.63399 11.8818 8.63415 11.8048C8.63415 11.4814 8.89463 11.2195 9.2201 11.2195H17.414ZM6.87805 7.99997C7.11092 7.99997 7.33426 8.09248 7.49892 8.25714C7.66359 8.42181 7.7561 8.64515 7.7561 8.87802C7.7561 9.11089 7.66359 9.33423 7.49892 9.49889C7.33426 9.66356 7.11092 9.75607 6.87805 9.75607C6.64518 9.75607 6.42184 9.66356 6.25717 9.49889C6.09251 9.33423 6 9.11089 6 8.87802C6 8.64515 6.09251 8.42181 6.25717 8.25714C6.42184 8.09248 6.64518 7.99997 6.87805 7.99997ZM17.414 8.29265C17.7378 8.29265 18 8.55255 18 8.87802C18 9.20143 17.7395 9.46338 17.414 9.46338H9.2201C9.14313 9.46362 9.06688 9.44864 8.99573 9.41931C8.92457 9.38998 8.85991 9.34688 8.80546 9.29249C8.75101 9.23809 8.70785 9.17347 8.67845 9.10235C8.64905 9.03122 8.63399 8.95498 8.63415 8.87802C8.63415 8.5546 8.89463 8.29265 9.2201 8.29265H17.414Z" fill="#958060"/>
</svg>
