<svg width="28" height="28" viewBox="0 0 28 28" fill="none" xmlns="http://www.w3.org/2000/svg">
<path d="M12.8333 11.6667H10.5V15.1667H7V17.5H10.5V21H12.8333V17.5H16.3333V15.1667H12.8333V11.6667Z" fill="#685843"/>
<path d="M4.66668 25.6667H18.6667C19.9535 25.6667 21 24.6202 21 23.3333V9.33333C21 8.0465 19.9535 7 18.6667 7H4.66668C3.37984 7 2.33334 8.0465 2.33334 9.33333V23.3333C2.33334 24.6202 3.37984 25.6667 4.66668 25.6667ZM4.66668 9.33333H18.6667L18.669 23.3333H4.66668V9.33333Z" fill="#685843"/>
<path d="M23.3333 2.33331H9.33334V4.66665H23.3333V18.6666H25.6667V4.66665C25.6667 3.37981 24.6202 2.33331 23.3333 2.33331Z" fill="#685843"/>
</svg>
