<svg width="28" height="28" viewBox="0 0 28 28" fill="none" xmlns="http://www.w3.org/2000/svg">
<path fill-rule="evenodd" clip-rule="evenodd" d="M7.9375 11.5V7.56253C7.9375 5.82205 8.6289 4.15285 9.85961 2.92214C11.0903 1.69143 12.7595 1.00003 14.5 1.00003C16.2405 1.00003 17.9097 1.69143 19.1404 2.92214C20.3711 4.15285 21.0625 5.82205 21.0625 7.56253C21.0625 8.28441 20.4719 8.87503 19.75 8.87503C19.0281 8.87503 18.4375 8.28441 18.4375 7.56253C18.4375 6.51824 18.0227 5.51672 17.2842 4.7783C16.5458 4.03987 15.5443 3.62503 14.5 3.62503C13.4557 3.62503 12.4542 4.03987 11.7158 4.7783C10.9773 5.51672 10.5625 6.51824 10.5625 7.56253V11.5H22.375C23.0712 11.5 23.7389 11.7766 24.2312 12.2689C24.7234 12.7612 25 13.4288 25 14.125V24.625C25 25.3212 24.7234 25.9889 24.2312 26.4812C23.7389 26.9735 23.0712 27.25 22.375 27.25H6.625C5.92881 27.25 5.26113 26.9735 4.76884 26.4812C4.27656 25.9889 4 25.3212 4 24.625V14.125C4 13.4288 4.27656 12.7612 4.76884 12.2689C5.26113 11.7766 5.92881 11.5 6.625 11.5H7.9375ZM6.625 14.125V24.625H22.375V14.125H6.625ZM17.125 16.75H19.75V22H17.125V16.75Z" fill="#685843"/>
</svg>
