<svg width="28" height="28" viewBox="0 0 28 28" fill="none" xmlns="http://www.w3.org/2000/svg">
<path d="M8.25003 11.1875H5.62503C4.92884 11.1875 4.26116 11.4641 3.76888 11.9563C3.27659 12.4486 3.00003 13.1163 3.00003 13.8125V23C3.00003 23.6962 3.27659 24.3639 3.76888 24.8562C4.26116 25.3484 4.92884 25.625 5.62503 25.625H21.375C22.0712 25.625 22.7389 25.3484 23.2312 24.8562C23.7235 24.3639 24 23.6962 24 23V13.8125C24 13.1163 23.7235 12.4486 23.2312 11.9563C22.7389 11.4641 22.0712 11.1875 21.375 11.1875H18.75M8.25003 11.1875V7.25C8.25003 5.85761 8.80315 4.52226 9.78772 3.53769C10.7723 2.55312 12.1076 2 13.5 2C14.8924 2 16.2278 2.55312 17.2123 3.53769C18.1969 4.52226 18.75 5.85761 18.75 7.25V11.1875M8.25003 11.1875H18.75M13.5 16.4375V20.375" stroke="#685843" stroke-width="2.33333" stroke-linecap="round" stroke-linejoin="round"/>
</svg>
